<svg width="454" height="79" viewBox="0 0 454 79" fill="none" xmlns="http://www.w3.org/2000/svg">
<path d="M0.6 10.904V23.672H10.968V10.904H0.6ZM10.968 77.336V30.2H0.6V77.336H10.968ZM40.4993 75.512C43.5713 77.336 47.2193 78.296 51.2513 78.296C63.5393 78.296 72.2753 69.176 72.2753 54.776C72.2753 39.416 63.5393 30.2 51.2513 30.2C47.2193 30.2 43.5713 31.16 40.4993 32.984V0.535997H30.1313V77.336H40.4993V75.512ZM51.2513 40.568C58.1633 40.568 61.9073 46.04 61.9073 54.776C61.9073 62.456 58.1633 67.928 51.2513 67.928C44.2433 67.928 40.4993 62.456 40.4993 54.776C40.4993 46.04 44.2433 40.568 51.2513 40.568ZM91.4438 54.776C91.4438 70.904 98.2598 78.296 110.644 78.296C122.932 78.296 129.844 70.904 129.844 54.776V30.2H119.38V54.776C119.38 63.896 117.556 67.928 110.644 67.928C103.636 67.928 101.812 63.896 101.812 54.776V30.2H91.4438V54.776ZM198.908 78.296C206.588 78.296 212.828 74.744 216.476 68.6L208.124 62.072C206.492 65.72 203.324 67.928 198.908 67.928C191.9 67.928 188.156 62.456 188.156 54.776C188.156 47 191.9 40.568 198.908 40.568C203.324 40.568 206.492 42.872 208.124 46.52L216.476 39.896C212.828 33.752 206.588 30.2 198.908 30.2C186.524 30.2 177.788 40.376 177.788 54.776C177.788 69.176 186.524 78.296 198.908 78.296ZM245.999 53.816C245.999 44.6 247.919 40.568 254.831 40.568C261.839 40.568 263.663 44.6 263.663 53.816V77.336H274.031V53.816C274.031 37.592 267.215 30.2 254.831 30.2C251.567 30.2 248.495 31.256 245.999 33.464V0.535997H235.631V77.336H245.999V53.816ZM314.314 78.296C321.994 78.296 328.234 74.744 331.882 68.6L322.282 64.088C320.458 66.488 317.77 67.928 314.314 67.928C308.65 67.928 305.194 64.376 304.042 59H334.954C335.146 57.368 335.338 55.64 335.338 53.816C335.338 39.416 326.602 30.2 314.314 30.2C301.93 30.2 293.194 40.376 293.194 54.776C293.194 69.176 301.93 78.296 314.314 78.296ZM314.314 40.568C319.498 40.568 322.954 43.736 324.298 48.632H304.522C305.962 43.928 309.322 40.568 314.314 40.568ZM375.626 78.296C383.306 78.296 389.546 74.744 393.194 68.6L384.842 62.072C383.21 65.72 380.042 67.928 375.626 67.928C368.618 67.928 364.874 62.456 364.874 54.776C364.874 47 368.618 40.568 375.626 40.568C380.042 40.568 383.21 42.872 384.842 46.52L393.194 39.896C389.546 33.752 383.306 30.2 375.626 30.2C363.242 30.2 354.506 40.376 354.506 54.776C354.506 69.176 363.242 78.296 375.626 78.296ZM422.718 77.336V57.272L424.158 55.736L440.286 77.336H453.15L431.454 48.152L448.734 30.2H434.334L422.718 42.296V0.535997H412.35V77.336H422.718Z" fill="white"/>
</svg>
