<svg width="399" height="79" viewBox="0 0 399 79" fill="none" xmlns="http://www.w3.org/2000/svg">
<path d="M10.768 77.336V0.535997H0.400001V77.336H10.768ZM45.1555 77.336V47.672H54.1795C67.7155 47.672 77.1235 38.456 77.1235 24.056C77.1235 9.65599 67.7155 0.535997 54.1795 0.535997H34.7875V77.336H45.1555ZM54.1795 10.904C62.3395 10.904 66.7555 16.376 66.7555 24.056C66.7555 31.832 62.3395 37.304 54.1795 37.304H45.1555V10.904H54.1795ZM144.314 78.296C151.994 78.296 158.234 74.744 161.882 68.6L153.53 62.072C151.898 65.72 148.73 67.928 144.314 67.928C137.306 67.928 133.562 62.456 133.562 54.776C133.562 47 137.306 40.568 144.314 40.568C148.73 40.568 151.898 42.872 153.53 46.52L161.882 39.896C158.234 33.752 151.994 30.2 144.314 30.2C131.93 30.2 123.194 40.376 123.194 54.776C123.194 69.176 131.93 78.296 144.314 78.296ZM191.406 53.816C191.406 44.6 193.326 40.568 200.238 40.568C207.246 40.568 209.07 44.6 209.07 53.816V77.336H219.438V53.816C219.438 37.592 212.622 30.2 200.238 30.2C196.974 30.2 193.902 31.256 191.406 33.464V0.535997H181.038V77.336H191.406V53.816ZM259.72 78.296C267.4 78.296 273.64 74.744 277.288 68.6L267.688 64.088C265.864 66.488 263.176 67.928 259.72 67.928C254.056 67.928 250.6 64.376 249.448 59H280.36C280.552 57.368 280.744 55.64 280.744 53.816C280.744 39.416 272.008 30.2 259.72 30.2C247.336 30.2 238.6 40.376 238.6 54.776C238.6 69.176 247.336 78.296 259.72 78.296ZM259.72 40.568C264.904 40.568 268.36 43.736 269.704 48.632H249.928C251.368 43.928 254.728 40.568 259.72 40.568ZM321.033 78.296C328.713 78.296 334.953 74.744 338.601 68.6L330.249 62.072C328.617 65.72 325.449 67.928 321.033 67.928C314.025 67.928 310.281 62.456 310.281 54.776C310.281 47 314.025 40.568 321.033 40.568C325.449 40.568 328.617 42.872 330.249 46.52L338.601 39.896C334.953 33.752 328.713 30.2 321.033 30.2C308.649 30.2 299.913 40.376 299.913 54.776C299.913 69.176 308.649 78.296 321.033 78.296ZM368.124 77.336V57.272L369.564 55.736L385.692 77.336H398.556L376.86 48.152L394.14 30.2H379.74L368.124 42.296V0.535997H357.756V77.336H368.124Z" fill="white"/>
</svg>
