<svg width="580" height="79" viewBox="0 0 580 79" fill="none" xmlns="http://www.w3.org/2000/svg">
<path d="M19.8 30.2C16.44 30.2 13.368 31.256 10.968 33.464V30.2H0.6V77.336H10.968V53.816C10.968 44.6 12.792 40.568 19.8 40.568C26.712 40.568 28.536 44.6 28.536 53.816V77.336H39V53.816C39 37.592 32.088 30.2 19.8 30.2ZM58.1625 54.776C58.1625 70.904 64.9785 78.296 77.3625 78.296C89.6505 78.296 96.5625 70.904 96.5625 54.776V30.2H86.0985V54.776C86.0985 63.896 84.2745 67.928 77.3625 67.928C70.3545 67.928 68.5305 63.896 68.5305 54.776V30.2H58.1625V54.776ZM140.685 49.304V38.936H115.725V49.304H140.685ZM179.081 30.2C175.721 30.2 172.649 31.256 170.249 33.464V30.2H159.881V77.336H170.249V53.816C170.249 44.6 172.073 40.568 179.081 40.568C185.993 40.568 187.817 44.6 187.817 53.816V77.336H198.281V53.816C198.281 37.592 191.369 30.2 179.081 30.2ZM217.444 54.776C217.444 70.904 224.26 78.296 236.644 78.296C248.932 78.296 255.844 70.904 255.844 54.776V30.2H245.38V54.776C245.38 63.896 243.556 67.928 236.644 67.928C229.636 67.928 227.812 63.896 227.812 54.776V30.2H217.444V54.776ZM324.908 78.296C332.588 78.296 338.828 74.744 342.476 68.6L334.124 62.072C332.492 65.72 329.324 67.928 324.908 67.928C317.9 67.928 314.156 62.456 314.156 54.776C314.156 47 317.9 40.568 324.908 40.568C329.324 40.568 332.492 42.872 334.124 46.52L342.476 39.896C338.828 33.752 332.588 30.2 324.908 30.2C312.524 30.2 303.788 40.376 303.788 54.776C303.788 69.176 312.524 78.296 324.908 78.296ZM371.999 53.816C371.999 44.6 373.919 40.568 380.831 40.568C387.839 40.568 389.663 44.6 389.663 53.816V77.336H400.031V53.816C400.031 37.592 393.215 30.2 380.831 30.2C377.567 30.2 374.495 31.256 371.999 33.464V0.535997H361.631V77.336H371.999V53.816ZM440.314 78.296C447.994 78.296 454.234 74.744 457.882 68.6L448.282 64.088C446.458 66.488 443.77 67.928 440.314 67.928C434.65 67.928 431.194 64.376 430.042 59H460.954C461.146 57.368 461.338 55.64 461.338 53.816C461.338 39.416 452.602 30.2 440.314 30.2C427.93 30.2 419.194 40.376 419.194 54.776C419.194 69.176 427.93 78.296 440.314 78.296ZM440.314 40.568C445.498 40.568 448.954 43.736 450.298 48.632H430.522C431.962 43.928 435.322 40.568 440.314 40.568ZM501.626 78.296C509.306 78.296 515.546 74.744 519.194 68.6L510.842 62.072C509.21 65.72 506.042 67.928 501.626 67.928C494.618 67.928 490.874 62.456 490.874 54.776C490.874 47 494.618 40.568 501.626 40.568C506.042 40.568 509.21 42.872 510.842 46.52L519.194 39.896C515.546 33.752 509.306 30.2 501.626 30.2C489.242 30.2 480.506 40.376 480.506 54.776C480.506 69.176 489.242 78.296 501.626 78.296ZM548.718 77.336V57.272L550.158 55.736L566.286 77.336H579.15L557.454 48.152L574.734 30.2H560.334L548.718 42.296V0.535997H538.35V77.336H548.718Z" fill="white"/>
</svg>
