<?xml version="1.0" encoding="utf-8"?>
<!-- Generator: Adobe Illustrator 25.2.3, SVG Export Plug-In . SVG Version: 6.00 Build 0)  -->
<svg version="1.1" id="レイヤー_1" xmlns="http://www.w3.org/2000/svg" xmlns:xlink="http://www.w3.org/1999/xlink" x="0px"
	 y="0px" viewBox="0 0 1639.9 841.9" style="enable-background:new 0 0 1639.9 841.9;" xml:space="preserve">
<style type="text/css">
	.st0{fill:#040000;}
	.st1{fill:none;stroke:#040000;stroke-width:11.0171;}
	.st2{fill:#C4C4C4;}
	.st3{fill:#FFFFFF;}
	.st4{fill:none;stroke:#040000;stroke-width:11;}
	.st5{fill:none;stroke:#040000;stroke-width:10.1385;}
</style>
<g>
	<path class="st0" d="M478.5,590.1c6.2-3.6,6.4-3.3,12.5-6.8c6.2-3.6,6.1-3.7,12.3-7.3c6.2-3.6,6-4,12.1-7.5
		c6.2-3.6,6.1-3.8,12.2-7.3c6.2-3.6,6.3-3.3,12.5-6.9c6.2-3.6,6.1-3.6,12.3-7.2c6.2-3.6,6.3-3.4,12.5-6.9c6.2-3.6,6.4-3.1,12.6-6.7
		c6.2-3.6,5.8-4.2,12-7.8c6.2-3.6,6.1-3.8,12.2-7.3c6.2-3.6,6.5-3,12.7-6.5c6.2-3.6,6.1-3.7,12.3-7.2c6.2-3.6,5.9-4.1,12.1-7.6
		c6.2-3.6,6.8-2.6,12.9-6.1c6.2-3.6,6.1-3.7,12.3-7.2c6.2-3.6,5.9-4.1,12.1-7.7c6.2-3.6,6.3-3.4,12.5-6.9c6.2-3.6,6-3.8,12.2-7.4
		c6.2-3.6,6.3-3.4,12.5-6.9c6.2-3.6,6.1-3.6,12.3-7.2c6.2-3.6,6-3.9,12.2-7.5s6.3-3.4,12.4-7c3.5-2,8-0.5,10,3.1
		c3,5.2,3.5,5,6.5,10.2c3,5.2,2.9,5.3,5.9,10.5c3,5.2,3,5.2,6,10.5c2,3.5,0.8,8.2-2.8,10.2c-6.2,3.6-6.1,3.6-12.3,7.2
		c-6.2,3.6-6.1,3.7-12.3,7.3c-6.2,3.6-6.3,3.3-12.5,6.9c-6.2,3.6-6.4,3.2-12.6,6.8c-6.2,3.6-6,3.9-12.2,7.5
		c-6.2,3.6-6.1,3.7-12.3,7.3c-6.2,3.6-6.4,3.1-12.6,6.7c-6.2,3.6-6,3.9-12.2,7.5c-6.2,3.6-6.3,3.3-12.5,6.9c-6.2,3.6-6,3.9-12.2,7.5
		c-6.2,3.6-6.4,3.1-12.6,6.7c-6.2,3.6-5.9,4-12.1,7.6c-6.2,3.6-6.1,3.6-12.3,7.2c-6.2,3.6-6.3,3.4-12.4,7c-6.2,3.6-6.4,3.3-12.5,6.8
		c-6.2,3.6-6.2,3.6-12.4,7.1c-6.2,3.6-6.2,3.5-12.4,7c-6.2,3.6-5.8,4.3-11.9,7.9c-6.2,3.6-6.5,3-12.7,6.6c-6.2,3.6-6,3.8-12.2,7.4
		c-6.2,3.6-6.3,3.4-12.5,6.9c-6.2,3.6-5.9,4.1-12.1,7.6c-3.5,2-7.9,0.2-9.9-3.3c-3-5.2-3.5-4.9-6.5-10.2c-3-5.2-3.4-5-6.4-10.2
		s-2.7-5.4-5.8-10.6C473.7,596.8,475,592.1,478.5,590.1z"/>
	<path class="st1" d="M478.5,590.1c6.2-3.6,6.4-3.3,12.5-6.8c6.2-3.6,6.1-3.7,12.3-7.3c6.2-3.6,6-4,12.1-7.5
		c6.2-3.6,6.1-3.8,12.2-7.3c6.2-3.6,6.3-3.3,12.5-6.9c6.2-3.6,6.1-3.6,12.3-7.2c6.2-3.6,6.3-3.4,12.5-6.9c6.2-3.6,6.4-3.1,12.6-6.7
		c6.2-3.6,5.8-4.2,12-7.8c6.2-3.6,6.1-3.8,12.2-7.3c6.2-3.6,6.5-3,12.7-6.5c6.2-3.6,6.1-3.7,12.3-7.2c6.2-3.6,5.9-4.1,12.1-7.6
		c6.2-3.6,6.8-2.6,12.9-6.1c6.2-3.6,6.1-3.7,12.3-7.2c6.2-3.6,5.9-4.1,12.1-7.7c6.2-3.6,6.3-3.4,12.5-6.9c6.2-3.6,6-3.8,12.2-7.4
		c6.2-3.6,6.3-3.4,12.5-6.9c6.2-3.6,6.1-3.6,12.3-7.2c6.2-3.6,6-3.9,12.2-7.5s6.3-3.4,12.4-7c3.5-2,8-0.5,10,3.1
		c3,5.2,3.5,5,6.5,10.2c3,5.2,2.9,5.3,5.9,10.5c3,5.2,3,5.2,6,10.5c2,3.5,0.8,8.2-2.8,10.2c-6.2,3.6-6.1,3.6-12.3,7.2
		c-6.2,3.6-6.1,3.7-12.3,7.3c-6.2,3.6-6.3,3.3-12.5,6.9c-6.2,3.6-6.4,3.2-12.6,6.8c-6.2,3.6-6,3.9-12.2,7.5
		c-6.2,3.6-6.1,3.7-12.3,7.3c-6.2,3.6-6.4,3.1-12.6,6.7c-6.2,3.6-6,3.9-12.2,7.5c-6.2,3.6-6.3,3.3-12.5,6.9c-6.2,3.6-6,3.9-12.2,7.5
		c-6.2,3.6-6.4,3.1-12.6,6.7c-6.2,3.6-5.9,4-12.1,7.6c-6.2,3.6-6.1,3.6-12.3,7.2c-6.2,3.6-6.3,3.4-12.4,7c-6.2,3.6-6.4,3.3-12.5,6.8
		c-6.2,3.6-6.2,3.6-12.4,7.1c-6.2,3.6-6.2,3.5-12.4,7c-6.2,3.6-5.8,4.3-11.9,7.9c-6.2,3.6-6.5,3-12.7,6.6c-6.2,3.6-6,3.8-12.2,7.4
		c-6.2,3.6-6.3,3.4-12.5,6.9c-6.2,3.6-5.9,4.1-12.1,7.6c-3.5,2-7.9,0.2-9.9-3.3c-3-5.2-3.5-4.9-6.5-10.2c-3-5.2-3.4-5-6.4-10.2
		s-2.7-5.4-5.8-10.6C473.7,596.8,475,592.1,478.5,590.1z"/>
</g>
<g>
	<path class="st2" d="M680.6,283.6c0.8,0,1.6,0.2,2.2,0.2c0.8,0,1.6-0.1,2.2-0.2c0.8,0,1.5-0.2,2.2-0.2c0.8,0,1.5,0.1,2.2,0.1
		c0.7,0,1.4,0,2.2,0c0.7,0,1.4-0.3,2.2-0.3c0.7,0,1.4,0.1,2.2,0.1c0.8,0,1.6,0,2.3,0.3c0.7,0.2,1.4,0.8,2,1.3c0.6,0.5,1.2,1,1.6,1.6
		c0.5,0.6,0.7,1.3,0.9,2.1c0.2,0.7,0.8,1.4,0.8,2.2c0,0.9-0.1,1.7-0.1,2.4c0,0.9-0.1,1.7-0.1,2.4c0,0.9-0.2,1.7-0.2,2.4
		c0,0.8,0,1.6,0,2.4c0,0.7,0.2,1.5,0.2,2.4c0,0.7,0.1,1.5,0.1,2.4c0,0.7-0.1,1.5-0.1,2.4c0,0.9,0,1.7,0,2.4c0,0.9-0.1,1.7-0.1,2.4
		c0,0.9-0.2,1.7-0.2,2.4c0,0.8,0.3,1.6,0.3,2.4c0,0.7,0.1,1.5,0.1,2.4c0,0.7-0.3,1.5-0.3,2.4c0,0.7,0.1,1.5,0.1,2.4
		c0,0.9,0.2,1.7,0.2,2.4c0,0.9-0.5,1.7-0.5,2.4c0,0.9,0.1,1.7,0.1,2.4c0,0.8,0.3,1.6,0.3,2.4c0,0.7-0.1,1.5-0.1,2.4
		c0,0.7,0.1,1.5,0.1,2.4c0,0.7-0.1,1.5-0.1,2.4c0,0.8-0.1,1.6-0.3,2.3c-0.2,0.7-0.5,1.5-0.9,2.2c-0.5,0.6-1.1,1.2-1.7,1.6
		c-0.6,0.4-1.4,0.6-2.1,0.9c-0.7,0.2-1.4,0.6-2.2,0.6c-0.8,0-1.6-0.1-2.2-0.1c-0.8,0-1.6,0-2.2,0c-0.8,0-1.6,0-2.2,0
		c-0.8,0-1.5,0-2.2,0c-0.7,0-1.4,0.1-2.2,0.1c-0.7,0-1.4-0.1-2.2-0.1c-0.7,0-1.4-0.2-2.2-0.2c-0.8,0-1.6,0-2.3-0.2
		c-0.7-0.2-1.5-0.5-2.1-0.9c-0.6-0.4-1-1.1-1.5-1.7c-0.5-0.6-1-1.2-1.2-2c-0.2-0.7-0.3-1.5-0.3-2.3c0-0.9-0.2-1.7-0.2-2.4
		c0-0.9,0.2-1.7,0.2-2.4c0-0.9-0.2-1.7-0.2-2.4c0-0.8,0-1.6,0-2.4c0-0.7,0.1-1.5,0.1-2.4c0-0.7,0.2-1.5,0.2-2.4c0-0.7,0-1.5,0-2.4
		c0-0.9,0.1-1.7,0.1-2.4c0-0.9-0.4-1.7-0.4-2.4c0-0.9,0.3-1.7,0.3-2.4c0-0.8-0.1-1.6-0.1-2.4c0-0.7,0.1-1.5,0.1-2.4
		c0-0.7-0.3-1.5-0.3-2.4c0-0.7,0.4-1.5,0.4-2.4c0-0.9-0.2-1.7-0.2-2.4c0-0.9-0.2-1.7-0.2-2.4c0-0.9,0.2-1.7,0.2-2.4
		c0-0.8,0.3-1.6,0.3-2.4c0-0.7,0-1.5,0-2.4c0-0.7-0.3-1.5-0.3-2.4c0-0.7,0-1.5,0-2.4c0-0.8,0-1.6,0.2-2.3c0.2-0.7,0.9-1.2,1.4-1.8
		c0.5-0.6,0.8-1.3,1.4-1.8c0.6-0.4,1.2-1,2-1.2C679,283.5,679.8,283.6,680.6,283.6z"/>
	<path class="st1" d="M680.6,283.6c0.8,0,1.6,0.2,2.2,0.2c0.8,0,1.6-0.1,2.2-0.2c0.8,0,1.5-0.2,2.2-0.2c0.8,0,1.5,0.1,2.2,0.1
		c0.7,0,1.4,0,2.2,0c0.7,0,1.4-0.3,2.2-0.3c0.7,0,1.4,0.1,2.2,0.1c0.8,0,1.6,0,2.3,0.3c0.7,0.2,1.4,0.8,2,1.3c0.6,0.5,1.2,1,1.6,1.6
		c0.5,0.6,0.7,1.3,0.9,2.1c0.2,0.7,0.8,1.4,0.8,2.2c0,0.9-0.1,1.7-0.1,2.4c0,0.9-0.1,1.7-0.1,2.4c0,0.9-0.2,1.7-0.2,2.4
		c0,0.8,0,1.6,0,2.4c0,0.7,0.2,1.5,0.2,2.4c0,0.7,0.1,1.5,0.1,2.4c0,0.7-0.1,1.5-0.1,2.4c0,0.9,0,1.7,0,2.4c0,0.9-0.1,1.7-0.1,2.4
		c0,0.9-0.2,1.7-0.2,2.4c0,0.8,0.3,1.6,0.3,2.4c0,0.7,0.1,1.5,0.1,2.4c0,0.7-0.3,1.5-0.3,2.4c0,0.7,0.1,1.5,0.1,2.4
		c0,0.9,0.2,1.7,0.2,2.4c0,0.9-0.5,1.7-0.5,2.4c0,0.9,0.1,1.7,0.1,2.4c0,0.8,0.3,1.6,0.3,2.4c0,0.7-0.1,1.5-0.1,2.4
		c0,0.7,0.1,1.5,0.1,2.4c0,0.7-0.1,1.5-0.1,2.4c0,0.8-0.1,1.6-0.3,2.3c-0.2,0.7-0.5,1.5-0.9,2.2c-0.5,0.6-1.1,1.2-1.7,1.6
		c-0.6,0.4-1.4,0.6-2.1,0.9c-0.7,0.2-1.4,0.6-2.2,0.6c-0.8,0-1.6-0.1-2.2-0.1c-0.8,0-1.6,0-2.2,0c-0.8,0-1.6,0-2.2,0
		c-0.8,0-1.5,0-2.2,0c-0.7,0-1.4,0.1-2.2,0.1c-0.7,0-1.4-0.1-2.2-0.1c-0.7,0-1.4-0.2-2.2-0.2c-0.8,0-1.6,0-2.3-0.2
		c-0.7-0.2-1.5-0.5-2.1-0.9c-0.6-0.4-1-1.1-1.5-1.7c-0.5-0.6-1-1.2-1.2-2c-0.2-0.7-0.3-1.5-0.3-2.3c0-0.9-0.2-1.7-0.2-2.4
		c0-0.9,0.2-1.7,0.2-2.4c0-0.9-0.2-1.7-0.2-2.4c0-0.8,0-1.6,0-2.4c0-0.7,0.1-1.5,0.1-2.4c0-0.7,0.2-1.5,0.2-2.4c0-0.7,0-1.5,0-2.4
		c0-0.9,0.1-1.7,0.1-2.4c0-0.9-0.4-1.7-0.4-2.4c0-0.9,0.3-1.7,0.3-2.4c0-0.8-0.1-1.6-0.1-2.4c0-0.7,0.1-1.5,0.1-2.4
		c0-0.7-0.3-1.5-0.3-2.4c0-0.7,0.4-1.5,0.4-2.4c0-0.9-0.2-1.7-0.2-2.4c0-0.9-0.2-1.7-0.2-2.4c0-0.9,0.2-1.7,0.2-2.4
		c0-0.8,0.3-1.6,0.3-2.4c0-0.7,0-1.5,0-2.4c0-0.7-0.3-1.5-0.3-2.4c0-0.7,0-1.5,0-2.4c0-0.8,0-1.6,0.2-2.3c0.2-0.7,0.9-1.2,1.4-1.8
		c0.5-0.6,0.8-1.3,1.4-1.8c0.6-0.4,1.2-1,2-1.2C679,283.5,679.8,283.6,680.6,283.6z"/>
</g>
<g>
	<path class="st2" d="M735.7,283.4c0.8,0,1.6,0.2,2.2,0.2c0.8,0,1.6-0.1,2.2-0.1c0.8,0,1.6-0.1,2.2-0.1c0.8,0,1.5,0.2,2.2,0.2
		c0.7,0,1.4,0.1,2.2,0.1c0.7,0,1.4-0.1,2.2-0.1c0.7,0,1.4-0.1,2.2-0.1c0.8,0,1.6,0.3,2.3,0.5c0.7,0.2,1.6,0.4,2.2,0.9
		c0.6,0.4,0.9,1.3,1.3,1.9c0.5,0.6,1.1,1.1,1.4,1.8c0.2,0.7,0.4,1.5,0.4,2.3c0,0.9-0.2,1.7-0.2,2.4c0,0.9-0.2,1.7-0.2,2.4
		c0,0.9,0.4,1.7,0.4,2.4c0,0.8,0,1.6,0,2.4c0,0.7-0.3,1.5-0.3,2.4c0,0.7,0.1,1.5,0.1,2.4c0,0.7,0,1.5,0,2.4c0,0.9,0,1.7,0,2.4
		c0,0.9-0.1,1.7-0.1,2.4c0,0.9,0.4,1.7,0.4,2.4c0,0.8-0.1,1.6-0.2,2.4c0,0.7,0,1.5,0,2.4c0,0.7-0.3,1.5-0.3,2.4
		c0,0.7,0.1,1.5,0.1,2.4c0,0.9-0.2,1.7-0.2,2.4c0,0.9,0.1,1.7,0.1,2.4c0,0.9,0.2,1.7,0.2,2.4c0,0.8-0.2,1.6-0.2,2.4
		c0,0.7,0,1.5,0,2.4c0,0.7,0.3,1.5,0.3,2.4c0,0.7-0.1,1.5-0.1,2.4c0,0.8,0,1.6-0.2,2.3c-0.2,0.7-0.8,1.4-1.2,2
		c-0.5,0.6-1,1.1-1.6,1.6c-0.6,0.4-1.3,0.7-2.1,0.9c-0.7,0.2-1.4,0.8-2.2,0.8c-0.8,0-1.6-0.1-2.2-0.1c-0.8,0-1.6-0.1-2.2-0.1
		c-0.8,0-1.6-0.1-2.2-0.1c-0.8,0-1.5,0.1-2.2,0.1c-0.7,0-1.4,0.2-2.2,0.2c-0.7,0-1.4,0.1-2.2,0.1c-0.7,0-1.4-0.1-2.2-0.1
		c-0.8,0-1.6-0.1-2.3-0.3c-0.7-0.2-1.4-0.7-2-1.2c-0.6-0.5-1-1.2-1.4-1.8c-0.4-0.6-1.1-1.2-1.3-1.9c-0.2-0.7-0.5-1.5-0.5-2.3
		c0-0.9,0.3-1.7,0.3-2.4c0-0.9-0.1-1.7-0.1-2.4c0-0.9-0.2-1.7-0.3-2.4c0-0.8,0.5-1.6,0.5-2.4c0-0.7-0.1-1.5-0.1-2.4
		c0-0.7-0.3-1.5-0.3-2.4c0-0.7,0.1-1.5,0.1-2.4c0-0.9-0.1-1.7-0.1-2.4c0-0.9,0.1-1.7,0.1-2.4c0-0.9-0.1-1.7-0.1-2.4
		c0-0.8-0.2-1.6-0.2-2.4c0-0.7,0-1.5,0-2.4c0-0.7,0.2-1.5,0.2-2.4c0-0.7-0.2-1.5-0.2-2.4c0-0.9,0.1-1.7,0.1-2.4c0-0.9,0-1.7,0-2.4
		c0-0.9,0-1.7,0-2.4c0-0.8,0-1.6,0-2.4c0-0.7-0.1-1.5-0.1-2.4c0-0.7,0.1-1.5,0.1-2.4c0-0.7,0.2-1.5,0.2-2.4c0-0.8,0-1.6,0.2-2.3
		c0.2-0.7,0.5-1.5,1-2.1c0.5-0.6,1.2-1,1.8-1.4c0.6-0.4,1.2-0.9,2-1.2C734.1,283.7,734.9,283.4,735.7,283.4z"/>
	<path class="st1" d="M735.7,283.4c0.8,0,1.6,0.2,2.2,0.2c0.8,0,1.6-0.1,2.2-0.1c0.8,0,1.6-0.1,2.2-0.1c0.8,0,1.5,0.2,2.2,0.2
		c0.7,0,1.4,0.1,2.2,0.1c0.7,0,1.4-0.1,2.2-0.1c0.7,0,1.4-0.1,2.2-0.1c0.8,0,1.6,0.3,2.3,0.5c0.7,0.2,1.6,0.4,2.2,0.9
		c0.6,0.4,0.9,1.3,1.3,1.9c0.5,0.6,1.1,1.1,1.4,1.8c0.2,0.7,0.4,1.5,0.4,2.3c0,0.9-0.2,1.7-0.2,2.4c0,0.9-0.2,1.7-0.2,2.4
		c0,0.9,0.4,1.7,0.4,2.4c0,0.8,0,1.6,0,2.4c0,0.7-0.3,1.5-0.3,2.4c0,0.7,0.1,1.5,0.1,2.4c0,0.7,0,1.5,0,2.4c0,0.9,0,1.7,0,2.4
		c0,0.9-0.1,1.7-0.1,2.4c0,0.9,0.4,1.7,0.4,2.4c0,0.8-0.1,1.6-0.2,2.4c0,0.7,0,1.5,0,2.4c0,0.7-0.3,1.5-0.3,2.4
		c0,0.7,0.1,1.5,0.1,2.4c0,0.9-0.2,1.7-0.2,2.4c0,0.9,0.1,1.7,0.1,2.4c0,0.9,0.2,1.7,0.2,2.4c0,0.8-0.2,1.6-0.2,2.4
		c0,0.7,0,1.5,0,2.4c0,0.7,0.3,1.5,0.3,2.4c0,0.7-0.1,1.5-0.1,2.4c0,0.8,0,1.6-0.2,2.3c-0.2,0.7-0.8,1.4-1.2,2
		c-0.5,0.6-1,1.1-1.6,1.6c-0.6,0.4-1.3,0.7-2.1,0.9c-0.7,0.2-1.4,0.8-2.2,0.8c-0.8,0-1.6-0.1-2.2-0.1c-0.8,0-1.6-0.1-2.2-0.1
		c-0.8,0-1.6-0.1-2.2-0.1c-0.8,0-1.5,0.1-2.2,0.1c-0.7,0-1.4,0.2-2.2,0.2c-0.7,0-1.4,0.1-2.2,0.1c-0.7,0-1.4-0.1-2.2-0.1
		c-0.8,0-1.6-0.1-2.3-0.3c-0.7-0.2-1.4-0.7-2-1.2c-0.6-0.5-1-1.2-1.4-1.8c-0.4-0.6-1.1-1.2-1.3-1.9c-0.2-0.7-0.5-1.5-0.5-2.3
		c0-0.9,0.3-1.7,0.3-2.4c0-0.9-0.1-1.7-0.1-2.4c0-0.9-0.2-1.7-0.3-2.4c0-0.8,0.5-1.6,0.5-2.4c0-0.7-0.1-1.5-0.1-2.4
		c0-0.7-0.3-1.5-0.3-2.4c0-0.7,0.1-1.5,0.1-2.4c0-0.9-0.1-1.7-0.1-2.4c0-0.9,0.1-1.7,0.1-2.4c0-0.9-0.1-1.7-0.1-2.4
		c0-0.8-0.2-1.6-0.2-2.4c0-0.7,0-1.5,0-2.4c0-0.7,0.2-1.5,0.2-2.4c0-0.7-0.2-1.5-0.2-2.4c0-0.9,0.1-1.7,0.1-2.4c0-0.9,0-1.7,0-2.4
		c0-0.9,0-1.7,0-2.4c0-0.8,0-1.6,0-2.4c0-0.7-0.1-1.5-0.1-2.4c0-0.7,0.1-1.5,0.1-2.4c0-0.7,0.2-1.5,0.2-2.4c0-0.8,0-1.6,0.2-2.3
		c0.2-0.7,0.5-1.5,1-2.1c0.5-0.6,1.2-1,1.8-1.4c0.6-0.4,1.2-0.9,2-1.2C734.1,283.7,734.9,283.4,735.7,283.4z"/>
</g>
<g>
	<path class="st0" d="M247.6,657c0-7.2-0.7-7.2-0.7-14.5c0-7.2,0.7-7.2,0.7-14.5c0-7.2-1.1-7.2-1.1-14.5c0-7.2,1.2-7.2,1.2-14.5
		c0-7.2-0.4-7.2-0.4-14.5c0-7.2-0.6-7.2-0.6-14.5c0-7.2,0.5-7.2,0.5-14.5c0-7.2-0.3-7.2-0.3-14.5c0-7.2,0.2-7.2,0.2-14.5
		c0-7.2-0.8-7.2-0.8-14.5c0-7.2,0.7-7.2,0.7-14.5c0-7.2-0.2-7.2-0.2-14.5c0-7.2,0.6-7.2,0.6-14.5c0-7.2-0.6-7.2-0.6-14.5
		c0-7.2,0.4-7.2,0.4-14.5c0-7.2-0.3-7.2-0.3-14.5c0-7.2,0-7.2,0-14.5c0-7.3-0.4-7.3-0.4-14.5c0-7.2-0.3-7.2-0.3-14.5
		c0-7.3,0.1-7.3,0.1-14.5s1.1-7.3,1.1-14.5c0-4.1,2.7-7.6,6.8-7.6c6,0,6-0.1,12.1-0.1c6,0,6-0.1,12.1-0.1c6,0,6,0.7,12.1,0.7
		c4.1,0,7.1,3.1,7.1,7.1c0,7.2,0.4,7.2,0.4,14.5c0,7.2-0.5,7.2-0.5,14.5c0,7.2,0.1,7.2,0.1,14.5c0,7.2-0.1,7.2-0.1,14.5
		c0,7.2,0.8,7.2,0.8,14.5c0,7.2-0.2,7.2-0.2,14.5c0,7.2-0.4,7.2-0.4,14.5c0,7.2,0.2,7.2,0.2,14.5c0,7.2,0.6,7.2,0.6,14.5
		c0,7.2-0.5,7.2-0.5,14.5c0,7.2-0.7,7.2-0.7,14.5c0,7.2,1,7.2,1,14.5c0,7.2-0.6,7.2-0.6,14.5c0,7.2-0.4,7.2-0.4,14.5
		c0,7.2,0.3,7.2,0.3,14.5c0,7.2,0.1,7.2,0.1,14.5c0,7.2,0.1,7.2,0.1,14.5c0,7.3-0.5,7.3-0.5,14.5c0,7.2,0.4,7.2,0.4,14.5
		c0,7.3-0.2,7.3-0.2,14.5c0,7.3-0.1,7.3-0.1,14.5c0,4.1-2.9,7.5-7,7.5c-6,0-6-0.5-12.1-0.5c-6,0-6,0.1-12.1,0.1c-6,0-6-0.2-12.1-0.2
		C250.3,663.9,247.6,661,247.6,657z"/>
	<path class="st1" d="M247.6,657c0-7.2-0.7-7.2-0.7-14.5c0-7.2,0.7-7.2,0.7-14.5c0-7.2-1.1-7.2-1.1-14.5c0-7.2,1.2-7.2,1.2-14.5
		c0-7.2-0.4-7.2-0.4-14.5c0-7.2-0.6-7.2-0.6-14.5c0-7.2,0.5-7.2,0.5-14.5c0-7.2-0.3-7.2-0.3-14.5c0-7.2,0.2-7.2,0.2-14.5
		c0-7.2-0.8-7.2-0.8-14.5c0-7.2,0.7-7.2,0.7-14.5c0-7.2-0.2-7.2-0.2-14.5c0-7.2,0.6-7.2,0.6-14.5c0-7.2-0.6-7.2-0.6-14.5
		c0-7.2,0.4-7.2,0.4-14.5c0-7.2-0.3-7.2-0.3-14.5c0-7.2,0-7.2,0-14.5c0-7.3-0.4-7.3-0.4-14.5c0-7.2-0.3-7.2-0.3-14.5
		c0-7.3,0.1-7.3,0.1-14.5s1.1-7.3,1.1-14.5c0-4.1,2.7-7.6,6.8-7.6c6,0,6-0.1,12.1-0.1c6,0,6-0.1,12.1-0.1c6,0,6,0.7,12.1,0.7
		c4.1,0,7.1,3.1,7.1,7.1c0,7.2,0.4,7.2,0.4,14.5c0,7.2-0.5,7.2-0.5,14.5c0,7.2,0.1,7.2,0.1,14.5c0,7.2-0.1,7.2-0.1,14.5
		c0,7.2,0.8,7.2,0.8,14.5c0,7.2-0.2,7.2-0.2,14.5c0,7.2-0.4,7.2-0.4,14.5c0,7.2,0.2,7.2,0.2,14.5c0,7.2,0.6,7.2,0.6,14.5
		c0,7.2-0.5,7.2-0.5,14.5c0,7.2-0.7,7.2-0.7,14.5c0,7.2,1,7.2,1,14.5c0,7.2-0.6,7.2-0.6,14.5c0,7.2-0.4,7.2-0.4,14.5
		c0,7.2,0.3,7.2,0.3,14.5c0,7.2,0.1,7.2,0.1,14.5c0,7.2,0.1,7.2,0.1,14.5c0,7.3-0.5,7.3-0.5,14.5c0,7.2,0.4,7.2,0.4,14.5
		c0,7.3-0.2,7.3-0.2,14.5c0,7.3-0.1,7.3-0.1,14.5c0,4.1-2.9,7.5-7,7.5c-6,0-6-0.5-12.1-0.5c-6,0-6,0.1-12.1,0.1c-6,0-6-0.2-12.1-0.2
		C250.3,663.9,247.6,661,247.6,657z"/>
</g>
<g>
	<path class="st3" d="M473,385c0.7,0.4,1.5,0.6,2.1,0.9c0.7,0.4,1.4,0.7,2,1c0.7,0.4,1.3,0.8,1.9,1.1c0.6,0.3,1.1,0.8,1.9,1.2
		c0.6,0.3,1.3,0.5,2,0.9c0.6,0.3,1.2,0.8,1.9,1.2c0.7,0.4,1.1,1.1,1.7,1.5c0.7,0.4,1.3,0.9,1.9,1.2c0.7,0.4,1.3,0.9,1.8,1.2
		c0.6,0.4,1.3,0.6,2,1c0.5,0.3,1.1,0.8,1.9,1.2c0.6,0.3,1.2,0.7,2,1.1c0.7,0.4,1.6,0.5,2.1,0.8c0.7,0.4,1.3,1,1.8,1.3
		c0.7,0.4,1.4,0.7,2,1c0.6,0.3,1.1,0.9,1.8,1.3c0.6,0.3,1.4,0.2,2.2,0.6c0.6,0.3,1,1.1,1.7,1.5c0.7,0.4,1.6,0.4,2.1,0.7
		c0.7,0.4,1.2,1.2,1.7,1.5c0.7,0.4,1.7,0.1,2.3,0.5c0.6,0.4,0.8,1.4,1.5,1.8c0.6,0.3,1.3,0.5,2,0.9c0.6,0.3,1.4,0.4,2.1,0.8
		c0.7,0.4,1.2,1.1,1.8,1.4c0.7,0.4,1.4,0.7,2,1c0.7,0.4,1.2,0.9,1.8,1.3c0.6,0.4,1.4,0.3,2.1,0.8c0.6,0.3,0.9,1.1,1.7,1.5
		c0.6,0.3,1.3,0.6,2,1c0.7,0.4,1.2,1.1,1.7,1.5c0.7,0.4,1.6,0.4,2.1,0.8c0.7,0.4,1.2,1,1.8,1.3c0.6,0.3,1.3,0.5,2,0.9
		c0.6,0.3,1.2,0.7,1.9,1.1c0.6,0.3,1.3,0.5,2.1,0.9c0.7,0.4,1.5,0.8,2,1.3c0.5,0.6,0.9,1.3,1.3,2c0.3,0.7-0.1,1.6-0.1,2.4
		c0.1,0.8,0.6,1.5,0.4,2.3c-0.2,0.7-0.4,1.5-0.8,2.2c-0.5,0.8-0.8,1.5-1.1,2.1c-0.5,0.8-1.2,1.3-1.6,1.9c-0.4,0.7-0.8,1.4-1.2,2.1
		c-0.3,0.6-0.5,1.4-1,2.2c-0.3,0.6-1,1.1-1.5,1.9c-0.5,0.8-0.8,1.5-1.2,2.1c-0.5,0.8-0.9,1.5-1.3,2.1c-0.4,0.7-0.4,1.6-0.8,2.3
		c-0.4,0.6-0.9,1.2-1.3,2c-0.3,0.6-1,1.2-1.4,2c-0.5,0.8-0.8,1.6-1.1,2.1c-0.5,0.8-0.5,1.7-0.9,2.3c-0.4,0.7-1,1.2-1.5,1.9
		c-0.4,0.6-1.1,1-1.6,1.9c-0.3,0.6-0.2,1.6-0.7,2.4c-0.4,0.7-1.2,1.1-1.7,1.6c-0.6,0.5-1.3,0.7-2,1c-0.7,0.3-1.3,0.7-2.1,0.8
		c-0.8,0.1-1.5,0.1-2.3,0c-0.7-0.1-1.5-0.3-2.2-0.7c-0.7-0.4-1.2-1-1.8-1.4c-0.7-0.4-1.5-0.6-2.1-0.9c-0.7-0.4-1.2-0.9-1.8-1.3
		c-0.6-0.4-1.2-0.8-1.9-1.2c-0.5-0.3-1.3-0.4-2.1-0.9c-0.6-0.3-1.1-1-1.8-1.4c-0.7-0.4-1.4-0.8-1.9-1.1c-0.7-0.4-1.3-0.9-1.9-1.2
		c-0.7-0.4-1.4-0.7-2-1c-0.6-0.4-1.4-0.4-2.1-0.8c-0.6-0.3-1.1-0.8-1.9-1.2c-0.6-0.3-1.4-0.4-2.1-0.8c-0.7-0.4-1.1-1.3-1.6-1.6
		c-0.7-0.4-1.4-0.7-2-1c-0.7-0.4-1.3-0.9-1.9-1.2c-0.6-0.3-1.4-0.3-2.2-0.7c-0.6-0.3-1-1.1-1.7-1.5c-0.6-0.3-1.4-0.3-2.2-0.7
		c-0.7-0.4-1.2-1.1-1.7-1.5c-0.7-0.4-1.5-0.6-2.1-0.9c-0.7-0.4-1.5-0.5-2.1-0.8c-0.6-0.4-1.1-0.8-1.8-1.2c-0.6-0.3-1-1.1-1.7-1.5
		c-0.6-0.3-1.2-0.7-1.9-1.1c-0.7-0.4-1.6-0.4-2.2-0.7c-0.7-0.4-1.2-1.1-1.8-1.4c-0.7-0.4-1.2-1-1.8-1.3c-0.6-0.3-1.2-0.8-1.9-1.2
		c-0.6-0.3-1.4-0.3-2.1-0.7c-0.6-0.3-1-1-1.8-1.4c-0.7-0.4-1.5-0.5-2.1-0.9c-0.7-0.4-1.3-1-1.8-1.3c-0.7-0.4-1.3-0.7-1.9-1.1
		c-0.6-0.4-1.2-0.7-1.9-1.1c-0.6-0.3-1.4-0.2-2.2-0.7c-0.6-0.3-1.2-0.7-1.9-1.1c-0.7-0.4-0.9-1.3-1.4-1.9c-0.5-0.6-1.5-0.9-1.8-1.6
		c-0.3-0.7,0.2-1.6,0.2-2.4c-0.1-0.7-0.6-1.5-0.4-2.3c0.2-0.7,0.6-1.4,1-2.1c0.5-0.8,1.2-1.3,1.5-1.9c0.5-0.8,0.4-1.7,0.7-2.3
		c0.4-0.7,1-1.2,1.4-2c0.3-0.6,0.4-1.5,0.8-2.3c0.3-0.6,1.1-1.1,1.6-1.9c0.5-0.8,0.5-1.7,0.8-2.3c0.5-0.8,0.7-1.6,1.1-2.2
		c0.4-0.7,0.8-1.4,1.2-2.1c0.4-0.6,0.9-1.2,1.3-2c0.3-0.6,1.1-1.1,1.6-1.9c0.5-0.8,0.6-1.6,1-2.2c0.5-0.8,1-1.4,1.3-2
		c0.4-0.7,0.7-1.4,1.1-2.1c0.3-0.6,0.7-1.2,1.2-2.1c0.3-0.6,0.9-1.2,1.3-2c0.4-0.7,0.8-1.3,1.4-1.8c0.6-0.5,1.1-1,1.8-1.3
		c0.7-0.3,1.5-0.2,2.3-0.3c0.8-0.1,1.4,0,2.2,0.2C471.5,384.7,472.3,384.7,473,385z"/>
	<path class="st1" d="M473,385c0.7,0.4,1.5,0.6,2.1,0.9c0.7,0.4,1.4,0.7,2,1c0.7,0.4,1.3,0.8,1.9,1.1c0.6,0.3,1.1,0.8,1.9,1.2
		c0.6,0.3,1.3,0.5,2,0.9c0.6,0.3,1.2,0.8,1.9,1.2c0.7,0.4,1.1,1.1,1.7,1.5c0.7,0.4,1.3,0.9,1.9,1.2c0.7,0.4,1.3,0.9,1.8,1.2
		c0.6,0.4,1.3,0.6,2,1c0.5,0.3,1.1,0.8,1.9,1.2c0.6,0.3,1.2,0.7,2,1.1c0.7,0.4,1.6,0.5,2.1,0.8c0.7,0.4,1.3,1,1.8,1.3
		c0.7,0.4,1.4,0.7,2,1c0.6,0.3,1.1,0.9,1.8,1.3c0.6,0.3,1.4,0.2,2.2,0.6c0.6,0.3,1,1.1,1.7,1.5c0.7,0.4,1.6,0.4,2.1,0.7
		c0.7,0.4,1.2,1.2,1.7,1.5c0.7,0.4,1.7,0.1,2.3,0.5c0.6,0.4,0.8,1.4,1.5,1.8c0.6,0.3,1.3,0.5,2,0.9c0.6,0.3,1.4,0.4,2.1,0.8
		c0.7,0.4,1.2,1.1,1.8,1.4c0.7,0.4,1.4,0.7,2,1c0.7,0.4,1.2,0.9,1.8,1.3c0.6,0.4,1.4,0.3,2.1,0.8c0.6,0.3,0.9,1.1,1.7,1.5
		c0.6,0.3,1.3,0.6,2,1c0.7,0.4,1.2,1.1,1.7,1.5c0.7,0.4,1.6,0.4,2.1,0.8c0.7,0.4,1.2,1,1.8,1.3c0.6,0.3,1.3,0.5,2,0.9
		c0.6,0.3,1.2,0.7,1.9,1.1c0.6,0.3,1.3,0.5,2.1,0.9c0.7,0.4,1.5,0.8,2,1.3c0.5,0.6,0.9,1.3,1.3,2c0.3,0.7-0.1,1.6-0.1,2.4
		c0.1,0.8,0.6,1.5,0.4,2.3c-0.2,0.7-0.4,1.5-0.8,2.2c-0.5,0.8-0.8,1.5-1.1,2.1c-0.5,0.8-1.2,1.3-1.6,1.9c-0.4,0.7-0.8,1.4-1.2,2.1
		c-0.3,0.6-0.5,1.4-1,2.2c-0.3,0.6-1,1.1-1.5,1.9c-0.5,0.8-0.8,1.5-1.2,2.1c-0.5,0.8-0.9,1.5-1.3,2.1c-0.4,0.7-0.4,1.6-0.8,2.3
		c-0.4,0.6-0.9,1.2-1.3,2c-0.3,0.6-1,1.2-1.4,2c-0.5,0.8-0.8,1.6-1.1,2.1c-0.5,0.8-0.5,1.7-0.9,2.3c-0.4,0.7-1,1.2-1.5,1.9
		c-0.4,0.6-1.1,1-1.6,1.9c-0.3,0.6-0.2,1.6-0.7,2.4c-0.4,0.7-1.2,1.1-1.7,1.6c-0.6,0.5-1.3,0.7-2,1c-0.7,0.3-1.3,0.7-2.1,0.8
		c-0.8,0.1-1.5,0.1-2.3,0c-0.7-0.1-1.5-0.3-2.2-0.7c-0.7-0.4-1.2-1-1.8-1.4c-0.7-0.4-1.5-0.6-2.1-0.9c-0.7-0.4-1.2-0.9-1.8-1.3
		c-0.6-0.4-1.2-0.8-1.9-1.2c-0.5-0.3-1.3-0.4-2.1-0.9c-0.6-0.3-1.1-1-1.8-1.4c-0.7-0.4-1.4-0.8-1.9-1.1c-0.7-0.4-1.3-0.9-1.9-1.2
		c-0.7-0.4-1.4-0.7-2-1c-0.6-0.4-1.4-0.4-2.1-0.8c-0.6-0.3-1.1-0.8-1.9-1.2c-0.6-0.3-1.4-0.4-2.1-0.8c-0.7-0.4-1.1-1.3-1.6-1.6
		c-0.7-0.4-1.4-0.7-2-1c-0.7-0.4-1.3-0.9-1.9-1.2c-0.6-0.3-1.4-0.3-2.2-0.7c-0.6-0.3-1-1.1-1.7-1.5c-0.6-0.3-1.4-0.3-2.2-0.7
		c-0.7-0.4-1.2-1.1-1.7-1.5c-0.7-0.4-1.5-0.6-2.1-0.9c-0.7-0.4-1.5-0.5-2.1-0.8c-0.6-0.4-1.1-0.8-1.8-1.2c-0.6-0.3-1-1.1-1.7-1.5
		c-0.6-0.3-1.2-0.7-1.9-1.1c-0.7-0.4-1.6-0.4-2.2-0.7c-0.7-0.4-1.2-1.1-1.8-1.4c-0.7-0.4-1.2-1-1.8-1.3c-0.6-0.3-1.2-0.8-1.9-1.2
		c-0.6-0.3-1.4-0.3-2.1-0.7c-0.6-0.3-1-1-1.8-1.4c-0.7-0.4-1.5-0.5-2.1-0.9c-0.7-0.4-1.3-1-1.8-1.3c-0.7-0.4-1.3-0.7-1.9-1.1
		c-0.6-0.4-1.2-0.7-1.9-1.1c-0.6-0.3-1.4-0.2-2.2-0.7c-0.6-0.3-1.2-0.7-1.9-1.1c-0.7-0.4-0.9-1.3-1.4-1.9c-0.5-0.6-1.5-0.9-1.8-1.6
		c-0.3-0.7,0.2-1.6,0.2-2.4c-0.1-0.7-0.6-1.5-0.4-2.3c0.2-0.7,0.6-1.4,1-2.1c0.5-0.8,1.2-1.3,1.5-1.9c0.5-0.8,0.4-1.7,0.7-2.3
		c0.4-0.7,1-1.2,1.4-2c0.3-0.6,0.4-1.5,0.8-2.3c0.3-0.6,1.1-1.1,1.6-1.9c0.5-0.8,0.5-1.7,0.8-2.3c0.5-0.8,0.7-1.6,1.1-2.2
		c0.4-0.7,0.8-1.4,1.2-2.1c0.4-0.6,0.9-1.2,1.3-2c0.3-0.6,1.1-1.1,1.6-1.9c0.5-0.8,0.6-1.6,1-2.2c0.5-0.8,1-1.4,1.3-2
		c0.4-0.7,0.7-1.4,1.1-2.1c0.3-0.6,0.7-1.2,1.2-2.1c0.3-0.6,0.9-1.2,1.3-2c0.4-0.7,0.8-1.3,1.4-1.8c0.6-0.5,1.1-1,1.8-1.3
		c0.7-0.3,1.5-0.2,2.3-0.3c0.8-0.1,1.4,0,2.2,0.2C471.5,384.7,472.3,384.7,473,385z"/>
</g>
<g>
	<path class="st0" d="M503.8,269.6c0.7,0.4,1.6,0.4,2.2,0.7c0.7,0.4,1.1,1.2,1.7,1.5c0.7,0.4,1.6,0.3,2.2,0.7
		c0.6,0.4,1.1,0.9,1.8,1.4c0.6,0.3,1.1,0.8,1.8,1.3c0.6,0.3,1.3,0.5,2.1,0.9c0.7,0.4,1.3,0.9,1.9,1.2c0.7,0.4,1.3,0.9,1.8,1.3
		c0.7,0.4,1.4,0.6,2,1c0.6,0.4,1.3,0.6,2,1c0.6,0.3,1.1,0.7,1.9,1.2c0.6,0.3,1.3,0.5,2.1,0.9c0.7,0.4,1.3,0.9,1.9,1.2
		c0.7,0.4,1.2,1.1,1.7,1.5c0.7,0.4,1.5,0.4,2.1,0.8c0.6,0.3,1,1.1,1.7,1.5c0.6,0.3,1.4,0.4,2.1,0.8c0.6,0.3,1.1,0.8,1.9,1.2
		c0.7,0.4,1.5,0.5,2.1,0.8c0.7,0.4,1.1,1.2,1.7,1.6c0.7,0.4,1.6,0.3,2.2,0.6c0.6,0.3,1.2,0.7,1.9,1.1c0.6,0.3,1,1.1,1.7,1.5
		c0.6,0.3,1.2,0.6,2,1c0.7,0.4,1.3,0.8,1.9,1.1c0.7,0.4,1.5,0.5,2.1,0.9c0.7,0.4,1.2,1,1.8,1.4c0.6,0.4,1.1,0.8,1.8,1.3
		c0.6,0.3,1.4,0.3,2.1,0.8c0.6,0.3,1,1.1,1.7,1.5c0.7,0.4,1.3,0.9,1.9,1.2c0.7,0.4,1.4,0.7,2,1c0.7,0.4,1.3,0.9,1.9,1.2
		c0.6,0.3,1.4,0.4,2.1,0.8c0.6,0.3,1.1,0.7,1.9,1.2c0.6,0.3,1,1,1.8,1.4c0.7,0.4,1.5,0.5,2.1,1c0.5,0.6,0.8,1.3,1.1,2
		c0.3,0.7,0.8,1.4,0.9,2.1c0.1,0.8-0.1,1.5-0.3,2.3c-0.1,0.7-0.2,1.6-0.6,2.2c-0.5,0.8-0.8,1.5-1.1,2.1c-0.5,0.8-0.9,1.5-1.3,2.1
		c-0.4,0.7-0.9,1.3-1.4,2c-0.3,0.6-0.5,1.4-1,2.2c-0.3,0.6-0.8,1.2-1.3,2c-0.5,0.8-1.2,1.3-1.6,1.9c-0.5,0.8-0.9,1.5-1.3,2.1
		c-0.4,0.7-0.8,1.3-1.2,2.1c-0.3,0.6-0.6,1.4-1,2.2c-0.3,0.6-0.8,1.2-1.3,2.1c-0.5,0.8-0.8,1.5-1.2,2.1c-0.5,0.8-0.5,1.7-0.9,2.3
		c-0.4,0.7-1,1.2-1.4,2c-0.4,0.6-0.7,1.3-1.2,2.1c-0.3,0.6-1,1.1-1.5,1.9c-0.4,0.7-0.5,1.6-1.1,2.1c-0.6,0.5-1.5,0.5-2.2,0.8
		c-0.7,0.3-1.3,0.9-2.1,1c-0.8,0.1-1.5-0.4-2.2-0.6c-0.7-0.2-1.7,0.2-2.4-0.2c-0.7-0.4-1-1.5-1.5-1.8c-0.7-0.4-1.5-0.6-2-0.9
		c-0.7-0.4-1.5-0.4-2.1-0.8c-0.6-0.3-1.1-1-1.8-1.4c-0.6-0.3-1.3-0.5-2-0.9c-0.6-0.3-1.1-0.8-1.9-1.2c-0.7-0.4-1.6-0.4-2.2-0.7
		c-0.7-0.4-1.1-1.2-1.7-1.5c-0.7-0.4-1.4-0.7-2-1.1c-0.6-0.4-1-1.1-1.7-1.5c-0.6-0.3-1.4-0.4-2.1-0.8c-0.6-0.3-1.1-0.9-1.8-1.3
		c-0.7-0.4-1.5-0.6-2-1c-0.7-0.4-1.4-0.8-1.9-1.1c-0.7-0.4-1.4-0.6-2-0.9c-0.6-0.4-1.3-0.6-2-1c-0.6-0.3-1.1-0.7-1.9-1.2
		c-0.6-0.3-0.9-1.3-1.6-1.7c-0.7-0.4-1.6-0.3-2.2-0.6c-0.8-0.4-1.4-0.7-2-1c-0.7-0.4-1.4-0.6-2-0.9c-0.6-0.3-1-1.1-1.8-1.4
		c-0.6-0.3-1.2-0.7-1.9-1.1c-0.6-0.3-1.3-0.5-2-0.9c-0.7-0.4-1.2-1.1-1.8-1.4c-0.7-0.4-1.4-0.7-2-1.1c-0.7-0.4-1.3-0.8-1.9-1.2
		c-0.6-0.4-1.5-0.3-2.2-0.7c-0.6-0.3-1.1-0.8-1.9-1.2c-0.6-0.3-1.1-0.9-1.8-1.3c-0.7-0.4-1.4-0.7-2-1c-0.7-0.4-1.6-0.5-2.1-0.8
		c-0.7-0.4-1.2-1-1.8-1.4c-0.6-0.4-1-1.1-1.7-1.5c-0.6-0.3-1.5-0.2-2.2-0.6c-0.6-0.3-1-1-1.7-1.4c-0.7-0.4-1-1.1-1.5-1.6
		c-0.5-0.6-1.1-1.1-1.3-1.8c-0.3-0.7-0.5-1.4-0.6-2.2c-0.1-0.8-0.1-1.5,0.1-2.3c0.2-0.7,0.7-1.3,1.1-2c0.5-0.8,0.6-1.6,1-2.2
		c0.5-0.8,1-1.4,1.3-2c0.4-0.7,0.8-1.3,1.3-2.1c0.3-0.6,0.5-1.4,0.9-2.2c0.3-0.6,1-1.1,1.5-1.9c0.5-0.8,0.8-1.5,1.2-2.1
		c0.5-0.8,1-1.4,1.3-2c0.4-0.7,0.7-1.4,1.1-2.2c0.3-0.6,0.4-1.4,0.9-2.3c0.3-0.6,0.8-1.2,1.3-2c0.5-0.8,0.6-1.6,0.9-2.2
		c0.5-0.8,1.3-1.2,1.7-1.8c0.4-0.7,0.6-1.4,1-2.2c0.3-0.6,0.8-1.2,1.3-2c0.3-0.6,0.3-1.5,0.8-2.3c0.4-0.7,1.3-1,1.8-1.5
		c0.6-0.5,1-1.3,1.7-1.6c0.7-0.3,1.6-0.1,2.3-0.2c0.8-0.1,1.5-0.3,2.3-0.1C502.6,268.6,503.1,269.3,503.8,269.6z"/>
	<path class="st1" d="M503.8,269.6c0.7,0.4,1.6,0.4,2.2,0.7c0.7,0.4,1.1,1.2,1.7,1.5c0.7,0.4,1.6,0.3,2.2,0.7
		c0.6,0.4,1.1,0.9,1.8,1.4c0.6,0.3,1.1,0.8,1.8,1.3c0.6,0.3,1.3,0.5,2.1,0.9c0.7,0.4,1.3,0.9,1.9,1.2c0.7,0.4,1.3,0.9,1.8,1.3
		c0.7,0.4,1.4,0.6,2,1c0.6,0.4,1.3,0.6,2,1c0.6,0.3,1.1,0.7,1.9,1.2c0.6,0.3,1.3,0.5,2.1,0.9c0.7,0.4,1.3,0.9,1.9,1.2
		c0.7,0.4,1.2,1.1,1.7,1.5c0.7,0.4,1.5,0.4,2.1,0.8c0.6,0.3,1,1.1,1.7,1.5c0.6,0.3,1.4,0.4,2.1,0.8c0.6,0.3,1.1,0.8,1.9,1.2
		c0.7,0.4,1.5,0.5,2.1,0.8c0.7,0.4,1.1,1.2,1.7,1.6c0.7,0.4,1.6,0.3,2.2,0.6c0.6,0.3,1.2,0.7,1.9,1.1c0.6,0.3,1,1.1,1.7,1.5
		c0.6,0.3,1.2,0.6,2,1c0.7,0.4,1.3,0.8,1.9,1.1c0.7,0.4,1.5,0.5,2.1,0.9c0.7,0.4,1.2,1,1.8,1.4c0.6,0.4,1.1,0.8,1.8,1.3
		c0.6,0.3,1.4,0.3,2.1,0.8c0.6,0.3,1,1.1,1.7,1.5c0.7,0.4,1.3,0.9,1.9,1.2c0.7,0.4,1.4,0.7,2,1c0.7,0.4,1.3,0.9,1.9,1.2
		c0.6,0.3,1.4,0.4,2.1,0.8c0.6,0.3,1.1,0.7,1.9,1.2c0.6,0.3,1,1,1.8,1.4c0.7,0.4,1.5,0.5,2.1,1c0.5,0.6,0.8,1.3,1.1,2
		c0.3,0.7,0.8,1.4,0.9,2.1c0.1,0.8-0.1,1.5-0.3,2.3c-0.1,0.7-0.2,1.6-0.6,2.2c-0.5,0.8-0.8,1.5-1.1,2.1c-0.5,0.8-0.9,1.5-1.3,2.1
		c-0.4,0.7-0.9,1.3-1.4,2c-0.3,0.6-0.5,1.4-1,2.2c-0.3,0.6-0.8,1.2-1.3,2c-0.5,0.8-1.2,1.3-1.6,1.9c-0.5,0.8-0.9,1.5-1.3,2.1
		c-0.4,0.7-0.8,1.3-1.2,2.1c-0.3,0.6-0.6,1.4-1,2.2c-0.3,0.6-0.8,1.2-1.3,2.1c-0.5,0.8-0.8,1.5-1.2,2.1c-0.5,0.8-0.5,1.7-0.9,2.3
		c-0.4,0.7-1,1.2-1.4,2c-0.4,0.6-0.7,1.3-1.2,2.1c-0.3,0.6-1,1.1-1.5,1.9c-0.4,0.7-0.5,1.6-1.1,2.1c-0.6,0.5-1.5,0.5-2.2,0.8
		c-0.7,0.3-1.3,0.9-2.1,1c-0.8,0.1-1.5-0.4-2.2-0.6c-0.7-0.2-1.7,0.2-2.4-0.2c-0.7-0.4-1-1.5-1.5-1.8c-0.7-0.4-1.5-0.6-2-0.9
		c-0.7-0.4-1.5-0.4-2.1-0.8c-0.6-0.3-1.1-1-1.8-1.4c-0.6-0.3-1.3-0.5-2-0.9c-0.6-0.3-1.1-0.8-1.9-1.2c-0.7-0.4-1.6-0.4-2.2-0.7
		c-0.7-0.4-1.1-1.2-1.7-1.5c-0.7-0.4-1.4-0.7-2-1.1c-0.6-0.4-1-1.1-1.7-1.5c-0.6-0.3-1.4-0.4-2.1-0.8c-0.6-0.3-1.1-0.9-1.8-1.3
		c-0.7-0.4-1.5-0.6-2-1c-0.7-0.4-1.4-0.8-1.9-1.1c-0.7-0.4-1.4-0.6-2-0.9c-0.6-0.4-1.3-0.6-2-1c-0.6-0.3-1.1-0.7-1.9-1.2
		c-0.6-0.3-0.9-1.3-1.6-1.7c-0.7-0.4-1.6-0.3-2.2-0.6c-0.8-0.4-1.4-0.7-2-1c-0.7-0.4-1.4-0.6-2-0.9c-0.6-0.3-1-1.1-1.8-1.4
		c-0.6-0.3-1.2-0.7-1.9-1.1c-0.6-0.3-1.3-0.5-2-0.9c-0.7-0.4-1.2-1.1-1.8-1.4c-0.7-0.4-1.4-0.7-2-1.1c-0.7-0.4-1.3-0.8-1.9-1.2
		c-0.6-0.4-1.5-0.3-2.2-0.7c-0.6-0.3-1.1-0.8-1.9-1.2c-0.6-0.3-1.1-0.9-1.8-1.3c-0.7-0.4-1.4-0.7-2-1c-0.7-0.4-1.6-0.5-2.1-0.8
		c-0.7-0.4-1.2-1-1.8-1.4c-0.6-0.4-1-1.1-1.7-1.5c-0.6-0.3-1.5-0.2-2.2-0.6c-0.6-0.3-1-1-1.7-1.4c-0.7-0.4-1-1.1-1.5-1.6
		c-0.5-0.6-1.1-1.1-1.3-1.8c-0.3-0.7-0.5-1.4-0.6-2.2c-0.1-0.8-0.1-1.5,0.1-2.3c0.2-0.7,0.7-1.3,1.1-2c0.5-0.8,0.6-1.6,1-2.2
		c0.5-0.8,1-1.4,1.3-2c0.4-0.7,0.8-1.3,1.3-2.1c0.3-0.6,0.5-1.4,0.9-2.2c0.3-0.6,1-1.1,1.5-1.9c0.5-0.8,0.8-1.5,1.2-2.1
		c0.5-0.8,1-1.4,1.3-2c0.4-0.7,0.7-1.4,1.1-2.2c0.3-0.6,0.4-1.4,0.9-2.3c0.3-0.6,0.8-1.2,1.3-2c0.5-0.8,0.6-1.6,0.9-2.2
		c0.5-0.8,1.3-1.2,1.7-1.8c0.4-0.7,0.6-1.4,1-2.2c0.3-0.6,0.8-1.2,1.3-2c0.3-0.6,0.3-1.5,0.8-2.3c0.4-0.7,1.3-1,1.8-1.5
		c0.6-0.5,1-1.3,1.7-1.6c0.7-0.3,1.6-0.1,2.3-0.2c0.8-0.1,1.5-0.3,2.3-0.1C502.6,268.6,503.1,269.3,503.8,269.6z"/>
</g>
<g>
	<path class="st2" d="M87.8,560.7c3.6-6.3,3.5-6.4,7.2-12.7c3.6-6.3,4-6.1,7.7-12.4c3.6-6.3,3.3-6.5,7-12.8c3.6-6.3,4-6.1,7.6-12.5
		c3.6-6.3,3.4-6.4,7.1-12.7c3.6-6.3,3.8-6.2,7.4-12.5c3.6-6.3,3.7-6.3,7.4-12.6c3.6-6.3,3.5-6.4,7.1-12.7c3.6-6.3,3.5-6.4,7.1-12.7
		c3.6-6.3,3.6-6.3,7.3-12.7c3.6-6.3,4-6.1,7.7-12.4c2-3.5,6.4-5.1,9.9-3.1c5.2,3,5,3.3,10.3,6.3c5.2,3,5.3,2.9,10.5,5.9
		c5.2,3,5.1,3.3,10.3,6.3c3.5,2,4.7,6.2,2.7,9.7c-3.6,6.3-3.7,6.3-7.3,12.6c-3.6,6.3-3.4,6.5-7,12.8c-3.6,6.3-3.6,6.3-7.3,12.6
		c-3.6,6.3-3.8,6.2-7.5,12.5c-3.6,6.3-3.4,6.5-7.1,12.8c-3.6,6.3-3.7,6.3-7.4,12.6c-3.6,6.3-3.5,6.4-7.1,12.7
		c-3.6,6.3-4,6.1-7.6,12.4c-3.6,6.3-3.6,6.3-7.2,12.7c-3.6,6.3-3.5,6.4-7.1,12.7s-3.7,6.3-7.4,12.6c-2,3.5-6.5,4.5-10,2.5
		c-5.2-3-5.4-2.7-10.6-5.8c-5.2-3-5.3-2.9-10.5-5.9s-5.2-3-10.5-6C86.9,568.9,85.7,564.2,87.8,560.7z"/>
	<path class="st1" d="M87.8,560.7c3.6-6.3,3.5-6.4,7.2-12.7c3.6-6.3,4-6.1,7.7-12.4c3.6-6.3,3.3-6.5,7-12.8c3.6-6.3,4-6.1,7.6-12.5
		c3.6-6.3,3.4-6.4,7.1-12.7c3.6-6.3,3.8-6.2,7.4-12.5c3.6-6.3,3.7-6.3,7.4-12.6c3.6-6.3,3.5-6.4,7.1-12.7c3.6-6.3,3.5-6.4,7.1-12.7
		c3.6-6.3,3.6-6.3,7.3-12.7c3.6-6.3,4-6.1,7.7-12.4c2-3.5,6.4-5.1,9.9-3.1c5.2,3,5,3.3,10.3,6.3c5.2,3,5.3,2.9,10.5,5.9
		c5.2,3,5.1,3.3,10.3,6.3c3.5,2,4.7,6.2,2.7,9.7c-3.6,6.3-3.7,6.3-7.3,12.6c-3.6,6.3-3.4,6.5-7,12.8c-3.6,6.3-3.6,6.3-7.3,12.6
		c-3.6,6.3-3.8,6.2-7.5,12.5c-3.6,6.3-3.4,6.5-7.1,12.8c-3.6,6.3-3.7,6.3-7.4,12.6c-3.6,6.3-3.5,6.4-7.1,12.7
		c-3.6,6.3-4,6.1-7.6,12.4c-3.6,6.3-3.6,6.3-7.2,12.7c-3.6,6.3-3.5,6.4-7.1,12.7s-3.7,6.3-7.4,12.6c-2,3.5-6.5,4.5-10,2.5
		c-5.2-3-5.4-2.7-10.6-5.8c-5.2-3-5.3-2.9-10.5-5.9s-5.2-3-10.5-6C86.9,568.9,85.7,564.2,87.8,560.7z"/>
</g>
<g>
	<path class="st3" d="M242,263.6c2.8,0,3.8,2.2,5.8,0.2s0-3,0-5.8c0-7.5-0.3-7.5-0.3-15c0-4.1,3.3-7.4,7.4-7.4c9,0,9,0.4,17.9,0.4
		s9,0,17.9,0c4.1,0,7,2.9,7,7c0,7.5,0,7.5,0,15c0,2.8-1.5,3.4,0.5,5.4c1.9,1.9,2.6,0,5.4,0c9,0,9,0.3,17.9,0.3c9,0,9,0.2,17.9,0.2
		c4.1,0,7.1,3,7.1,7c0,8.9-0.2,8.9-0.2,17.8s0.2,8.9,0.2,17.8c0,4.1-3,7.2-7,7.2c-7.1,0-7.1,0.1-14.1,0.1c-7.1,0-7.1-0.1-14.1-0.1
		c-7.1,0-7.1,0.6-14.1,0.6c-7.1,0-7.1-0.9-14.1-0.9c-7.1,0-7.1,0.8-14.1,0.8c-7.1,0-7.1-0.7-14.1-0.7c-7.1,0-7.1,0.7-14.1,0.7
		c-7.1,0-7.1-0.7-14.1-0.7c-7.1,0-7.1,0.1-14.1,0.1c-7.1,0-7.1,0-14.1,0c-7.1,0-7.1,0.1-14.1,0.1c-7.1,0-7.1,0.7-14.1,0.7
		c-7.1,0-7.1-0.7-14.1-0.7c-7.1,0-7.1-0.2-14.1-0.2c-7.1,0-7.1,1-14.1,1c-7.1,0-7.1-0.5-14.1-0.5s-7.1-0.5-14.1-0.5
		c-4.1,0-7.3-2.8-7.3-6.9c0-8.9,0.5-8.9,0.5-17.8s-0.4-8.9-0.4-17.8c0-4.1,3.2-7.4,7.3-7.4c7.1,0,7.1,0.4,14.3,0.4
		c7.1,0,7.1-0.5,14.3-0.5c7.1,0,7.1,0.3,14.3,0.3c7.1,0,7.1,0,14.3,0c7.1,0,7.1,0.2,14.3,0.2c7.1,0,7.1-0.6,14.3-0.6
		c7.1,0,7.1,0.4,14.3,0.4c7.1,0,7.1-0.2,14.3-0.2c7.1,0,7.1-0.2,14.3-0.2C234.9,263.4,234.9,263.6,242,263.6z"/>
	<path class="st1" d="M242,263.6c2.8,0,3.8,2.2,5.8,0.2s0-3,0-5.8c0-7.5-0.3-7.5-0.3-15c0-4.1,3.3-7.4,7.4-7.4c9,0,9,0.4,17.9,0.4
		s9,0,17.9,0c4.1,0,7,2.9,7,7c0,7.5,0,7.5,0,15c0,2.8-1.5,3.4,0.5,5.4c1.9,1.9,2.6,0,5.4,0c9,0,9,0.3,17.9,0.3c9,0,9,0.2,17.9,0.2
		c4.1,0,7.1,3,7.1,7c0,8.9-0.2,8.9-0.2,17.8s0.2,8.9,0.2,17.8c0,4.1-3,7.2-7,7.2c-7.1,0-7.1,0.1-14.1,0.1c-7.1,0-7.1-0.1-14.1-0.1
		c-7.1,0-7.1,0.6-14.1,0.6c-7.1,0-7.1-0.9-14.1-0.9c-7.1,0-7.1,0.8-14.1,0.8c-7.1,0-7.1-0.7-14.1-0.7c-7.1,0-7.1,0.7-14.1,0.7
		c-7.1,0-7.1-0.7-14.1-0.7c-7.1,0-7.1,0.1-14.1,0.1c-7.1,0-7.1,0-14.1,0c-7.1,0-7.1,0.1-14.1,0.1c-7.1,0-7.1,0.7-14.1,0.7
		c-7.1,0-7.1-0.7-14.1-0.7c-7.1,0-7.1-0.2-14.1-0.2c-7.1,0-7.1,1-14.1,1c-7.1,0-7.1-0.5-14.1-0.5s-7.1-0.5-14.1-0.5
		c-4.1,0-7.3-2.8-7.3-6.9c0-8.9,0.5-8.9,0.5-17.8s-0.4-8.9-0.4-17.8c0-4.1,3.2-7.4,7.3-7.4c7.1,0,7.1,0.4,14.3,0.4
		c7.1,0,7.1-0.5,14.3-0.5c7.1,0,7.1,0.3,14.3,0.3c7.1,0,7.1,0,14.3,0c7.1,0,7.1,0.2,14.3,0.2c7.1,0,7.1-0.6,14.3-0.6
		c7.1,0,7.1,0.4,14.3,0.4c7.1,0,7.1-0.2,14.3-0.2c7.1,0,7.1-0.2,14.3-0.2C234.9,263.4,234.9,263.6,242,263.6z"/>
</g>
<g>
	<path class="st0" d="M895.4,572.7c0-7.1-0.2-7.1-0.2-14.2c0-7.1,0.9-7.1,0.9-14.2c0-7.1-0.9-7.1-0.9-14.2c0-7.1,0.2-7.1,0.2-14.2
		c0-7.1,0.6-7.1,0.6-14.2c0-7.1,0.2-7.1,0.2-14.2c0-7.1-0.5-7.1-0.5-14.2c0-7.1,0.3-7.1,0.3-14.2c0-7.1,0.1-7.1,0.1-14.2
		c0-7.1,0.1-7.1,0.1-14.2c0-7.1,0.2-7.1,0.2-14.2c0-7.1-0.3-7.1-0.3-14.2c0-7.1,0.2-7.1,0.2-14.2c0-7.1,0.2-7.1,0.2-14.2
		c0-7.1,0-7.1,0-14.2c0-7.1-0.7-7.1-0.7-14.2c0-7.1,0.4-7.1,0.4-14.2c0-7.1,0.4-7.1,0.4-14.2c0-7.1-0.1-7.1-0.1-14.2
		c0-7.1-0.9-7.1-0.9-14.2s1.1-7.1,1.1-14.2c0-4,2.7-7.9,6.7-7.9c6,0,6,0.8,12.1,0.8c6,0,6-0.5,12.1-0.5s6,0.4,12.1,0.4
		c4.1,0,6.9,3.2,6.9,7.2c0,7.1,0.9,7.1,0.9,14.2c0,7.1-0.6,7.1-0.6,14.2c0,7.1,0.1,7.1,0.1,14.2c0,7.1-0.2,7.1-0.2,14.2
		c0,7.1,0.6,7.1,0.6,14.2c0,7.1-0.5,7.1-0.5,14.2c0,7.1,0.4,7.1,0.4,14.2c0,7.1-0.4,7.1-0.4,14.2c0,7.1,0.5,7.1,0.5,14.2
		c0,7.1,0.2,7.1,0.2,14.2c0,7.1-0.2,7.1-0.2,14.2c0,7.1-0.6,7.1-0.6,14.2c0,7.1,0.1,7.1,0.1,14.2c0,7.1-0.5,7.1-0.5,14.2
		c0,7.1,0,7.1,0,14.2c0,7.1,1.2,7.1,1.2,14.2c0,7.1-0.4,7.1-0.4,14.2c0,7.1-0.5,7.1-0.5,14.2c0,7.1,0.5,7.1,0.5,14.2
		c0,7.1,0.1,7.1,0.1,14.2s-0.3,7.1-0.3,14.2c0,4-3.3,7.6-7.3,7.6c-6,0-6-0.1-12.1-0.1c-6,0-6,0.2-12.1,0.2s-6,0.1-12.1,0.1
		C899,580.6,895.4,576.7,895.4,572.7z"/>
	<path class="st4" d="M895.4,572.7c0-7.1-0.2-7.1-0.2-14.2c0-7.1,0.9-7.1,0.9-14.2c0-7.1-0.9-7.1-0.9-14.2c0-7.1,0.2-7.1,0.2-14.2
		c0-7.1,0.6-7.1,0.6-14.2c0-7.1,0.2-7.1,0.2-14.2c0-7.1-0.5-7.1-0.5-14.2c0-7.1,0.3-7.1,0.3-14.2c0-7.1,0.1-7.1,0.1-14.2
		c0-7.1,0.1-7.1,0.1-14.2c0-7.1,0.2-7.1,0.2-14.2c0-7.1-0.3-7.1-0.3-14.2c0-7.1,0.2-7.1,0.2-14.2c0-7.1,0.2-7.1,0.2-14.2
		c0-7.1,0-7.1,0-14.2c0-7.1-0.7-7.1-0.7-14.2c0-7.1,0.4-7.1,0.4-14.2c0-7.1,0.4-7.1,0.4-14.2c0-7.1-0.1-7.1-0.1-14.2
		c0-7.1-0.9-7.1-0.9-14.2s1.1-7.1,1.1-14.2c0-4,2.7-7.9,6.7-7.9c6,0,6,0.8,12.1,0.8c6,0,6-0.5,12.1-0.5s6,0.4,12.1,0.4
		c4.1,0,6.9,3.2,6.9,7.2c0,7.1,0.9,7.1,0.9,14.2c0,7.1-0.6,7.1-0.6,14.2c0,7.1,0.1,7.1,0.1,14.2c0,7.1-0.2,7.1-0.2,14.2
		c0,7.1,0.6,7.1,0.6,14.2c0,7.1-0.5,7.1-0.5,14.2c0,7.1,0.4,7.1,0.4,14.2c0,7.1-0.4,7.1-0.4,14.2c0,7.1,0.5,7.1,0.5,14.2
		c0,7.1,0.2,7.1,0.2,14.2c0,7.1-0.2,7.1-0.2,14.2c0,7.1-0.6,7.1-0.6,14.2c0,7.1,0.1,7.1,0.1,14.2c0,7.1-0.5,7.1-0.5,14.2
		c0,7.1,0,7.1,0,14.2c0,7.1,1.2,7.1,1.2,14.2c0,7.1-0.4,7.1-0.4,14.2c0,7.1-0.5,7.1-0.5,14.2c0,7.1,0.5,7.1,0.5,14.2
		c0,7.1,0.1,7.1,0.1,14.2s-0.3,7.1-0.3,14.2c0,4-3.3,7.6-7.3,7.6c-6,0-6-0.1-12.1-0.1c-6,0-6,0.2-12.1,0.2s-6,0.1-12.1,0.1
		C899,580.6,895.4,576.7,895.4,572.7z"/>
</g>
<g>
	<path class="st2" d="M1134.1,274.2c-0.1-4-1.4-6.8-3.5-6.8c-7.1,0-7.1-0.8-14.1-0.8c-7.1,0-7.1,0.1-14.1,0.1
		c-7.1,0-7.1,0.5-14.1,0.5c-7.1,0-7.1,0.6-14.1,0.6c-7.1,0-7.1-1.1-14.1-1.1c-7.1,0-7.1-0.2-14.1-0.2c-7.1,0-7.1,0.3-14.1,0.3
		c-7.1,0-7.1-0.3-14.1-0.3c-7.1,0-7.1,0.4-14.1,0.4c-7.1,0-7.1-0.2-14.1-0.2c-7.1,0-7.1,0-14.1,0c-2.1,0-7.2,3.7-7.2,7.8
		c0,6.2-0.2,6.2-0.2,12.3c0,6.2,0,6.2,0,12.3s0.5,6.2,0.5,12.3c0,4.1,4.8,7.9,6.9,7.9c6.8,0,6.8-0.3,13.6-0.3
		c6.8,0,6.8,0.2,13.6,0.2c6.8,0,6.8-0.1,13.6-0.1c6.8,0,6.8-0.4,13.6-0.4c6.8,0,6.8,0.3,13.6,0.3c6.8,0,6.8-0.1,13.6-0.1
		c6.8,0,6.8-0.7,13.6-0.7s8.4-3.8,13.1,1.1c4.9,5.2-0.1,6.7-0.1,13.8c0,7.1-0.1,7.1-0.1,14.3c0,7.1,0.2,7.1,0.2,14.3
		c0,7.1,1,7.1,1,14.3c0,7.1-1.2,7.1-1.2,14.3c0,7.1,1,7.1,1,14.3c0,7.1,0.1,7.1,0.1,14.3c0,7.1-0.5,7.1-0.5,14.3
		c0,7.1,0.4,7.1,0.4,14.3c0,7.1-0.3,7.1-0.3,14.3c0,7.1,0.6,7.1,0.6,14.3c0,7.1-0.8,7.1-0.8,14.3c0,7.1-0.2,7.1-0.2,14.3
		c0,7.1,0.9,7.1,0.9,14.3c0,7.1-0.8,7.1-0.8,14.3c0,7.1-0.1,7.1-0.1,14.3c0,7.1-0.4,7.1-0.4,14.3c0,7.1,1.5,7.1,1.5,14.3
		c0,7.1-0.1,7.1-0.1,14.3c0,7.1-1.1,7.1-1.1,14.3c0,7.1,0.7,7.1,0.7,14.3c0,7.1-0.6,7.1-0.6,14.3s0.8,7.1,0.8,14.3
		c0,4.9,2.8,8.6,6.8,8.6c6,0,6-0.7,12.1-0.7c6,0,6,0.6,12.1,0.6c6,0,6-0.9,12.1-0.9c4.1,0,6.6-2.6,6.6-7.6c0-7.1,0.2-7.1,0.2-14.3
		c0-7.1-0.1-7.1-0.1-14.3c0-7.1,1.2-7.1,1.2-14.3c0-7.1-1.2-7.1-1.2-14.3c0-7.1,0-7.1,0-14.3c0-7.1,0.5-7.1,0.5-14.3
		c0-7.1-0.3-7.1-0.3-14.3c0-7.1,0.1-7.1,0.1-14.3c0-7.1,0.4-7.1,0.4-14.3c0-7.1,0.6-7.1,0.6-14.3c0-7.1-0.9-7.1-0.9-14.3
		c0-7.1-0.6-7.1-0.6-14.3c0-7.1,1.4-7.1,1.4-14.3c0-7.1-0.8-7.1-0.8-14.3c0-7.1,0.1-7.1,0.1-14.3c0-7.1-0.6-7.1-0.6-14.3
		c0-7.1,0.6-7.1,0.6-14.3c0-7.1,0.4-7.1,0.4-14.3c0-7.1-0.4-7.1-0.4-14.3c0-7.1-0.2-7.1-0.2-14.3c0-7.1,0.4-7.1,0.4-14.3
		c0-7.1,0.1-7.1,0.1-14.3c0-7.1-0.5-7.1-0.5-14.3c0-7.1,0.3-7.1,0.3-14.3c0-7.1-0.7-7.1-0.7-14.3s0.4-7.1,0.4-14.3
		C1134.3,275.3,1134.2,274.8,1134.1,274.2z"/>
	<path class="st4" d="M1134.1,274.2c-0.1-4-1.4-6.8-3.5-6.8c-7.1,0-7.1-0.8-14.1-0.8c-7.1,0-7.1,0.1-14.1,0.1
		c-7.1,0-7.1,0.5-14.1,0.5c-7.1,0-7.1,0.6-14.1,0.6c-7.1,0-7.1-1.1-14.1-1.1c-7.1,0-7.1-0.2-14.1-0.2c-7.1,0-7.1,0.3-14.1,0.3
		c-7.1,0-7.1-0.3-14.1-0.3c-7.1,0-7.1,0.4-14.1,0.4c-7.1,0-7.1-0.2-14.1-0.2c-7.1,0-7.1,0-14.1,0c-2.1,0-7.2,3.7-7.2,7.8
		c0,6.2-0.2,6.2-0.2,12.3c0,6.2,0,6.2,0,12.3s0.5,6.2,0.5,12.3c0,4.1,4.8,7.9,6.9,7.9c6.8,0,6.8-0.3,13.6-0.3
		c6.8,0,6.8,0.2,13.6,0.2c6.8,0,6.8-0.1,13.6-0.1c6.8,0,6.8-0.4,13.6-0.4c6.8,0,6.8,0.3,13.6,0.3c6.8,0,6.8-0.1,13.6-0.1
		c6.8,0,6.8-0.7,13.6-0.7s8.4-3.8,13.1,1.1c4.9,5.2-0.1,6.7-0.1,13.8c0,7.1-0.1,7.1-0.1,14.3c0,7.1,0.2,7.1,0.2,14.3
		c0,7.1,1,7.1,1,14.3c0,7.1-1.2,7.1-1.2,14.3c0,7.1,1,7.1,1,14.3c0,7.1,0.1,7.1,0.1,14.3c0,7.1-0.5,7.1-0.5,14.3
		c0,7.1,0.4,7.1,0.4,14.3c0,7.1-0.3,7.1-0.3,14.3c0,7.1,0.6,7.1,0.6,14.3c0,7.1-0.8,7.1-0.8,14.3c0,7.1-0.2,7.1-0.2,14.3
		c0,7.1,0.9,7.1,0.9,14.3c0,7.1-0.8,7.1-0.8,14.3c0,7.1-0.1,7.1-0.1,14.3c0,7.1-0.4,7.1-0.4,14.3c0,7.1,1.5,7.1,1.5,14.3
		c0,7.1-0.1,7.1-0.1,14.3c0,7.1-1.1,7.1-1.1,14.3c0,7.1,0.7,7.1,0.7,14.3c0,7.1-0.6,7.1-0.6,14.3s0.8,7.1,0.8,14.3
		c0,4.9,2.8,8.6,6.8,8.6c6,0,6-0.7,12.1-0.7c6,0,6,0.6,12.1,0.6c6,0,6-0.9,12.1-0.9c4.1,0,6.6-2.6,6.6-7.6c0-7.1,0.2-7.1,0.2-14.3
		c0-7.1-0.1-7.1-0.1-14.3c0-7.1,1.2-7.1,1.2-14.3c0-7.1-1.2-7.1-1.2-14.3c0-7.1,0-7.1,0-14.3c0-7.1,0.5-7.1,0.5-14.3
		c0-7.1-0.3-7.1-0.3-14.3c0-7.1,0.1-7.1,0.1-14.3c0-7.1,0.4-7.1,0.4-14.3c0-7.1,0.6-7.1,0.6-14.3c0-7.1-0.9-7.1-0.9-14.3
		c0-7.1-0.6-7.1-0.6-14.3c0-7.1,1.4-7.1,1.4-14.3c0-7.1-0.8-7.1-0.8-14.3c0-7.1,0.1-7.1,0.1-14.3c0-7.1-0.6-7.1-0.6-14.3
		c0-7.1,0.6-7.1,0.6-14.3c0-7.1,0.4-7.1,0.4-14.3c0-7.1-0.4-7.1-0.4-14.3c0-7.1-0.2-7.1-0.2-14.3c0-7.1,0.4-7.1,0.4-14.3
		c0-7.1,0.1-7.1,0.1-14.3c0-7.1-0.5-7.1-0.5-14.3c0-7.1,0.3-7.1,0.3-14.3c0-7.1-0.7-7.1-0.7-14.3s0.4-7.1,0.4-14.3
		C1134.3,275.3,1134.2,274.8,1134.1,274.2z"/>
</g>
<g>
	<path class="st3" d="M1055.2,654.8c-7,0-7-0.4-13.9-0.4c-7,0-7,0.3-13.9,0.3c-7,0-7,0.2-13.9,0.2c-7,0-7,0-13.9,0
		c-7,0-7-0.4-13.9-0.4c-6.9,0-6.9-0.1-13.9-0.1c-7,0-7,0.3-13.9,0.3c-7,0-7,0.2-13.9,0.2c-7,0-7-0.4-13.9-0.4c-7,0-7,0-13.9,0
		c-7,0-7,0.4-13.9,0.4c-2.1,0-6.9-3.8-6.9-8.1c0-6.5-0.2-6.5-0.2-13c0-6.5,0.3-6.5,0.3-13c0-6.5-0.4-6.5-0.4-13
		c0-4.4,5.1-7.9,7.2-7.9c7,0,7-0.4,13.9-0.4c7,0,7,0.2,13.9,0.2c7,0,7-0.1,13.9-0.1c7,0,7,0.3,13.9,0.3c7,0,7-0.3,13.9-0.3
		c6.9,0,6.9,0.2,13.9,0.2c7,0,7-0.3,13.9-0.3c7,0,7,0.2,13.9,0.2c7,0,7,0.1,13.9,0.1c7,0,7,0,13.9,0s7-0.3,13.9-0.3
		c2.1,0,7.1,3.8,7.1,8.2c0,6.5-0.2,6.5-0.2,13c0,6.5,0.1,6.5,0.1,13s-0.1,6.5-0.1,13C1062.1,651.1,1057.4,654.8,1055.2,654.8z"/>
	<path class="st4" d="M1055.2,654.8c-7,0-7-0.4-13.9-0.4c-7,0-7,0.3-13.9,0.3c-7,0-7,0.2-13.9,0.2c-7,0-7,0-13.9,0
		c-7,0-7-0.4-13.9-0.4c-6.9,0-6.9-0.1-13.9-0.1c-7,0-7,0.3-13.9,0.3c-7,0-7,0.2-13.9,0.2c-7,0-7-0.4-13.9-0.4c-7,0-7,0-13.9,0
		c-7,0-7,0.4-13.9,0.4c-2.1,0-6.9-3.8-6.9-8.1c0-6.5-0.2-6.5-0.2-13c0-6.5,0.3-6.5,0.3-13c0-6.5-0.4-6.5-0.4-13
		c0-4.4,5.1-7.9,7.2-7.9c7,0,7-0.4,13.9-0.4c7,0,7,0.2,13.9,0.2c7,0,7-0.1,13.9-0.1c7,0,7,0.3,13.9,0.3c7,0,7-0.3,13.9-0.3
		c6.9,0,6.9,0.2,13.9,0.2c7,0,7-0.3,13.9-0.3c7,0,7,0.2,13.9,0.2c7,0,7,0.1,13.9,0.1c7,0,7,0,13.9,0s7-0.3,13.9-0.3
		c2.1,0,7.1,3.8,7.1,8.2c0,6.5-0.2,6.5-0.2,13c0,6.5,0.1,6.5,0.1,13s-0.1,6.5-0.1,13C1062.1,651.1,1057.4,654.8,1055.2,654.8z"/>
</g>
<g>
	<path class="st2" d="M1323.1,630.8c-1-1.8-0.3-3.6,1.4-4.6c6-3.5,5.6-4.1,11.6-7.6c6-3.5,6.4-2.8,12.4-6.3c6-3.5,6.1-3.3,12.1-6.8
		c6-3.5,5.8-3.8,11.8-7.3s6.1-3.3,12.1-6.8c6-3.5,5.6-4.2,11.6-7.7c6-3.5,6.5-2.7,12.5-6.1c6-3.5,5.8-3.9,11.8-7.4
		c6-3.5,6.2-3.2,12.2-6.7c6-3.5,5.9-3.6,11.9-7.1s6.1-3.4,12.1-6.9c1.4-0.8,2-0.2,2.8-1.6c0.8-1.4-0.2-1.7-0.2-3.3
		c0-7.1-0.5-7.1-0.5-14.2c0-7.1,0.9-7.1,0.9-14.2c0-7.1-0.5-7.1-0.5-14.2c0-7.1,0.1-7.1,0.1-14.2c0-7.1-0.1-7.1-0.1-14.2
		c0-7.1,0.2-7.1,0.2-14.2c0-7.1-0.2-7.1-0.2-14.2c0-7.1-0.6-7.1-0.6-14.2c0-7.1,1.2-7.1,1.2-14.2c0-7.1-0.1-7.1-0.1-14.2
		c0-7.1-0.9-7.1-0.9-14.2c0-7.1,0.5-7.1,0.5-14.2c0-7.1,0.6-7.1,0.6-14.3c0-7.1-0.5-7.1-0.5-14.3c0-2,1.6-3.9,3.6-3.9
		c7.2,0,7.2,0.5,14.5,0.5c7.2,0,7.2,0,14.5,0s7.2,0,14.5,0c2,0,3.9,1.4,3.9,3.4c0,7.2-0.4,7.2-0.4,14.4c0,7.2-0.2,7.2-0.2,14.4
		c0,7.2,0.8,7.2,0.8,14.4c0,7.2-0.7,7.2-0.7,14.4c0,7.2-0.1,7.2-0.1,14.4c0,7.2,0,7.2,0,14.4c0,7.2,1.1,7.2,1.1,14.4
		c0,7.2-1,7.2-1,14.4c0,7.2,0.7,7.2,0.7,14.4c0,7.2-0.5,7.2-0.5,14.4c0,7.2,0.6,7.2,0.6,14.4c0,7.2-0.6,7.2-0.6,14.4
		c0,7.2-0.5,7.2-0.5,14.4c0,7.2,0.7,7.2,0.7,14.4c0,7.2-0.1,7.2-0.1,14.4s-0.5,7.2-0.5,14.4c0,1.3-0.1,2.7-1.3,3.4
		c-6.7,3.9-7.2,3.2-13.9,7.1c-6.7,3.9-6.4,4.4-13.2,8.3c-6.7,3.9-6.9,3.7-13.6,7.5c-6.7,3.9-6.5,4.3-13.2,8.2
		c-6.7,3.9-7,3.5-13.7,7.4c-6.7,3.9-6.9,3.6-13.7,7.5c-6.5,3.7-6.5,3.7-12.9,7.4c-6.5,3.7-6.4,3.8-12.9,7.6
		c-6.5,3.7-6.3,3.9-12.8,7.7c-6.5,3.7-6.3,4-12.8,7.7c-6.5,3.7-6.6,3.5-13.1,7.2c-6.5,3.7-6.6,3.4-13.1,7.2c-1.7,1-3.8,0.9-4.8-0.9
		c-3.6-6.3-3.7-6.2-7.3-12.5c-3.6-6.3-3.1-6.5-6.8-12.8c-3.6-6.3-3.5-6.3-7.1-12.6"/>
	<path class="st1" d="M1323.1,630.8c-1-1.8-0.3-3.6,1.4-4.6c6-3.5,5.6-4.1,11.6-7.6c6-3.5,6.4-2.8,12.4-6.3c6-3.5,6.1-3.3,12.1-6.8
		c6-3.5,5.8-3.8,11.8-7.3s6.1-3.3,12.1-6.8c6-3.5,5.6-4.2,11.6-7.7c6-3.5,6.5-2.7,12.5-6.1c6-3.5,5.8-3.9,11.8-7.4
		c6-3.5,6.2-3.2,12.2-6.7c6-3.5,5.9-3.6,11.9-7.1s6.1-3.4,12.1-6.9c1.4-0.8,2-0.2,2.8-1.6c0.8-1.4-0.2-1.7-0.2-3.3
		c0-7.1-0.5-7.1-0.5-14.2c0-7.1,0.9-7.1,0.9-14.2c0-7.1-0.5-7.1-0.5-14.2c0-7.1,0.1-7.1,0.1-14.2c0-7.1-0.1-7.1-0.1-14.2
		c0-7.1,0.2-7.1,0.2-14.2c0-7.1-0.2-7.1-0.2-14.2c0-7.1-0.6-7.1-0.6-14.2c0-7.1,1.2-7.1,1.2-14.2c0-7.1-0.1-7.1-0.1-14.2
		c0-7.1-0.9-7.1-0.9-14.2c0-7.1,0.5-7.1,0.5-14.2c0-7.1,0.6-7.1,0.6-14.3c0-7.1-0.5-7.1-0.5-14.3c0-2,1.6-3.9,3.6-3.9
		c7.2,0,7.2,0.5,14.5,0.5c7.2,0,7.2,0,14.5,0s7.2,0,14.5,0c2,0,3.9,1.4,3.9,3.4c0,7.2-0.4,7.2-0.4,14.4c0,7.2-0.2,7.2-0.2,14.4
		c0,7.2,0.8,7.2,0.8,14.4c0,7.2-0.7,7.2-0.7,14.4c0,7.2-0.1,7.2-0.1,14.4c0,7.2,0,7.2,0,14.4c0,7.2,1.1,7.2,1.1,14.4
		c0,7.2-1,7.2-1,14.4c0,7.2,0.7,7.2,0.7,14.4c0,7.2-0.5,7.2-0.5,14.4c0,7.2,0.6,7.2,0.6,14.4c0,7.2-0.6,7.2-0.6,14.4
		c0,7.2-0.5,7.2-0.5,14.4c0,7.2,0.7,7.2,0.7,14.4c0,7.2-0.1,7.2-0.1,14.4s-0.5,7.2-0.5,14.4c0,1.3-0.1,2.7-1.3,3.4
		c-6.7,3.9-7.2,3.2-13.9,7.1c-6.7,3.9-6.4,4.4-13.2,8.3c-6.7,3.9-6.9,3.7-13.6,7.5c-6.7,3.9-6.5,4.3-13.2,8.2
		c-6.7,3.9-7,3.5-13.7,7.4c-6.7,3.9-6.9,3.6-13.7,7.5c-6.5,3.7-6.5,3.7-12.9,7.4c-6.5,3.7-6.4,3.8-12.9,7.6
		c-6.5,3.7-6.3,3.9-12.8,7.7c-6.5,3.7-6.3,4-12.8,7.7c-6.5,3.7-6.6,3.5-13.1,7.2c-6.5,3.7-6.6,3.4-13.1,7.2c-1.7,1-3.8,0.9-4.8-0.9
		c-3.6-6.3-3.7-6.2-7.3-12.5c-3.6-6.3-3.1-6.5-6.8-12.8c-3.6-6.3-3.5-6.3-7.1-12.6"/>
</g>
<g>
	<path class="st3" d="M1506.8,266.3c-7.1,0-7.1-0.1-14.1-0.1c-7.1,0-7.1-0.5-14.1-0.5c-7.1,0-7.1,0.3-14.1,0.3
		c-7.1,0-7.1-0.4-14.1-0.4c-7.1,0-7.1,0.4-14.1,0.4c-7.1,0-7.1,0.1-14.1,0.1c-7.1,0-7.1,0.2-14.1,0.2c-7.1,0-7.1-0.3-14.1-0.3
		c-7.1,0-7.1-0.7-14.1-0.7c-7.1,0-7.1,0-14.1,0c-7.1,0-7.1,0.4-14.1,0.4s-7.1,0-14.1,0c-0.7,0-1.2,0.8-1.8,1.4
		c-0.9,0.2-2.2,0-2.5,0.6c-3.7,6.4-3.7,6.4-7.4,12.8c-3.7,6.4-3.2,6.7-6.9,13.1c-3.7,6.4-4.1,6.1-7.8,12.5c-3.7,6.4-3,6.8-6.7,13.2
		c-3.7,6.4-3.9,6.3-7.6,12.7c-3.7,6.4-3.5,6.5-7.2,12.9c-3.7,6.4-3.8,6.4-7.5,12.8c-3.7,6.4-4,6.2-7.6,12.6
		c-3.7,6.4-3.5,6.5-7.2,12.9c-3.7,6.4-3.6,6.5-7.3,12.9c-3.7,6.4-4.1,6.2-7.8,12.6c-1.1,1.9,1.3,4.9,4.8,6.9c5.2,3,5.1,3.3,10.3,6.3
		c5.2,3,5.4,2.8,10.6,5.8s5.3,2.9,10.5,5.9c3.5,2,7.1,2.6,8.1,0.7c3.6-6.3,3.8-6.2,7.5-12.5c3.6-6.3,3.2-6.6,6.8-12.9
		c3.6-6.3,3.5-6.4,7.2-12.7c3.6-6.3,3.5-6.4,7.2-12.7c3.6-6.3,4-6.1,7.6-12.4c3.6-6.3,3.8-6.2,7.5-12.5c3.6-6.3,3.7-6.3,7.3-12.6
		c3.6-6.3,3.4-6.4,7.1-12.7s1.3-8.6,7.6-12.2c6.3-3.6,7-0.7,14.3-0.7c7.2,0,7.2,0.1,14.5,0.1c7.2,0,7.2,0.7,14.5,0.7
		c7.2,0,7.2-0.5,14.5-0.5c7.2,0,7.2,0.5,14.5,0.5c7.2,0,7.2-0.3,14.5-0.3c7.2,0,7.2-0.5,14.5-0.5c7.2,0,7.2,0.1,14.5,0.1
		c7.3,0,7.3,0.2,14.5,0.2s7.3,0,14.5,0c2.3,0,4.1-3.5,4.1-7.9c0-6.5-0.4-6.5-0.4-13c0-6.5,0.6-6.5,0.6-13s-0.5-6.5-0.5-13
		C1510.7,269.5,1509,266.3,1506.8,266.3z"/>
	<path class="st5" d="M1506.8,266.3c-7.1,0-7.1-0.1-14.1-0.1c-7.1,0-7.1-0.5-14.1-0.5c-7.1,0-7.1,0.3-14.1,0.3
		c-7.1,0-7.1-0.4-14.1-0.4c-7.1,0-7.1,0.4-14.1,0.4c-7.1,0-7.1,0.1-14.1,0.1c-7.1,0-7.1,0.2-14.1,0.2c-7.1,0-7.1-0.3-14.1-0.3
		c-7.1,0-7.1-0.7-14.1-0.7c-7.1,0-7.1,0-14.1,0c-7.1,0-7.1,0.4-14.1,0.4s-7.1,0-14.1,0c-0.7,0-1.2,0.8-1.8,1.4
		c-0.9,0.2-2.2,0-2.5,0.6c-3.7,6.4-3.7,6.4-7.4,12.8c-3.7,6.4-3.2,6.7-6.9,13.1c-3.7,6.4-4.1,6.1-7.8,12.5c-3.7,6.4-3,6.8-6.7,13.2
		c-3.7,6.4-3.9,6.3-7.6,12.7c-3.7,6.4-3.5,6.5-7.2,12.9c-3.7,6.4-3.8,6.4-7.5,12.8c-3.7,6.4-4,6.2-7.6,12.6
		c-3.7,6.4-3.5,6.5-7.2,12.9c-3.7,6.4-3.6,6.5-7.3,12.9c-3.7,6.4-4.1,6.2-7.8,12.6c-1.1,1.9,1.3,4.9,4.8,6.9c5.2,3,5.1,3.3,10.3,6.3
		c5.2,3,5.4,2.8,10.6,5.8s5.3,2.9,10.5,5.9c3.5,2,7.1,2.6,8.1,0.7c3.6-6.3,3.8-6.2,7.5-12.5c3.6-6.3,3.2-6.6,6.8-12.9
		c3.6-6.3,3.5-6.4,7.2-12.7c3.6-6.3,3.5-6.4,7.2-12.7c3.6-6.3,4-6.1,7.6-12.4c3.6-6.3,3.8-6.2,7.5-12.5c3.6-6.3,3.7-6.3,7.3-12.6
		c3.6-6.3,3.4-6.4,7.1-12.7s1.3-8.6,7.6-12.2c6.3-3.6,7-0.7,14.3-0.7c7.2,0,7.2,0.1,14.5,0.1c7.2,0,7.2,0.7,14.5,0.7
		c7.2,0,7.2-0.5,14.5-0.5c7.2,0,7.2,0.5,14.5,0.5c7.2,0,7.2-0.3,14.5-0.3c7.2,0,7.2-0.5,14.5-0.5c7.2,0,7.2,0.1,14.5,0.1
		c7.3,0,7.3,0.2,14.5,0.2s7.3,0,14.5,0c2.3,0,4.1-3.5,4.1-7.9c0-6.5-0.4-6.5-0.4-13c0-6.5,0.6-6.5,0.6-13s-0.5-6.5-0.5-13
		C1510.7,269.5,1509,266.3,1506.8,266.3z"/>
</g>
<g>
	<path class="st4" d="M1473.2,171.8c0.8,0,1.6-0.1,2.2-0.1c0.8,0,1.6,0.3,2.2,0.3c0.8,0,1.6-0.3,2.2-0.3c0.8,0,1.5-0.1,2.2-0.1
		c0.7,0,1.4,0.2,2.2,0.2c0.7,0,1.4,0.1,2.2,0.1c0.7,0,1.4,0.2,2.2,0.2c0.8,0,1.5,0.1,2.2,0.3c0.7,0.2,1.4,0.5,2,1
		c0.6,0.5,1.4,0.8,1.8,1.4c0.4,0.6,0.7,1.4,0.9,2.1c0.2,0.7,0,1.5,0,2.3c0,0.9,0,1.7,0,2.4c0,0.9,0.4,1.7,0.4,2.4c0,0.9,0,1.7,0,2.4
		c0,0.8-0.3,1.6-0.3,2.4c0,0.7,0.2,1.5,0.2,2.4c0,0.7-0.2,1.5-0.2,2.4c0,0.7,0.2,1.5,0.2,2.4c0,0.9,0.1,1.7,0.1,2.4
		c0,0.9,0.1,1.7,0.1,2.4c0,0.9-0.1,1.7-0.1,2.4c0,0.8-0.3,1.6-0.3,2.4c0,0.7,0,1.5,0,2.4c0,0.7,0.2,1.5,0.2,2.4c0,0.7,0,1.5,0,2.4
		c0,0.9,0.2,1.7,0.2,2.4c0,0.9-0.4,1.7-0.5,2.4c0,0.9,0,1.7,0,2.4c0,0.8,0.2,1.6,0.2,2.4c0,0.7-0.3,1.5-0.3,2.4
		c0,0.7,0.4,1.5,0.4,2.4c0,0.7-0.1,1.5-0.1,2.4c0,0.8,0,1.6-0.3,2.3c-0.2,0.7-0.6,1.4-1.1,2.1c-0.4,0.6-1.1,1.1-1.7,1.5
		c-0.6,0.5-1.2,0.9-2,1.1c-0.7,0.2-1.5,0.4-2.3,0.4c-0.8,0-1.6-0.2-2.2-0.2c-0.8,0-1.6,0.3-2.2,0.3c-0.8,0-1.6-0.1-2.2-0.2
		c-0.8,0-1.5,0.1-2.2,0.1c-0.7,0-1.4,0-2.2,0c-0.7,0-1.4-0.3-2.2-0.3c-0.7,0-1.4-0.1-2.2-0.1c-0.8,0-1.6,0.1-2.3-0.1
		c-0.7-0.2-1.5-0.6-2.1-1c-0.6-0.5-1.3-1-1.7-1.6c-0.5-0.6-0.7-1.4-0.9-2.2c-0.2-0.7-0.3-1.5-0.3-2.3c0-0.9,0-1.7,0-2.4
		c0-0.9-0.1-1.7-0.1-2.4c0-0.9,0.3-1.7,0.3-2.4c0-0.8-0.3-1.6-0.3-2.4c0-0.7,0.1-1.5,0.1-2.4c0-0.7,0.3-1.5,0.3-2.4
		c0-0.7-0.2-1.5-0.2-2.4c0-0.9,0.2-1.7,0.2-2.4c0-0.9-0.2-1.7-0.2-2.4c0-0.9-0.3-1.7-0.3-2.4c0-0.8,0-1.6,0-2.4
		c0-0.7,0.1-1.5,0.1-2.4c0-0.7,0-1.5,0-2.4c0-0.7,0-1.5,0-2.4c0-0.9-0.2-1.7-0.2-2.4c0-0.9,0.3-1.7,0.3-2.4c0-0.9-0.3-1.7-0.3-2.4
		c0-0.8-0.1-1.6-0.1-2.4c0-0.7,0.3-1.5,0.3-2.4c0-0.7,0-1.5,0-2.4c0-0.7,0.1-1.5,0.1-2.4c0-0.8,0.1-1.5,0.4-2.2
		c0.2-0.7,0.6-1.4,1.1-2c0.5-0.6,1-1.1,1.6-1.6c0.6-0.4,1.2-1,1.9-1.2C1471.6,172,1472.4,171.8,1473.2,171.8z"/>
</g>
<g>
	<path class="st4" d="M1528.3,171.9c0.8,0,1.6,0.2,2.2,0.2c0.8,0,1.6,0,2.2,0c0.8,0,1.6,0,2.2,0c0.8,0,1.5,0,2.2,0
		c0.7,0,1.4,0,2.2,0c0.7,0,1.4,0,2.2,0c0.7,0,1.4-0.1,2.2-0.1c0.8,0,1.5,0.1,2.2,0.3c0.7,0.2,1.5,0.4,2.2,0.8
		c0.6,0.5,1.2,1.1,1.6,1.7c0.4,0.6,0.5,1.4,0.7,2.2c0.2,0.7,0.7,1.4,0.7,2.2c0,0.9-0.2,1.7-0.2,2.4c0,0.9,0.2,1.7,0.2,2.4
		c0,0.9,0.1,1.7,0.1,2.4c0,0.8-0.4,1.6-0.3,2.4c0,0.7,0.1,1.5,0.1,2.4c0,0.7,0.4,1.5,0.4,2.4c0,0.7-0.4,1.5-0.4,2.4
		c0,0.9,0.3,1.7,0.3,2.4c0,0.9-0.1,1.7-0.1,2.4c0,0.9,0.1,1.7,0.1,2.4c0,0.8-0.3,1.6-0.3,2.4c0,0.7,0.1,1.5,0.1,2.4
		c0,0.7,0.2,1.5,0.2,2.4c0,0.7-0.2,1.5-0.2,2.4c0,0.9,0.1,1.7,0.1,2.4c0,0.9-0.3,1.7-0.3,2.4c0,0.9,0.3,1.7,0.3,2.4
		c0,0.8,0.1,1.6,0.2,2.4c0,0.7-0.2,1.5-0.1,2.4c0,0.7-0.1,1.5-0.1,2.4c0,0.7-0.1,1.5-0.1,2.4c0,0.8-0.1,1.5-0.3,2.2
		c-0.2,0.7-0.6,1.4-1,2c-0.5,0.6-0.8,1.4-1.4,1.9c-0.6,0.4-1.4,0.7-2.2,1c-0.7,0.2-1.5,0-2.3,0c-0.8,0-1.6,0-2.2,0
		c-0.8,0-1.6,0.4-2.2,0.4c-0.8,0-1.6,0-2.2-0.1c-0.8,0-1.5-0.3-2.2-0.3c-0.7,0-1.4,0.1-2.2,0.1c-0.7,0-1.4-0.2-2.2-0.2
		c-0.7,0-1.4,0.2-2.2,0.2c-0.8,0-1.6-0.1-2.3-0.3c-0.7-0.2-1.5-0.5-2.1-0.9c-0.6-0.4-1.1-1.1-1.6-1.7c-0.5-0.6-0.5-1.4-0.8-2.2
		c-0.2-0.7-0.4-1.4-0.4-2.2c0-0.9-0.2-1.7-0.2-2.4c0-0.9,0-1.7,0-2.4c0-0.9-0.2-1.7-0.2-2.4c0-0.8,0.4-1.6,0.4-2.4
		c0-0.7,0-1.5,0-2.4c0-0.7-0.3-1.5-0.3-2.4c0-0.7,0.3-1.5,0.3-2.4c0-0.9-0.4-1.7-0.4-2.4c0-0.9,0.1-1.7,0.1-2.4
		c0-0.9-0.1-1.7-0.1-2.4c0-0.8,0-1.6,0.1-2.4c0-0.7,0.2-1.5,0.2-2.4c0-0.7-0.1-1.5-0.1-2.4c0-0.7-0.1-1.5-0.1-2.4
		c0-0.9,0.2-1.7,0.2-2.4c0-0.9-0.3-1.7-0.3-2.4c0-0.9,0.1-1.7,0.2-2.4c0-0.8-0.1-1.6-0.1-2.4c0-0.7,0-1.5,0-2.4
		c0-0.7,0.3-1.5,0.3-2.4c0-0.7,0.1-1.5,0.1-2.4c0-0.8-0.1-1.6,0.1-2.3c0.2-0.7,0.6-1.5,1-2.1c0.5-0.6,1-1.3,1.6-1.7
		c0.6-0.4,1.4-0.6,2.2-0.9C1526.7,172,1527.5,171.9,1528.3,171.9z"/>
</g>
</svg>
