<?xml version="1.0" encoding="utf-8"?>
<!-- Generator: Adobe Illustrator 25.2.3, SVG Export Plug-In . SVG Version: 6.00 Build 0)  -->
<svg version="1.1" id="レイヤー_1" xmlns="http://www.w3.org/2000/svg" xmlns:xlink="http://www.w3.org/1999/xlink" x="0px"
	 y="0px" viewBox="0 0 2268.9 841.9" style="enable-background:new 0 0 2268.9 841.9;" xml:space="preserve">
<style type="text/css">
	.st0{fill:#FFFFFF;}
	.st1{fill:none;stroke:#040000;stroke-width:11.0171;}
	.st2{fill:#040000;}
	.st3{fill:#C4C4C4;}
	.st4{fill:none;stroke:#040000;stroke-width:11;}
</style>
<g>
	<path class="st0" d="M473.8,560.8c6.2-3.6,5.9-4,12.1-7.6c6.2-3.6,6.5-3.1,12.6-6.6c6.2-3.6,5.8-4.2,12-7.8
		c6.2-3.6,6.4-3.1,12.6-6.7c6.2-3.6,6.2-3.5,12.4-7.1c6.2-3.6,6.1-3.6,12.3-7.2c6.2-3.6,6.4-3.3,12.5-6.8c6.2-3.6,5.9-4,12.1-7.6
		c6.2-3.6,6.4-3.2,12.6-6.8c6.2-3.6,6.2-3.5,12.4-7.1c6.2-3.6,6.1-3.8,12.2-7.3c6.2-3.6,5.8-4.2,12-7.7c6.2-3.6,6.2-3.5,12.4-7
		c6.2-3.6,6.1-3.7,12.3-7.2c6.2-3.6,6.3-3.3,12.5-6.9c6.2-3.6,6.5-3.1,12.6-6.7c6.2-3.6,6.2-3.5,12.4-7.1c6.2-3.6,6-3.9,12.2-7.5
		c6.2-3.6,6.3-3.3,12.5-6.9c6.2-3.6,5.8-4.2,12-7.8c6.2-3.6,6.4-3.2,12.6-6.7c6.2-3.6,6.3-3.4,12.5-7c3.5-2,7.9-1,10,2.5
		c3,5.2,2.6,5.5,5.6,10.7c3,5.2,3.4,5,6.4,10.2s3.5,4.9,6.5,10.1c2,3.5,0.5,8.6-3,10.6c-6.2,3.6-6.2,3.6-12.3,7.2
		c-6.2,3.6-6.2,3.5-12.4,7c-6.2,3.6-6.5,3-12.7,6.6c-6.2,3.6-5.7,4.4-11.9,8c-6.2,3.6-6.5,3-12.7,6.5c-6.2,3.6-5.9,4-12.1,7.6
		c-6.2,3.6-6.2,3.5-12.4,7c-6.2,3.6-6.3,3.3-12.5,6.9c-6.2,3.6-5.9,4-12.1,7.6c-6.2,3.6-6.7,2.6-12.9,6.2c-6.2,3.6-5.7,4.5-11.8,8
		c-6.2,3.6-6.2,3.6-12.3,7.2c-6.2,3.6-6.7,2.6-12.9,6.2c-6.2,3.6-5.8,4.1-12,7.7c-6.2,3.6-6,3.9-12.2,7.5c-6.2,3.6-6.6,2.9-12.7,6.5
		c-6.2,3.6-6.2,3.5-12.4,7.1c-6.2,3.6-5.8,4.2-12,7.7c-6.2,3.6-6.1,3.7-12.3,7.3c-6.2,3.6-6.3,3.3-12.5,6.9c-6.2,3.6-6.5,3-12.7,6.5
		s-5.7,4.4-11.9,8c-3.5,2-7.9,0.1-9.9-3.4c-3-5.2-3.6-4.9-6.7-10.1c-3-5.2-3-5.3-6-10.5s-3.1-5.2-6.1-10.4
		C468.7,567.2,470.3,562.9,473.8,560.8z"/>
	<path class="st1" d="M473.8,560.8c6.2-3.6,5.9-4,12.1-7.6c6.2-3.6,6.5-3.1,12.6-6.6c6.2-3.6,5.8-4.2,12-7.8
		c6.2-3.6,6.4-3.1,12.6-6.7c6.2-3.6,6.2-3.5,12.4-7.1c6.2-3.6,6.1-3.6,12.3-7.2c6.2-3.6,6.4-3.3,12.5-6.8c6.2-3.6,5.9-4,12.1-7.6
		c6.2-3.6,6.4-3.2,12.6-6.8c6.2-3.6,6.2-3.5,12.4-7.1c6.2-3.6,6.1-3.8,12.2-7.3c6.2-3.6,5.8-4.2,12-7.7c6.2-3.6,6.2-3.5,12.4-7
		c6.2-3.6,6.1-3.7,12.3-7.2c6.2-3.6,6.3-3.3,12.5-6.9c6.2-3.6,6.5-3.1,12.6-6.7c6.2-3.6,6.2-3.5,12.4-7.1c6.2-3.6,6-3.9,12.2-7.5
		c6.2-3.6,6.3-3.3,12.5-6.9c6.2-3.6,5.8-4.2,12-7.8c6.2-3.6,6.4-3.2,12.6-6.7c6.2-3.6,6.3-3.4,12.5-7c3.5-2,7.9-1,10,2.5
		c3,5.2,2.6,5.5,5.6,10.7c3,5.2,3.4,5,6.4,10.2s3.5,4.9,6.5,10.1c2,3.5,0.5,8.6-3,10.6c-6.2,3.6-6.2,3.6-12.3,7.2
		c-6.2,3.6-6.2,3.5-12.4,7c-6.2,3.6-6.5,3-12.7,6.6c-6.2,3.6-5.7,4.4-11.9,8c-6.2,3.6-6.5,3-12.7,6.5c-6.2,3.6-5.9,4-12.1,7.6
		c-6.2,3.6-6.2,3.5-12.4,7c-6.2,3.6-6.3,3.3-12.5,6.9c-6.2,3.6-5.9,4-12.1,7.6c-6.2,3.6-6.7,2.6-12.9,6.2c-6.2,3.6-5.7,4.5-11.8,8
		c-6.2,3.6-6.2,3.6-12.3,7.2c-6.2,3.6-6.7,2.6-12.9,6.2c-6.2,3.6-5.8,4.1-12,7.7c-6.2,3.6-6,3.9-12.2,7.5c-6.2,3.6-6.6,2.9-12.7,6.5
		c-6.2,3.6-6.2,3.5-12.4,7.1c-6.2,3.6-5.8,4.2-12,7.7c-6.2,3.6-6.1,3.7-12.3,7.3c-6.2,3.6-6.3,3.3-12.5,6.9c-6.2,3.6-6.5,3-12.7,6.5
		s-5.7,4.4-11.9,8c-3.5,2-7.9,0.1-9.9-3.4c-3-5.2-3.6-4.9-6.7-10.1c-3-5.2-3-5.3-6-10.5s-3.1-5.2-6.1-10.4
		C468.7,567.2,470.3,562.9,473.8,560.8z"/>
</g>
<g>
	<path class="st2" d="M675.7,253.9c0.8,0,1.6-0.1,2.2-0.1c0.8,0,1.6,0,2.2,0c0.8,0,1.6,0.1,2.2,0.1c0.8,0,1.5,0.2,2.2,0.2
		c0.7,0,1.4-0.5,2.2-0.5c0.7,0,1.4,0,2.2,0c0.7,0,1.4,0.4,2.2,0.4c0.8,0,1.6-0.1,2.3,0.2c0.7,0.2,1.4,0.7,2,1.2
		c0.6,0.5,1.2,1,1.6,1.6c0.4,0.6,0.8,1.3,1,2c0.2,0.7,0.5,1.5,0.5,2.3c0,0.9-0.1,1.7-0.1,2.4c0,0.9-0.1,1.7-0.1,2.4
		c0,0.9,0.2,1.7,0.2,2.4c0,0.8-0.2,1.6-0.2,2.4c0,0.7,0.3,1.5,0.3,2.4c0,0.7-0.2,1.5-0.2,2.4c0,0.7,0,1.5,0,2.4c0,0.9,0,1.7,0,2.4
		c0,0.9-0.1,1.7-0.1,2.4c0,0.9,0.2,1.7,0.3,2.4c0,0.8-0.1,1.6-0.1,2.4c0,0.7,0,1.5,0,2.4c0,0.7,0.1,1.5,0.1,2.4
		c0,0.7,0.3,1.5,0.3,2.4c0,0.9-0.1,1.7-0.1,2.4c0,0.9,0.1,1.7,0.1,2.4c0,0.9-0.1,1.7-0.1,2.4c0,0.8-0.2,1.6-0.2,2.4
		c0,0.7,0,1.5,0,2.4c0,0.7,0.2,1.5,0.2,2.4c0,0.7-0.1,1.5-0.1,2.4c0,0.8,0.2,1.6-0.1,2.4c-0.2,0.7-0.8,1.4-1.3,2
		c-0.5,0.6-1.1,1.1-1.7,1.6c-0.6,0.5-1.3,0.9-2,1.2c-0.7,0.2-1.5,0.2-2.3,0.2c-0.8,0-1.6,0.2-2.2,0.2c-0.8,0-1.6,0.2-2.2,0.2
		c-0.8,0-1.6-0.1-2.2-0.1c-0.8,0-1.5,0-2.2,0c-0.7,0-1.4-0.1-2.2-0.1c-0.7,0-1.4-0.3-2.2-0.3c-0.7,0-1.4,0.4-2.2,0.4
		c-0.8,0-1.5-0.4-2.2-0.7c-0.7-0.2-1.5-0.4-2.2-0.9c-0.6-0.5-1.2-1.1-1.6-1.7c-0.4-0.6-0.7-1.4-0.9-2.1c-0.2-0.7-0.6-1.5-0.6-2.3
		c0-0.9,0.5-1.7,0.5-2.4c0-0.9-0.4-1.7-0.4-2.4c0-0.9,0-1.7,0-2.4c0-0.8,0.5-1.6,0.5-2.4c0-0.7-0.3-1.5-0.3-2.4
		c0-0.7-0.2-1.5-0.2-2.4c0-0.7,0.3-1.5,0.3-2.4c0-0.9,0-1.7,0-2.4c0-0.9-0.3-1.7-0.3-2.4c0-0.9-0.1-1.7-0.1-2.4
		c0-0.8,0.1-1.6,0.1-2.4c0-0.7,0.3-1.5,0.3-2.4c0-0.7-0.4-1.5-0.4-2.4c0-0.7,0.5-1.5,0.5-2.4c0-0.9-0.3-1.7-0.3-2.4
		c0-0.9,0-1.7,0-2.4c0-0.9,0-1.7,0-2.4c0-0.8,0-1.6,0-2.4c0-0.7,0.3-1.5,0.3-2.4c0-0.7-0.4-1.5-0.4-2.4c0-0.7,0.2-1.5,0.2-2.4
		c0-0.8,0.1-1.5,0.3-2.2c0.2-0.7,0.6-1.4,1-2c0.5-0.6,1-1.2,1.6-1.7c0.6-0.4,1.3-0.9,2-1.2C674.1,253.9,674.9,253.9,675.7,253.9z"/>
	<path class="st1" d="M675.7,253.9c0.8,0,1.6-0.1,2.2-0.1c0.8,0,1.6,0,2.2,0c0.8,0,1.6,0.1,2.2,0.1c0.8,0,1.5,0.2,2.2,0.2
		c0.7,0,1.4-0.5,2.2-0.5c0.7,0,1.4,0,2.2,0c0.7,0,1.4,0.4,2.2,0.4c0.8,0,1.6-0.1,2.3,0.2c0.7,0.2,1.4,0.7,2,1.2
		c0.6,0.5,1.2,1,1.6,1.6c0.4,0.6,0.8,1.3,1,2c0.2,0.7,0.5,1.5,0.5,2.3c0,0.9-0.1,1.7-0.1,2.4c0,0.9-0.1,1.7-0.1,2.4
		c0,0.9,0.2,1.7,0.2,2.4c0,0.8-0.2,1.6-0.2,2.4c0,0.7,0.3,1.5,0.3,2.4c0,0.7-0.2,1.5-0.2,2.4c0,0.7,0,1.5,0,2.4c0,0.9,0,1.7,0,2.4
		c0,0.9-0.1,1.7-0.1,2.4c0,0.9,0.2,1.7,0.3,2.4c0,0.8-0.1,1.6-0.1,2.4c0,0.7,0,1.5,0,2.4c0,0.7,0.1,1.5,0.1,2.4
		c0,0.7,0.3,1.5,0.3,2.4c0,0.9-0.1,1.7-0.1,2.4c0,0.9,0.1,1.7,0.1,2.4c0,0.9-0.1,1.7-0.1,2.4c0,0.8-0.2,1.6-0.2,2.4
		c0,0.7,0,1.5,0,2.4c0,0.7,0.2,1.5,0.2,2.4c0,0.7-0.1,1.5-0.1,2.4c0,0.8,0.2,1.6-0.1,2.4c-0.2,0.7-0.8,1.4-1.3,2
		c-0.5,0.6-1.1,1.1-1.7,1.6c-0.6,0.5-1.3,0.9-2,1.2c-0.7,0.2-1.5,0.2-2.3,0.2c-0.8,0-1.6,0.2-2.2,0.2c-0.8,0-1.6,0.2-2.2,0.2
		c-0.8,0-1.6-0.1-2.2-0.1c-0.8,0-1.5,0-2.2,0c-0.7,0-1.4-0.1-2.2-0.1c-0.7,0-1.4-0.3-2.2-0.3c-0.7,0-1.4,0.4-2.2,0.4
		c-0.8,0-1.5-0.4-2.2-0.7c-0.7-0.2-1.5-0.4-2.2-0.9c-0.6-0.5-1.2-1.1-1.6-1.7c-0.4-0.6-0.7-1.4-0.9-2.1c-0.2-0.7-0.6-1.5-0.6-2.3
		c0-0.9,0.5-1.7,0.5-2.4c0-0.9-0.4-1.7-0.4-2.4c0-0.9,0-1.7,0-2.4c0-0.8,0.5-1.6,0.5-2.4c0-0.7-0.3-1.5-0.3-2.4
		c0-0.7-0.2-1.5-0.2-2.4c0-0.7,0.3-1.5,0.3-2.4c0-0.9,0-1.7,0-2.4c0-0.9-0.3-1.7-0.3-2.4c0-0.9-0.1-1.7-0.1-2.4
		c0-0.8,0.1-1.6,0.1-2.4c0-0.7,0.3-1.5,0.3-2.4c0-0.7-0.4-1.5-0.4-2.4c0-0.7,0.5-1.5,0.5-2.4c0-0.9-0.3-1.7-0.3-2.4
		c0-0.9,0-1.7,0-2.4c0-0.9,0-1.7,0-2.4c0-0.8,0-1.6,0-2.4c0-0.7,0.3-1.5,0.3-2.4c0-0.7-0.4-1.5-0.4-2.4c0-0.7,0.2-1.5,0.2-2.4
		c0-0.8,0.1-1.5,0.3-2.2c0.2-0.7,0.6-1.4,1-2c0.5-0.6,1-1.2,1.6-1.7c0.6-0.4,1.3-0.9,2-1.2C674.1,253.9,674.9,253.9,675.7,253.9z"/>
</g>
<g>
	<path class="st2" d="M730.8,253.6c0.8,0,1.6,0.3,2.2,0.3c0.8,0,1.6,0.1,2.2,0.1c0.8,0,1.6-0.2,2.2-0.2c0.8,0,1.5-0.3,2.2-0.3
		c0.7,0,1.4,0,2.2,0c0.7,0,1.4,0.1,2.2,0.1c0.7,0,1.4,0.2,2.2,0.2c0.8,0,1.6-0.1,2.3,0.1c0.7,0.2,1.2,0.9,1.9,1.4
		c0.6,0.5,1.4,0.8,1.9,1.4c0.4,0.6,0.6,1.4,0.9,2.2c0.2,0.7,0.5,1.5,0.5,2.3c0,0.9-0.1,1.7-0.1,2.4c0,0.9-0.2,1.7-0.2,2.4
		c0,0.9,0.4,1.7,0.4,2.4c0,0.8-0.2,1.6-0.2,2.4c0,0.7,0.1,1.5,0.1,2.4c0,0.7,0.2,1.5,0.2,2.4c0,0.7,0.1,1.5,0.1,2.4
		c0,0.9-0.1,1.7-0.1,2.4c0,0.9-0.1,1.7-0.1,2.4c0,0.9-0.3,1.7-0.3,2.4c0,0.8-0.1,1.6-0.1,2.4c0,0.7,0.1,1.5,0.1,2.4
		c0,0.7,0.1,1.5,0.1,2.4c0,0.7,0.2,1.5,0.2,2.4c0,0.9,0.1,1.7,0.1,2.4c0,0.9,0,1.7,0,2.4c0,0.9-0.2,1.7-0.2,2.4
		c0,0.8-0.3,1.6-0.3,2.4c0,0.7,0.5,1.5,0.5,2.4c0,0.7-0.1,1.5-0.1,2.4c0,0.7-0.4,1.5-0.4,2.4c0,0.8,0.1,1.6-0.1,2.3
		c-0.2,0.7-0.7,1.4-1.1,2c-0.5,0.6-0.9,1.2-1.6,1.6c-0.6,0.4-1.3,0.8-2,1c-0.7,0.2-1.5,0.5-2.3,0.5c-0.8,0-1.6-0.1-2.2-0.1
		c-0.8,0-1.6-0.1-2.2-0.1c-0.8,0-1.6,0.2-2.2,0.2c-0.8,0-1.5-0.2-2.2-0.2c-0.7,0-1.4,0.3-2.2,0.3c-0.7,0-1.4-0.2-2.2-0.2
		c-0.7,0-1.4,0-2.2,0c-0.8,0-1.5-0.1-2.3-0.3c-0.7-0.2-1.3-0.7-1.9-1.2c-0.6-0.5-1.3-0.8-1.8-1.5c-0.4-0.6-0.6-1.4-0.9-2.1
		c-0.2-0.7-0.3-1.4-0.3-2.2c0-0.9-0.1-1.7-0.1-2.4c0-0.9-0.3-1.7-0.3-2.4c0-0.9,0-1.7,0-2.4c0-0.8-0.1-1.6-0.1-2.4
		c0-0.7,0.1-1.5,0.1-2.4c0-0.7,0.2-1.5,0.2-2.4c0-0.7,0-1.5,0-2.4c0-0.9-0.2-1.7-0.2-2.4c0-0.9,0.1-1.7,0.1-2.4
		c0-0.9-0.3-1.7-0.3-2.4c0-0.8,0.2-1.6,0.2-2.4c0-0.7,0.1-1.5,0.1-2.4c0-0.7-0.1-1.5-0.1-2.4c0-0.7,0.2-1.5,0.2-2.4
		c0-0.9-0.2-1.7-0.2-2.4c0-0.9-0.2-1.7-0.2-2.4c0-0.9,0.1-1.7,0.1-2.4c0-0.8,0-1.6,0-2.4c0-0.7,0.1-1.5,0.1-2.4
		c0-0.7,0.3-1.5,0.3-2.4c0-0.7-0.4-1.5-0.4-2.4c0-0.8,0.4-1.5,0.6-2.3c0.2-0.7,0.4-1.6,0.8-2.2c0.4-0.6,1.1-1.2,1.7-1.6
		c0.6-0.5,1.4-0.7,2.1-1C729.3,253.9,730,253.6,730.8,253.6z"/>
	<path class="st1" d="M730.8,253.6c0.8,0,1.6,0.3,2.2,0.3c0.8,0,1.6,0.1,2.2,0.1c0.8,0,1.6-0.2,2.2-0.2c0.8,0,1.5-0.3,2.2-0.3
		c0.7,0,1.4,0,2.2,0c0.7,0,1.4,0.1,2.2,0.1c0.7,0,1.4,0.2,2.2,0.2c0.8,0,1.6-0.1,2.3,0.1c0.7,0.2,1.2,0.9,1.9,1.4
		c0.6,0.5,1.4,0.8,1.9,1.4c0.4,0.6,0.6,1.4,0.9,2.2c0.2,0.7,0.5,1.5,0.5,2.3c0,0.9-0.1,1.7-0.1,2.4c0,0.9-0.2,1.7-0.2,2.4
		c0,0.9,0.4,1.7,0.4,2.4c0,0.8-0.2,1.6-0.2,2.4c0,0.7,0.1,1.5,0.1,2.4c0,0.7,0.2,1.5,0.2,2.4c0,0.7,0.1,1.5,0.1,2.4
		c0,0.9-0.1,1.7-0.1,2.4c0,0.9-0.1,1.7-0.1,2.4c0,0.9-0.3,1.7-0.3,2.4c0,0.8-0.1,1.6-0.1,2.4c0,0.7,0.1,1.5,0.1,2.4
		c0,0.7,0.1,1.5,0.1,2.4c0,0.7,0.2,1.5,0.2,2.4c0,0.9,0.1,1.7,0.1,2.4c0,0.9,0,1.7,0,2.4c0,0.9-0.2,1.7-0.2,2.4
		c0,0.8-0.3,1.6-0.3,2.4c0,0.7,0.5,1.5,0.5,2.4c0,0.7-0.1,1.5-0.1,2.4c0,0.7-0.4,1.5-0.4,2.4c0,0.8,0.1,1.6-0.1,2.3
		c-0.2,0.7-0.7,1.4-1.1,2c-0.5,0.6-0.9,1.2-1.6,1.6c-0.6,0.4-1.3,0.8-2,1c-0.7,0.2-1.5,0.5-2.3,0.5c-0.8,0-1.6-0.1-2.2-0.1
		c-0.8,0-1.6-0.1-2.2-0.1c-0.8,0-1.6,0.2-2.2,0.2c-0.8,0-1.5-0.2-2.2-0.2c-0.7,0-1.4,0.3-2.2,0.3c-0.7,0-1.4-0.2-2.2-0.2
		c-0.7,0-1.4,0-2.2,0c-0.8,0-1.5-0.1-2.3-0.3c-0.7-0.2-1.3-0.7-1.9-1.2c-0.6-0.5-1.3-0.8-1.8-1.5c-0.4-0.6-0.6-1.4-0.9-2.1
		c-0.2-0.7-0.3-1.4-0.3-2.2c0-0.9-0.1-1.7-0.1-2.4c0-0.9-0.3-1.7-0.3-2.4c0-0.9,0-1.7,0-2.4c0-0.8-0.1-1.6-0.1-2.4
		c0-0.7,0.1-1.5,0.1-2.4c0-0.7,0.2-1.5,0.2-2.4c0-0.7,0-1.5,0-2.4c0-0.9-0.2-1.7-0.2-2.4c0-0.9,0.1-1.7,0.1-2.4
		c0-0.9-0.3-1.7-0.3-2.4c0-0.8,0.2-1.6,0.2-2.4c0-0.7,0.1-1.5,0.1-2.4c0-0.7-0.1-1.5-0.1-2.4c0-0.7,0.2-1.5,0.2-2.4
		c0-0.9-0.2-1.7-0.2-2.4c0-0.9-0.2-1.7-0.2-2.4c0-0.9,0.1-1.7,0.1-2.4c0-0.8,0-1.6,0-2.4c0-0.7,0.1-1.5,0.1-2.4
		c0-0.7,0.3-1.5,0.3-2.4c0-0.7-0.4-1.5-0.4-2.4c0-0.8,0.4-1.5,0.6-2.3c0.2-0.7,0.4-1.6,0.8-2.2c0.4-0.6,1.1-1.2,1.7-1.6
		c0.6-0.5,1.4-0.7,2.1-1C729.3,253.9,730,253.6,730.8,253.6z"/>
</g>
<g>
	<path class="st3" d="M242.6,627.3c0-7.2-0.5-7.2-0.5-14.5c0-7.2,0.2-7.2,0.2-14.5c0-7.2-0.7-7.2-0.7-14.5c0-7.2-0.1-7.2-0.1-14.5
		c0-7.2,0.5-7.2,0.5-14.5c0-7.2-0.4-7.2-0.4-14.5c0-7.2,0.4-7.2,0.4-14.5c0-7.2,0.5-7.2,0.5-14.5c0-7.2-0.8-7.2-0.8-14.5
		c0-7.2,1-7.2,1-14.5c0-7.2-0.9-7.2-0.9-14.5c0-7.2,0.5-7.2,0.5-14.5c0-7.2,0.5-7.2,0.5-14.5c0-7.2-0.4-7.2-0.4-14.5
		c0-7.2-0.1-7.2-0.1-14.5c0-7.2,0.4-7.2,0.4-14.5c0-7.2-0.8-7.2-0.8-14.5c0-7.3,0.4-7.3,0.4-14.5c0-7.2,0.1-7.2,0.1-14.5
		c0-7.3,0.1-7.3,0.1-14.5s-0.7-7.3-0.7-14.5c0-4.1,3.7-7.3,7.8-7.3c6,0,6,0,12.1,0c6,0,6,0.2,12.1,0.2c6,0,6-0.6,12.1-0.6
		c4.1,0,7.4,3.6,7.4,7.6c0,7.2,0.3,7.2,0.3,14.5c0,7.2,0.1,7.2,0.1,14.5c0,7.2,0.1,7.2,0.1,14.5c0,7.2-0.8,7.2-0.8,14.5
		c0,7.2,0.8,7.2,0.8,14.5c0,7.2,0,7.2,0,14.5c0,7.2-0.3,7.2-0.3,14.5c0,7.2,0,7.2,0,14.5c0,7.2-0.2,7.2-0.2,14.5
		c0,7.2-0.6,7.2-0.6,14.5c0,7.2,0.5,7.2,0.5,14.5c0,7.2,0.2,7.2,0.2,14.5c0,7.2-0.5,7.2-0.5,14.5c0,7.2,0.4,7.2,0.4,14.5
		c0,7.2,0.5,7.2,0.5,14.5c0,7.2-0.2,7.2-0.2,14.5c0,7.2,0.2,7.2,0.2,14.5c0,7.3-0.6,7.3-0.6,14.5c0,7.2,0.5,7.2,0.5,14.5
		c0,7.3,0.2,7.3,0.2,14.5c0,7.3-0.9,7.3-0.9,14.5c0,4.1-3,7.6-7.1,7.6c-6,0-6-0.9-12.1-0.9c-6,0-6,0-12.1,0c-6,0-6,1.1-12.1,1.1
		C245.4,635.2,242.6,631.4,242.6,627.3z"/>
	<path class="st1" d="M242.6,627.3c0-7.2-0.5-7.2-0.5-14.5c0-7.2,0.2-7.2,0.2-14.5c0-7.2-0.7-7.2-0.7-14.5c0-7.2-0.1-7.2-0.1-14.5
		c0-7.2,0.5-7.2,0.5-14.5c0-7.2-0.4-7.2-0.4-14.5c0-7.2,0.4-7.2,0.4-14.5c0-7.2,0.5-7.2,0.5-14.5c0-7.2-0.8-7.2-0.8-14.5
		c0-7.2,1-7.2,1-14.5c0-7.2-0.9-7.2-0.9-14.5c0-7.2,0.5-7.2,0.5-14.5c0-7.2,0.5-7.2,0.5-14.5c0-7.2-0.4-7.2-0.4-14.5
		c0-7.2-0.1-7.2-0.1-14.5c0-7.2,0.4-7.2,0.4-14.5c0-7.2-0.8-7.2-0.8-14.5c0-7.3,0.4-7.3,0.4-14.5c0-7.2,0.1-7.2,0.1-14.5
		c0-7.3,0.1-7.3,0.1-14.5s-0.7-7.3-0.7-14.5c0-4.1,3.7-7.3,7.8-7.3c6,0,6,0,12.1,0c6,0,6,0.2,12.1,0.2c6,0,6-0.6,12.1-0.6
		c4.1,0,7.4,3.6,7.4,7.6c0,7.2,0.3,7.2,0.3,14.5c0,7.2,0.1,7.2,0.1,14.5c0,7.2,0.1,7.2,0.1,14.5c0,7.2-0.8,7.2-0.8,14.5
		c0,7.2,0.8,7.2,0.8,14.5c0,7.2,0,7.2,0,14.5c0,7.2-0.3,7.2-0.3,14.5c0,7.2,0,7.2,0,14.5c0,7.2-0.2,7.2-0.2,14.5
		c0,7.2-0.6,7.2-0.6,14.5c0,7.2,0.5,7.2,0.5,14.5c0,7.2,0.2,7.2,0.2,14.5c0,7.2-0.5,7.2-0.5,14.5c0,7.2,0.4,7.2,0.4,14.5
		c0,7.2,0.5,7.2,0.5,14.5c0,7.2-0.2,7.2-0.2,14.5c0,7.2,0.2,7.2,0.2,14.5c0,7.3-0.6,7.3-0.6,14.5c0,7.2,0.5,7.2,0.5,14.5
		c0,7.3,0.2,7.3,0.2,14.5c0,7.3-0.9,7.3-0.9,14.5c0,4.1-3,7.6-7.1,7.6c-6,0-6-0.9-12.1-0.9c-6,0-6,0-12.1,0c-6,0-6,1.1-12.1,1.1
		C245.4,635.2,242.6,631.4,242.6,627.3z"/>
</g>
<g>
	<path class="st3" d="M467.9,355.8c0.7,0.4,1.6,0.4,2.2,0.7c0.7,0.4,1.4,0.8,2,1.1c0.7,0.4,1.2,1,1.8,1.3c0.6,0.3,1.3,0.6,2,1
		c0.6,0.3,1.3,0.5,2,0.9c0.6,0.3,1,1,1.8,1.4c0.7,0.4,1.6,0.3,2.2,0.7c0.7,0.4,1.4,0.7,2,1c0.7,0.4,1.2,1,1.8,1.4
		c0.6,0.4,1.4,0.4,2.1,0.8c0.6,0.3,0.9,1.1,1.7,1.6c0.6,0.3,1.1,0.8,1.9,1.2c0.7,0.4,1.4,0.8,1.9,1.1c0.7,0.4,1.7,0.3,2.2,0.6
		c0.7,0.4,1,1.3,1.6,1.7c0.6,0.4,1.2,0.8,1.9,1.2c0.5,0.3,1.3,0.6,2,1c0.6,0.3,1.1,1,1.8,1.4c0.7,0.4,1.5,0.5,2.1,0.8
		c0.7,0.4,1.3,0.9,1.9,1.2c0.7,0.4,1.6,0.3,2.2,0.7c0.6,0.3,1.3,0.6,2,1c0.6,0.3,1,0.9,1.8,1.3c0.6,0.3,1.4,0.4,2.1,0.9
		c0.7,0.4,1.2,1,1.8,1.4c0.7,0.4,1.2,1,1.8,1.4c0.7,0.4,1.6,0.3,2.2,0.6c0.6,0.3,0.9,1.3,1.6,1.7c0.6,0.3,1.5,0.2,2.2,0.6
		c0.6,0.3,1.1,1,1.8,1.4c0.7,0.4,1.2,1,1.8,1.4c0.7,0.4,1.5,0.6,2.1,0.9c0.7,0.4,1.3,0.7,1.9,1.1c0.6,0.4,1.1,0.9,1.8,1.4
		c0.6,0.3,1.4,0.3,2.2,0.7c0.6,0.3,1.1,0.9,1.8,1.3c0.7,0.4,1.2,0.9,1.7,1.5c0.5,0.6,0.9,1.2,1.2,1.9c0.3,0.7,1,1.4,1,2.1
		c0.1,0.8-0.3,1.6-0.4,2.3c-0.2,0.7-0.4,1.4-0.8,2.1c-0.5,0.8-0.9,1.4-1.3,2c-0.5,0.8-0.6,1.7-0.9,2.3c-0.4,0.7-1,1.3-1.4,2
		c-0.4,0.6-0.6,1.3-1.1,2.1c-0.4,0.6-0.7,1.3-1.2,2.1c-0.5,0.8-0.8,1.5-1.1,2.1c-0.5,0.8-1.3,1.3-1.6,1.9c-0.4,0.7-0.3,1.6-0.6,2.4
		c-0.3,0.6-0.7,1.3-1.1,2.1c-0.3,0.6-0.9,1.2-1.3,2c-0.5,0.8-0.9,1.5-1.2,2.1c-0.5,0.8-1,1.4-1.3,2c-0.4,0.7-1.2,1.1-1.6,1.9
		c-0.4,0.6-0.5,1.4-1,2.2c-0.4,0.6-0.6,1.4-1.1,2.2c-0.4,0.7-1.1,1.1-1.7,1.6c-0.6,0.5-1.1,1.2-1.8,1.5c-0.7,0.3-1.4,0.8-2.2,0.9
		c-0.8,0.1-1.6-0.1-2.4-0.3c-0.7-0.2-1.6-0.4-2.3-0.8c-0.7-0.4-1.2-1.1-1.7-1.5c-0.7-0.4-1.5-0.5-2.1-0.9c-0.7-0.4-1.4-0.6-2-1
		c-0.6-0.4-0.9-1.2-1.6-1.6c-0.6-0.3-1.4-0.4-2.1-0.8c-0.6-0.3-0.9-1.2-1.6-1.6c-0.7-0.4-1.4-0.8-1.9-1.1c-0.7-0.4-1.7-0.1-2.3-0.4
		c-0.7-0.4-1.2-0.9-1.9-1.2c-0.6-0.3-1.1-0.9-1.8-1.3c-0.6-0.3-1.5-0.2-2.2-0.6c-0.6-0.3-1-1.1-1.7-1.5c-0.7-0.4-1.3-0.9-1.9-1.2
		c-0.7-0.4-1.5-0.5-2.1-0.8c-0.7-0.4-1.2-0.9-1.8-1.2c-0.6-0.4-1-1-1.7-1.4c-0.6-0.3-1.4-0.3-2.1-0.7c-0.6-0.3-1.1-0.9-1.8-1.3
		c-0.7-0.4-1.4-0.7-2-1c-0.7-0.4-1.5-0.6-2-0.9c-0.7-0.4-1-1.3-1.6-1.7c-0.6-0.3-1.5-0.2-2.2-0.6c-0.6-0.3-1.3-0.5-2-0.9
		c-0.6-0.3-1.1-0.8-1.9-1.2c-0.7-0.4-1.4-0.7-2-1.1c-0.7-0.4-1.4-0.8-1.9-1.1c-0.7-0.4-1-1.3-1.6-1.7c-0.6-0.4-1.4-0.3-2.1-0.8
		c-0.6-0.3-1-1-1.7-1.5c-0.6-0.3-1.5-0.2-2.2-0.7c-0.7-0.4-1.3-0.9-1.9-1.2c-0.7-0.4-1.4-0.7-2-1c-0.7-0.4-1-1.3-1.6-1.6
		c-0.6-0.3-1.3-0.5-2-0.9c-0.6-0.3-1.2-0.7-1.9-1.2c-0.6-0.3-1.1-0.9-1.8-1.4c-0.7-0.4-1.5-0.5-2.1-1c-0.5-0.6-1.3-1.1-1.6-1.8
		c-0.3-0.7,0-1.7-0.1-2.4c-0.1-0.8-0.6-1.6-0.4-2.3c0.1-0.7,0.7-1.4,1.1-2.1c0.5-0.8,0.9-1.5,1.3-2.1c0.5-0.8,1.1-1.4,1.4-1.9
		c0.4-0.7,0.8-1.4,1.2-2.1c0.4-0.6,0.7-1.3,1.1-2.1c0.3-0.6,0.4-1.5,0.9-2.3c0.5-0.8,0.7-1.6,1.1-2.2c0.5-0.8,1-1.4,1.4-2
		c0.4-0.7,0.9-1.3,1.4-2c0.4-0.6,0.5-1.4,1-2.2c0.3-0.6,1.2-1,1.7-1.8c0.5-0.8,0.8-1.5,1.1-2.1c0.5-0.8,0.7-1.6,1-2.2
		c0.4-0.7,0.9-1.3,1.3-2c0.3-0.6,0.9-1.2,1.3-2c0.3-0.6,0.5-1.4,0.9-2.2c0.4-0.7,0.8-1.4,1.4-1.9c0.6-0.5,1.4-0.7,2.1-1
		c0.7-0.3,1.4-0.7,2.2-0.7c0.7-0.1,1.6-0.1,2.3,0C466.8,354.6,467.2,355.4,467.9,355.8z"/>
	<path class="st1" d="M467.9,355.8c0.7,0.4,1.6,0.4,2.2,0.7c0.7,0.4,1.4,0.8,2,1.1c0.7,0.4,1.2,1,1.8,1.3c0.6,0.3,1.3,0.6,2,1
		c0.6,0.3,1.3,0.5,2,0.9c0.6,0.3,1,1,1.8,1.4c0.7,0.4,1.6,0.3,2.2,0.7c0.7,0.4,1.4,0.7,2,1c0.7,0.4,1.2,1,1.8,1.4
		c0.6,0.4,1.4,0.4,2.1,0.8c0.6,0.3,0.9,1.1,1.7,1.6c0.6,0.3,1.1,0.8,1.9,1.2c0.7,0.4,1.4,0.8,1.9,1.1c0.7,0.4,1.7,0.3,2.2,0.6
		c0.7,0.4,1,1.3,1.6,1.7c0.6,0.4,1.2,0.8,1.9,1.2c0.5,0.3,1.3,0.6,2,1c0.6,0.3,1.1,1,1.8,1.4c0.7,0.4,1.5,0.5,2.1,0.8
		c0.7,0.4,1.3,0.9,1.9,1.2c0.7,0.4,1.6,0.3,2.2,0.7c0.6,0.3,1.3,0.6,2,1c0.6,0.3,1,0.9,1.8,1.3c0.6,0.3,1.4,0.4,2.1,0.9
		c0.7,0.4,1.2,1,1.8,1.4c0.7,0.4,1.2,1,1.8,1.4c0.7,0.4,1.6,0.3,2.2,0.6c0.6,0.3,0.9,1.3,1.6,1.7c0.6,0.3,1.5,0.2,2.2,0.6
		c0.6,0.3,1.1,1,1.8,1.4c0.7,0.4,1.2,1,1.8,1.4c0.7,0.4,1.5,0.6,2.1,0.9c0.7,0.4,1.3,0.7,1.9,1.1c0.6,0.4,1.1,0.9,1.8,1.4
		c0.6,0.3,1.4,0.3,2.2,0.7c0.6,0.3,1.1,0.9,1.8,1.3c0.7,0.4,1.2,0.9,1.7,1.5c0.5,0.6,0.9,1.2,1.2,1.9c0.3,0.7,1,1.4,1,2.1
		c0.1,0.8-0.3,1.6-0.4,2.3c-0.2,0.7-0.4,1.4-0.8,2.1c-0.5,0.8-0.9,1.4-1.3,2c-0.5,0.8-0.6,1.7-0.9,2.3c-0.4,0.7-1,1.3-1.4,2
		c-0.4,0.6-0.6,1.3-1.1,2.1c-0.4,0.6-0.7,1.3-1.2,2.1c-0.5,0.8-0.8,1.5-1.1,2.1c-0.5,0.8-1.3,1.3-1.6,1.9c-0.4,0.7-0.3,1.6-0.6,2.4
		c-0.3,0.6-0.7,1.3-1.1,2.1c-0.3,0.6-0.9,1.2-1.3,2c-0.5,0.8-0.9,1.5-1.2,2.1c-0.5,0.8-1,1.4-1.3,2c-0.4,0.7-1.2,1.1-1.6,1.9
		c-0.4,0.6-0.5,1.4-1,2.2c-0.4,0.6-0.6,1.4-1.1,2.2c-0.4,0.7-1.1,1.1-1.7,1.6c-0.6,0.5-1.1,1.2-1.8,1.5c-0.7,0.3-1.4,0.8-2.2,0.9
		c-0.8,0.1-1.6-0.1-2.4-0.3c-0.7-0.2-1.6-0.4-2.3-0.8c-0.7-0.4-1.2-1.1-1.7-1.5c-0.7-0.4-1.5-0.5-2.1-0.9c-0.7-0.4-1.4-0.6-2-1
		c-0.6-0.4-0.9-1.2-1.6-1.6c-0.6-0.3-1.4-0.4-2.1-0.8c-0.6-0.3-0.9-1.2-1.6-1.6c-0.7-0.4-1.4-0.8-1.9-1.1c-0.7-0.4-1.7-0.1-2.3-0.4
		c-0.7-0.4-1.2-0.9-1.9-1.2c-0.6-0.3-1.1-0.9-1.8-1.3c-0.6-0.3-1.5-0.2-2.2-0.6c-0.6-0.3-1-1.1-1.7-1.5c-0.7-0.4-1.3-0.9-1.9-1.2
		c-0.7-0.4-1.5-0.5-2.1-0.8c-0.7-0.4-1.2-0.9-1.8-1.2c-0.6-0.4-1-1-1.7-1.4c-0.6-0.3-1.4-0.3-2.1-0.7c-0.6-0.3-1.1-0.9-1.8-1.3
		c-0.7-0.4-1.4-0.7-2-1c-0.7-0.4-1.5-0.6-2-0.9c-0.7-0.4-1-1.3-1.6-1.7c-0.6-0.3-1.5-0.2-2.2-0.6c-0.6-0.3-1.3-0.5-2-0.9
		c-0.6-0.3-1.1-0.8-1.9-1.2c-0.7-0.4-1.4-0.7-2-1.1c-0.7-0.4-1.4-0.8-1.9-1.1c-0.7-0.4-1-1.3-1.6-1.7c-0.6-0.4-1.4-0.3-2.1-0.8
		c-0.6-0.3-1-1-1.7-1.5c-0.6-0.3-1.5-0.2-2.2-0.7c-0.7-0.4-1.3-0.9-1.9-1.2c-0.7-0.4-1.4-0.7-2-1c-0.7-0.4-1-1.3-1.6-1.6
		c-0.6-0.3-1.3-0.5-2-0.9c-0.6-0.3-1.2-0.7-1.9-1.2c-0.6-0.3-1.1-0.9-1.8-1.4c-0.7-0.4-1.5-0.5-2.1-1c-0.5-0.6-1.3-1.1-1.6-1.8
		c-0.3-0.7,0-1.7-0.1-2.4c-0.1-0.8-0.6-1.6-0.4-2.3c0.1-0.7,0.7-1.4,1.1-2.1c0.5-0.8,0.9-1.5,1.3-2.1c0.5-0.8,1.1-1.4,1.4-1.9
		c0.4-0.7,0.8-1.4,1.2-2.1c0.4-0.6,0.7-1.3,1.1-2.1c0.3-0.6,0.4-1.5,0.9-2.3c0.5-0.8,0.7-1.6,1.1-2.2c0.5-0.8,1-1.4,1.4-2
		c0.4-0.7,0.9-1.3,1.4-2c0.4-0.6,0.5-1.4,1-2.2c0.3-0.6,1.2-1,1.7-1.8c0.5-0.8,0.8-1.5,1.1-2.1c0.5-0.8,0.7-1.6,1-2.2
		c0.4-0.7,0.9-1.3,1.3-2c0.3-0.6,0.9-1.2,1.3-2c0.3-0.6,0.5-1.4,0.9-2.2c0.4-0.7,0.8-1.4,1.4-1.9c0.6-0.5,1.4-0.7,2.1-1
		c0.7-0.3,1.4-0.7,2.2-0.7c0.7-0.1,1.6-0.1,2.3,0C466.8,354.6,467.2,355.4,467.9,355.8z"/>
</g>
<g>
	<path class="st0" d="M499.3,239.4c0.7,0.4,1.4,0.8,1.9,1.1c0.7,0.4,1.4,0.8,1.9,1.2c0.7,0.4,1.1,1.1,1.7,1.5
		c0.6,0.4,1.2,0.7,1.9,1.1c0.5,0.3,1.1,0.8,1.8,1.3c0.6,0.3,1.3,0.5,2.1,0.9c0.7,0.4,1.4,0.6,2,1c0.7,0.4,1.2,1.1,1.8,1.4
		c0.7,0.4,1.4,0.6,2,1c0.6,0.3,1.4,0.4,2.1,0.8c0.6,0.3,1,1,1.7,1.4c0.6,0.3,1.4,0.4,2.1,0.8c0.7,0.4,1.1,1.2,1.7,1.5
		c0.7,0.4,1.5,0.5,2.1,0.8c0.7,0.4,1.2,0.9,1.8,1.3c0.6,0.3,1.4,0.3,2.1,0.7c0.6,0.3,1.2,0.6,2,1c0.6,0.3,0.9,1.2,1.6,1.6
		c0.7,0.4,1.7,0.2,2.3,0.5c0.7,0.4,1.4,0.8,1.9,1.2c0.7,0.4,0.9,1.4,1.5,1.8c0.6,0.4,1.4,0.3,2.1,0.8c0.5,0.3,1.3,0.6,2,1
		c0.6,0.3,1,1,1.7,1.5c0.7,0.4,1.4,0.7,2,1c0.7,0.4,1.1,1.2,1.7,1.5c0.7,0.4,1.7,0.1,2.3,0.4c0.6,0.3,1.1,0.9,1.8,1.3
		c0.6,0.3,1.2,0.7,1.9,1.1c0.6,0.3,1.1,0.9,1.8,1.3c0.7,0.4,1.7,0.3,2.2,0.6c0.7,0.4,1.2,1.1,1.8,1.4c0.7,0.4,1.3,0.7,1.9,1.1
		c0.6,0.4,1,1.1,1.7,1.5c0.6,0.3,1.2,0.6,2,1c0.6,0.3,1.6,0.1,2.3,0.5c0.7,0.4,1.2,1.1,1.7,1.7c0.5,0.6,0.7,1.4,1.1,2.1
		c0.3,0.7,0.5,1.4,0.6,2.2c0.1,0.8-0.3,1.4-0.4,2.2c-0.2,0.7,0,1.6-0.4,2.3c-0.5,0.8-0.8,1.5-1.2,2.1c-0.5,0.8-1.1,1.3-1.4,2
		c-0.4,0.7-0.7,1.4-1.1,2.1c-0.3,0.6-0.5,1.4-1,2.2c-0.3,0.6-1,1.1-1.5,1.9c-0.5,0.8-0.4,1.7-0.8,2.3c-0.5,0.8-0.8,1.6-1.1,2.2
		c-0.4,0.7-1.1,1.2-1.5,1.9c-0.4,0.6-0.4,1.4-0.9,2.3c-0.4,0.6-1.2,1-1.7,1.8c-0.5,0.8-1,1.4-1.3,2c-0.5,0.8-0.9,1.5-1.2,2.1
		c-0.4,0.7-0.3,1.7-0.7,2.4c-0.4,0.6-1.3,0.9-1.7,1.8c-0.3,0.6-0.7,1.3-1.2,2.1c-0.4,0.7-0.7,1.4-1.3,1.9c-0.6,0.5-1.3,0.7-2,1
		c-0.7,0.3-1.3,0.9-2.1,1c-0.8,0.1-1.5-0.1-2.3-0.2c-0.7-0.1-1.7,0-2.3-0.4c-0.7-0.4-1.4-0.7-2-1.1c-0.7-0.4-1.2-1.1-1.8-1.4
		c-0.7-0.4-1.5-0.5-2.1-0.9c-0.6-0.4-1.1-1-1.8-1.4c-0.6-0.3-1-0.9-1.8-1.4c-0.6-0.3-1.5-0.3-2.2-0.7c-0.7-0.4-1-1.4-1.6-1.7
		c-0.7-0.4-1.7-0.3-2.2-0.6c-0.7-0.4-1.1-1.1-1.7-1.4c-0.6-0.4-1-1-1.8-1.4c-0.6-0.3-1.3-0.5-2.1-0.9c-0.6-0.3-1.2-0.6-2-1.1
		c-0.7-0.4-1.2-1-1.8-1.3c-0.7-0.4-1.6-0.4-2.2-0.7c-0.7-0.4-1.2-1-1.8-1.4c-0.6-0.4-1.2-0.8-1.9-1.2c-0.6-0.3-1.1-0.8-1.9-1.2
		c-0.6-0.3-1.4-0.3-2.2-0.7c-0.7-0.4-1.2-1.1-1.8-1.4c-0.7-0.4-1.4-0.8-1.9-1.1c-0.7-0.4-1.3-0.8-1.9-1.2c-0.6-0.3-1.4-0.4-2.1-0.8
		c-0.6-0.3-1.1-0.8-1.9-1.2c-0.6-0.3-1.3-0.5-2-0.9c-0.7-0.4-1.4-0.8-2-1.1c-0.7-0.4-1.4-0.7-2-1.1c-0.7-0.4-1-1.2-1.7-1.6
		c-0.6-0.4-1.5-0.3-2.2-0.7c-0.6-0.3-1.2-0.7-1.9-1.1c-0.6-0.3-1.1-0.9-1.8-1.3c-0.7-0.4-1.4-0.8-1.9-1.1c-0.7-0.4-1.3-0.9-1.9-1.2
		c-0.7-0.4-1.1-1.1-1.8-1.4c-0.6-0.3-1.4-0.4-2.1-0.8c-0.6-0.3-1.3-0.5-2-1c-0.6-0.3-1-1-1.8-1.4c-0.7-0.4-1.4-0.7-1.9-1.2
		c-0.5-0.6-1.2-1.1-1.5-1.8c-0.3-0.7-0.4-1.6-0.5-2.3c-0.1-0.8-0.1-1.6,0-2.4c0.2-0.7,0.8-1.4,1.2-2c0.5-0.8,0.6-1.6,1-2.2
		c0.5-0.8,0.7-1.6,1.1-2.2c0.4-0.7,1.3-1.1,1.7-1.8c0.3-0.6,0.4-1.4,0.9-2.3c0.3-0.6,1.2-1,1.7-1.8c0.5-0.8,0.9-1.5,1.2-2.1
		c0.5-0.8,0.2-1.9,0.6-2.5c0.4-0.7,1-1.2,1.4-2c0.3-0.6,1-1.1,1.5-1.9c0.3-0.6,0.3-1.5,0.8-2.4c0.5-0.8,1.3-1.3,1.6-1.9
		c0.5-0.8,0.9-1.5,1.3-2.1c0.4-0.7,0.4-1.6,0.8-2.3c0.3-0.6,0.8-1.2,1.3-2.1c0.3-0.6,1-1.1,1.5-1.9c0.4-0.7,0.5-1.5,1.1-2.1
		c0.6-0.5,1.4-0.8,2.1-1.1c0.7-0.3,1.4-0.6,2.2-0.7c0.8-0.1,1.6-0.3,2.4-0.1C497.8,238.7,498.6,239,499.3,239.4z"/>
	<path class="st1" d="M499.3,239.4c0.7,0.4,1.4,0.8,1.9,1.1c0.7,0.4,1.4,0.8,1.9,1.2c0.7,0.4,1.1,1.1,1.7,1.5
		c0.6,0.4,1.2,0.7,1.9,1.1c0.5,0.3,1.1,0.8,1.8,1.3c0.6,0.3,1.3,0.5,2.1,0.9c0.7,0.4,1.4,0.6,2,1c0.7,0.4,1.2,1.1,1.8,1.4
		c0.7,0.4,1.4,0.6,2,1c0.6,0.3,1.4,0.4,2.1,0.8c0.6,0.3,1,1,1.7,1.4c0.6,0.3,1.4,0.4,2.1,0.8c0.7,0.4,1.1,1.2,1.7,1.5
		c0.7,0.4,1.5,0.5,2.1,0.8c0.7,0.4,1.2,0.9,1.8,1.3c0.6,0.3,1.4,0.3,2.1,0.7c0.6,0.3,1.2,0.6,2,1c0.6,0.3,0.9,1.2,1.6,1.6
		c0.7,0.4,1.7,0.2,2.3,0.5c0.7,0.4,1.4,0.8,1.9,1.2c0.7,0.4,0.9,1.4,1.5,1.8c0.6,0.4,1.4,0.3,2.1,0.8c0.5,0.3,1.3,0.6,2,1
		c0.6,0.3,1,1,1.7,1.5c0.7,0.4,1.4,0.7,2,1c0.7,0.4,1.1,1.2,1.7,1.5c0.7,0.4,1.7,0.1,2.3,0.4c0.6,0.3,1.1,0.9,1.8,1.3
		c0.6,0.3,1.2,0.7,1.9,1.1c0.6,0.3,1.1,0.9,1.8,1.3c0.7,0.4,1.7,0.3,2.2,0.6c0.7,0.4,1.2,1.1,1.8,1.4c0.7,0.4,1.3,0.7,1.9,1.1
		c0.6,0.4,1,1.1,1.7,1.5c0.6,0.3,1.2,0.6,2,1c0.6,0.3,1.6,0.1,2.3,0.5c0.7,0.4,1.2,1.1,1.7,1.7c0.5,0.6,0.7,1.4,1.1,2.1
		c0.3,0.7,0.5,1.4,0.6,2.2c0.1,0.8-0.3,1.4-0.4,2.2c-0.2,0.7,0,1.6-0.4,2.3c-0.5,0.8-0.8,1.5-1.2,2.1c-0.5,0.8-1.1,1.3-1.4,2
		c-0.4,0.7-0.7,1.4-1.1,2.1c-0.3,0.6-0.5,1.4-1,2.2c-0.3,0.6-1,1.1-1.5,1.9c-0.5,0.8-0.4,1.7-0.8,2.3c-0.5,0.8-0.8,1.6-1.1,2.2
		c-0.4,0.7-1.1,1.2-1.5,1.9c-0.4,0.6-0.4,1.4-0.9,2.3c-0.4,0.6-1.2,1-1.7,1.8c-0.5,0.8-1,1.4-1.3,2c-0.5,0.8-0.9,1.5-1.2,2.1
		c-0.4,0.7-0.3,1.7-0.7,2.4c-0.4,0.6-1.3,0.9-1.7,1.8c-0.3,0.6-0.7,1.3-1.2,2.1c-0.4,0.7-0.7,1.4-1.3,1.9c-0.6,0.5-1.3,0.7-2,1
		c-0.7,0.3-1.3,0.9-2.1,1c-0.8,0.1-1.5-0.1-2.3-0.2c-0.7-0.1-1.7,0-2.3-0.4c-0.7-0.4-1.4-0.7-2-1.1c-0.7-0.4-1.2-1.1-1.8-1.4
		c-0.7-0.4-1.5-0.5-2.1-0.9c-0.6-0.4-1.1-1-1.8-1.4c-0.6-0.3-1-0.9-1.8-1.4c-0.6-0.3-1.5-0.3-2.2-0.7c-0.7-0.4-1-1.4-1.6-1.7
		c-0.7-0.4-1.7-0.3-2.2-0.6c-0.7-0.4-1.1-1.1-1.7-1.4c-0.6-0.4-1-1-1.8-1.4c-0.6-0.3-1.3-0.5-2.1-0.9c-0.6-0.3-1.2-0.6-2-1.1
		c-0.7-0.4-1.2-1-1.8-1.3c-0.7-0.4-1.6-0.4-2.2-0.7c-0.7-0.4-1.2-1-1.8-1.4c-0.6-0.4-1.2-0.8-1.9-1.2c-0.6-0.3-1.1-0.8-1.9-1.2
		c-0.6-0.3-1.4-0.3-2.2-0.7c-0.7-0.4-1.2-1.1-1.8-1.4c-0.7-0.4-1.4-0.8-1.9-1.1c-0.7-0.4-1.3-0.8-1.9-1.2c-0.6-0.3-1.4-0.4-2.1-0.8
		c-0.6-0.3-1.1-0.8-1.9-1.2c-0.6-0.3-1.3-0.5-2-0.9c-0.7-0.4-1.4-0.8-2-1.1c-0.7-0.4-1.4-0.7-2-1.1c-0.7-0.4-1-1.2-1.7-1.6
		c-0.6-0.4-1.5-0.3-2.2-0.7c-0.6-0.3-1.2-0.7-1.9-1.1c-0.6-0.3-1.1-0.9-1.8-1.3c-0.7-0.4-1.4-0.8-1.9-1.1c-0.7-0.4-1.3-0.9-1.9-1.2
		c-0.7-0.4-1.1-1.1-1.8-1.4c-0.6-0.3-1.4-0.4-2.1-0.8c-0.6-0.3-1.3-0.5-2-1c-0.6-0.3-1-1-1.8-1.4c-0.7-0.4-1.4-0.7-1.9-1.2
		c-0.5-0.6-1.2-1.1-1.5-1.8c-0.3-0.7-0.4-1.6-0.5-2.3c-0.1-0.8-0.1-1.6,0-2.4c0.2-0.7,0.8-1.4,1.2-2c0.5-0.8,0.6-1.6,1-2.2
		c0.5-0.8,0.7-1.6,1.1-2.2c0.4-0.7,1.3-1.1,1.7-1.8c0.3-0.6,0.4-1.4,0.9-2.3c0.3-0.6,1.2-1,1.7-1.8c0.5-0.8,0.9-1.5,1.2-2.1
		c0.5-0.8,0.2-1.9,0.6-2.5c0.4-0.7,1-1.2,1.4-2c0.3-0.6,1-1.1,1.5-1.9c0.3-0.6,0.3-1.5,0.8-2.4c0.5-0.8,1.3-1.3,1.6-1.9
		c0.5-0.8,0.9-1.5,1.3-2.1c0.4-0.7,0.4-1.6,0.8-2.3c0.3-0.6,0.8-1.2,1.3-2.1c0.3-0.6,1-1.1,1.5-1.9c0.4-0.7,0.5-1.5,1.1-2.1
		c0.6-0.5,1.4-0.8,2.1-1.1c0.7-0.3,1.4-0.6,2.2-0.7c0.8-0.1,1.6-0.3,2.4-0.1C497.8,238.7,498.6,239,499.3,239.4z"/>
</g>
<g>
	<path class="st0" d="M82.7,530.9c3.6-6.3,4-6.1,7.6-12.4c3.6-6.3,3.5-6.4,7.2-12.7c3.6-6.3,3.5-6.4,7.2-12.7
		c3.6-6.3,3.6-6.3,7.2-12.7c3.6-6.3,3.7-6.3,7.4-12.6c3.6-6.3,3.6-6.3,7.2-12.7c3.6-6.3,4-6.1,7.7-12.4c3.6-6.3,3.2-6.6,6.8-12.9
		c3.6-6.3,3.8-6.2,7.4-12.6c3.6-6.3,3.8-6.3,7.4-12.6c3.6-6.3,3.6-6.4,7.2-12.7c2-3.5,6.7-4.9,10.2-2.9c5.2,3,5.2,3,10.4,6
		c5.2,3,5.2,3,10.4,6c5.2,3,5.1,3.2,10.3,6.2c3.5,2,4.6,6.5,2.5,10c-3.6,6.3-3.8,6.2-7.4,12.5c-3.6,6.3-3.5,6.4-7.2,12.7
		c-3.6,6.3-3.6,6.3-7.3,12.6c-3.6,6.3-3.6,6.3-7.2,12.7c-3.6,6.3-3.4,6.5-7,12.8c-3.6,6.3-3.8,6.2-7.4,12.6
		c-3.6,6.3-3.6,6.4-7.2,12.7c-3.6,6.3-4.1,6.1-7.7,12.4c-3.6,6.3-3.3,6.5-7,12.8c-3.6,6.3-3.5,6.4-7.2,12.7s-3.8,6.2-7.4,12.6
		c-2,3.5-6.7,4.8-10.2,2.8c-5.2-3-5.2-3-10.4-6.1c-5.2-3-5.2-3-10.4-6s-5.3-2.9-10.5-5.9C82,539.3,80.7,534.5,82.7,530.9z"/>
	<path class="st1" d="M82.7,530.9c3.6-6.3,4-6.1,7.6-12.4c3.6-6.3,3.5-6.4,7.2-12.7c3.6-6.3,3.5-6.4,7.2-12.7
		c3.6-6.3,3.6-6.3,7.2-12.7c3.6-6.3,3.7-6.3,7.4-12.6c3.6-6.3,3.6-6.3,7.2-12.7c3.6-6.3,4-6.1,7.7-12.4c3.6-6.3,3.2-6.6,6.8-12.9
		c3.6-6.3,3.8-6.2,7.4-12.6c3.6-6.3,3.8-6.3,7.4-12.6c3.6-6.3,3.6-6.4,7.2-12.7c2-3.5,6.7-4.9,10.2-2.9c5.2,3,5.2,3,10.4,6
		c5.2,3,5.2,3,10.4,6c5.2,3,5.1,3.2,10.3,6.2c3.5,2,4.6,6.5,2.5,10c-3.6,6.3-3.8,6.2-7.4,12.5c-3.6,6.3-3.5,6.4-7.2,12.7
		c-3.6,6.3-3.6,6.3-7.3,12.6c-3.6,6.3-3.6,6.3-7.2,12.7c-3.6,6.3-3.4,6.5-7,12.8c-3.6,6.3-3.8,6.2-7.4,12.6
		c-3.6,6.3-3.6,6.4-7.2,12.7c-3.6,6.3-4.1,6.1-7.7,12.4c-3.6,6.3-3.3,6.5-7,12.8c-3.6,6.3-3.5,6.4-7.2,12.7s-3.8,6.2-7.4,12.6
		c-2,3.5-6.7,4.8-10.2,2.8c-5.2-3-5.2-3-10.4-6.1c-5.2-3-5.2-3-10.4-6s-5.3-2.9-10.5-5.9C82,539.3,80.7,534.5,82.7,530.9z"/>
</g>
<g>
	<path class="st2" d="M237.1,234.5c2.8,0,3.6,1.5,5.5-0.5c1.9-1.9-0.4-2.8-0.4-5.5c0-7.5,0.6-7.5,0.6-15c0-4.1,3.1-7.1,7.2-7.1
		c9,0,9-0.3,17.9-0.3c9,0,9-0.2,17.9-0.2c4.1,0,7.2,3.5,7.2,7.6c0,7.5,0.3,7.5,0.3,15c0,2.8-1.8,3.2,0.2,5.2
		c1.9,1.9,2.4,0.7,5.2,0.7c9,0,9-0.8,17.9-0.8s9,0.3,17.9,0.3c4.1,0,7.4,3.3,7.4,7.4c0,8.9,0.1,8.9,0.1,17.8c0,8.9,0.3,8.9,0.3,17.8
		c0,4.1-3.7,7.6-7.8,7.6c-7.1,0-7.1-0.5-14.1-0.5c-7.1,0-7.1,0.6-14.1,0.6c-7.1,0-7.1-0.8-14.1-0.8c-7.1,0-7.1,0.5-14.1,0.5
		c-7.1,0-7.1,0-14.1,0c-7.1,0-7.1-0.5-14.1-0.5c-7.1,0-7.1,0.7-14.1,0.7c-7.1,0-7.1,0.1-14.1,0.1c-7.1,0-7.1-0.7-14.1-0.7
		c-7.1,0-7.1,0.3-14.1,0.3c-7.1,0-7.1-0.3-14.1-0.3c-7.1,0-7.1,0.1-14.1,0.1c-7.1,0-7.1,0.4-14.1,0.4c-7.1,0-7.1-0.2-14.1-0.2
		c-7.1,0-7.1,0.2-14.1,0.2c-7.1,0-7.1-0.1-14.1-0.1s-7.1-0.2-14.1-0.2c-4.1,0-7.8-3.1-7.8-7.2c0-8.9,0.4-8.9,0.4-17.8
		c0-8.9,0.2-8.9,0.2-17.8c0-4.1,3.2-7.5,7.2-7.5c7.1,0,7.1-0.3,14.3-0.3c7.1,0,7.1,0.7,14.3,0.7c7.1,0,7.1,0,14.3,0
		c7.1,0,7.1-0.6,14.3-0.6c7.1,0,7.1-0.1,14.3-0.1c7.1,0,7.1,0.2,14.3,0.2c7.1,0,7.1-0.2,14.3-0.2c7.1,0,7.1,0.9,14.3,0.9
		c7.1,0,7.1-1,14.3-0.8C230,233.8,230,234.5,237.1,234.5z"/>
	<path class="st1" d="M237.1,234.5c2.8,0,3.6,1.5,5.5-0.5c1.9-1.9-0.4-2.8-0.4-5.5c0-7.5,0.6-7.5,0.6-15c0-4.1,3.1-7.1,7.2-7.1
		c9,0,9-0.3,17.9-0.3c9,0,9-0.2,17.9-0.2c4.1,0,7.2,3.5,7.2,7.6c0,7.5,0.3,7.5,0.3,15c0,2.8-1.8,3.2,0.2,5.2
		c1.9,1.9,2.4,0.7,5.2,0.7c9,0,9-0.8,17.9-0.8s9,0.3,17.9,0.3c4.1,0,7.4,3.3,7.4,7.4c0,8.9,0.1,8.9,0.1,17.8c0,8.9,0.3,8.9,0.3,17.8
		c0,4.1-3.7,7.6-7.8,7.6c-7.1,0-7.1-0.5-14.1-0.5c-7.1,0-7.1,0.6-14.1,0.6c-7.1,0-7.1-0.8-14.1-0.8c-7.1,0-7.1,0.5-14.1,0.5
		c-7.1,0-7.1,0-14.1,0c-7.1,0-7.1-0.5-14.1-0.5c-7.1,0-7.1,0.7-14.1,0.7c-7.1,0-7.1,0.1-14.1,0.1c-7.1,0-7.1-0.7-14.1-0.7
		c-7.1,0-7.1,0.3-14.1,0.3c-7.1,0-7.1-0.3-14.1-0.3c-7.1,0-7.1,0.1-14.1,0.1c-7.1,0-7.1,0.4-14.1,0.4c-7.1,0-7.1-0.2-14.1-0.2
		c-7.1,0-7.1,0.2-14.1,0.2c-7.1,0-7.1-0.1-14.1-0.1s-7.1-0.2-14.1-0.2c-4.1,0-7.8-3.1-7.8-7.2c0-8.9,0.4-8.9,0.4-17.8
		c0-8.9,0.2-8.9,0.2-17.8c0-4.1,3.2-7.5,7.2-7.5c7.1,0,7.1-0.3,14.3-0.3c7.1,0,7.1,0.7,14.3,0.7c7.1,0,7.1,0,14.3,0
		c7.1,0,7.1-0.6,14.3-0.6c7.1,0,7.1-0.1,14.3-0.1c7.1,0,7.1,0.2,14.3,0.2c7.1,0,7.1-0.2,14.3-0.2c7.1,0,7.1,0.9,14.3,0.9
		c7.1,0,7.1-1,14.3-0.8C230,233.8,230,234.5,237.1,234.5z"/>
</g>
<g>
	<path class="st3" d="M1138.5,429.4c-6.2-3.6-6.2-3.5-12.4-7.1c-6.2-3.6-6.3-3.4-12.5-7c-6.2-3.6-6.2-3.7-12.4-7.2
		c-6.2-3.6-6.2-3.6-12.4-7.2c-6.2-3.6-6.4-3.2-12.6-6.8c-6.2-3.6-6.2-3.5-12.4-7.1c-1.7-1-2-3.4-1.1-5.1c3.5-6.1,3.7-6.1,7.2-12.2
		c3.5-6.1,3.3-6.3,6.8-12.4c3.5-6.1,4-5.9,7.6-12c3.5-6.1,3.1-6.4,6.6-12.5c3.5-6.1,3.8-6,7.3-12.1c3.5-6.1,3.5-6.1,7.1-12.3
		c3.5-6.1,3.6-6.1,7.1-12.2c3.5-6.1,3.6-6.1,7.1-12.2c3.5-6.1,3.3-6.3,6.8-12.4s3.5-6.2,7-12.3c1.3-2.2-0.7-5.2-4.2-7.3
		c-5.2-3-5.2-3.1-10.4-6.1c-5.2-3-5-3.5-10.2-6.5c-5.2-3-5.5-2.5-10.7-5.5c-3.5-2-7.2-2.2-8.5,0c-3.5,6-3.5,5.9-7,11.9
		c-3.5,6-3.6,5.9-7.1,11.9c-3.5,6-3.4,6-6.9,12c-3.5,6-3.1,6.2-6.5,12.2c-3.5,6-3.6,5.9-7,11.9c-3.5,6-3.6,5.9-7.1,11.9
		c-3.5,6-3.7,5.9-7.1,11.9c-3.5,6-3.4,6-6.9,12c-3.5,6-3,6.3-6.5,12.3c-3.5,6-3.9,5.8-7.3,11.8c-1.9,3.2-5.7,4.2-8.9,2.4
		c-6.2-3.6-6.4-3.1-12.6-6.7c-6.2-3.6-5.8-4.2-12-7.8c-6.2-3.6-6.3-3.3-12.5-6.9c-6.2-3.6-6.4-3.2-12.5-6.8
		c-6.2-3.6-6.1-3.8-12.2-7.3c-2.5-1.5-5.8,0.5-7.8,4c-3,5.2-3.6,4.9-6.6,10.1c-3,5.2-2.6,5.5-5.6,10.7c-3,5.2-3.4,5-6.4,10.2
		c-2,3.5-1.4,7.3,1.1,8.8c6.3,3.6,6.4,3.6,12.7,7.2c6.3,3.6,6.1,3.9,12.4,7.6c6.3,3.6,6.1,4.1,12.4,7.7c6.3,3.6,6.3,3.6,12.6,7.3
		c6.3,3.6,6.5,3.3,12.8,6.9c6.3,3.6,6.1,4,12.4,7.6c6.3,3.6,6.4,3.5,12.7,7.2c6.3,3.6,6.2,3.8,12.5,7.4c6.3,3.6,6.4,3.5,12.7,7.1
		c6.3,3.6,6.6,3.2,12.9,6.8c6.3,3.6,6.4,3.5,12.7,7.1c6.3,3.6,6,4.2,12.3,7.9c6.3,3.6,6.4,3.4,12.7,7.1c6.3,3.6,6.3,3.7,12.6,7.3
		c6.3,3.6,6.4,3.5,12.7,7.1c2.5,1.5,6.5,0.1,8.5-3.4c3-5.2,3-5.2,6-10.5c3-5.2,2.8-5.3,5.8-10.6c3-5.2,3.1-5.2,6.1-10.4
		C1141.5,435.3,1141,430.9,1138.5,429.4z"/>
	<path class="st4" d="M1138.5,429.4c-6.2-3.6-6.2-3.5-12.4-7.1c-6.2-3.6-6.3-3.4-12.5-7c-6.2-3.6-6.2-3.7-12.4-7.2
		c-6.2-3.6-6.2-3.6-12.4-7.2c-6.2-3.6-6.4-3.2-12.6-6.8c-6.2-3.6-6.2-3.5-12.4-7.1c-1.7-1-2-3.4-1.1-5.1c3.5-6.1,3.7-6.1,7.2-12.2
		c3.5-6.1,3.3-6.3,6.8-12.4c3.5-6.1,4-5.9,7.6-12c3.5-6.1,3.1-6.4,6.6-12.5c3.5-6.1,3.8-6,7.3-12.1c3.5-6.1,3.5-6.1,7.1-12.3
		c3.5-6.1,3.6-6.1,7.1-12.2c3.5-6.1,3.6-6.1,7.1-12.2c3.5-6.1,3.3-6.3,6.8-12.4s3.5-6.2,7-12.3c1.3-2.2-0.7-5.2-4.2-7.3
		c-5.2-3-5.2-3.1-10.4-6.1c-5.2-3-5-3.5-10.2-6.5c-5.2-3-5.5-2.5-10.7-5.5c-3.5-2-7.2-2.2-8.5,0c-3.5,6-3.5,5.9-7,11.9
		c-3.5,6-3.6,5.9-7.1,11.9c-3.5,6-3.4,6-6.9,12c-3.5,6-3.1,6.2-6.5,12.2c-3.5,6-3.6,5.9-7,11.9c-3.5,6-3.6,5.9-7.1,11.9
		c-3.5,6-3.7,5.9-7.1,11.9c-3.5,6-3.4,6-6.9,12c-3.5,6-3,6.3-6.5,12.3c-3.5,6-3.9,5.8-7.3,11.8c-1.9,3.2-5.7,4.2-8.9,2.4
		c-6.2-3.6-6.4-3.1-12.6-6.7c-6.2-3.6-5.8-4.2-12-7.8c-6.2-3.6-6.3-3.3-12.5-6.9c-6.2-3.6-6.4-3.2-12.5-6.8
		c-6.2-3.6-6.1-3.8-12.2-7.3c-2.5-1.5-5.8,0.5-7.8,4c-3,5.2-3.6,4.9-6.6,10.1c-3,5.2-2.6,5.5-5.6,10.7c-3,5.2-3.4,5-6.4,10.2
		c-2,3.5-1.4,7.3,1.1,8.8c6.3,3.6,6.4,3.6,12.7,7.2c6.3,3.6,6.1,3.9,12.4,7.6c6.3,3.6,6.1,4.1,12.4,7.7c6.3,3.6,6.3,3.6,12.6,7.3
		c6.3,3.6,6.5,3.3,12.8,6.9c6.3,3.6,6.1,4,12.4,7.6c6.3,3.6,6.4,3.5,12.7,7.2c6.3,3.6,6.2,3.8,12.5,7.4c6.3,3.6,6.4,3.5,12.7,7.1
		c6.3,3.6,6.6,3.2,12.9,6.8c6.3,3.6,6.4,3.5,12.7,7.1c6.3,3.6,6,4.2,12.3,7.9c6.3,3.6,6.4,3.4,12.7,7.1c6.3,3.6,6.3,3.7,12.6,7.3
		c6.3,3.6,6.4,3.5,12.7,7.1c2.5,1.5,6.5,0.1,8.5-3.4c3-5.2,3-5.2,6-10.5c3-5.2,2.8-5.3,5.8-10.6c3-5.2,3.1-5.2,6.1-10.4
		C1141.5,435.3,1141,430.9,1138.5,429.4z"/>
</g>
<g>
	<path class="st2" d="M1248.2,569.1c6.2-3.6,6.3-3.4,12.5-6.9c6.2-3.6,6.2-3.5,12.4-7.1c6.2-3.6,6.1-3.7,12.3-7.3
		c6.2-3.6,6-3.9,12.1-7.5c6.2-3.6,6.7-2.7,12.9-6.2c6.2-3.6,6-3.8,12.2-7.4c6.2-3.6,6.2-3.6,12.4-7.1c6.2-3.6,5.8-4.2,12-7.8
		c6.2-3.6,6.2-3.5,12.4-7.1c6.2-3.6,6.5-3.1,12.6-6.7c6.2-3.6,6.1-3.6,12.3-7.2c6.2-3.6,6-4,12.1-7.5c6.2-3.6,6.4-3.2,12.6-6.8
		c6.2-3.6,5.9-4.1,12.1-7.6c6.2-3.6,6.4-3.1,12.6-6.7c6.2-3.6,6.3-3.4,12.5-6.9c6.2-3.6,6.3-3.4,12.4-7c6.2-3.6,6.3-3.4,12.4-7
		c6.2-3.6,6-3.8,12.2-7.4c6.2-3.6,6.4-3.2,12.6-6.7c6.2-3.6,5.8-4.2,12-7.8c6.2-3.6,6.2-3.5,12.4-7.1c3.5-2,8.1-0.8,10.1,2.7
		c3,5.2,3,5.2,6.1,10.4c3,5.2,3.4,5,6.4,10.2c3,5.2,2.3,5.7,5.3,10.9c2,3.5,0.8,7.4-2.7,9.4c-6.2,3.6-5.7,4.3-11.9,7.9
		c-6.2,3.6-6.1,3.8-12.2,7.3c-6.2,3.6-6.4,3.2-12.6,6.8c-6.2,3.6-6.2,3.5-12.4,7.1c-6.2,3.6-6.3,3.3-12.5,6.9
		c-6.2,3.6-6,3.9-12.2,7.5c-6.2,3.6-6.2,3.5-12.4,7.1c-6.2,3.6-6,3.8-12.2,7.4c-6.2,3.6-6.3,3.4-12.4,7c-6.2,3.6-6.1,3.7-12.3,7.3
		c-6.2,3.6-6.3,3.4-12.5,6.9c-6.2,3.6-6,3.8-12.2,7.4c-6.2,3.6-6.4,3.2-12.6,6.8c-6.2,3.6-6.5,3-12.7,6.6c-6.2,3.6-5.9,4-12.1,7.6
		c-6.2,3.6-6.1,3.7-12.3,7.3c-6.2,3.6-6.2,3.5-12.4,7c-6.2,3.6-6.3,3.3-12.5,6.9c-6.2,3.6-6,3.8-12.2,7.4c-6.2,3.6-6.4,3.2-12.6,6.8
		c-6.2,3.6-6,4-12.1,7.5s-6,3.9-12.2,7.5c-3.5,2-8.6,0.6-10.6-2.9c-3-5.2-2.8-5.4-5.8-10.6c-3-5.2-2.8-5.3-5.8-10.6
		c-3-5.2-3.6-4.9-6.6-10.1C1243.1,576,1244.7,571.1,1248.2,569.1z"/>
	<path class="st4" d="M1248.2,569.1c6.2-3.6,6.3-3.4,12.5-6.9c6.2-3.6,6.2-3.5,12.4-7.1c6.2-3.6,6.1-3.7,12.3-7.3
		c6.2-3.6,6-3.9,12.1-7.5c6.2-3.6,6.7-2.7,12.9-6.2c6.2-3.6,6-3.8,12.2-7.4c6.2-3.6,6.2-3.6,12.4-7.1c6.2-3.6,5.8-4.2,12-7.8
		c6.2-3.6,6.2-3.5,12.4-7.1c6.2-3.6,6.5-3.1,12.6-6.7c6.2-3.6,6.1-3.6,12.3-7.2c6.2-3.6,6-4,12.1-7.5c6.2-3.6,6.4-3.2,12.6-6.8
		c6.2-3.6,5.9-4.1,12.1-7.6c6.2-3.6,6.4-3.1,12.6-6.7c6.2-3.6,6.3-3.4,12.5-6.9c6.2-3.6,6.3-3.4,12.4-7c6.2-3.6,6.3-3.4,12.4-7
		c6.2-3.6,6-3.8,12.2-7.4c6.2-3.6,6.4-3.2,12.6-6.7c6.2-3.6,5.8-4.2,12-7.8c6.2-3.6,6.2-3.5,12.4-7.1c3.5-2,8.1-0.8,10.1,2.7
		c3,5.2,3,5.2,6.1,10.4c3,5.2,3.4,5,6.4,10.2c3,5.2,2.3,5.7,5.3,10.9c2,3.5,0.8,7.4-2.7,9.4c-6.2,3.6-5.7,4.3-11.9,7.9
		c-6.2,3.6-6.1,3.8-12.2,7.3c-6.2,3.6-6.4,3.2-12.6,6.8c-6.2,3.6-6.2,3.5-12.4,7.1c-6.2,3.6-6.3,3.3-12.5,6.9
		c-6.2,3.6-6,3.9-12.2,7.5c-6.2,3.6-6.2,3.5-12.4,7.1c-6.2,3.6-6,3.8-12.2,7.4c-6.2,3.6-6.3,3.4-12.4,7c-6.2,3.6-6.1,3.7-12.3,7.3
		c-6.2,3.6-6.3,3.4-12.5,6.9c-6.2,3.6-6,3.8-12.2,7.4c-6.2,3.6-6.4,3.2-12.6,6.8c-6.2,3.6-6.5,3-12.7,6.6c-6.2,3.6-5.9,4-12.1,7.6
		c-6.2,3.6-6.1,3.7-12.3,7.3c-6.2,3.6-6.2,3.5-12.4,7c-6.2,3.6-6.3,3.3-12.5,6.9c-6.2,3.6-6,3.8-12.2,7.4c-6.2,3.6-6.4,3.2-12.6,6.8
		c-6.2,3.6-6,4-12.1,7.5s-6,3.9-12.2,7.5c-3.5,2-8.6,0.6-10.6-2.9c-3-5.2-2.8-5.4-5.8-10.6c-3-5.2-2.8-5.3-5.8-10.6
		c-3-5.2-3.6-4.9-6.6-10.1C1243.1,576,1244.7,571.1,1248.2,569.1z"/>
</g>
<g>
	<path class="st3" d="M1273.5,248.8c0.7,0.4,1.4,0.6,2,1c0.7,0.4,1.3,0.9,1.8,1.3c0.7,0.4,1.5,0.4,2.1,0.8c0.6,0.4,1,1,1.7,1.5
		c0.6,0.3,1.5,0.1,2.3,0.5c0.6,0.3,1.1,0.9,1.8,1.4c0.7,0.4,1.3,0.8,1.9,1.1c0.8,0.4,1.3,1,1.9,1.3c0.7,0.4,1.5,0.4,2.1,0.7
		c0.6,0.3,1.4,0.4,2.1,0.7c0.6,0.3,1.2,0.7,1.9,1.1c0.6,0.3,1,1.1,1.7,1.5c0.7,0.4,1.3,0.9,1.9,1.2c0.7,0.4,1.4,0.7,2,1
		c0.7,0.4,1.3,0.7,1.9,1.1c0.6,0.4,1,1.1,1.7,1.5c0.5,0.3,1.4,0.3,2.2,0.7c0.6,0.3,1.1,0.8,1.9,1.2c0.7,0.4,1.3,0.9,1.9,1.2
		c0.7,0.4,1.4,0.8,1.9,1.1c0.7,0.4,1.4,0.6,2,0.9c0.6,0.3,1.4,0.4,2.1,0.8c0.6,0.3,0.9,1.3,1.6,1.7c0.6,0.3,1.3,0.5,2,0.9
		c0.7,0.4,1.4,0.8,1.9,1.1c0.7,0.4,1.6,0.4,2.2,0.7c0.7,0.4,1.3,0.9,1.8,1.2c0.6,0.4,1,1.1,1.7,1.5c0.5,0.3,1.2,0.7,1.9,1.1
		c0.6,0.3,1.3,0.5,2.1,0.9c0.7,0.4,1.2,1,1.8,1.3c0.7,0.4,1.6,0.4,2.1,0.8c0.7,0.4,1.1,1.1,1.8,1.4c0.6,0.3,1.1,0.8,1.9,1.2
		c0.6,0.3,1.1,0.8,1.9,1.2c0.6,0.3,1.2,0.8,1.9,1.2c0.7,0.4,1.3,0.7,1.8,1.2c0.5,0.6,0.6,1.3,0.9,2c0.3,0.7,0.9,1.3,1,2
		c0.1,0.7,0,1.5-0.2,2.3c-0.2,0.7-0.4,1.4-0.8,2.1c-0.5,0.8-0.8,1.5-1.2,2.1c-0.5,0.8-0.6,1.6-0.9,2.3c-0.4,0.7-1.3,1.1-1.7,1.8
		c-0.3,0.6-0.8,1.2-1.3,2c-0.3,0.6-0.2,1.6-0.7,2.4c-0.5,0.8-0.7,1.6-1.1,2.2c-0.5,0.8-1.1,1.4-1.4,2c-0.4,0.7-0.8,1.4-1.2,2.1
		c-0.3,0.6-0.9,1.2-1.4,2c-0.3,0.6-0.5,1.4-1,2.2c-0.5,0.8-0.9,1.5-1.3,2.1c-0.5,0.8-0.7,1.6-1,2.2c-0.4,0.7-0.9,1.3-1.3,2
		c-0.4,0.6-0.6,1.3-1.1,2.1c-0.3,0.6-0.9,1.2-1.3,2c-0.4,0.7-0.8,1.5-1.3,2c-0.6,0.5-1.4,0.7-2.1,1c-0.7,0.3-1.5,0.1-2.3,0.2
		c-0.8,0.1-1.5,0.4-2.2,0.2c-0.7-0.2-1.5-0.3-2.2-0.7c-0.7-0.4-1.3-0.9-1.9-1.2c-0.7-0.4-1.3-1-1.8-1.3c-0.7-0.4-1.4-0.6-2-0.9
		c-0.6-0.3-1.1-0.9-1.8-1.3c-0.6-0.3-1.3-0.4-2.1-0.8c-0.6-0.3-1.3-0.5-2.1-0.9c-0.7-0.4-1.3-0.8-1.9-1.2c-0.7-0.4-1.3-1-1.8-1.3
		c-0.7-0.4-1.2-0.9-1.8-1.3c-0.6-0.4-1.4-0.3-2.1-0.8c-0.6-0.3-0.8-1.3-1.5-1.7c-0.6-0.3-1.3-0.6-2-1c-0.7-0.4-1.3-0.9-1.8-1.3
		c-0.8-0.4-1.7-0.3-2.2-0.6c-0.7-0.4-1.3-0.9-1.9-1.2c-0.6-0.3-1.1-1-1.8-1.4c-0.6-0.3-1.5-0.1-2.2-0.6c-0.6-0.3-1.2-0.7-1.9-1.1
		c-0.7-0.4-1.1-1.2-1.7-1.5c-0.7-0.4-1.4-0.7-2-1c-0.7-0.4-1.5-0.4-2.1-0.8c-0.6-0.4-1.1-0.8-1.8-1.2c-0.6-0.3-1-1-1.7-1.5
		c-0.6-0.3-1.3-0.6-2-1c-0.7-0.4-1.4-0.6-2-1c-0.7-0.4-1.3-0.9-1.9-1.2c-0.7-0.4-1.2-1-1.8-1.3c-0.6-0.3-1.4-0.3-2.1-0.7
		c-0.6-0.3-1-1-1.7-1.4c-0.6-0.3-1.2-0.6-2-1.1c-0.7-0.4-1.6-0.4-2.2-0.7c-0.7-0.4-1.3-0.9-1.9-1.2c-0.7-0.4-1.2-1-1.8-1.4
		c-0.6-0.3-1.5-0.2-2.2-0.6c-0.6-0.3-1-1-1.7-1.4c-0.6-0.3-1.2-0.7-1.9-1.1c-0.7-0.4-1-1.2-1.5-1.8c-0.5-0.6-1.3-1-1.6-1.7
		c-0.3-0.7-0.1-1.5-0.2-2.3c-0.1-0.8-0.3-1.5-0.2-2.3c0.2-0.7,0.3-1.5,0.7-2.2c0.5-0.8,1-1.4,1.3-2c0.5-0.8,0.6-1.7,0.9-2.3
		c0.4-0.7,0.9-1.3,1.3-2c0.4-0.6,1.2-1,1.7-1.8c0.3-0.6,0.8-1.3,1.3-2.1c0.5-0.8,0.7-1.6,1.1-2.2c0.5-0.8,0.7-1.6,1-2.2
		c0.4-0.7,0.6-1.5,1-2.2c0.3-0.6,1.2-1,1.7-1.8c0.3-0.6,0-1.7,0.5-2.5c0.5-0.8,1.4-1.2,1.8-1.8c0.5-0.8,0.3-1.8,0.7-2.4
		c0.4-0.7,0.9-1.3,1.3-2c0.3-0.6,1.1-1,1.6-1.9c0.3-0.6,0.7-1.3,1.2-2.1c0.4-0.7,0.4-1.7,1-2.2c0.6-0.5,1.4-0.8,2.1-1.1
		c0.7-0.3,1.5-0.4,2.3-0.5c0.8-0.1,1.6,0,2.3,0.1C1272.3,247.7,1272.8,248.5,1273.5,248.8z"/>
	<path class="st4" d="M1273.5,248.8c0.7,0.4,1.4,0.6,2,1c0.7,0.4,1.3,0.9,1.8,1.3c0.7,0.4,1.5,0.4,2.1,0.8c0.6,0.4,1,1,1.7,1.5
		c0.6,0.3,1.5,0.1,2.3,0.5c0.6,0.3,1.1,0.9,1.8,1.4c0.7,0.4,1.3,0.8,1.9,1.1c0.8,0.4,1.3,1,1.9,1.3c0.7,0.4,1.5,0.4,2.1,0.7
		c0.6,0.3,1.4,0.4,2.1,0.7c0.6,0.3,1.2,0.7,1.9,1.1c0.6,0.3,1,1.1,1.7,1.5c0.7,0.4,1.3,0.9,1.9,1.2c0.7,0.4,1.4,0.7,2,1
		c0.7,0.4,1.3,0.7,1.9,1.1c0.6,0.4,1,1.1,1.7,1.5c0.5,0.3,1.4,0.3,2.2,0.7c0.6,0.3,1.1,0.8,1.9,1.2c0.7,0.4,1.3,0.9,1.9,1.2
		c0.7,0.4,1.4,0.8,1.9,1.1c0.7,0.4,1.4,0.6,2,0.9c0.6,0.3,1.4,0.4,2.1,0.8c0.6,0.3,0.9,1.3,1.6,1.7c0.6,0.3,1.3,0.5,2,0.9
		c0.7,0.4,1.4,0.8,1.9,1.1c0.7,0.4,1.6,0.4,2.2,0.7c0.7,0.4,1.3,0.9,1.8,1.2c0.6,0.4,1,1.1,1.7,1.5c0.5,0.3,1.2,0.7,1.9,1.1
		c0.6,0.3,1.3,0.5,2.1,0.9c0.7,0.4,1.2,1,1.8,1.3c0.7,0.4,1.6,0.4,2.1,0.8c0.7,0.4,1.1,1.1,1.8,1.4c0.6,0.3,1.1,0.8,1.9,1.2
		c0.6,0.3,1.1,0.8,1.9,1.2c0.6,0.3,1.2,0.8,1.9,1.2c0.7,0.4,1.3,0.7,1.8,1.2c0.5,0.6,0.6,1.3,0.9,2c0.3,0.7,0.9,1.3,1,2
		c0.1,0.7,0,1.5-0.2,2.3c-0.2,0.7-0.4,1.4-0.8,2.1c-0.5,0.8-0.8,1.5-1.2,2.1c-0.5,0.8-0.6,1.6-0.9,2.3c-0.4,0.7-1.3,1.1-1.7,1.8
		c-0.3,0.6-0.8,1.2-1.3,2c-0.3,0.6-0.2,1.6-0.7,2.4c-0.5,0.8-0.7,1.6-1.1,2.2c-0.5,0.8-1.1,1.4-1.4,2c-0.4,0.7-0.8,1.4-1.2,2.1
		c-0.3,0.6-0.9,1.2-1.4,2c-0.3,0.6-0.5,1.4-1,2.2c-0.5,0.8-0.9,1.5-1.3,2.1c-0.5,0.8-0.7,1.6-1,2.2c-0.4,0.7-0.9,1.3-1.3,2
		c-0.4,0.6-0.6,1.3-1.1,2.1c-0.3,0.6-0.9,1.2-1.3,2c-0.4,0.7-0.8,1.5-1.3,2c-0.6,0.5-1.4,0.7-2.1,1c-0.7,0.3-1.5,0.1-2.3,0.2
		c-0.8,0.1-1.5,0.4-2.2,0.2c-0.7-0.2-1.5-0.3-2.2-0.7c-0.7-0.4-1.3-0.9-1.9-1.2c-0.7-0.4-1.3-1-1.8-1.3c-0.7-0.4-1.4-0.6-2-0.9
		c-0.6-0.3-1.1-0.9-1.8-1.3c-0.6-0.3-1.3-0.4-2.1-0.8c-0.6-0.3-1.3-0.5-2.1-0.9c-0.7-0.4-1.3-0.8-1.9-1.2c-0.7-0.4-1.3-1-1.8-1.3
		c-0.7-0.4-1.2-0.9-1.8-1.3c-0.6-0.4-1.4-0.3-2.1-0.8c-0.6-0.3-0.8-1.3-1.5-1.7c-0.6-0.3-1.3-0.6-2-1c-0.7-0.4-1.3-0.9-1.8-1.3
		c-0.8-0.4-1.7-0.3-2.2-0.6c-0.7-0.4-1.3-0.9-1.9-1.2c-0.6-0.3-1.1-1-1.8-1.4c-0.6-0.3-1.5-0.1-2.2-0.6c-0.6-0.3-1.2-0.7-1.9-1.1
		c-0.7-0.4-1.1-1.2-1.7-1.5c-0.7-0.4-1.4-0.7-2-1c-0.7-0.4-1.5-0.4-2.1-0.8c-0.6-0.4-1.1-0.8-1.8-1.2c-0.6-0.3-1-1-1.7-1.5
		c-0.6-0.3-1.3-0.6-2-1c-0.7-0.4-1.4-0.6-2-1c-0.7-0.4-1.3-0.9-1.9-1.2c-0.7-0.4-1.2-1-1.8-1.3c-0.6-0.3-1.4-0.3-2.1-0.7
		c-0.6-0.3-1-1-1.7-1.4c-0.6-0.3-1.2-0.6-2-1.1c-0.7-0.4-1.6-0.4-2.2-0.7c-0.7-0.4-1.3-0.9-1.9-1.2c-0.7-0.4-1.2-1-1.8-1.4
		c-0.6-0.3-1.5-0.2-2.2-0.6c-0.6-0.3-1-1-1.7-1.4c-0.6-0.3-1.2-0.7-1.9-1.1c-0.7-0.4-1-1.2-1.5-1.8c-0.5-0.6-1.3-1-1.6-1.7
		c-0.3-0.7-0.1-1.5-0.2-2.3c-0.1-0.8-0.3-1.5-0.2-2.3c0.2-0.7,0.3-1.5,0.7-2.2c0.5-0.8,1-1.4,1.3-2c0.5-0.8,0.6-1.7,0.9-2.3
		c0.4-0.7,0.9-1.3,1.3-2c0.4-0.6,1.2-1,1.7-1.8c0.3-0.6,0.8-1.3,1.3-2.1c0.5-0.8,0.7-1.6,1.1-2.2c0.5-0.8,0.7-1.6,1-2.2
		c0.4-0.7,0.6-1.5,1-2.2c0.3-0.6,1.2-1,1.7-1.8c0.3-0.6,0-1.7,0.5-2.5c0.5-0.8,1.4-1.2,1.8-1.8c0.5-0.8,0.3-1.8,0.7-2.4
		c0.4-0.7,0.9-1.3,1.3-2c0.3-0.6,1.1-1,1.6-1.9c0.3-0.6,0.7-1.3,1.2-2.1c0.4-0.7,0.4-1.7,1-2.2c0.6-0.5,1.4-0.8,2.1-1.1
		c0.7-0.3,1.5-0.4,2.3-0.5c0.8-0.1,1.6,0,2.3,0.1C1272.3,247.7,1272.8,248.5,1273.5,248.8z"/>
</g>
<g>
	<path class="st3" d="M2198.5,443.9c-7.3,0-7.3,0.2-14.6,0.2c-7.3,0-7.3-0.5-14.6-0.5c-7.3,0-7.3,0.4-14.6,0.4
		c-7.3,0-7.3-0.7-14.6-0.7c-7.3,0-7.3,0.7-14.6,0.7c-7.3,0-7.3-0.4-14.6-0.4c-7.3,0-7.3-0.3-14.6-0.3c-7.3,0-7.3,0-14.6,0
		c-7.3,0-7.3,0-14.6,0c-7.3,0-7.3,0.2-14.6,0.2c-7.3,0-7.3,0.5-14.6,0.5c-7.3,0-7.3-0.2-14.6-0.2c-7.3,0-7.3,0.1-14.6,0.1
		c-7.3,0-7.3-0.4-14.6-0.4c-7.3,0-7.3,0.3-14.6,0.3c-2.9,0-5.2-3.3-5.2-7.3c0-6-0.3-6-0.3-12.1c0-6,0-6,0-12.1c0-6,0-6,0-12.1
		c0-4.1,2.6-7.4,5.5-7.4c7.3,0,7.3-0.3,14.6-0.3c7.3,0,7.3,0,14.6,0c7.3,0,7.3,0.1,14.6,0.1c7.3,0,7.3,0,14.6,0
		c7.3,0,7.3-0.2,14.6-0.2c7.3,0,7.3,0.6,14.6,0.6c7.3,0,7.3-0.7,14.6-0.7c7.3,0,7.3,0.8,14.6,0.8c7.3,0,7.3-0.3,14.6-0.3
		c7.3,0,7.3,0.3,14.6,0.3c7.3,0,7.3-0.6,14.6-0.6c7.3,0,7.3-0.2,14.6-0.2c7.3,0,7.3-0.1,14.6-0.1c7.3,0,7.3,0.1,14.6,0.1
		c7.3,0,7.3,0,14.6,0c2.9,0,5,3.7,5,7.8c0,6,0.1,6,0.1,12.1c0,6-0.1,6-0.1,12.1c0,6,0.5,6,0.5,12.1
		C2204.1,440.4,2201.4,443.9,2198.5,443.9z"/>
	<path class="st4" d="M2198.5,443.9c-7.3,0-7.3,0.2-14.6,0.2c-7.3,0-7.3-0.5-14.6-0.5c-7.3,0-7.3,0.4-14.6,0.4
		c-7.3,0-7.3-0.7-14.6-0.7c-7.3,0-7.3,0.7-14.6,0.7c-7.3,0-7.3-0.4-14.6-0.4c-7.3,0-7.3-0.3-14.6-0.3c-7.3,0-7.3,0-14.6,0
		c-7.3,0-7.3,0-14.6,0c-7.3,0-7.3,0.2-14.6,0.2c-7.3,0-7.3,0.5-14.6,0.5c-7.3,0-7.3-0.2-14.6-0.2c-7.3,0-7.3,0.1-14.6,0.1
		c-7.3,0-7.3-0.4-14.6-0.4c-7.3,0-7.3,0.3-14.6,0.3c-2.9,0-5.2-3.3-5.2-7.3c0-6-0.3-6-0.3-12.1c0-6,0-6,0-12.1c0-6,0-6,0-12.1
		c0-4.1,2.6-7.4,5.5-7.4c7.3,0,7.3-0.3,14.6-0.3c7.3,0,7.3,0,14.6,0c7.3,0,7.3,0.1,14.6,0.1c7.3,0,7.3,0,14.6,0
		c7.3,0,7.3-0.2,14.6-0.2c7.3,0,7.3,0.6,14.6,0.6c7.3,0,7.3-0.7,14.6-0.7c7.3,0,7.3,0.8,14.6,0.8c7.3,0,7.3-0.3,14.6-0.3
		c7.3,0,7.3,0.3,14.6,0.3c7.3,0,7.3-0.6,14.6-0.6c7.3,0,7.3-0.2,14.6-0.2c7.3,0,7.3-0.1,14.6-0.1c7.3,0,7.3,0.1,14.6,0.1
		c7.3,0,7.3,0,14.6,0c2.9,0,5,3.7,5,7.8c0,6,0.1,6,0.1,12.1c0,6-0.1,6-0.1,12.1c0,6,0.5,6,0.5,12.1
		C2204.1,440.4,2201.4,443.9,2198.5,443.9z"/>
</g>
<g>
	<path class="st0" d="M1856.9,626.7c-1.9-7-2.1-6.9-4-13.9c-1.9-7-2.2-6.9-4-13.9c-1.9-7-1.2-7.2-3.1-14.2c-1.9-7-2-7-3.9-14
		c-1.9-7-2.6-6.8-4.5-13.8c-1.9-7-1.2-7.2-3.1-14.2c-1.9-7-1.9-7-3.8-14c-1.9-7-1.8-7-3.7-14c-1.9-7-2.9-6.7-4.8-13.7
		c-1.9-7-1.3-7.2-3.1-14.2c-1.9-7-1.7-7-3.6-14c-1.9-7-1.7-7-3.6-14c-1.9-7-2.1-6.9-4-13.9c-1.9-7-2-7-3.9-14
		c-1.9-7-1.3-7.2-3.2-14.2c-1.9-7-2.6-6.8-4.5-13.8c-1.9-7-1.7-7-3.6-14.1c-1.9-7-1.7-7.1-3.6-14.1c-1.9-7-2.6-6.8-4.5-13.8
		c-1.9-7-1.5-7.1-3.3-14.1c-1.9-7-2.2-6.9-4.1-13.9c-1.9-7-1.7-7-3.6-14.1c-1.1-4.1,1.5-8.5,5.4-9.5c5.8-1.6,5.8-1.7,11.6-3.3
		c5.8-1.6,5.9-1.3,11.7-2.9c5.8-1.6,5.9-1.2,11.8-2.7c3.9-1,7.8,1.1,8.9,5.2c1.9,7,2.4,6.9,4.3,13.9c1.9,7,1.2,7.2,3,14.2
		c1.9,7,2,7,3.8,14c1.9,7,1.8,7,3.7,14c1.9,7,2.7,6.8,4.5,13.8c1.9,7,0.7,7.3,2.6,14.3c1.9,7,2.7,6.8,4.6,13.8c1.9,7,1,7.2,2.9,14.2
		c1.9,7,2.7,6.8,4.5,13.8c1.9,7,1.5,7.1,3.4,14.1c1.9,7,2.4,6.9,4.3,13.9c1.9,7,2,7,3.9,14c1.9,7,0.8,7.3,2.7,14.3
		c1.9,7,2.3,6.9,4.1,13.9c1.9,7,1.6,7.1,3.5,14.1c1.9,7,1.9,7,3.8,14c1.9,7,2,7,3.9,14c1.9,7,2.7,6.8,4.6,13.8
		c1.9,7,0.8,7.3,2.6,14.3c1.9,7,2.4,6.9,4.2,13.9c1.9,7,1.3,7.2,3.2,14.2c1.9,7,2.3,6.9,4.1,13.9c1.1,4.1-0.8,8.7-4.7,9.8
		c-5.8,1.6-5.8,1.7-11.6,3.2c-5.8,1.6-6,0.8-11.8,2.4c-5.8,1.6-5.9,1.4-11.7,2.9C1861.5,633.2,1858,630.8,1856.9,626.7z"/>
	<path class="st4" d="M1856.9,626.7c-1.9-7-2.1-6.9-4-13.9c-1.9-7-2.2-6.9-4-13.9c-1.9-7-1.2-7.2-3.1-14.2c-1.9-7-2-7-3.9-14
		c-1.9-7-2.6-6.8-4.5-13.8c-1.9-7-1.2-7.2-3.1-14.2c-1.9-7-1.9-7-3.8-14c-1.9-7-1.8-7-3.7-14c-1.9-7-2.9-6.7-4.8-13.7
		c-1.9-7-1.3-7.2-3.1-14.2c-1.9-7-1.7-7-3.6-14c-1.9-7-1.7-7-3.6-14c-1.9-7-2.1-6.9-4-13.9c-1.9-7-2-7-3.9-14
		c-1.9-7-1.3-7.2-3.2-14.2c-1.9-7-2.6-6.8-4.5-13.8c-1.9-7-1.7-7-3.6-14.1c-1.9-7-1.7-7.1-3.6-14.1c-1.9-7-2.6-6.8-4.5-13.8
		c-1.9-7-1.5-7.1-3.3-14.1c-1.9-7-2.2-6.9-4.1-13.9c-1.9-7-1.7-7-3.6-14.1c-1.1-4.1,1.5-8.5,5.4-9.5c5.8-1.6,5.8-1.7,11.6-3.3
		c5.8-1.6,5.9-1.3,11.7-2.9c5.8-1.6,5.9-1.2,11.8-2.7c3.9-1,7.8,1.1,8.9,5.2c1.9,7,2.4,6.9,4.3,13.9c1.9,7,1.2,7.2,3,14.2
		c1.9,7,2,7,3.8,14c1.9,7,1.8,7,3.7,14c1.9,7,2.7,6.8,4.5,13.8c1.9,7,0.7,7.3,2.6,14.3c1.9,7,2.7,6.8,4.6,13.8c1.9,7,1,7.2,2.9,14.2
		c1.9,7,2.7,6.8,4.5,13.8c1.9,7,1.5,7.1,3.4,14.1c1.9,7,2.4,6.9,4.3,13.9c1.9,7,2,7,3.9,14c1.9,7,0.8,7.3,2.7,14.3
		c1.9,7,2.3,6.9,4.1,13.9c1.9,7,1.6,7.1,3.5,14.1c1.9,7,1.9,7,3.8,14c1.9,7,2,7,3.9,14c1.9,7,2.7,6.8,4.6,13.8
		c1.9,7,0.8,7.3,2.6,14.3c1.9,7,2.4,6.9,4.2,13.9c1.9,7,1.3,7.2,3.2,14.2c1.9,7,2.3,6.9,4.1,13.9c1.1,4.1-0.8,8.7-4.7,9.8
		c-5.8,1.6-5.8,1.7-11.6,3.2c-5.8,1.6-6,0.8-11.8,2.4c-5.8,1.6-5.9,1.4-11.7,2.9C1861.5,633.2,1858,630.8,1856.9,626.7z"/>
</g>
<g>
	<path class="st3" d="M1817.4,199.4c0.8,0,1.6,0.1,2.2,0.1c0.8,0,1.6,0.2,2.2,0.2c0.8,0,1.6,0.1,2.2,0.1c0.8,0,1.5-0.4,2.2-0.4
		c0.7,0,1.4,0,2.2,0c0.7,0,1.4,0,2.2,0c0.7,0,1.4,0.1,2.2,0.1c0.8,0,1.5,0.3,2.3,0.5c0.7,0.2,1.4,0.7,2,1.1c0.6,0.5,1.1,1,1.6,1.6
		c0.5,0.6,1.2,1.1,1.4,1.9c0.2,0.7,0.1,1.5,0.1,2.3c0,0.9,0.4,1.7,0.4,2.4c0,0.9-0.4,1.7-0.4,2.4c0,0.9,0.1,1.7,0.1,2.4
		c0,0.8,0.1,1.6,0.1,2.4c0,0.7-0.3,1.5-0.3,2.4c0,0.7,0,1.5,0,2.4c0,0.7,0.3,1.5,0.3,2.4c0,0.9-0.3,1.7-0.3,2.4c0,0.9,0,1.7,0,2.4
		c0,0.9,0,1.7,0,2.4c0,0.8,0.4,1.6,0.4,2.4c0,0.7-0.2,1.5-0.2,2.4c0,0.7-0.1,1.5-0.1,2.4c0,0.7-0.1,1.5-0.1,2.4
		c0,0.9,0.1,1.7,0.1,2.4c0,0.9,0.1,1.7,0.1,2.4c0,0.9-0.2,1.7-0.2,2.4c0,0.8,0.3,1.6,0.3,2.4c0,0.7-0.1,1.5-0.1,2.4
		c0,0.7-0.1,1.5-0.1,2.4c0,0.7,0.3,1.5,0.3,2.4c0,0.8-0.3,1.6-0.5,2.3c-0.2,0.7-0.5,1.5-0.9,2.1c-0.5,0.6-1.1,1.1-1.7,1.6
		c-0.6,0.4-1.4,0.7-2.1,1c-0.7,0.2-1.5,0.4-2.3,0.4c-0.8,0-1.6-0.1-2.2-0.1c-0.8,0-1.6-0.2-2.2-0.2c-0.8,0-1.6,0.1-2.2,0.2
		c-0.8,0-1.5,0.2-2.2,0.3c-0.7,0-1.4-0.3-2.2-0.3c-0.7,0-1.4,0-2.2,0c-0.7,0-1.4,0-2.2,0c-0.8,0-1.6,0.2-2.4-0.1
		c-0.7-0.2-1.2-1-1.8-1.5c-0.6-0.5-1.4-0.8-1.8-1.4c-0.5-0.6-0.5-1.4-0.8-2.2c-0.2-0.7-0.7-1.4-0.7-2.2c0-0.9,0.1-1.7,0.1-2.4
		c0-0.9-0.2-1.7-0.2-2.4c0-0.9,0-1.7,0-2.4c0-0.8,0.4-1.6,0.5-2.4c0-0.7-0.1-1.5-0.1-2.4c0-0.7,0.1-1.5,0.1-2.4c0-0.7,0-1.5,0-2.4
		c0-0.9-0.1-1.7-0.1-2.4c0-0.9-0.4-1.7-0.4-2.4c0-0.9,0.4-1.7,0.4-2.4c0-0.8-0.2-1.6-0.2-2.4c0-0.7,0.2-1.5,0.2-2.4
		c0-0.7-0.2-1.5-0.2-2.4c0-0.7-0.3-1.5-0.3-2.4c0-0.9,0-1.7,0-2.4c0-0.9,0.3-1.7,0.3-2.4c0-0.9,0.1-1.7,0.1-2.4
		c0-0.8-0.2-1.6-0.2-2.4c0-0.7,0.3-1.5,0.3-2.4c0-0.7,0.1-1.5,0.1-2.4c0-0.7-0.1-1.5-0.1-2.4c0-0.8,0-1.6,0.2-2.3
		c0.2-0.7,0.6-1.4,1.1-2c0.4-0.6,0.8-1.4,1.5-1.8c0.6-0.5,1.3-0.8,2.1-1.1C1815.7,199.5,1816.6,199.4,1817.4,199.4z"/>
	<path class="st4" d="M1817.4,199.4c0.8,0,1.6,0.1,2.2,0.1c0.8,0,1.6,0.2,2.2,0.2c0.8,0,1.6,0.1,2.2,0.1c0.8,0,1.5-0.4,2.2-0.4
		c0.7,0,1.4,0,2.2,0c0.7,0,1.4,0,2.2,0c0.7,0,1.4,0.1,2.2,0.1c0.8,0,1.5,0.3,2.3,0.5c0.7,0.2,1.4,0.7,2,1.1c0.6,0.5,1.1,1,1.6,1.6
		c0.5,0.6,1.2,1.1,1.4,1.9c0.2,0.7,0.1,1.5,0.1,2.3c0,0.9,0.4,1.7,0.4,2.4c0,0.9-0.4,1.7-0.4,2.4c0,0.9,0.1,1.7,0.1,2.4
		c0,0.8,0.1,1.6,0.1,2.4c0,0.7-0.3,1.5-0.3,2.4c0,0.7,0,1.5,0,2.4c0,0.7,0.3,1.5,0.3,2.4c0,0.9-0.3,1.7-0.3,2.4c0,0.9,0,1.7,0,2.4
		c0,0.9,0,1.7,0,2.4c0,0.8,0.4,1.6,0.4,2.4c0,0.7-0.2,1.5-0.2,2.4c0,0.7-0.1,1.5-0.1,2.4c0,0.7-0.1,1.5-0.1,2.4
		c0,0.9,0.1,1.7,0.1,2.4c0,0.9,0.1,1.7,0.1,2.4c0,0.9-0.2,1.7-0.2,2.4c0,0.8,0.3,1.6,0.3,2.4c0,0.7-0.1,1.5-0.1,2.4
		c0,0.7-0.1,1.5-0.1,2.4c0,0.7,0.3,1.5,0.3,2.4c0,0.8-0.3,1.6-0.5,2.3c-0.2,0.7-0.5,1.5-0.9,2.1c-0.5,0.6-1.1,1.1-1.7,1.6
		c-0.6,0.4-1.4,0.7-2.1,1c-0.7,0.2-1.5,0.4-2.3,0.4c-0.8,0-1.6-0.1-2.2-0.1c-0.8,0-1.6-0.2-2.2-0.2c-0.8,0-1.6,0.1-2.2,0.2
		c-0.8,0-1.5,0.2-2.2,0.3c-0.7,0-1.4-0.3-2.2-0.3c-0.7,0-1.4,0-2.2,0c-0.7,0-1.4,0-2.2,0c-0.8,0-1.6,0.2-2.4-0.1
		c-0.7-0.2-1.2-1-1.8-1.5c-0.6-0.5-1.4-0.8-1.8-1.4c-0.5-0.6-0.5-1.4-0.8-2.2c-0.2-0.7-0.7-1.4-0.7-2.2c0-0.9,0.1-1.7,0.1-2.4
		c0-0.9-0.2-1.7-0.2-2.4c0-0.9,0-1.7,0-2.4c0-0.8,0.4-1.6,0.5-2.4c0-0.7-0.1-1.5-0.1-2.4c0-0.7,0.1-1.5,0.1-2.4c0-0.7,0-1.5,0-2.4
		c0-0.9-0.1-1.7-0.1-2.4c0-0.9-0.4-1.7-0.4-2.4c0-0.9,0.4-1.7,0.4-2.4c0-0.8-0.2-1.6-0.2-2.4c0-0.7,0.2-1.5,0.2-2.4
		c0-0.7-0.2-1.5-0.2-2.4c0-0.7-0.3-1.5-0.3-2.4c0-0.9,0-1.7,0-2.4c0-0.9,0.3-1.7,0.3-2.4c0-0.9,0.1-1.7,0.1-2.4
		c0-0.8-0.2-1.6-0.2-2.4c0-0.7,0.3-1.5,0.3-2.4c0-0.7,0.1-1.5,0.1-2.4c0-0.7-0.1-1.5-0.1-2.4c0-0.8,0-1.6,0.2-2.3
		c0.2-0.7,0.6-1.4,1.1-2c0.4-0.6,0.8-1.4,1.5-1.8c0.6-0.5,1.3-0.8,2.1-1.1C1815.7,199.5,1816.6,199.4,1817.4,199.4z"/>
</g>
<g>
	<path class="st3" d="M1872.4,199.7c0.8,0,1.6-0.2,2.2-0.2c0.8,0,1.6,0.3,2.2,0.3c0.8,0,1.5-0.3,2.2-0.4c0.8,0,1.5,0.2,2.2,0.2
		c0.7,0,1.4-0.3,2.2-0.3c0.7,0,1.4,0.4,2.2,0.4c0.7,0,1.4-0.2,2.2-0.2c0.8,0,1.5,0.2,2.2,0.4c0.7,0.3,1.4,0.6,2,1
		c0.6,0.5,1.2,0.9,1.6,1.6c0.4,0.6,0.9,1.3,1.1,2c0.2,0.7,0.3,1.5,0.3,2.3c0,0.9,0.1,1.7,0.1,2.4c0,0.9,0,1.7,0,2.4
		c0,0.9-0.1,1.7,0,2.4c0,0.8,0.2,1.6,0.2,2.4c0,0.7-0.2,1.5-0.2,2.4c0,0.7,0.1,1.5,0.1,2.4c0,0.7-0.1,1.5-0.1,2.4
		c0,0.9-0.1,1.7-0.1,2.4c0,0.9,0.2,1.7,0.2,2.4c0,0.9,0,1.7,0,2.4c0,0.8-0.3,1.6-0.4,2.4c0,0.7,0.3,1.5,0.3,2.4
		c0,0.7-0.3,1.5-0.3,2.4c0,0.7,0.4,1.5,0.4,2.4c0,0.9-0.1,1.7-0.1,2.4c0,0.9-0.2,1.7-0.2,2.4c0,0.9-0.1,1.7-0.1,2.4
		c0,0.8,0.4,1.6,0.4,2.4c0,0.7,0,1.5,0,2.4c0,0.7,0,1.5,0,2.4c0,0.7-0.1,1.5-0.1,2.4c0,0.8-0.3,1.5-0.5,2.2c-0.2,0.7-0.7,1.3-1.1,2
		c-0.4,0.6-1,1.1-1.6,1.6c-0.6,0.4-1.1,1.1-1.9,1.4c-0.7,0.2-1.5,0-2.3,0c-0.8,0-1.6,0.4-2.2,0.4c-0.8,0-1.6-0.4-2.2-0.4
		c-0.8,0-1.6,0.1-2.2,0.1c-0.8,0-1.5,0.1-2.2,0.1c-0.7,0-1.4-0.3-2.2-0.3c-0.7,0-1.4,0-2.2,0c-0.7,0-1.4,0.3-2.2,0.3
		c-0.8,0-1.5-0.4-2.2-0.6c-0.7-0.2-1.4-0.5-2-1c-0.6-0.4-1.1-1-1.6-1.6c-0.5-0.6-1.2-1.1-1.4-1.8c-0.2-0.7-0.1-1.5-0.1-2.3
		c0-0.9,0.1-1.7,0.1-2.4c0-0.9,0.1-1.7,0.1-2.4c0-0.9-0.1-1.7-0.1-2.4c0-0.8-0.1-1.6,0-2.4c0-0.7,0.2-1.5,0.2-2.4
		c0-0.7-0.3-1.5-0.3-2.4c0-0.7,0.1-1.5,0.1-2.4c0-0.9,0.1-1.7,0.1-2.4c0-0.9-0.3-1.7-0.3-2.4c0-0.9,0.2-1.7,0.2-2.4
		c0-0.8-0.1-1.6-0.2-2.4c0-0.7,0.1-1.5,0.1-2.4c0-0.7,0.1-1.5,0.1-2.4c0-0.7-0.1-1.5-0.1-2.4c0-0.9,0.1-1.7,0.1-2.4
		c0-0.9,0.2-1.7,0.2-2.4c0-0.9-0.1-1.7-0.1-2.4c0-0.8-0.2-1.6-0.2-2.4c0-0.7,0.3-1.5,0.3-2.4c0-0.7,0-1.5,0-2.4c0-0.7,0-1.5,0-2.4
		c0-0.8-0.2-1.6,0-2.3c0.2-0.7,1-1.2,1.4-1.8c0.4-0.6,0.7-1.4,1.4-1.8c0.6-0.4,1.4-0.5,2.2-0.7C1871,200,1871.7,199.7,1872.4,199.7z
		"/>
	<path class="st4" d="M1872.4,199.7c0.8,0,1.6-0.2,2.2-0.2c0.8,0,1.6,0.3,2.2,0.3c0.8,0,1.5-0.3,2.2-0.4c0.8,0,1.5,0.2,2.2,0.2
		c0.7,0,1.4-0.3,2.2-0.3c0.7,0,1.4,0.4,2.2,0.4c0.7,0,1.4-0.2,2.2-0.2c0.8,0,1.5,0.2,2.2,0.4c0.7,0.3,1.4,0.6,2,1
		c0.6,0.5,1.2,0.9,1.6,1.6c0.4,0.6,0.9,1.3,1.1,2c0.2,0.7,0.3,1.5,0.3,2.3c0,0.9,0.1,1.7,0.1,2.4c0,0.9,0,1.7,0,2.4
		c0,0.9-0.1,1.7,0,2.4c0,0.8,0.2,1.6,0.2,2.4c0,0.7-0.2,1.5-0.2,2.4c0,0.7,0.1,1.5,0.1,2.4c0,0.7-0.1,1.5-0.1,2.4
		c0,0.9-0.1,1.7-0.1,2.4c0,0.9,0.2,1.7,0.2,2.4c0,0.9,0,1.7,0,2.4c0,0.8-0.3,1.6-0.4,2.4c0,0.7,0.3,1.5,0.3,2.4
		c0,0.7-0.3,1.5-0.3,2.4c0,0.7,0.4,1.5,0.4,2.4c0,0.9-0.1,1.7-0.1,2.4c0,0.9-0.2,1.7-0.2,2.4c0,0.9-0.1,1.7-0.1,2.4
		c0,0.8,0.4,1.6,0.4,2.4c0,0.7,0,1.5,0,2.4c0,0.7,0,1.5,0,2.4c0,0.7-0.1,1.5-0.1,2.4c0,0.8-0.3,1.5-0.5,2.2c-0.2,0.7-0.7,1.3-1.1,2
		c-0.4,0.6-1,1.1-1.6,1.6c-0.6,0.4-1.1,1.1-1.9,1.4c-0.7,0.2-1.5,0-2.3,0c-0.8,0-1.6,0.4-2.2,0.4c-0.8,0-1.6-0.4-2.2-0.4
		c-0.8,0-1.6,0.1-2.2,0.1c-0.8,0-1.5,0.1-2.2,0.1c-0.7,0-1.4-0.3-2.2-0.3c-0.7,0-1.4,0-2.2,0c-0.7,0-1.4,0.3-2.2,0.3
		c-0.8,0-1.5-0.4-2.2-0.6c-0.7-0.2-1.4-0.5-2-1c-0.6-0.4-1.1-1-1.6-1.6c-0.5-0.6-1.2-1.1-1.4-1.8c-0.2-0.7-0.1-1.5-0.1-2.3
		c0-0.9,0.1-1.7,0.1-2.4c0-0.9,0.1-1.7,0.1-2.4c0-0.9-0.1-1.7-0.1-2.4c0-0.8-0.1-1.6,0-2.4c0-0.7,0.2-1.5,0.2-2.4
		c0-0.7-0.3-1.5-0.3-2.4c0-0.7,0.1-1.5,0.1-2.4c0-0.9,0.1-1.7,0.1-2.4c0-0.9-0.3-1.7-0.3-2.4c0-0.9,0.2-1.7,0.2-2.4
		c0-0.8-0.1-1.6-0.2-2.4c0-0.7,0.1-1.5,0.1-2.4c0-0.7,0.1-1.5,0.1-2.4c0-0.7-0.1-1.5-0.1-2.4c0-0.9,0.1-1.7,0.1-2.4
		c0-0.9,0.2-1.7,0.2-2.4c0-0.9-0.1-1.7-0.1-2.4c0-0.8-0.2-1.6-0.2-2.4c0-0.7,0.3-1.5,0.3-2.4c0-0.7,0-1.5,0-2.4c0-0.7,0-1.5,0-2.4
		c0-0.8-0.2-1.6,0-2.3c0.2-0.7,1-1.2,1.4-1.8c0.4-0.6,0.7-1.4,1.4-1.8c0.6-0.4,1.4-0.5,2.2-0.7C1871,200,1871.7,199.7,1872.4,199.7z
		"/>
</g>
<g>
	<path class="st2" d="M1584,608c1.9-6.9,1.9-6.9,3.8-13.9c1.9-7,1.2-7.1,3.1-14.1c1.9-7,1.7-7,3.6-13.9c1.9-6.9,1.9-6.9,3.8-13.9
		c1.9-7,2.2-6.9,4-13.8c1.9-7,2.3-6.8,4.1-13.8c1.9-7,1.1-7.2,3-14.1c1.9-7,1.6-7,3.5-14c1.9-7,2.2-6.9,4-13.8
		c1.9-7,2.1-6.9,3.9-13.8c1.9-7,1.1-7.1,3-14.1c1.9-6.9,2.1-6.9,3.9-13.8c1.9-7,2.5-6.8,4.4-13.7c1.9-7,1.9-6.9,3.8-13.9
		c1.9-7,2.2-6.9,4.1-13.8c1.9-7,2.1-6.9,4-13.8c1.9-7,1.2-7.1,3.1-14.1c1.9-7,1.8-7,3.7-13.9c1.9-7,2.4-6.8,4.3-13.7
		c1.9-7,1.3-7.1,3.1-14.1c1.9-7,2.1-6.9,4-13.8c1.9-6.9,2.1-6.9,4-13.8c1.9-7,0.9-7.2,2.8-14.2c1.9-7,2.7-6.7,4.5-13.7
		c1.9-7,2.3-6.8,4.1-13.8c1.9-7,1.9-7,3.7-13.9c1.9-7,1.3-7.1,3.2-14.1c1.3-5,5.3-8.1,9.3-7c5.8,1.6,5.8,1.6,11.6,3.2
		c5.8,1.6,5.7,1.9,11.6,3.4c5.8,1.6,6,0.7,11.9,2.3c3.9,1,6,6.2,4.6,11.2c-1.9,6.9-2.6,6.7-4.5,13.7c-1.9,7-0.7,7.3-2.6,14.2
		c-1.9,7-2.9,6.7-4.8,13.6c-1.9,6.9-1.9,6.9-3.8,13.9c-1.9,7-0.8,7.2-2.6,14.2c-1.9,7-2.8,6.7-4.7,13.6c-1.9,7-1.9,6.9-3.7,13.9
		c-1.9,7-1.6,7-3.5,14c-1.9,7-2.2,6.9-4.1,13.8c-1.9,7-1.7,7-3.5,14c-1.9,7-1,7.2-2.9,14.1c-1.9,6.9-2.6,6.7-4.5,13.7
		c-1.9,7-1.3,7.1-3.1,14.1c-1.9,7-2.3,6.8-4.1,13.8c-1.9,7-1.2,7.1-3.1,14.1c-1.9,7-3,6.6-4.9,13.6c-1.9,7-0.5,7.3-2.4,14.3
		c-1.9,7-2.6,6.8-4.5,13.7c-1.9,7-1.8,7-3.7,13.9c-1.9,7-1.9,6.9-3.8,13.9c-1.9,7-1,7.2-2.9,14.1c-1.9,6.9-3.3,6.6-5.2,13.5
		c-1.9,7-0.7,7.3-2.5,14.2c-1.9,7-1.7,7-3.5,14c-1.9,7-2.5,6.8-4.4,13.7c-1.9,7-2.5,6.8-4.4,13.7c-1.9,7-1.7,7-3.6,14
		c-1.3,5-5.4,9.1-9.3,8.1c-5.8-1.6-5.5-2.8-11.3-4.4c-5.8-1.6-5.9-1.2-11.7-2.8s-6-0.8-11.9-2.3C1584.2,618.5,1582.7,613,1584,608z"
		/>
	<path class="st4" d="M1584,608c1.9-6.9,1.9-6.9,3.8-13.9c1.9-7,1.2-7.1,3.1-14.1c1.9-7,1.7-7,3.6-13.9c1.9-6.9,1.9-6.9,3.8-13.9
		c1.9-7,2.2-6.9,4-13.8c1.9-7,2.3-6.8,4.1-13.8c1.9-7,1.1-7.2,3-14.1c1.9-7,1.6-7,3.5-14c1.9-7,2.2-6.9,4-13.8
		c1.9-7,2.1-6.9,3.9-13.8c1.9-7,1.1-7.1,3-14.1c1.9-6.9,2.1-6.9,3.9-13.8c1.9-7,2.5-6.8,4.4-13.7c1.9-7,1.9-6.9,3.8-13.9
		c1.9-7,2.2-6.9,4.1-13.8c1.9-7,2.1-6.9,4-13.8c1.9-7,1.2-7.1,3.1-14.1c1.9-7,1.8-7,3.7-13.9c1.9-7,2.4-6.8,4.3-13.7
		c1.9-7,1.3-7.1,3.1-14.1c1.9-7,2.1-6.9,4-13.8c1.9-6.9,2.1-6.9,4-13.8c1.9-7,0.9-7.2,2.8-14.2c1.9-7,2.7-6.7,4.5-13.7
		c1.9-7,2.3-6.8,4.1-13.8c1.9-7,1.9-7,3.7-13.9c1.9-7,1.3-7.1,3.2-14.1c1.3-5,5.3-8.1,9.3-7c5.8,1.6,5.8,1.6,11.6,3.2
		c5.8,1.6,5.7,1.9,11.6,3.4c5.8,1.6,6,0.7,11.9,2.3c3.9,1,6,6.2,4.6,11.2c-1.9,6.9-2.6,6.7-4.5,13.7c-1.9,7-0.7,7.3-2.6,14.2
		c-1.9,7-2.9,6.7-4.8,13.6c-1.9,6.9-1.9,6.9-3.8,13.9c-1.9,7-0.8,7.2-2.6,14.2c-1.9,7-2.8,6.7-4.7,13.6c-1.9,7-1.9,6.9-3.7,13.9
		c-1.9,7-1.6,7-3.5,14c-1.9,7-2.2,6.9-4.1,13.8c-1.9,7-1.7,7-3.5,14c-1.9,7-1,7.2-2.9,14.1c-1.9,6.9-2.6,6.7-4.5,13.7
		c-1.9,7-1.3,7.1-3.1,14.1c-1.9,7-2.3,6.8-4.1,13.8c-1.9,7-1.2,7.1-3.1,14.1c-1.9,7-3,6.6-4.9,13.6c-1.9,7-0.5,7.3-2.4,14.3
		c-1.9,7-2.6,6.8-4.5,13.7c-1.9,7-1.8,7-3.7,13.9c-1.9,7-1.9,6.9-3.8,13.9c-1.9,7-1,7.2-2.9,14.1c-1.9,6.9-3.3,6.6-5.2,13.5
		c-1.9,7-0.7,7.3-2.5,14.2c-1.9,7-1.7,7-3.5,14c-1.9,7-2.5,6.8-4.4,13.7c-1.9,7-2.5,6.8-4.4,13.7c-1.9,7-1.7,7-3.6,14
		c-1.3,5-5.4,9.1-9.3,8.1c-5.8-1.6-5.5-2.8-11.3-4.4c-5.8-1.6-5.9-1.2-11.7-2.8s-6-0.8-11.9-2.3C1584.2,618.5,1582.7,613,1584,608z"
		/>
</g>
<g>
	<path class="st1" d="M870.3,613.3c3.6-6.1,3.3-6.3,6.8-12.4c3.6-6.1,3.9-5.9,7.5-12.1c3.6-6.1,3.1-6.4,6.7-12.5
		c3.6-6.1,3.9-5.9,7.4-12.1c3.6-6.1,3.6-6.1,7.2-12.2c3.6-6.1,3.5-6.2,7.1-12.3c3.6-6.1,3.8-6,7.4-12.1c3.6-6.1,3.2-6.3,6.8-12.5
		c3.6-6.1,3.8-6,7.4-12.1c3.6-6.1,3.6-6.1,7.2-12.2c3.6-6.1,3.4-6.2,7-12.3c3.6-6.1,3.1-6.4,6.7-12.5c3.6-6.1,3.6-6.1,7.2-12.2
		c3.6-6.1,3.5-6.2,7.1-12.3c3.6-6.1,3.7-6,7.3-12.2c2-3.5,6.6-4.4,10.1-2.4c5.2,3,5.2,3.1,10.4,6.1c5.2,3,5.4,2.8,10.6,5.8
		c5.2,3,5.1,3.2,10.3,6.2c3.5,2,5.1,6.5,3.1,10c-3.6,6.1-3.9,6-7.4,12.1c-3.6,6.1-3.7,6.1-7.2,12.2c-3.6,6.1-3.4,6.2-7,12.4
		c-3.6,6.1-3.9,6-7.4,12.1c-3.6,6.1-3.3,6.3-6.9,12.4c-3.6,6.1-3.2,6.3-6.8,12.5c-3.6,6.1-3.7,6.1-7.3,12.2
		c-3.6,6.1-3.5,6.1-7.1,12.3c-3.6,6.1-3.6,6.1-7.2,12.2c-3.6,6.1-4,5.9-7.5,12c-3.6,6.1-3,6.5-6.5,12.6c-3.6,6.1-4,5.9-7.6,12
		c-3.6,6.1-3.2,6.3-6.8,12.5c-3.6,6.1-3.6,6.1-7.2,12.2c-3.6,6.1-3.8,6-7.3,12.2c-2,3.5-6.7,5-10.2,3c-5.2-3-4.8-3.7-10.1-6.7
		c-5.2-3-5.6-2.4-10.8-5.4s-5.2-3-10.5-6C869.1,621.5,868.3,616.8,870.3,613.3z"/>
</g>
</svg>
