<svg xmlns="http://www.w3.org/2000/svg" viewBox="0 0 2133.57 449.18"><defs><style>.cls-1,.cls-3,.cls-4,.cls-5{fill:none;stroke:#000;stroke-linejoin:round;}.cls-1{stroke-width:11.02px;}.cls-2{fill:#c4c4c4;}.cls-3{stroke-width:11.02px;}.cls-4{stroke-width:11px;}.cls-5{stroke-width:10.93px;}</style></defs><g id="レイヤー_2" data-name="レイヤー 2"><g id="オジレビュー"><path d="M397.65,370c8-4.61,7.56-5.37,15.56-10s8.2-4.27,16.2-8.89,7.84-4.89,15.83-9.51,7.83-4.91,15.83-9.52,8.51-3.72,16.51-8.34,8-4.65,16-9.26,7.85-4.88,15.85-9.49,7.67-5.18,15.67-9.8,8-4.68,16-9.29,8.08-4.48,16.08-9.09,8.18-4.31,16.17-8.93,8.12-4.42,16.12-9,8.1-4.43,16.1-9,8-4.63,16-9.24,7.87-4.85,15.87-9.46,7.74-5.09,15.74-9.71,8.36-4,16.37-8.6c3.51-2,7.9-1.2,9.93,2.31,4.52,7.83,4.39,7.9,8.91,15.73s5,7.54,9.54,15.37c2,3.51.09,7.79-3.43,9.81-8,4.62-7.85,4.86-15.85,9.48s-8.1,4.44-16.1,9S655,280.06,647,284.68s-8.24,4.18-16.24,8.8-8.13,4.39-16.13,9-7.73,5.07-15.73,9.69S591,317,583,321.56s-8,4.57-16,9.19S559,335.47,551,340.09s-8.38,4-16.38,8.57-7.93,4.73-15.93,9.34-8.22,4.24-16.21,8.86-8,4.69-15.95,9.31-7.82,4.94-15.82,9.56-8.27,4.15-16.27,8.77-7.82,4.93-15.82,9.55-7.86,4.86-15.86,9.48a7.39,7.39,0,0,1-10.06-2.73c-4.52-7.83-4.46-7.86-9-15.69s-4.73-7.71-9.25-15.54C392.48,376.05,394.14,372,397.65,370Z"/><path class="cls-1" d="M397.65,370c8-4.61,7.56-5.37,15.56-10s8.2-4.27,16.2-8.89,7.84-4.89,15.83-9.51,7.83-4.91,15.83-9.52,8.51-3.72,16.51-8.34,8-4.65,16-9.26,7.85-4.88,15.85-9.49,7.67-5.18,15.67-9.8,8-4.68,16-9.29,8.08-4.48,16.08-9.09,8.18-4.31,16.17-8.93,8.12-4.42,16.12-9,8.1-4.43,16.1-9,8-4.63,16-9.24,7.87-4.85,15.87-9.46,7.74-5.09,15.74-9.71,8.36-4,16.37-8.6c3.51-2,7.9-1.2,9.93,2.31,4.52,7.83,4.39,7.9,8.91,15.73s5,7.54,9.54,15.37c2,3.51.09,7.79-3.43,9.81-8,4.62-7.85,4.86-15.85,9.48s-8.1,4.44-16.1,9S655,280.06,647,284.68s-8.24,4.18-16.24,8.8-8.13,4.39-16.13,9-7.73,5.07-15.73,9.69S591,317,583,321.56s-8,4.57-16,9.19S559,335.47,551,340.09s-8.38,4-16.38,8.57-7.93,4.73-15.93,9.34-8.22,4.24-16.21,8.86-8,4.69-15.95,9.31-7.82,4.94-15.82,9.56-8.27,4.15-16.27,8.77-7.82,4.93-15.82,9.55-7.86,4.86-15.86,9.48a7.39,7.39,0,0,1-10.06-2.73c-4.52-7.83-4.46-7.86-9-15.69s-4.73-7.71-9.25-15.54C392.48,376.05,394.14,372,397.65,370Z"/><path class="cls-2" d="M599.39,62.69c7.81,0,7.81.14,15.61.14a7.28,7.28,0,0,1,7.35,7.27c0,8.32,0,8.32,0,16.64s0,8.33,0,16.65-.09,8.33-.09,16.65a7.25,7.25,0,0,1-7.26,7.32c-7.8,0-7.8,0-15.61,0a7.46,7.46,0,0,1-7.46-7.36c0-8.32.11-8.32.11-16.64s.09-8.33.09-16.65-.08-8.33-.08-16.65A7.4,7.4,0,0,1,599.39,62.69Z"/><path class="cls-1" d="M599.39,62.69c7.81,0,7.81.14,15.61.14a7.28,7.28,0,0,1,7.35,7.27c0,8.32,0,8.32,0,16.64s0,8.33,0,16.65-.09,8.33-.09,16.65a7.25,7.25,0,0,1-7.26,7.32c-7.8,0-7.8,0-15.61,0a7.46,7.46,0,0,1-7.46-7.36c0-8.32.11-8.32.11-16.64s.09-8.33.09-16.65-.08-8.33-.08-16.65A7.4,7.4,0,0,1,599.39,62.69Z"/><path class="cls-2" d="M654.48,62.7c7.8,0,7.8,0,15.61,0a7.39,7.39,0,0,1,7.3,7.44c0,8.32,0,8.32,0,16.64s0,8.33,0,16.65.12,8.33.12,16.65a7.32,7.32,0,0,1-7.42,7.24c-7.81,0-7.81.17-15.61.17a7.36,7.36,0,0,1-7.3-7.41c0-8.32.05-8.32.05-16.64V86.75c0-8.33,0-8.33,0-16.65A7.3,7.3,0,0,1,654.48,62.7Z"/><path class="cls-1" d="M654.48,62.7c7.8,0,7.8,0,15.61,0a7.39,7.39,0,0,1,7.3,7.44c0,8.32,0,8.32,0,16.64s0,8.33,0,16.65.12,8.33.12,16.65a7.32,7.32,0,0,1-7.42,7.24c-7.81,0-7.81.17-15.61.17a7.36,7.36,0,0,1-7.3-7.41c0-8.32.05-8.32.05-16.64V86.75c0-8.33,0-8.33,0-16.65A7.3,7.3,0,0,1,654.48,62.7Z"/><path class="cls-1" d="M166.42,436.23c0-9-.48-9-.48-17.9s-.71-9-.71-17.91.21-9,.21-17.91.68-8.95.68-17.91,0-9,0-17.9-.62-8.95-.62-17.9-.21-9-.21-17.91.9-8.95.9-17.91-.81-9-.81-17.9,1-9,1-17.91-.83-9-.83-17.91.23-8.95.23-17.91.74-8.95.74-17.9-.82-9-.82-17.91.14-9,.14-17.92-.48-9-.48-17.91,0-9,0-17.92a8.17,8.17,0,0,1,7.87-7.75c9,0,9,.22,18.09.22s9,0,18.08,0a7.72,7.72,0,0,1,7.61,7.51c0,9-.84,9-.84,17.91s.63,9,.63,17.91,0,8.95,0,17.9,0,9,0,17.91-.44,9-.44,17.91.21,8.95.21,17.9.45,9,.45,17.9-.9,9-.9,17.91,1,9,1,17.91-1,8.95-1,17.91,1,8.95,1,17.9-.59,9-.59,17.91,0,9,0,17.91.36,9,.36,17.91-.07,9-.07,17.91.25,9,.25,17.92.15,8.95.15,17.91c0,4.06-3.86,7.21-7.92,7.21-9,0-9,.23-18.08.23s-9.05-.45-18.09-.45C169.12,443.22,166.42,440.29,166.42,436.23Z"/><path class="cls-2" d="M391.82,164.28c8.66,5,8.6,5.11,17.27,10.11s8.71,4.92,17.38,9.92,8.72,4.92,17.38,9.93,8.56,5.19,17.23,10.2a7.25,7.25,0,0,1,2.85,9.9c-4.52,7.83-4.42,7.89-8.94,15.72s-4.63,7.77-9.15,15.6a7.38,7.38,0,0,1-10.08,2.63c-8.67-5-8.73-4.89-17.4-9.89s-8.63-5.06-17.3-10.06-8.73-4.89-17.4-9.9-8.49-5.32-17.15-10.32a7.29,7.29,0,0,1-2.89-9.94c4.52-7.83,4.47-7.86,9-15.69s4.72-7.71,9.24-15.54A7.27,7.27,0,0,1,391.82,164.28Z"/><path class="cls-1" d="M391.82,164.28c8.66,5,8.6,5.11,17.27,10.11s8.71,4.92,17.38,9.92,8.72,4.92,17.38,9.93,8.56,5.19,17.23,10.2a7.25,7.25,0,0,1,2.85,9.9c-4.52,7.83-4.42,7.89-8.94,15.72s-4.63,7.77-9.15,15.6a7.38,7.38,0,0,1-10.08,2.63c-8.67-5-8.73-4.89-17.4-9.89s-8.63-5.06-17.3-10.06-8.73-4.89-17.4-9.9-8.49-5.32-17.15-10.32a7.29,7.29,0,0,1-2.89-9.94c4.52-7.83,4.47-7.86,9-15.69s4.72-7.71,9.24-15.54A7.27,7.27,0,0,1,391.82,164.28Z"/><path class="cls-3" d="M422.9,48.46c8.66,5,8.58,5.15,17.24,10.16s8.63,5.07,17.29,10.07,8.77,4.84,17.44,9.85,8.55,5.21,17.21,10.21a7.06,7.06,0,0,1,2.59,9.82c-4.52,7.83-4.35,7.93-8.87,15.76s-4.37,7.91-8.89,15.74a7.33,7.33,0,0,1-10.09,2.44c-8.67-5-8.74-4.87-17.41-9.87s-8.6-5.12-17.27-10.12-8.68-5-17.35-10l-17.34-10a7.36,7.36,0,0,1-2.87-10c4.52-7.83,4.76-7.69,9.28-15.52s4.57-7.8,9.09-15.63A7.33,7.33,0,0,1,422.9,48.46Z"/><path class="cls-2" d="M6.42,339.87c4.46-7.72,4.65-7.6,9.11-15.32s4.18-7.88,8.63-15.59,4.74-7.56,9.2-15.27,4.28-7.82,8.74-15.54,4.35-7.77,8.81-15.49,4.71-7.57,9.17-15.28,4.61-7.63,9.07-15.35l8.91-15.44c4.46-7.72,4.18-7.88,8.63-15.6A7.65,7.65,0,0,1,97,198.2c7.83,4.52,7.86,4.46,15.69,9s7.6,4.91,15.43,9.44a6.91,6.91,0,0,1,2.5,9.7c-4.46,7.72-4.32,7.8-8.77,15.52s-4.58,7.64-9,15.36S108.41,265,104,272.69s-4.29,7.81-8.75,15.53-4.66,7.59-9.12,15.31-4.26,7.83-8.71,15.55-4.37,7.77-8.82,15.49-4.82,7.51-9.28,15.23S55,357.6,50.5,365.32a7,7,0,0,1-9.73,2.53c-7.83-4.52-8-4.22-15.84-8.74s-7.69-4.76-15.52-9.28A7.36,7.36,0,0,1,6.42,339.87Z"/><path class="cls-1" d="M6.42,339.87c4.46-7.72,4.65-7.6,9.11-15.32s4.18-7.88,8.63-15.59,4.74-7.56,9.2-15.27,4.28-7.82,8.74-15.54,4.35-7.77,8.81-15.49,4.71-7.57,9.17-15.28,4.61-7.63,9.07-15.35l8.91-15.44c4.46-7.72,4.18-7.88,8.63-15.6A7.65,7.65,0,0,1,97,198.2c7.83,4.52,7.86,4.46,15.69,9s7.6,4.91,15.43,9.44a6.91,6.91,0,0,1,2.5,9.7c-4.46,7.72-4.32,7.8-8.77,15.52s-4.58,7.64-9,15.36S108.41,265,104,272.69s-4.29,7.81-8.75,15.53-4.66,7.59-9.12,15.31-4.26,7.83-8.71,15.55-4.37,7.77-8.82,15.49-4.82,7.51-9.28,15.23S55,357.6,50.5,365.32a7,7,0,0,1-9.73,2.53c-7.83-4.52-8-4.22-15.84-8.74s-7.69-4.76-15.52-9.28A7.36,7.36,0,0,1,6.42,339.87Z"/><path d="M160.81,43.06c.52,0,.52-.07,1-.07a4.73,4.73,0,0,0,4.66-4.58c0-.51-.58-.51-.58-1,0-7.51.55-7.51.55-15a7.05,7.05,0,0,1,7.19-7.16c9,0,9-.37,17.94-.37s9,.45,17.94.45a6.94,6.94,0,0,1,7.13,7.08c0,7.51-.14,7.51-.14,15,0,2.12.38,2.12.38,4.24a1.11,1.11,0,0,0,1.24,1.1c2.12,0,2.12.62,4.24.62,9,0,9-.6,17.92-.6s9,0,17.91,0c4.06,0,7.84,3.39,7.84,7.44,0,8.92-.63,8.92-.63,17.83s.41,8.92.41,17.83a7.85,7.85,0,0,1-7.62,7.65C249,93.54,249,93,239.78,93s-9.23.71-18.46.71-9.23-.44-18.46-.44-9.23.09-18.46.09-9.23-.42-18.45-.42-9.23-.08-18.46-.08-9.23.27-18.46.27H110.56c-9.22,0-9.22-.11-18.45-.11s-9.24.14-18.47.14-9.23.38-18.46.38-9.23.12-18.47.12-9.23-.47-18.47-.47a7,7,0,0,1-7-7.28c0-8.91-.49-8.91-.49-17.83s-.11-8.91-.11-17.83c0-4,3.6-6.95,7.65-6.95,8.91,0,8.91-.74,17.82-.74s8.91.54,17.82.54,8.91.09,17.82.09,8.91-.62,17.82-.62,8.91.63,17.82.63,8.91-.06,17.82-.06,8.92-.42,17.83-.36S151.9,43.06,160.81,43.06Z"/><path class="cls-1" d="M160.81,43.06c.52,0,.52-.07,1-.07a4.73,4.73,0,0,0,4.66-4.58c0-.51-.58-.51-.58-1,0-7.51.55-7.51.55-15a7.05,7.05,0,0,1,7.19-7.16c9,0,9-.37,17.94-.37s9,.45,17.94.45a6.94,6.94,0,0,1,7.13,7.08c0,7.51-.14,7.51-.14,15,0,2.12.38,2.12.38,4.24a1.11,1.11,0,0,0,1.24,1.1c2.12,0,2.12.62,4.24.62,9,0,9-.6,17.92-.6s9,0,17.91,0c4.06,0,7.84,3.39,7.84,7.44,0,8.92-.63,8.92-.63,17.83s.41,8.92.41,17.83a7.85,7.85,0,0,1-7.62,7.65C249,93.54,249,93,239.78,93s-9.23.71-18.46.71-9.23-.44-18.46-.44-9.23.09-18.46.09-9.23-.42-18.45-.42-9.23-.08-18.46-.08-9.23.27-18.46.27H110.56c-9.22,0-9.22-.11-18.45-.11s-9.24.14-18.47.14-9.23.38-18.46.38-9.23.12-18.47.12-9.23-.47-18.47-.47a7,7,0,0,1-7-7.28c0-8.91-.49-8.91-.49-17.83s-.11-8.91-.11-17.83c0-4,3.6-6.95,7.65-6.95,8.91,0,8.91-.74,17.82-.74s8.91.54,17.82.54,8.91.09,17.82.09,8.91-.62,17.82-.62,8.91.63,17.82.63,8.91-.06,17.82-.06,8.92-.42,17.83-.36S151.9,43.06,160.81,43.06Z"/><path class="cls-2" d="M1069,319.62c-4.51-7.84-5-7.57-9.49-15.41s-4.27-8-8.77-15.81c-2-3.52-6-5.39-8.46-4-7.43,4.27-7.25,4.6-14.68,8.87s-7.58,4-15,8.28-7.62,4-15,8.23-7,5.07-14.41,9.34-7.31,4.49-14.75,8.76-7.93,3.4-15.37,7.67-7.08,4.89-14.52,9.16-7.64,3.9-15.08,8.18-7.28,4.55-14.72,8.82-7.25,4.6-14.69,8.87c-2.74,1.58-7-.82-7-4,0-8.87.69-8.87.69-17.74s-.77-8.87-.77-17.74.89-8.88.89-17.75-.1-8.87-.1-17.74.69-8.87.69-17.74-.82-8.87-.82-17.74.76-8.87.76-17.74S887,233.55,887,224.67s.28-8.87.28-17.74.83-8.87.83-17.74-.41-8.87-.41-17.74-.8-8.88-.8-17.75.45-8.87.45-17.74-.34-8.87-.34-17.75.7-8.87.7-17.74.32-8.88.32-17.75-.34-8.88-.34-17.75.48-8.88.48-17.75c0-5-3.91-9.63-8-9.63H862.13c-9,0-9,.52-18.08.52-4.06,0-7.64,4.07-7.64,9.11,0,9-.36,9-.36,18s-.06,9-.06,18-.08,9-.08,18,.74,9,.74,18,0,9,0,18,.46,9,.46,18-.54,9-.54,18-.45,9-.45,18,.48,9,.48,18-.09,9-.09,18,.94,9,.94,18,0,9,0,18-1.32,9-1.32,18v18c0,9,0,9,0,18s.06,9,.06,18,1.1,9,1.1,18-1,9-1,18,1,9,1,18-.21,9-.21,18-.25,9-.25,18c0,5,3.19,9.51,7.25,9.51,9,0,9,.38,18.08.38s9,0,18.09,0a6.16,6.16,0,0,0,2.35-.58c1.11.3,2-.75,3-1.28,7.58-4.36,8-3.7,15.55-8.06s7.29-4.86,14.88-9.22,7.91-3.8,15.49-8.16,7.33-4.82,14.91-9.18,7.93-3.77,15.51-8.13,7-5.34,14.61-9.7,7.8-4,15.39-8.36,7.57-4.38,15.15-8.74,7.41-4.67,15-9,7.67-4.22,15.26-8.58,7.91-3.79,15.5-8.16,7.37-4.73,15-9.1C1070.17,327.36,1071,323.14,1069,319.62Z"/><path class="cls-4" d="M1069,319.62c-4.51-7.84-5-7.57-9.49-15.41s-4.27-8-8.77-15.81c-2-3.52-6-5.39-8.46-4-7.43,4.27-7.25,4.6-14.68,8.87s-7.58,4-15,8.28-7.62,4-15,8.23-7,5.07-14.41,9.34-7.31,4.49-14.75,8.76-7.93,3.4-15.37,7.67-7.08,4.89-14.52,9.16-7.64,3.9-15.08,8.18-7.28,4.55-14.72,8.82-7.25,4.6-14.69,8.87c-2.74,1.58-7-.82-7-4,0-8.87.69-8.87.69-17.74s-.77-8.87-.77-17.74.89-8.88.89-17.75-.1-8.87-.1-17.74.69-8.87.69-17.74-.82-8.87-.82-17.74.76-8.87.76-17.74S887,233.55,887,224.67s.28-8.87.28-17.74.83-8.87.83-17.74-.41-8.87-.41-17.74-.8-8.88-.8-17.75.45-8.87.45-17.74-.34-8.87-.34-17.75.7-8.87.7-17.74.32-8.88.32-17.75-.34-8.88-.34-17.75.48-8.88.48-17.75c0-5-3.91-9.63-8-9.63H862.13c-9,0-9,.52-18.08.52-4.06,0-7.64,4.07-7.64,9.11,0,9-.36,9-.36,18s-.06,9-.06,18-.08,9-.08,18,.74,9,.74,18,0,9,0,18,.46,9,.46,18-.54,9-.54,18-.45,9-.45,18,.48,9,.48,18-.09,9-.09,18,.94,9,.94,18,0,9,0,18-1.32,9-1.32,18v18c0,9,0,9,0,18s.06,9,.06,18,1.1,9,1.1,18-1,9-1,18,1,9,1,18-.21,9-.21,18-.25,9-.25,18c0,5,3.19,9.51,7.25,9.51,9,0,9,.38,18.08.38s9,0,18.09,0a6.16,6.16,0,0,0,2.35-.58c1.11.3,2-.75,3-1.28,7.58-4.36,8-3.7,15.55-8.06s7.29-4.86,14.88-9.22,7.91-3.8,15.49-8.16,7.33-4.82,14.91-9.18,7.93-3.77,15.51-8.13,7-5.34,14.61-9.7,7.8-4,15.39-8.36,7.57-4.38,15.15-8.74,7.41-4.67,15-9,7.67-4.22,15.26-8.58,7.91-3.79,15.5-8.16,7.37-4.73,15-9.1C1070.17,327.36,1071,323.14,1069,319.62Z"/><path class="cls-4" d="M1408.22,114.79c-8.91,0-8.91.38-17.83.36s-8.91-.49-17.82-.51-8.92-.42-17.83-.44-8.92.4-17.83.38-8.91-.1-17.83-.12-8.91.79-17.83.77-8.92,0-17.83-.08-8.92-1.17-17.84-1.19l-17.83,0a2.3,2.3,0,0,1-2.58-2.62c0-9.49-.05-9.49-.05-19s-1-9.49-1-19,.85-9.49.85-19-.87-9.49-.87-19,.19-9.5.19-19c0-4.4-3-7.87-7-7.87-9,0-9-.43-18.08-.43s-9-.33-18.09-.33c-4.06,0-8,4.23-8,8.63,0,8.64.09,8.64.09,17.29S1194,42.3,1194,51s-.67,8.64-.67,17.29.52,8.65.52,17.29-.57,8.65-.57,17.3.49,8.65.46,17.29c-.07.49-.71,1-.71,1.51,0,9.05,1,9.05.94,18.09s-.39,9-.41,18.09a10.47,10.47,0,0,0,.22,2.05c.07,9.32.32,9.32.32,18.64s-.14,9.32-.14,18.64-.58,9.32-.58,18.64.38,9.32.38,18.64.42,9.33.42,18.65-.46,9.32-.46,18.64.64,9.32.64,18.64-.65,9.32-.65,18.64.39,9.33.39,18.65.23,9.33.23,18.65c0,4.4,2.68,8,6.74,8,9,0,9,.36,18.09.36h18.08c4.06,0,7-3.91,7-8.31,0-8.78-.09-8.78-.09-17.55s-.14-8.78-.13-17.55.92-8.78.93-17.55.3-8.78.3-17.56-.32-8.77-.32-17.55.31-8.77.31-17.55-.22-8.78-.22-17.56-.37-8.77-.37-17.55.49-8.78.5-17.56-.46-8.78-.45-17.56c0-2.11,2.84-4.17,5-4.17,8.79-.05,8.8.78,17.59.72s8.8-.37,17.6-.43,8.79.15,17.59.09,8.8-.76,17.59-.82,8.8.5,17.6.44,8.8-.32,17.6-.38,8.8.36,17.6.3,8.8-.4,17.6-.46,8.8-.41,17.6-.46c2.79,0,5.72-3.18,5.73-7.24,0-9-.88-9-.85-18.09s-.4-9-.38-18.08C1412.61,118.11,1411,114.8,1408.22,114.79Z"/><path class="cls-2" d="M1199.92,374c8.74,0,8.74-.11,17.48-.09s8.74.22,17.49.24,8.74.4,17.48.42,8.74-.49,17.48-.47,8.74,0,17.48,0,8.75.35,17.49.37,8.74-.27,17.48-.25,8.74.63,17.49.66,8.74-.26,17.48-.24,8.75.38,17.49.4,8.75-.24,17.49-.22c2.57,0,4.84,3.19,4.83,7.24,0,9-.56,9-.58,18.09s.17,9,.14,18.08c0,4.06-2,7.49-4.51,7.48-9.47-.09-9.46-.38-18.93-.48s-9.46,0-18.93-.07-9.47.11-18.93,0-9.47-.08-18.94-.18-9.46-.3-18.92-.41-9.47-.29-18.94-.39-9.47.12-18.94,0-9.47.22-18.94.12-9.46-.73-18.92-.95a27.18,27.18,0,0,1-14.58-5,28.55,28.55,0,0,1-9.64-12.21,40.22,40.22,0,0,1-2.67-15.44c.17-4.57.54-4.55.73-9.13C1195.59,377.57,1197.36,374,1199.92,374Z"/><path class="cls-4" d="M1199.92,374c8.74,0,8.74-.11,17.48-.09s8.74.22,17.49.24,8.74.4,17.48.42,8.74-.49,17.48-.47,8.74,0,17.48,0,8.75.35,17.49.37,8.74-.27,17.48-.25,8.74.63,17.49.66,8.74-.26,17.48-.24,8.75.38,17.49.4,8.75-.24,17.49-.22c2.57,0,4.84,3.19,4.83,7.24,0,9-.56,9-.58,18.09s.17,9,.14,18.08c0,4.06-2,7.49-4.51,7.48-9.47-.09-9.46-.38-18.93-.48s-9.46,0-18.93-.07-9.47.11-18.93,0-9.47-.08-18.94-.18-9.46-.3-18.92-.41-9.47-.29-18.94-.39-9.47.12-18.94,0-9.47.22-18.94.12-9.46-.73-18.92-.95a27.18,27.18,0,0,1-14.58-5,28.55,28.55,0,0,1-9.64-12.21,40.22,40.22,0,0,1-2.67-15.44c.17-4.57.54-4.55.73-9.13C1195.59,377.57,1197.36,374,1199.92,374Z"/><path d="M1382.68,5.5c7.81,0,7.81,0,15.61,0a7.39,7.39,0,0,1,7.44,7.31c0,8.32-.11,8.32-.11,16.64s.05,8.33.05,16.65-.05,8.33-.05,16.65a7.35,7.35,0,0,1-7.33,7.37c-7.8,0-7.8,0-15.61,0a7.3,7.3,0,0,1-7.3-7.33c0-8.32-.12-8.32-.12-16.64s.09-8.33.09-16.65V12.86A7.35,7.35,0,0,1,1382.68,5.5Z"/><path class="cls-4" d="M1382.68,5.5c7.81,0,7.81,0,15.61,0a7.39,7.39,0,0,1,7.44,7.31c0,8.32-.11,8.32-.11,16.64s.05,8.33.05,16.65-.05,8.33-.05,16.65a7.35,7.35,0,0,1-7.33,7.37c-7.8,0-7.8,0-15.61,0a7.3,7.3,0,0,1-7.3-7.33c0-8.32-.12-8.32-.12-16.64s.09-8.33.09-16.65V12.86A7.35,7.35,0,0,1,1382.68,5.5Z"/><path d="M1437.77,5.57c7.8,0,7.8-.06,15.61-.06a7.34,7.34,0,0,1,7.33,7.35c0,8.32,0,8.32,0,16.64s.06,8.33.06,16.65-.06,8.33-.06,16.65a7.35,7.35,0,0,1-7.34,7.35c-7.81,0-7.81,0-15.61,0a7.38,7.38,0,0,1-7.41-7.33c0-8.32.07-8.32.07-16.64s-.1-8.33-.1-16.65.2-8.33.2-16.65A7.2,7.2,0,0,1,1437.77,5.57Z"/><path class="cls-4" d="M1437.77,5.57c7.8,0,7.8-.06,15.61-.06a7.34,7.34,0,0,1,7.33,7.35c0,8.32,0,8.32,0,16.64s.06,8.33.06,16.65-.06,8.33-.06,16.65a7.35,7.35,0,0,1-7.34,7.35c-7.81,0-7.81,0-15.61,0a7.38,7.38,0,0,1-7.41-7.33c0-8.32.07-8.32.07-16.64s-.1-8.33-.1-16.65.2-8.33.2-16.65A7.2,7.2,0,0,1,1437.77,5.57Z"/><path class="cls-4" d="M1573.87,374.84c8.75-.08,8.75.3,17.5.22s8.75-.25,17.5-.33,8.76.1,17.51,0,8.75-.2,17.51-.28,8.75,0,17.5,0,8.75,0,17.51-.06,8.75-.52,17.5-.6,8.76.24,17.51.16,8.75-.05,17.51-.13,8.75,0,17.51-.05,8.75-.15,17.51-.23,8.75,0,17.51-.08,8.75-.63,17.51-.71c3,0,5.38,3.61,5.41,7.67.09,9,.05,9,.14,18.08s.43,9,.51,18.09c0,4.05-2.56,7.11-5.6,7.14-8.75.08-8.75.13-17.5.21s-8.75,0-17.5,0-8.75.43-17.5.51-8.76.21-17.51.29-8.76-.5-17.51-.42-8.75.64-17.5.72-8.75,0-17.51.11-8.75.45-17.5.53-8.76-.51-17.51-.43-8.75.47-17.51.55-8.75.11-17.51.19-8.76-.45-17.51-.38-8.76.75-17.51.83c-3,0-5.53-3.66-5.57-7.71-.08-9.05-.17-9.05-.25-18.09s.31-9.05.23-18.09C1568.71,378.52,1570.83,374.87,1573.87,374.84Z"/><path d="M1758.89,146.31c-.07-8.32-.12-8.32-.16-16.65,0-10.32.23-10.31.23-20.63,0-.84-1.19-1.47-1.6-2.19-.62-2.3-1.38-4.36-2.76-4.35-9.35.08-9.34.44-18.69.52s-9.35-.09-18.7,0l-18.71.18c-9.34.08-9.34,0-18.69.1s-9.35.42-18.7.51-9.36,0-18.71.07-9.35.13-18.7.21-9.36,0-18.71.09c-2,0-3.9,3.35-3.86,7.41.08,9,.89,9,1,18.08s-.36,9-.28,18.09c0,4.05,1.64,7.66,3.64,7.64,9.76-.09,9.76-.3,19.53-.39s9.76-.39,19.52-.48,9.77.45,19.54.36,9.77-.23,19.53-.32,9.76-.77,19.53-.85c2.47,0,4.43,2.43,4.43,4.9,0,8.63,0,8.63,0,17.26s.18,8.63.18,17.26.14,8.62.14,17.25-.24,8.63-.24,17.26.21,8.63.21,17.26-.12,8.63-.12,17.26-.43,8.63-.43,17.26,0,8.63,0,17.26.56,8.63.56,17.26-.38,8.64-.38,17.27.09,8.63.09,17.26c0,3.19,3.35,5.78,7.4,5.78H1733c9,0,9-.23,18.09-.23,4.05,0,7.45-2.37,7.45-5.56,0-9.08-.3-9.08-.3-18.17s-.14-9.08-.14-18.17.1-9.09.1-18.17-.2-9.09-.2-18.17-.07-9.09-.07-18.18.73-9.08.73-18.17-.4-9.09-.4-18.17.44-9.09.44-18.18,0-9.09,0-18.17-.41-9.09-.41-18.18.37-9.09.42-18.18A14.75,14.75,0,0,0,1758.89,146.31Z"/><path class="cls-5" d="M1758.89,146.31c-.07-8.32-.12-8.32-.16-16.65,0-10.32.23-10.31.23-20.63,0-.84-1.19-1.47-1.6-2.19-.62-2.3-1.38-4.36-2.76-4.35-9.35.08-9.34.44-18.69.52s-9.35-.09-18.7,0l-18.71.18c-9.34.08-9.34,0-18.69.1s-9.35.42-18.7.51-9.36,0-18.71.07-9.35.13-18.7.21-9.36,0-18.71.09c-2,0-3.9,3.35-3.86,7.41.08,9,.89,9,1,18.08s-.36,9-.28,18.09c0,4.05,1.64,7.66,3.64,7.64,9.76-.09,9.76-.3,19.53-.39s9.76-.39,19.52-.48,9.77.45,19.54.36,9.77-.23,19.53-.32,9.76-.77,19.53-.85c2.47,0,4.43,2.43,4.43,4.9,0,8.63,0,8.63,0,17.26s.18,8.63.18,17.26.14,8.62.14,17.25-.24,8.63-.24,17.26.21,8.63.21,17.26-.12,8.63-.12,17.26-.43,8.63-.43,17.26,0,8.63,0,17.26.56,8.63.56,17.26-.38,8.64-.38,17.27.09,8.63.09,17.26c0,3.19,3.35,5.78,7.4,5.78H1733c9,0,9-.23,18.09-.23,4.05,0,7.45-2.37,7.45-5.56,0-9.08-.3-9.08-.3-18.17s-.14-9.08-.14-18.17.1-9.09.1-18.17-.2-9.09-.2-18.17-.07-9.09-.07-18.18.73-9.08.73-18.17-.4-9.09-.4-18.17.44-9.09.44-18.18,0-9.09,0-18.17-.41-9.09-.41-18.18.37-9.09.42-18.18A14.75,14.75,0,0,0,1758.89,146.31Z"/><path class="cls-2" d="M2122.59,247c-9.13,0-9.13.61-18.25.61s-9.13-.11-18.25-.11-9.13-.67-18.26-.67h-18.25c-9.12,0-9.12.12-18.25.12s-9.13,0-18.25,0-9.13.52-18.26.52-9.12-.64-18.25-.64-9.13.22-18.26.22-9.13,0-18.25,0-9.13,0-18.26,0-9.13.58-18.26.58c-2.92,0-5.64-3.64-5.64-7.7,0-9,.15-9,.15-18.09s-.13-9-.13-18.08c0-4.06,2.7-7.24,5.62-7.24,9.12,0,9.12-.13,18.24-.13s9.13,0,18.26,0,9.12.37,18.25.37,9.13-.6,18.25-.6,9.13.21,18.25.21,9.13,0,18.26,0,9.12.49,18.25.49,9.13-.25,18.25-.25,9.13-.25,18.26-.25,9.13.34,18.26.34,9.13-.33,18.26-.33h18.26c2.92,0,5.35,3.36,5.35,7.42,0,9-.47,9-.47,18.08s.6,9,.6,18.09C2128.07,244,2125.51,247,2122.59,247Z"/><path class="cls-4" d="M2122.59,247c-9.13,0-9.13.61-18.25.61s-9.13-.11-18.25-.11-9.13-.67-18.26-.67h-18.25c-9.12,0-9.12.12-18.25.12s-9.13,0-18.25,0-9.13.52-18.26.52-9.12-.64-18.25-.64-9.13.22-18.26.22-9.13,0-18.25,0-9.13,0-18.26,0-9.13.58-18.26.58c-2.92,0-5.64-3.64-5.64-7.7,0-9,.15-9,.15-18.09s-.13-9-.13-18.08c0-4.06,2.7-7.24,5.62-7.24,9.12,0,9.12-.13,18.24-.13s9.13,0,18.26,0,9.12.37,18.25.37,9.13-.6,18.25-.6,9.13.21,18.25.21,9.13,0,18.26,0,9.12.49,18.25.49,9.13-.25,18.25-.25,9.13-.25,18.26-.25,9.13.34,18.26.34,9.13-.33,18.26-.33h18.26c2.92,0,5.35,3.36,5.35,7.42,0,9-.47,9-.47,18.08s.6,9,.6,18.09C2128.07,244,2125.51,247,2122.59,247Z"/></g></g></svg>