<?xml version="1.0" encoding="utf-8"?>
<!-- Generator: Adobe Illustrator 25.2.3, SVG Export Plug-In . SVG Version: 6.00 Build 0)  -->
<svg version="1.1" id="レイヤー_1" xmlns="http://www.w3.org/2000/svg" xmlns:xlink="http://www.w3.org/1999/xlink" x="0px"
	 y="0px" viewBox="0 0 586.3 74.7" style="enable-background:new 0 0 586.3 74.7;" xml:space="preserve">
<style type="text/css">
	.st0{fill:#ff5b32;}
</style>
<g>
	<path class="st0" d="M71.9,17.7H45.1L44.8,21h23.7L64,55.4H53.7l12.3,18.5h-8.7L42.4,56.7l-1.3,18h-7.2l-1.5-18L17.6,73.9H8.9
		l12.2-18.5H9.9L5.2,21h24.3l-0.3-3.3H2.1L0,4h28.1l-0.3-3.8h18.5L45.9,4h28.1L71.9,17.7z M30.4,32.2H18l0.1,3.7h12.7L30.4,32.2z
		 M31.3,42.4H18.2l0.1,4.4h13.4L31.3,42.4z M43.4,42.4l-0.3,4.4h12.8v-4.4H43.4z M44.1,32.2l-0.3,3.7H56l0.1-3.7H44.1z"/>
	<path class="st0" d="M84.9,7.3h28.5L112.8,0h20.1l-0.7,7.3h28.1l-1.8,13.1H86.8L84.9,7.3z M151.9,23.9l-2.5,27.6h-20.7l-2.3,22.8
		h-6.3l-2.1-22.8H96.2l-2.5-27.6H151.9z M94.6,72.7l2.5-17.7h10.2l-5.7,17.7H94.6z M140.3,34.5h-34.5l0.1,8.7h34.2L140.3,34.5z
		 M148.6,54.9l2.6,17.7h-7.1l-6.9-17.7H148.6z"/>
	<path class="st0" d="M243.1,26.6h-10.3L226,74h-7.4l-1.3-44.1l-36.9,39l-1.8-11l23.4-31.4h-27.6L172.5,12h44.3l-0.3-9.4h19.7
		l-1.3,9.4h9.9L243.1,26.6z"/>
	<path class="st0" d="M296,23.1h-34.5l-2.1-14.5h36.8L296,23.1z M264,42.7l-1.5-12.3h33.7v12.3H264z M318.4,71.9h-50.5l-1.1-8.8
		h44.2l2.2-49.2h15.3L318.4,71.9z M320.4,12.3h-6.8l0.3-11.1h7.5L320.4,12.3z M328.8,12.3h-6.5l1.1-11.1h7.1L328.8,12.3z"/>
	<path class="st0" d="M414,28.5h-10.6L393,73.6h-6.8l3-45.2h-21.9l-1.2,21.4h-8.8l-2.6-21.4h-10l-2-14.5h10.1l-1.5-11.7h17.4
		L368.2,14h21.9L391,1.6h18.3L406.6,14h9.5L414,28.5z"/>
	<path class="st0" d="M481.2,74.6h-7.7l8.8-45.9h-36.1l-1,16.2H434L430,14.9h26.1l-0.2-13.1h19.2l-0.9,13.1h28.3L481.2,74.6z"/>
	<path class="st0" d="M584.3,36.3h-26.6L550.9,73h-7.8l0.4-36.8h-24.9l-1.7-13.9h26.8l0.3-20.2h20.2l-3.9,20.2h26L584.3,36.3z"/>
</g>
</svg>
