<svg width="400" height="73" viewBox="0 0 400 73" fill="none" xmlns="http://www.w3.org/2000/svg">
<mask id="path-1-inside-1" fill="white">
<path fill-rule="evenodd" clip-rule="evenodd" d="M27 0C25.8954 0 25 0.895431 25 2V5.70703H2C0.895431 5.70703 0 6.60246 0 7.70703V12.7182C0 13.8228 0.895428 14.7182 2 14.7182H55.9717C57.0763 14.7182 57.9717 13.8228 57.9717 12.7182V7.70703C57.9717 6.60246 57.0763 5.70703 55.9717 5.70703H34V2C34 0.895431 33.1046 0 32 0H27Z"/>
</mask>
<path fill-rule="evenodd" clip-rule="evenodd" d="M27 0C25.8954 0 25 0.895431 25 2V5.70703H2C0.895431 5.70703 0 6.60246 0 7.70703V12.7182C0 13.8228 0.895428 14.7182 2 14.7182H55.9717C57.0763 14.7182 57.9717 13.8228 57.9717 12.7182V7.70703C57.9717 6.60246 57.0763 5.70703 55.9717 5.70703H34V2C34 0.895431 33.1046 0 32 0H27Z" fill="#C4C4C4"/>
<path d="M25 5.70703V7.20703H26.5V5.70703H25ZM34 5.70703H32.5V7.20703H34V5.70703ZM26.5 2C26.5 1.72386 26.7239 1.5 27 1.5V-1.5C25.067 -1.5 23.5 0.0670043 23.5 2H26.5ZM26.5 5.70703V2H23.5V5.70703H26.5ZM2 7.20703H25V4.20703H2V7.20703ZM1.5 7.70703C1.5 7.43089 1.72386 7.20703 2 7.20703V4.20703C0.0670026 4.20703 -1.5 5.77404 -1.5 7.70703H1.5ZM1.5 12.7182V7.70703H-1.5V12.7182H1.5ZM2 13.2182C1.72386 13.2182 1.5 12.9943 1.5 12.7182H-1.5C-1.5 14.6512 0.0669989 16.2182 2 16.2182V13.2182ZM55.9717 13.2182H2V16.2182H55.9717V13.2182ZM56.4717 12.7182C56.4717 12.9943 56.2479 13.2182 55.9717 13.2182V16.2182C57.9047 16.2182 59.4717 14.6512 59.4717 12.7182H56.4717ZM56.4717 7.70703V12.7182H59.4717V7.70703H56.4717ZM55.9717 7.20703C56.2479 7.20703 56.4717 7.43089 56.4717 7.70703H59.4717C59.4717 5.77404 57.9047 4.20703 55.9717 4.20703V7.20703ZM34 7.20703H55.9717V4.20703H34V7.20703ZM32.5 2V5.70703H35.5V2H32.5ZM32 1.5C32.2761 1.5 32.5 1.72386 32.5 2H35.5C35.5 0.067003 33.933 -1.5 32 -1.5V1.5ZM27 1.5H32V-1.5H27V1.5Z" fill="black" mask="url(#path-1-inside-1)"/>
<mask id="path-3-inside-2" fill="white">
<path fill-rule="evenodd" clip-rule="evenodd" d="M5.00366 19.5242C3.89909 19.5242 3.00366 20.4196 3.00366 21.5242V50.5651C3.00366 51.6696 3.89909 52.5651 5.00366 52.5651H25V69C25 70.1046 25.8954 71 27 71H32C33.1046 71 34 70.1046 34 69V52.5651H53.2683C54.3729 52.5651 55.2683 51.6696 55.2683 50.5651V21.5242C55.2683 20.4196 54.3729 19.5242 53.2683 19.5242H5.00366Z"/>
</mask>
<path fill-rule="evenodd" clip-rule="evenodd" d="M5.00366 19.5242C3.89909 19.5242 3.00366 20.4196 3.00366 21.5242V50.5651C3.00366 51.6696 3.89909 52.5651 5.00366 52.5651H25V69C25 70.1046 25.8954 71 27 71H32C33.1046 71 34 70.1046 34 69V52.5651H53.2683C54.3729 52.5651 55.2683 51.6696 55.2683 50.5651V21.5242C55.2683 20.4196 54.3729 19.5242 53.2683 19.5242H5.00366Z" fill="black"/>
<path d="M25 52.5651H26.5V51.0651H25V52.5651ZM34 52.5651V51.0651H32.5V52.5651H34ZM4.50366 21.5242C4.50366 21.248 4.72752 21.0242 5.00366 21.0242V18.0242C3.07066 18.0242 1.50366 19.5912 1.50366 21.5242H4.50366ZM4.50366 50.5651V21.5242H1.50366V50.5651H4.50366ZM5.00366 51.0651C4.72752 51.0651 4.50366 50.8412 4.50366 50.5651H1.50366C1.50366 52.4981 3.07067 54.0651 5.00366 54.0651V51.0651ZM25 51.0651H5.00366V54.0651H25V51.0651ZM26.5 69V52.5651H23.5V69H26.5ZM27 69.5C26.7239 69.5 26.5 69.2761 26.5 69H23.5C23.5 70.933 25.067 72.5 27 72.5V69.5ZM32 69.5H27V72.5H32V69.5ZM32.5 69C32.5 69.2761 32.2761 69.5 32 69.5V72.5C33.933 72.5 35.5 70.933 35.5 69H32.5ZM32.5 52.5651V69H35.5V52.5651H32.5ZM53.2683 51.0651H34V54.0651H53.2683V51.0651ZM53.7683 50.5651C53.7683 50.8412 53.5445 51.0651 53.2683 51.0651V54.0651C55.2013 54.0651 56.7683 52.4981 56.7683 50.5651H53.7683ZM53.7683 21.5242V50.5651H56.7683V21.5242H53.7683ZM53.2683 21.0242C53.5445 21.0242 53.7683 21.248 53.7683 21.5242H56.7683C56.7683 19.5912 55.2013 18.0242 53.2683 18.0242V21.0242ZM5.00366 21.0242H53.2683V18.0242H5.00366V21.0242Z" fill="black" mask="url(#path-3-inside-2)"/>
<mask id="path-5-inside-3" fill="white">
<path fill-rule="evenodd" clip-rule="evenodd" d="M174 11.1138H179.124C180.229 11.1138 181.124 12.0092 181.124 13.1138V18.1249C181.124 19.2295 180.229 20.1249 179.124 20.1249H144.376C143.272 20.1249 142.376 19.2295 142.376 18.1249V13.1138C142.376 12.0092 143.272 11.1138 144.376 11.1138H165V9C165 7.89543 165.895 7 167 7H172C173.105 7 174 7.89543 174 9V11.1138Z"/>
</mask>
<path fill-rule="evenodd" clip-rule="evenodd" d="M174 11.1138H179.124C180.229 11.1138 181.124 12.0092 181.124 13.1138V18.1249C181.124 19.2295 180.229 20.1249 179.124 20.1249H144.376C143.272 20.1249 142.376 19.2295 142.376 18.1249V13.1138C142.376 12.0092 143.272 11.1138 144.376 11.1138H165V9C165 7.89543 165.895 7 167 7H172C173.105 7 174 7.89543 174 9V11.1138Z" fill="#C4C4C4"/>
<path d="M174 11.1138H172.5V12.6138H174V11.1138ZM165 11.1138V12.6138H166.5V11.1138H165ZM174 12.6138H179.124V9.61377H174V12.6138ZM179.124 12.6138C179.4 12.6138 179.624 12.8376 179.624 13.1138H182.624C182.624 11.1808 181.057 9.61377 179.124 9.61377V12.6138ZM179.624 13.1138V18.1249H182.624V13.1138H179.624ZM179.624 18.1249C179.624 18.4011 179.4 18.6249 179.124 18.6249V21.6249C181.057 21.6249 182.624 20.0579 182.624 18.1249H179.624ZM179.124 18.6249H144.376V21.6249H179.124V18.6249ZM144.376 18.6249C144.1 18.6249 143.876 18.4011 143.876 18.1249H140.876C140.876 20.0579 142.443 21.6249 144.376 21.6249V18.6249ZM143.876 18.1249V13.1138H140.876V18.1249H143.876ZM143.876 13.1138C143.876 12.8376 144.1 12.6138 144.376 12.6138V9.61377C142.443 9.61377 140.876 11.1808 140.876 13.1138H143.876ZM144.376 12.6138H165V9.61377H144.376V12.6138ZM166.5 11.1138V9H163.5V11.1138H166.5ZM166.5 9C166.5 8.72386 166.724 8.5 167 8.5V5.5C165.067 5.5 163.5 7.067 163.5 9H166.5ZM167 8.5H172V5.5H167V8.5ZM172 8.5C172.276 8.5 172.5 8.72386 172.5 9H175.5C175.5 7.067 173.933 5.5 172 5.5V8.5ZM172.5 9V11.1138H175.5V9H172.5Z" fill="black" mask="url(#path-5-inside-3)"/>
<rect x="165.75" y="70.25" width="47.5" height="7.5" rx="1.25" transform="rotate(-90 165.75 70.25)" fill="black" stroke="black" stroke-width="1.5"/>
<mask id="path-8-inside-4" fill="white">
<path fill-rule="evenodd" clip-rule="evenodd" d="M284 46C284 47.1046 284.895 48 286 48H291C292.105 48 293 47.1046 293 46V20H299C300.105 20 301 19.1046 301 18V13C301 11.8954 300.105 11 299 11H293V9C293 7.89543 292.105 7 291 7H286C284.895 7 284 7.89543 284 9V11H277C275.895 11 275 11.8954 275 13V18C275 19.1046 275.895 20 277 20H284V46Z"/>
</mask>
<path fill-rule="evenodd" clip-rule="evenodd" d="M284 46C284 47.1046 284.895 48 286 48H291C292.105 48 293 47.1046 293 46V20H299C300.105 20 301 19.1046 301 18V13C301 11.8954 300.105 11 299 11H293V9C293 7.89543 292.105 7 291 7H286C284.895 7 284 7.89543 284 9V11H277C275.895 11 275 11.8954 275 13V18C275 19.1046 275.895 20 277 20H284V46Z" fill="#C4C4C4"/>
<path d="M293 20V18.5H291.5V20H293ZM293 11H291.5V12.5H293V11ZM284 11V12.5H285.5V11H284ZM284 20H285.5V18.5H284V20ZM286 46.5C285.724 46.5 285.5 46.2761 285.5 46H282.5C282.5 47.933 284.067 49.5 286 49.5V46.5ZM291 46.5H286V49.5H291V46.5ZM291.5 46C291.5 46.2761 291.276 46.5 291 46.5V49.5C292.933 49.5 294.5 47.933 294.5 46H291.5ZM291.5 20V46H294.5V20H291.5ZM299 18.5H293V21.5H299V18.5ZM299.5 18C299.5 18.2761 299.276 18.5 299 18.5V21.5C300.933 21.5 302.5 19.933 302.5 18H299.5ZM299.5 13V18H302.5V13H299.5ZM299 12.5C299.276 12.5 299.5 12.7239 299.5 13H302.5C302.5 11.067 300.933 9.5 299 9.5V12.5ZM293 12.5H299V9.5H293V12.5ZM291.5 9V11H294.5V9H291.5ZM291 8.5C291.276 8.5 291.5 8.72386 291.5 9H294.5C294.5 7.067 292.933 5.5 291 5.5V8.5ZM286 8.5H291V5.5H286V8.5ZM285.5 9C285.5 8.72386 285.724 8.5 286 8.5V5.5C284.067 5.5 282.5 7.067 282.5 9H285.5ZM285.5 11V9H282.5V11H285.5ZM277 12.5H284V9.5H277V12.5ZM276.5 13C276.5 12.7239 276.724 12.5 277 12.5V9.5C275.067 9.5 273.5 11.067 273.5 13H276.5ZM276.5 18V13H273.5V18H276.5ZM277 18.5C276.724 18.5 276.5 18.2761 276.5 18H273.5C273.5 19.933 275.067 21.5 277 21.5V18.5ZM284 18.5H277V21.5H284V18.5ZM285.5 46V20H282.5V46H285.5Z" fill="black" mask="url(#path-8-inside-4)"/>
<rect x="255.75" y="11.75" width="12.5" height="7.5" rx="1.25" fill="black" stroke="black" stroke-width="1.5"/>
<rect x="263.75" y="40.25" width="32.5" height="7.5" rx="1.25" transform="rotate(-90 263.75 40.25)" fill="black" stroke="black" stroke-width="1.5"/>
<rect x="197.722" y="28.9591" width="13.8858" height="7.5" rx="1.25" transform="rotate(30 197.722 28.9591)" fill="black" stroke="black" stroke-width="1.5"/>
<rect x="202.227" y="12.1383" width="13.8858" height="7.5" rx="1.25" transform="rotate(30 202.227 12.1383)" fill="white" stroke="black" stroke-width="1.5"/>
<mask id="path-14-inside-5" fill="white">
<path fill-rule="evenodd" clip-rule="evenodd" d="M326.288 18.3226C326.294 18.3227 326.3 18.3227 326.306 18.3227H331.317C331.323 18.3227 331.329 18.3227 331.335 18.3226H346.036C347.14 18.3226 348.036 17.4272 348.036 16.3226V11.3115C348.036 10.2069 347.14 9.31149 346.036 9.31149H333.317V6.50562C333.317 5.40105 332.422 4.50562 331.317 4.50562H326.306C325.202 4.50562 324.306 5.40104 324.306 6.50561V9.31149H313.09C311.985 9.31149 311.09 10.2069 311.09 11.3115V11.3116V16.3226V25.6342C311.09 26.7388 311.985 27.6342 313.09 27.6342H318.101C319.206 27.6342 320.101 26.7388 320.101 25.6342V18.3226H326.288Z"/>
</mask>
<path fill-rule="evenodd" clip-rule="evenodd" d="M326.288 18.3226C326.294 18.3227 326.3 18.3227 326.306 18.3227H331.317C331.323 18.3227 331.329 18.3227 331.335 18.3226H346.036C347.14 18.3226 348.036 17.4272 348.036 16.3226V11.3115C348.036 10.2069 347.14 9.31149 346.036 9.31149H333.317V6.50562C333.317 5.40105 332.422 4.50562 331.317 4.50562H326.306C325.202 4.50562 324.306 5.40104 324.306 6.50561V9.31149H313.09C311.985 9.31149 311.09 10.2069 311.09 11.3115V11.3116V16.3226V25.6342C311.09 26.7388 311.985 27.6342 313.09 27.6342H318.101C319.206 27.6342 320.101 26.7388 320.101 25.6342V18.3226H326.288Z" fill="#C4C4C4"/>
<path d="M326.288 18.3226L326.301 16.8226H326.288V18.3226ZM331.335 18.3226V16.8226L331.322 16.8227L331.335 18.3226ZM333.317 9.31149H331.817V10.8115H333.317V9.31149ZM324.306 9.31149V10.8115H325.806V9.31149H324.306ZM320.101 18.3226V16.8226H318.601V18.3226H320.101ZM326.306 16.8227C326.305 16.8227 326.303 16.8227 326.301 16.8227L326.275 19.8226C326.286 19.8227 326.296 19.8227 326.306 19.8227V16.8227ZM331.317 16.8227H326.306V19.8227H331.317V16.8227ZM331.322 16.8227C331.321 16.8227 331.319 16.8227 331.317 16.8227V19.8227C331.328 19.8227 331.338 19.8227 331.348 19.8226L331.322 16.8227ZM331.335 19.8226H346.036V16.8226H331.335V19.8226ZM346.036 19.8226C347.969 19.8226 349.536 18.2556 349.536 16.3226H346.536C346.536 16.5988 346.312 16.8226 346.036 16.8226V19.8226ZM349.536 16.3226V11.3115H346.536V16.3226H349.536ZM349.536 11.3115C349.536 9.37849 347.969 7.81149 346.036 7.81149V10.8115C346.312 10.8115 346.536 11.0353 346.536 11.3115H349.536ZM346.036 7.81149H333.317V10.8115H346.036V7.81149ZM331.817 6.50562V9.31149H334.817V6.50562H331.817ZM331.317 6.00562C331.593 6.00562 331.817 6.22947 331.817 6.50562H334.817C334.817 4.57262 333.25 3.00562 331.317 3.00562V6.00562ZM326.306 6.00562H331.317V3.00562H326.306V6.00562ZM325.806 6.50561C325.806 6.22947 326.03 6.00562 326.306 6.00562V3.00562C324.373 3.00562 322.806 4.57262 322.806 6.50561H325.806ZM325.806 9.31149V6.50561H322.806V9.31149H325.806ZM324.306 7.81149H313.09V10.8115H324.306V7.81149ZM313.09 7.81149C311.157 7.81149 309.59 9.37849 309.59 11.3115H312.59C312.59 11.0353 312.814 10.8115 313.09 10.8115V7.81149ZM309.59 11.3115V11.3116H312.59V11.3115H309.59ZM309.59 11.3116V16.3226H312.59V11.3116H309.59ZM309.59 16.3226V25.6342H312.59V16.3226H309.59ZM309.59 25.6342C309.59 27.5672 311.157 29.1342 313.09 29.1342V26.1342C312.814 26.1342 312.59 25.9104 312.59 25.6342H309.59ZM313.09 29.1342H318.101V26.1342H313.09V29.1342ZM318.101 29.1342C320.034 29.1342 321.601 27.5672 321.601 25.6342H318.601C318.601 25.9104 318.377 26.1342 318.101 26.1342V29.1342ZM321.601 25.6342V18.3226H318.601V25.6342H321.601ZM320.101 19.8226H326.288V16.8226H320.101V19.8226Z" fill="black" mask="url(#path-14-inside-5)"/>
<rect x="142.025" y="56.0717" width="30.0766" height="7.5" rx="1.25" transform="rotate(-60 142.025 56.0717)" fill="white" stroke="black" stroke-width="1.5"/>
<rect x="265.857" y="63.7643" width="25.4858" height="7.51115" rx="1.25" transform="rotate(-30 265.857 63.7643)" fill="black" stroke="black" stroke-width="1.5"/>
<rect x="265.857" y="63.7643" width="25.4858" height="7.5" rx="1.25" transform="rotate(-30 265.857 63.7643)" fill="#FFF8F8" stroke="black" stroke-width="1.5"/>
<rect x="198.472" y="59.9295" width="47.9147" height="7.5" rx="1.25" transform="rotate(-30 198.472 59.9295)" fill="#C4C4C4" stroke="black" stroke-width="1.5"/>
<mask id="path-20-inside-6" fill="white">
<path fill-rule="evenodd" clip-rule="evenodd" d="M347.988 55.218C348.154 56.0371 347.791 56.9057 347.027 57.3466L324.837 70.1584C323.88 70.7107 322.657 70.3829 322.105 69.4263L319.599 65.0865C319.047 64.13 319.375 62.9068 320.331 62.3545L339 51.576V22C339 20.8954 339.895 20 341 20H346C347.105 20 348 20.8954 348 22V55C348 55.0737 347.996 55.1464 347.988 55.218Z"/>
</mask>
<path fill-rule="evenodd" clip-rule="evenodd" d="M347.988 55.218C348.154 56.0371 347.791 56.9057 347.027 57.3466L324.837 70.1584C323.88 70.7107 322.657 70.3829 322.105 69.4263L319.599 65.0865C319.047 64.13 319.375 62.9068 320.331 62.3545L339 51.576V22C339 20.8954 339.895 20 341 20H346C347.105 20 348 20.8954 348 22V55C348 55.0737 347.996 55.1464 347.988 55.218Z" fill="black"/>
<path d="M347.988 55.218L346.497 55.0564L346.472 55.2876L346.518 55.5155L347.988 55.218ZM347.027 57.3466L346.277 56.0475L346.277 56.0475L347.027 57.3466ZM324.837 70.1584L325.587 71.4574L325.587 71.4574L324.837 70.1584ZM322.105 69.4263L323.404 68.6763L323.404 68.6763L322.105 69.4263ZM319.599 65.0865L318.3 65.8365L318.3 65.8365L319.599 65.0865ZM320.331 62.3545L321.081 63.6535L321.081 63.6535L320.331 62.3545ZM339 51.576L339.75 52.8751L340.5 52.4421V51.576H339ZM346.518 55.5155C346.56 55.7221 346.466 55.9385 346.277 56.0475L347.777 58.6456C349.116 57.8729 349.748 56.3522 349.458 54.9205L346.518 55.5155ZM346.277 56.0475L324.087 68.8593L325.587 71.4574L347.777 58.6456L346.277 56.0475ZM324.087 68.8593C323.848 68.9974 323.542 68.9155 323.404 68.6763L320.806 70.1763C321.772 71.8503 323.913 72.4239 325.587 71.4574L324.087 68.8593ZM323.404 68.6763L320.898 64.3365L318.3 65.8365L320.806 70.1763L323.404 68.6763ZM320.898 64.3365C320.76 64.0974 320.842 63.7916 321.081 63.6535L319.581 61.0555C317.907 62.022 317.334 64.1625 318.3 65.8365L320.898 64.3365ZM321.081 63.6535L339.75 52.8751L338.25 50.277L319.581 61.0555L321.081 63.6535ZM340.5 51.576V22H337.5V51.576H340.5ZM340.5 22C340.5 21.7239 340.724 21.5 341 21.5V18.5C339.067 18.5 337.5 20.067 337.5 22H340.5ZM341 21.5H346V18.5H341V21.5ZM346 21.5C346.276 21.5 346.5 21.7239 346.5 22H349.5C349.5 20.067 347.933 18.5 346 18.5V21.5ZM346.5 22V55H349.5V22H346.5ZM346.5 55C346.5 55.0195 346.499 55.0383 346.497 55.0564L349.48 55.3797C349.493 55.2545 349.5 55.1278 349.5 55H346.5Z" fill="black" mask="url(#path-20-inside-6)"/>
<rect x="360.801" y="14.8677" width="38.4494" height="7.5" rx="1.25" fill="black" stroke="black" stroke-width="1.5"/>
<rect x="377.75" y="19.25" width="13.5" height="7.5" rx="1.25" transform="rotate(-90 377.75 19.25)" fill="black" stroke="black" stroke-width="1.5"/>
<mask id="path-24-inside-7" fill="white">
<path fill-rule="evenodd" clip-rule="evenodd" d="M377 51.3609V26.5C377 25.3954 377.895 24.5 379 24.5H384C385.105 24.5 386 25.3954 386 26.5V55C386 55.0628 385.997 55.125 385.991 55.1863C386.073 55.9493 385.71 56.7245 385.002 57.1329L362.979 69.8484C362.022 70.4007 360.799 70.073 360.247 69.1164L357.747 64.7863C357.194 63.8297 357.522 62.6065 358.479 62.0542L377 51.3609Z"/>
</mask>
<path fill-rule="evenodd" clip-rule="evenodd" d="M377 51.3609V26.5C377 25.3954 377.895 24.5 379 24.5H384C385.105 24.5 386 25.3954 386 26.5V55C386 55.0628 385.997 55.125 385.991 55.1863C386.073 55.9493 385.71 56.7245 385.002 57.1329L362.979 69.8484C362.022 70.4007 360.799 70.073 360.247 69.1164L357.747 64.7863C357.194 63.8297 357.522 62.6065 358.479 62.0542L377 51.3609Z" fill="#C4C4C4"/>
<path d="M377 51.3609L377.75 52.6599L378.5 52.2269V51.3609H377ZM385.991 55.1863L384.498 55.0483L384.484 55.1975L384.5 55.3464L385.991 55.1863ZM385.002 57.1329L384.252 55.8339L384.252 55.8339L385.002 57.1329ZM362.979 69.8484L363.729 71.1475L363.729 71.1475L362.979 69.8484ZM360.247 69.1164L358.948 69.8664L358.948 69.8664L360.247 69.1164ZM357.747 64.7863L359.046 64.0363L359.046 64.0363L357.747 64.7863ZM358.479 62.0542L359.229 63.3532L359.229 63.3532L358.479 62.0542ZM378.5 51.3609V26.5H375.5V51.3609H378.5ZM378.5 26.5C378.5 26.2239 378.724 26 379 26V23C377.067 23 375.5 24.567 375.5 26.5H378.5ZM379 26H384V23H379V26ZM384 26C384.276 26 384.5 26.2239 384.5 26.5H387.5C387.5 24.567 385.933 23 384 23V26ZM384.5 26.5V55H387.5V26.5H384.5ZM384.5 55C384.5 55.0167 384.499 55.0328 384.498 55.0483L387.485 55.3242C387.495 55.2171 387.5 55.109 387.5 55H384.5ZM384.5 55.3464C384.521 55.5406 384.427 55.733 384.252 55.8339L385.752 58.432C386.992 57.7161 387.626 56.358 387.483 55.0262L384.5 55.3464ZM384.252 55.8339L362.229 68.5494L363.729 71.1475L385.752 58.432L384.252 55.8339ZM362.229 68.5494C361.989 68.6875 361.684 68.6055 361.546 68.3664L358.948 69.8664C359.914 71.5404 362.055 72.114 363.729 71.1475L362.229 68.5494ZM361.546 68.3664L359.046 64.0363L356.448 65.5363L358.948 69.8664L361.546 68.3664ZM359.046 64.0363C358.908 63.7971 358.989 63.4913 359.229 63.3532L357.729 60.7552C356.055 61.7217 355.481 63.8622 356.448 65.5363L359.046 64.0363ZM359.229 63.3532L377.75 52.6599L376.25 50.0618L357.729 60.7552L359.229 63.3532Z" fill="black" mask="url(#path-24-inside-7)"/>
<rect x="227.75" y="14.75" width="4.5" height="9.5" rx="1.25" fill="black" stroke="black" stroke-width="1.5"/>
<rect x="235.75" y="14.75" width="4.5" height="9.5" rx="1.25" fill="black" stroke="black" stroke-width="1.5"/>
<rect x="94.75" y="48.75" width="7.5" height="21.5" rx="1.25" fill="#C4C4C4" stroke="black" stroke-width="1.5"/>
<rect x="74.0408" y="20.2742" width="48.9625" height="24.9327" rx="1.25" fill="#C4C4C4" stroke="black" stroke-width="1.5"/>
<rect x="39.0213" y="54.5213" width="20.6668" height="7.5" rx="1.25" transform="rotate(30 39.0213 54.5213)" fill="white" stroke="black" stroke-width="1.5"/>
<rect x="1.02452" y="64.8544" width="21.2649" height="7.5" rx="1.25" transform="rotate(-30 1.02452 64.8544)" fill="#C4C4C4" stroke="black" stroke-width="1.5"/>
<rect x="117.058" y="51.4869" width="14.9754" height="7.5" rx="1.25" transform="rotate(60 117.058 51.4869)" fill="black" stroke="black" stroke-width="1.5"/>
<rect x="71.9125" y="64.435" width="14.8603" height="7.5" rx="1.25" transform="rotate(-60 71.9125 64.435)" fill="white" stroke="black" stroke-width="1.5"/>
<mask id="path-34-inside-8" fill="white">
<path fill-rule="evenodd" clip-rule="evenodd" d="M96 1C94.8954 1 94 1.89543 94 3V6.70703H72C70.8954 6.70703 70 7.60246 70 8.70703V13.7182C70 14.8228 70.8954 15.7182 72 15.7182H124.972C126.076 15.7182 126.972 14.8228 126.972 13.7182V8.70703C126.972 7.60246 126.076 6.70703 124.972 6.70703H102.845V3C102.845 1.89543 101.949 1 100.845 1H96Z"/>
</mask>
<path fill-rule="evenodd" clip-rule="evenodd" d="M96 1C94.8954 1 94 1.89543 94 3V6.70703H72C70.8954 6.70703 70 7.60246 70 8.70703V13.7182C70 14.8228 70.8954 15.7182 72 15.7182H124.972C126.076 15.7182 126.972 14.8228 126.972 13.7182V8.70703C126.972 7.60246 126.076 6.70703 124.972 6.70703H102.845V3C102.845 1.89543 101.949 1 100.845 1H96Z" fill="black"/>
<path d="M94 6.70703V8.20703H95.5V6.70703H94ZM102.845 6.70703H101.345V8.20703H102.845V6.70703ZM95.5 3C95.5 2.72386 95.7239 2.5 96 2.5V-0.5C94.067 -0.5 92.5 1.067 92.5 3H95.5ZM95.5 6.70703V3H92.5V6.70703H95.5ZM72 8.20703H94V5.20703H72V8.20703ZM71.5 8.70703C71.5 8.43089 71.7239 8.20703 72 8.20703V5.20703C70.067 5.20703 68.5 6.77404 68.5 8.70703H71.5ZM71.5 13.7182V8.70703H68.5V13.7182H71.5ZM72 14.2182C71.7239 14.2182 71.5 13.9943 71.5 13.7182H68.5C68.5 15.6512 70.067 17.2182 72 17.2182V14.2182ZM124.972 14.2182H72V17.2182H124.972V14.2182ZM125.472 13.7182C125.472 13.9943 125.248 14.2182 124.972 14.2182V17.2182C126.905 17.2182 128.472 15.6512 128.472 13.7182H125.472ZM125.472 8.70703V13.7182H128.472V8.70703H125.472ZM124.972 8.20703C125.248 8.20703 125.472 8.43089 125.472 8.70703H128.472C128.472 6.77403 126.905 5.20703 124.972 5.20703V8.20703ZM102.845 8.20703H124.972V5.20703H102.845V8.20703ZM101.345 3V6.70703H104.345V3H101.345ZM100.845 2.5C101.121 2.5 101.345 2.72386 101.345 3H104.345C104.345 1.06701 102.778 -0.5 100.845 -0.5V2.5ZM96 2.5H100.845V-0.5H96V2.5Z" fill="black" mask="url(#path-34-inside-8)"/>
<mask id="path-36-inside-9" fill="white">
<path fill-rule="evenodd" clip-rule="evenodd" d="M27 0C25.8954 0 25 0.895431 25 2V5.70703H2C0.895431 5.70703 0 6.60246 0 7.70703V12.7182C0 13.8228 0.895428 14.7182 2 14.7182H55.9717C57.0763 14.7182 57.9717 13.8228 57.9717 12.7182V7.70703C57.9717 6.60246 57.0763 5.70703 55.9717 5.70703H34V2C34 0.895431 33.1046 0 32 0H27Z"/>
</mask>
<path fill-rule="evenodd" clip-rule="evenodd" d="M27 0C25.8954 0 25 0.895431 25 2V5.70703H2C0.895431 5.70703 0 6.60246 0 7.70703V12.7182C0 13.8228 0.895428 14.7182 2 14.7182H55.9717C57.0763 14.7182 57.9717 13.8228 57.9717 12.7182V7.70703C57.9717 6.60246 57.0763 5.70703 55.9717 5.70703H34V2C34 0.895431 33.1046 0 32 0H27Z" fill="#C4C4C4"/>
<path d="M25 5.70703V7.20703H26.5V5.70703H25ZM34 5.70703H32.5V7.20703H34V5.70703ZM26.5 2C26.5 1.72386 26.7239 1.5 27 1.5V-1.5C25.067 -1.5 23.5 0.0670043 23.5 2H26.5ZM26.5 5.70703V2H23.5V5.70703H26.5ZM2 7.20703H25V4.20703H2V7.20703ZM1.5 7.70703C1.5 7.43089 1.72386 7.20703 2 7.20703V4.20703C0.0670026 4.20703 -1.5 5.77404 -1.5 7.70703H1.5ZM1.5 12.7182V7.70703H-1.5V12.7182H1.5ZM2 13.2182C1.72386 13.2182 1.5 12.9943 1.5 12.7182H-1.5C-1.5 14.6512 0.0669989 16.2182 2 16.2182V13.2182ZM55.9717 13.2182H2V16.2182H55.9717V13.2182ZM56.4717 12.7182C56.4717 12.9943 56.2479 13.2182 55.9717 13.2182V16.2182C57.9047 16.2182 59.4717 14.6512 59.4717 12.7182H56.4717ZM56.4717 7.70703V12.7182H59.4717V7.70703H56.4717ZM55.9717 7.20703C56.2479 7.20703 56.4717 7.43089 56.4717 7.70703H59.4717C59.4717 5.77404 57.9047 4.20703 55.9717 4.20703V7.20703ZM34 7.20703H55.9717V4.20703H34V7.20703ZM32.5 2V5.70703H35.5V2H32.5ZM32 1.5C32.2761 1.5 32.5 1.72386 32.5 2H35.5C35.5 0.067003 33.933 -1.5 32 -1.5V1.5ZM27 1.5H32V-1.5H27V1.5Z" fill="black" mask="url(#path-36-inside-9)"/>
<mask id="path-38-inside-10" fill="white">
<path fill-rule="evenodd" clip-rule="evenodd" d="M5.00366 19.5242C3.89909 19.5242 3.00366 20.4196 3.00366 21.5242V50.5651C3.00366 51.6696 3.89909 52.5651 5.00366 52.5651H25V69C25 70.1046 25.8954 71 27 71H32C33.1046 71 34 70.1046 34 69V52.5651H53.2683C54.3729 52.5651 55.2683 51.6696 55.2683 50.5651V21.5242C55.2683 20.4196 54.3729 19.5242 53.2683 19.5242H5.00366Z"/>
</mask>
<path fill-rule="evenodd" clip-rule="evenodd" d="M5.00366 19.5242C3.89909 19.5242 3.00366 20.4196 3.00366 21.5242V50.5651C3.00366 51.6696 3.89909 52.5651 5.00366 52.5651H25V69C25 70.1046 25.8954 71 27 71H32C33.1046 71 34 70.1046 34 69V52.5651H53.2683C54.3729 52.5651 55.2683 51.6696 55.2683 50.5651V21.5242C55.2683 20.4196 54.3729 19.5242 53.2683 19.5242H5.00366Z" fill="white"/>
<path d="M25 52.5651H26.5V51.0651H25V52.5651ZM34 52.5651V51.0651H32.5V52.5651H34ZM4.50366 21.5242C4.50366 21.248 4.72752 21.0242 5.00366 21.0242V18.0242C3.07066 18.0242 1.50366 19.5912 1.50366 21.5242H4.50366ZM4.50366 50.5651V21.5242H1.50366V50.5651H4.50366ZM5.00366 51.0651C4.72752 51.0651 4.50366 50.8412 4.50366 50.5651H1.50366C1.50366 52.4981 3.07067 54.0651 5.00366 54.0651V51.0651ZM25 51.0651H5.00366V54.0651H25V51.0651ZM26.5 69V52.5651H23.5V69H26.5ZM27 69.5C26.7239 69.5 26.5 69.2761 26.5 69H23.5C23.5 70.933 25.067 72.5 27 72.5V69.5ZM32 69.5H27V72.5H32V69.5ZM32.5 69C32.5 69.2761 32.2761 69.5 32 69.5V72.5C33.933 72.5 35.5 70.933 35.5 69H32.5ZM32.5 52.5651V69H35.5V52.5651H32.5ZM53.2683 51.0651H34V54.0651H53.2683V51.0651ZM53.7683 50.5651C53.7683 50.8412 53.5445 51.0651 53.2683 51.0651V54.0651C55.2013 54.0651 56.7683 52.4981 56.7683 50.5651H53.7683ZM53.7683 21.5242V50.5651H56.7683V21.5242H53.7683ZM53.2683 21.0242C53.5445 21.0242 53.7683 21.248 53.7683 21.5242H56.7683C56.7683 19.5912 55.2013 18.0242 53.2683 18.0242V21.0242ZM5.00366 21.0242H53.2683V18.0242H5.00366V21.0242Z" fill="black" mask="url(#path-38-inside-10)"/>
<mask id="path-40-inside-11" fill="white">
<path fill-rule="evenodd" clip-rule="evenodd" d="M174 11.1138H179.124C180.229 11.1138 181.124 12.0092 181.124 13.1138V18.1249C181.124 19.2295 180.229 20.1249 179.124 20.1249H144.376C143.272 20.1249 142.376 19.2295 142.376 18.1249V13.1138C142.376 12.0092 143.272 11.1138 144.376 11.1138H165V9C165 7.89543 165.895 7 167 7H172C173.105 7 174 7.89543 174 9V11.1138Z"/>
</mask>
<path fill-rule="evenodd" clip-rule="evenodd" d="M174 11.1138H179.124C180.229 11.1138 181.124 12.0092 181.124 13.1138V18.1249C181.124 19.2295 180.229 20.1249 179.124 20.1249H144.376C143.272 20.1249 142.376 19.2295 142.376 18.1249V13.1138C142.376 12.0092 143.272 11.1138 144.376 11.1138H165V9C165 7.89543 165.895 7 167 7H172C173.105 7 174 7.89543 174 9V11.1138Z" fill="#C4C4C4"/>
<path d="M174 11.1138H172.5V12.6138H174V11.1138ZM165 11.1138V12.6138H166.5V11.1138H165ZM174 12.6138H179.124V9.61377H174V12.6138ZM179.124 12.6138C179.4 12.6138 179.624 12.8376 179.624 13.1138H182.624C182.624 11.1808 181.057 9.61377 179.124 9.61377V12.6138ZM179.624 13.1138V18.1249H182.624V13.1138H179.624ZM179.624 18.1249C179.624 18.4011 179.4 18.6249 179.124 18.6249V21.6249C181.057 21.6249 182.624 20.0579 182.624 18.1249H179.624ZM179.124 18.6249H144.376V21.6249H179.124V18.6249ZM144.376 18.6249C144.1 18.6249 143.876 18.4011 143.876 18.1249H140.876C140.876 20.0579 142.443 21.6249 144.376 21.6249V18.6249ZM143.876 18.1249V13.1138H140.876V18.1249H143.876ZM143.876 13.1138C143.876 12.8376 144.1 12.6138 144.376 12.6138V9.61377C142.443 9.61377 140.876 11.1808 140.876 13.1138H143.876ZM144.376 12.6138H165V9.61377H144.376V12.6138ZM166.5 11.1138V9H163.5V11.1138H166.5ZM166.5 9C166.5 8.72386 166.724 8.5 167 8.5V5.5C165.067 5.5 163.5 7.067 163.5 9H166.5ZM167 8.5H172V5.5H167V8.5ZM172 8.5C172.276 8.5 172.5 8.72386 172.5 9H175.5C175.5 7.067 173.933 5.5 172 5.5V8.5ZM172.5 9V11.1138H175.5V9H172.5Z" fill="black" mask="url(#path-40-inside-11)"/>
<rect x="165.75" y="70.25" width="47.5" height="7.5" rx="1.25" transform="rotate(-90 165.75 70.25)" fill="black" stroke="black" stroke-width="1.5"/>
<mask id="path-43-inside-12" fill="white">
<path fill-rule="evenodd" clip-rule="evenodd" d="M284 46C284 47.1046 284.895 48 286 48H291C292.105 48 293 47.1046 293 46V20H299C300.105 20 301 19.1046 301 18V13C301 11.8954 300.105 11 299 11H293V9C293 7.89543 292.105 7 291 7H286C284.895 7 284 7.89543 284 9V11H277C275.895 11 275 11.8954 275 13V18C275 19.1046 275.895 20 277 20H284V46Z"/>
</mask>
<path fill-rule="evenodd" clip-rule="evenodd" d="M284 46C284 47.1046 284.895 48 286 48H291C292.105 48 293 47.1046 293 46V20H299C300.105 20 301 19.1046 301 18V13C301 11.8954 300.105 11 299 11H293V9C293 7.89543 292.105 7 291 7H286C284.895 7 284 7.89543 284 9V11H277C275.895 11 275 11.8954 275 13V18C275 19.1046 275.895 20 277 20H284V46Z" fill="#C4C4C4"/>
<path d="M293 20V18.5H291.5V20H293ZM293 11H291.5V12.5H293V11ZM284 11V12.5H285.5V11H284ZM284 20H285.5V18.5H284V20ZM286 46.5C285.724 46.5 285.5 46.2761 285.5 46H282.5C282.5 47.933 284.067 49.5 286 49.5V46.5ZM291 46.5H286V49.5H291V46.5ZM291.5 46C291.5 46.2761 291.276 46.5 291 46.5V49.5C292.933 49.5 294.5 47.933 294.5 46H291.5ZM291.5 20V46H294.5V20H291.5ZM299 18.5H293V21.5H299V18.5ZM299.5 18C299.5 18.2761 299.276 18.5 299 18.5V21.5C300.933 21.5 302.5 19.933 302.5 18H299.5ZM299.5 13V18H302.5V13H299.5ZM299 12.5C299.276 12.5 299.5 12.7239 299.5 13H302.5C302.5 11.067 300.933 9.5 299 9.5V12.5ZM293 12.5H299V9.5H293V12.5ZM291.5 9V11H294.5V9H291.5ZM291 8.5C291.276 8.5 291.5 8.72386 291.5 9H294.5C294.5 7.067 292.933 5.5 291 5.5V8.5ZM286 8.5H291V5.5H286V8.5ZM285.5 9C285.5 8.72386 285.724 8.5 286 8.5V5.5C284.067 5.5 282.5 7.067 282.5 9H285.5ZM285.5 11V9H282.5V11H285.5ZM277 12.5H284V9.5H277V12.5ZM276.5 13C276.5 12.7239 276.724 12.5 277 12.5V9.5C275.067 9.5 273.5 11.067 273.5 13H276.5ZM276.5 18V13H273.5V18H276.5ZM277 18.5C276.724 18.5 276.5 18.2761 276.5 18H273.5C273.5 19.933 275.067 21.5 277 21.5V18.5ZM284 18.5H277V21.5H284V18.5ZM285.5 46V20H282.5V46H285.5Z" fill="black" mask="url(#path-43-inside-12)"/>
<rect x="255.75" y="11.75" width="12.5" height="7.5" rx="1.25" fill="black" stroke="black" stroke-width="1.5"/>
<rect x="263.75" y="40.25" width="32.5" height="7.5" rx="1.25" transform="rotate(-90 263.75 40.25)" fill="black" stroke="black" stroke-width="1.5"/>
<rect x="197.722" y="28.9591" width="13.8858" height="7.5" rx="1.25" transform="rotate(30 197.722 28.9591)" fill="black" stroke="black" stroke-width="1.5"/>
<rect x="202.227" y="12.1383" width="13.8858" height="7.5" rx="1.25" transform="rotate(30 202.227 12.1383)" fill="white" stroke="black" stroke-width="1.5"/>
<mask id="path-49-inside-13" fill="white">
<path fill-rule="evenodd" clip-rule="evenodd" d="M326.288 18.3226C326.294 18.3227 326.3 18.3227 326.306 18.3227H331.317C331.323 18.3227 331.329 18.3227 331.335 18.3226H346.036C347.14 18.3226 348.036 17.4272 348.036 16.3226V11.3115C348.036 10.2069 347.14 9.31149 346.036 9.31149H333.317V6.50562C333.317 5.40105 332.422 4.50562 331.317 4.50562H326.306C325.202 4.50562 324.306 5.40104 324.306 6.50561V9.31149H313.09C311.985 9.31149 311.09 10.2069 311.09 11.3115V11.3116V16.3226V25.6342C311.09 26.7388 311.985 27.6342 313.09 27.6342H318.101C319.206 27.6342 320.101 26.7388 320.101 25.6342V18.3226H326.288Z"/>
</mask>
<path fill-rule="evenodd" clip-rule="evenodd" d="M326.288 18.3226C326.294 18.3227 326.3 18.3227 326.306 18.3227H331.317C331.323 18.3227 331.329 18.3227 331.335 18.3226H346.036C347.14 18.3226 348.036 17.4272 348.036 16.3226V11.3115C348.036 10.2069 347.14 9.31149 346.036 9.31149H333.317V6.50562C333.317 5.40105 332.422 4.50562 331.317 4.50562H326.306C325.202 4.50562 324.306 5.40104 324.306 6.50561V9.31149H313.09C311.985 9.31149 311.09 10.2069 311.09 11.3115V11.3116V16.3226V25.6342C311.09 26.7388 311.985 27.6342 313.09 27.6342H318.101C319.206 27.6342 320.101 26.7388 320.101 25.6342V18.3226H326.288Z" fill="#C4C4C4"/>
<path d="M326.288 18.3226L326.301 16.8226H326.288V18.3226ZM331.335 18.3226V16.8226L331.322 16.8227L331.335 18.3226ZM333.317 9.31149H331.817V10.8115H333.317V9.31149ZM324.306 9.31149V10.8115H325.806V9.31149H324.306ZM320.101 18.3226V16.8226H318.601V18.3226H320.101ZM326.306 16.8227C326.305 16.8227 326.303 16.8227 326.301 16.8227L326.275 19.8226C326.286 19.8227 326.296 19.8227 326.306 19.8227V16.8227ZM331.317 16.8227H326.306V19.8227H331.317V16.8227ZM331.322 16.8227C331.321 16.8227 331.319 16.8227 331.317 16.8227V19.8227C331.328 19.8227 331.338 19.8227 331.348 19.8226L331.322 16.8227ZM331.335 19.8226H346.036V16.8226H331.335V19.8226ZM346.036 19.8226C347.969 19.8226 349.536 18.2556 349.536 16.3226H346.536C346.536 16.5988 346.312 16.8226 346.036 16.8226V19.8226ZM349.536 16.3226V11.3115H346.536V16.3226H349.536ZM349.536 11.3115C349.536 9.37849 347.969 7.81149 346.036 7.81149V10.8115C346.312 10.8115 346.536 11.0353 346.536 11.3115H349.536ZM346.036 7.81149H333.317V10.8115H346.036V7.81149ZM331.817 6.50562V9.31149H334.817V6.50562H331.817ZM331.317 6.00562C331.593 6.00562 331.817 6.22947 331.817 6.50562H334.817C334.817 4.57262 333.25 3.00562 331.317 3.00562V6.00562ZM326.306 6.00562H331.317V3.00562H326.306V6.00562ZM325.806 6.50561C325.806 6.22947 326.03 6.00562 326.306 6.00562V3.00562C324.373 3.00562 322.806 4.57262 322.806 6.50561H325.806ZM325.806 9.31149V6.50561H322.806V9.31149H325.806ZM324.306 7.81149H313.09V10.8115H324.306V7.81149ZM313.09 7.81149C311.157 7.81149 309.59 9.37849 309.59 11.3115H312.59C312.59 11.0353 312.814 10.8115 313.09 10.8115V7.81149ZM309.59 11.3115V11.3116H312.59V11.3115H309.59ZM309.59 11.3116V16.3226H312.59V11.3116H309.59ZM309.59 16.3226V25.6342H312.59V16.3226H309.59ZM309.59 25.6342C309.59 27.5672 311.157 29.1342 313.09 29.1342V26.1342C312.814 26.1342 312.59 25.9104 312.59 25.6342H309.59ZM313.09 29.1342H318.101V26.1342H313.09V29.1342ZM318.101 29.1342C320.034 29.1342 321.601 27.5672 321.601 25.6342H318.601C318.601 25.9104 318.377 26.1342 318.101 26.1342V29.1342ZM321.601 25.6342V18.3226H318.601V25.6342H321.601ZM320.101 19.8226H326.288V16.8226H320.101V19.8226Z" fill="black" mask="url(#path-49-inside-13)"/>
<rect x="142.025" y="56.0717" width="30.0766" height="7.5" rx="1.25" transform="rotate(-60 142.025 56.0717)" fill="white" stroke="black" stroke-width="1.5"/>
<rect x="265.857" y="63.7643" width="25.4858" height="7.51115" rx="1.25" transform="rotate(-30 265.857 63.7643)" fill="black" stroke="black" stroke-width="1.5"/>
<rect x="265.857" y="63.7643" width="25.4858" height="7.5" rx="1.25" transform="rotate(-30 265.857 63.7643)" fill="#FFF8F8" stroke="black" stroke-width="1.5"/>
<rect x="198.472" y="59.9295" width="47.9147" height="7.5" rx="1.25" transform="rotate(-30 198.472 59.9295)" fill="#C4C4C4" stroke="black" stroke-width="1.5"/>
<mask id="path-55-inside-14" fill="white">
<path fill-rule="evenodd" clip-rule="evenodd" d="M347.988 55.218C348.154 56.0371 347.791 56.9057 347.027 57.3466L324.837 70.1584C323.88 70.7107 322.657 70.3829 322.105 69.4263L319.599 65.0865C319.047 64.13 319.375 62.9068 320.331 62.3545L339 51.576V22C339 20.8954 339.895 20 341 20H346C347.105 20 348 20.8954 348 22V55C348 55.0737 347.996 55.1464 347.988 55.218Z"/>
</mask>
<path fill-rule="evenodd" clip-rule="evenodd" d="M347.988 55.218C348.154 56.0371 347.791 56.9057 347.027 57.3466L324.837 70.1584C323.88 70.7107 322.657 70.3829 322.105 69.4263L319.599 65.0865C319.047 64.13 319.375 62.9068 320.331 62.3545L339 51.576V22C339 20.8954 339.895 20 341 20H346C347.105 20 348 20.8954 348 22V55C348 55.0737 347.996 55.1464 347.988 55.218Z" fill="black"/>
<path d="M347.988 55.218L346.497 55.0564L346.472 55.2876L346.518 55.5155L347.988 55.218ZM347.027 57.3466L346.277 56.0475L346.277 56.0475L347.027 57.3466ZM324.837 70.1584L325.587 71.4574L325.587 71.4574L324.837 70.1584ZM322.105 69.4263L323.404 68.6763L323.404 68.6763L322.105 69.4263ZM319.599 65.0865L318.3 65.8365L318.3 65.8365L319.599 65.0865ZM320.331 62.3545L321.081 63.6535L321.081 63.6535L320.331 62.3545ZM339 51.576L339.75 52.8751L340.5 52.4421V51.576H339ZM346.518 55.5155C346.56 55.7221 346.466 55.9385 346.277 56.0475L347.777 58.6456C349.116 57.8729 349.748 56.3522 349.458 54.9205L346.518 55.5155ZM346.277 56.0475L324.087 68.8593L325.587 71.4574L347.777 58.6456L346.277 56.0475ZM324.087 68.8593C323.848 68.9974 323.542 68.9155 323.404 68.6763L320.806 70.1763C321.772 71.8503 323.913 72.4239 325.587 71.4574L324.087 68.8593ZM323.404 68.6763L320.898 64.3365L318.3 65.8365L320.806 70.1763L323.404 68.6763ZM320.898 64.3365C320.76 64.0974 320.842 63.7916 321.081 63.6535L319.581 61.0555C317.907 62.022 317.334 64.1625 318.3 65.8365L320.898 64.3365ZM321.081 63.6535L339.75 52.8751L338.25 50.277L319.581 61.0555L321.081 63.6535ZM340.5 51.576V22H337.5V51.576H340.5ZM340.5 22C340.5 21.7239 340.724 21.5 341 21.5V18.5C339.067 18.5 337.5 20.067 337.5 22H340.5ZM341 21.5H346V18.5H341V21.5ZM346 21.5C346.276 21.5 346.5 21.7239 346.5 22H349.5C349.5 20.067 347.933 18.5 346 18.5V21.5ZM346.5 22V55H349.5V22H346.5ZM346.5 55C346.5 55.0195 346.499 55.0383 346.497 55.0564L349.48 55.3797C349.493 55.2545 349.5 55.1278 349.5 55H346.5Z" fill="black" mask="url(#path-55-inside-14)"/>
<rect x="360.801" y="14.8677" width="38.4494" height="7.5" rx="1.25" fill="black" stroke="black" stroke-width="1.5"/>
<rect x="377.75" y="19.25" width="13.5" height="7.5" rx="1.25" transform="rotate(-90 377.75 19.25)" fill="black" stroke="black" stroke-width="1.5"/>
<mask id="path-59-inside-15" fill="white">
<path fill-rule="evenodd" clip-rule="evenodd" d="M377 51.3609V26.5C377 25.3954 377.895 24.5 379 24.5H384C385.105 24.5 386 25.3954 386 26.5V55C386 55.0628 385.997 55.125 385.991 55.1863C386.073 55.9493 385.71 56.7245 385.002 57.1329L362.979 69.8484C362.022 70.4007 360.799 70.073 360.247 69.1164L357.747 64.7863C357.194 63.8297 357.522 62.6065 358.479 62.0542L377 51.3609Z"/>
</mask>
<path fill-rule="evenodd" clip-rule="evenodd" d="M377 51.3609V26.5C377 25.3954 377.895 24.5 379 24.5H384C385.105 24.5 386 25.3954 386 26.5V55C386 55.0628 385.997 55.125 385.991 55.1863C386.073 55.9493 385.71 56.7245 385.002 57.1329L362.979 69.8484C362.022 70.4007 360.799 70.073 360.247 69.1164L357.747 64.7863C357.194 63.8297 357.522 62.6065 358.479 62.0542L377 51.3609Z" fill="white"/>
<path d="M377 51.3609L377.75 52.6599L378.5 52.2269V51.3609H377ZM385.991 55.1863L384.498 55.0483L384.484 55.1975L384.5 55.3464L385.991 55.1863ZM385.002 57.1329L384.252 55.8339L384.252 55.8339L385.002 57.1329ZM362.979 69.8484L363.729 71.1475L363.729 71.1475L362.979 69.8484ZM360.247 69.1164L358.948 69.8664L358.948 69.8664L360.247 69.1164ZM357.747 64.7863L359.046 64.0363L359.046 64.0363L357.747 64.7863ZM358.479 62.0542L359.229 63.3532L359.229 63.3532L358.479 62.0542ZM378.5 51.3609V26.5H375.5V51.3609H378.5ZM378.5 26.5C378.5 26.2239 378.724 26 379 26V23C377.067 23 375.5 24.567 375.5 26.5H378.5ZM379 26H384V23H379V26ZM384 26C384.276 26 384.5 26.2239 384.5 26.5H387.5C387.5 24.567 385.933 23 384 23V26ZM384.5 26.5V55H387.5V26.5H384.5ZM384.5 55C384.5 55.0167 384.499 55.0328 384.498 55.0483L387.485 55.3242C387.495 55.2171 387.5 55.109 387.5 55H384.5ZM384.5 55.3464C384.521 55.5406 384.427 55.733 384.252 55.8339L385.752 58.432C386.992 57.7161 387.626 56.358 387.483 55.0262L384.5 55.3464ZM384.252 55.8339L362.229 68.5494L363.729 71.1475L385.752 58.432L384.252 55.8339ZM362.229 68.5494C361.989 68.6875 361.684 68.6055 361.546 68.3664L358.948 69.8664C359.914 71.5404 362.055 72.114 363.729 71.1475L362.229 68.5494ZM361.546 68.3664L359.046 64.0363L356.448 65.5363L358.948 69.8664L361.546 68.3664ZM359.046 64.0363C358.908 63.7971 358.989 63.4913 359.229 63.3532L357.729 60.7552C356.055 61.7217 355.481 63.8622 356.448 65.5363L359.046 64.0363ZM359.229 63.3532L377.75 52.6599L376.25 50.0618L357.729 60.7552L359.229 63.3532Z" fill="black" mask="url(#path-59-inside-15)"/>
<rect x="227.75" y="14.75" width="4.5" height="9.5" rx="1.25" fill="black" stroke="black" stroke-width="1.5"/>
<rect x="235.75" y="14.75" width="4.5" height="9.5" rx="1.25" fill="black" stroke="black" stroke-width="1.5"/>
<rect x="94.75" y="48.75" width="7.5" height="21.5" rx="1.25" fill="black" stroke="black" stroke-width="1.5"/>
<rect x="74.0408" y="20.2742" width="48.9625" height="24.9327" rx="1.25" fill="#C4C4C4" stroke="black" stroke-width="1.5"/>
<rect x="39.0213" y="54.5213" width="20.6668" height="7.5" rx="1.25" transform="rotate(30 39.0213 54.5213)" fill="black" stroke="black" stroke-width="1.5"/>
<rect x="1.02452" y="64.8544" width="21.2649" height="7.5" rx="1.25" transform="rotate(-30 1.02452 64.8544)" fill="#C4C4C4" stroke="black" stroke-width="1.5"/>
<rect x="117.058" y="51.4869" width="14.9754" height="7.5" rx="1.25" transform="rotate(60 117.058 51.4869)" fill="white" stroke="black" stroke-width="1.5"/>
<rect x="71.9125" y="64.435" width="14.8603" height="7.5" rx="1.25" transform="rotate(-60 71.9125 64.435)" fill="white" stroke="black" stroke-width="1.5"/>
<mask id="path-69-inside-16" fill="white">
<path fill-rule="evenodd" clip-rule="evenodd" d="M96 1C94.8954 1 94 1.89543 94 3V6.70703H72C70.8954 6.70703 70 7.60246 70 8.70703V13.7182C70 14.8228 70.8954 15.7182 72 15.7182H124.972C126.076 15.7182 126.972 14.8228 126.972 13.7182V8.70703C126.972 7.60246 126.076 6.70703 124.972 6.70703H102.845V3C102.845 1.89543 101.949 1 100.845 1H96Z"/>
</mask>
<path fill-rule="evenodd" clip-rule="evenodd" d="M96 1C94.8954 1 94 1.89543 94 3V6.70703H72C70.8954 6.70703 70 7.60246 70 8.70703V13.7182C70 14.8228 70.8954 15.7182 72 15.7182H124.972C126.076 15.7182 126.972 14.8228 126.972 13.7182V8.70703C126.972 7.60246 126.076 6.70703 124.972 6.70703H102.845V3C102.845 1.89543 101.949 1 100.845 1H96Z" fill="black"/>
<path d="M94 6.70703V8.20703H95.5V6.70703H94ZM102.845 6.70703H101.345V8.20703H102.845V6.70703ZM95.5 3C95.5 2.72386 95.7239 2.5 96 2.5V-0.5C94.067 -0.5 92.5 1.067 92.5 3H95.5ZM95.5 6.70703V3H92.5V6.70703H95.5ZM72 8.20703H94V5.20703H72V8.20703ZM71.5 8.70703C71.5 8.43089 71.7239 8.20703 72 8.20703V5.20703C70.067 5.20703 68.5 6.77404 68.5 8.70703H71.5ZM71.5 13.7182V8.70703H68.5V13.7182H71.5ZM72 14.2182C71.7239 14.2182 71.5 13.9943 71.5 13.7182H68.5C68.5 15.6512 70.067 17.2182 72 17.2182V14.2182ZM124.972 14.2182H72V17.2182H124.972V14.2182ZM125.472 13.7182C125.472 13.9943 125.248 14.2182 124.972 14.2182V17.2182C126.905 17.2182 128.472 15.6512 128.472 13.7182H125.472ZM125.472 8.70703V13.7182H128.472V8.70703H125.472ZM124.972 8.20703C125.248 8.20703 125.472 8.43089 125.472 8.70703H128.472C128.472 6.77403 126.905 5.20703 124.972 5.20703V8.20703ZM102.845 8.20703H124.972V5.20703H102.845V8.20703ZM101.345 3V6.70703H104.345V3H101.345ZM100.845 2.5C101.121 2.5 101.345 2.72386 101.345 3H104.345C104.345 1.06701 102.778 -0.5 100.845 -0.5V2.5ZM96 2.5H100.845V-0.5H96V2.5Z" fill="black" mask="url(#path-69-inside-16)"/>
</svg>
