<?xml version="1.0" encoding="utf-8"?>
<!-- Generator: Adobe Illustrator 25.2.3, SVG Export Plug-In . SVG Version: 6.00 Build 0)  -->
<svg version="1.1" xmlns="http://www.w3.org/2000/svg" xmlns:xlink="http://www.w3.org/1999/xlink" x="0px" y="0px"
	 viewBox="0 0 2747 492" style="enable-background:new 0 0 2747 492;" xml:space="preserve">
<style type="text/css">
	.st0{fill:#FFFFFF;}
	.st1{fill:none;stroke:#000000;stroke-width:11.0171;}
	.st2{fill:#C4C4C4;}
	.st3{fill:#FFF8F8;}
</style>
<g id="細め_xD7_ゆる加工">
</g>
<g id="ゆる加工">
	<g>
		<path class="st0" d="M174.5,353c2.8,0,2.4,0.5,4.4,2.5s1.2,1.6,1.2,4.4c0,28.8-1.1,28.8-1.1,57.6c0,28.8,1.7,28.8,1.7,57.6
			c0,4.1,2.7,8.4,6.7,8.4c14.9,0,14.9,0.6,29.7,0.6c4.1,0,6.8-4.9,6.8-9c0-28.8-0.7-28.8-0.7-57.6c0-28.8,2-28.8,2-57.6
			c0-2.8-3.5-4.3-1.5-6.3c1.9-1.9,3.5,2.2,6.3,2.2c33.9,0,33.9-0.6,67.8-0.6s33.9-0.4,67.8-0.4c4.1,0,6.1-3.8,6.1-7.9
			c0-33.5,0.9-33.5,0.9-67c0-33.5,1.9-33.5,1.9-67s-2-33.5-2-67c0-4.1-2.9-7.2-6.9-7.2c-33.4,0-33.4-0.8-66.7-0.8
			c-33.4,0-33.4,0.2-66.7,0.2c-33.4,0-33.4,1-66.7,1c-33.4,0-33.4-1.1-66.7-1.1c-33.4,0-33.4,0.3-66.7,0.3c-4.1,0-8.5,3.5-8.5,7.6
			c0,33.5,1.7,33.5,1.7,67c0,33.5-0.1,33.5-0.1,67s-0.8,33.5-0.8,67c0,4.1,3.6,8.4,7.7,8.4c35.6,0,35.6-0.6,71.3-1
			C138.9,353.9,138.9,353,174.5,353z"/>
		<path class="st1" d="M174.5,353c2.8,0,2.4,0.5,4.4,2.5s1.2,1.6,1.2,4.4c0,28.8-1.1,28.8-1.1,57.6c0,28.8,1.7,28.8,1.7,57.6
			c0,4.1,2.7,8.4,6.7,8.4c14.9,0,14.9,0.6,29.7,0.6c4.1,0,6.8-4.9,6.8-9c0-28.8-0.7-28.8-0.7-57.6c0-28.8,2-28.8,2-57.6
			c0-2.8-3.5-4.3-1.5-6.3c1.9-1.9,3.5,2.2,6.3,2.2c33.9,0,33.9-0.6,67.8-0.6s33.9-0.4,67.8-0.4c4.1,0,6.1-3.8,6.1-7.9
			c0-33.5,0.9-33.5,0.9-67c0-33.5,1.9-33.5,1.9-67s-2-33.5-2-67c0-4.1-2.9-7.2-6.9-7.2c-33.4,0-33.4-0.8-66.7-0.8
			c-33.4,0-33.4,0.2-66.7,0.2c-33.4,0-33.4,1-66.7,1c-33.4,0-33.4-1.1-66.7-1.1c-33.4,0-33.4,0.3-66.7,0.3c-4.1,0-8.5,3.5-8.5,7.6
			c0,33.5,1.7,33.5,1.7,67c0,33.5-0.1,33.5-0.1,67s-0.8,33.5-0.8,67c0,4.1,3.6,8.4,7.7,8.4c35.6,0,35.6-0.6,71.3-1
			C138.9,353.9,138.9,353,174.5,353z"/>
	</g>
	<g>
		<path class="st2" d="M1369.2,406.2c27.2-15.7,27.9-14.5,55.1-30.2c27.2-15.7,27.4-15.3,54.6-31c27.2-15.7,26.2-17.3,53.4-33
			c27.2-15.7,27.5-15.2,54.7-30.9s28.2-14,55.4-29.7c3.5-2,7.9-2.3,10,1.2c9,15.7,7.5,16.6,16.5,32.2c2,3.5,2.2,8.2-1.3,10.2
			c-27.2,15.7-27.2,15.6-54.4,31.3c-27.2,15.7-27.4,15.4-54.6,31.1c-27.2,15.7-27.3,15.6-54.4,31.3c-27.2,15.7-27.6,15-54.8,30.7
			c-27.2,15.7-27.2,15.7-54.4,31.4c-3.5,2-6.5,0.5-8.5-3c-9-15.7-10.2-15-19.2-30.7C1365.2,413.7,1365.6,408.2,1369.2,406.2z"/>
		<path class="st1" d="M1369.2,406.2c27.2-15.7,27.9-14.5,55.1-30.2c27.2-15.7,27.4-15.3,54.6-31c27.2-15.7,26.2-17.3,53.4-33
			c27.2-15.7,27.5-15.2,54.7-30.9s28.2-14,55.4-29.7c3.5-2,7.9-2.3,10,1.2c9,15.7,7.5,16.6,16.5,32.2c2,3.5,2.2,8.2-1.3,10.2
			c-27.2,15.7-27.2,15.6-54.4,31.3c-27.2,15.7-27.4,15.4-54.6,31.1c-27.2,15.7-27.3,15.6-54.4,31.3c-27.2,15.7-27.6,15-54.8,30.7
			c-27.2,15.7-27.2,15.7-54.4,31.4c-3.5,2-6.5,0.5-8.5-3c-9-15.7-10.2-15-19.2-30.7C1365.2,413.7,1365.6,408.2,1369.2,406.2z"/>
	</g>
	<g>
		<path d="M1571.8,100.7c7.8,0,7.8,0,15.6,0c4.1,0,7.6,3.1,7.6,7.2c0,25-0.5,25-0.5,49.9c0,4.1-3,7.6-7.1,7.6
			c-7.8,0-7.8-0.1-15.6-0.1c-4.1,0-7.6-3.4-7.6-7.5c0-25,0.5-25,0.5-49.9C1564.8,103.8,1567.8,100.7,1571.8,100.7z"/>
		<path class="st1" d="M1571.8,100.7c7.8,0,7.8,0,15.6,0c4.1,0,7.6,3.1,7.6,7.2c0,25-0.5,25-0.5,49.9c0,4.1-3,7.6-7.1,7.6
			c-7.8,0-7.8-0.1-15.6-0.1c-4.1,0-7.6-3.4-7.6-7.5c0-25,0.5-25,0.5-49.9C1564.8,103.8,1567.8,100.7,1571.8,100.7z"/>
	</g>
	<g>
		<path d="M1626.9,100.6c7.8,0,7.8,0,15.6,0c4.1,0,7.2,3.2,7.2,7.3c0,25,0.4,25,0.4,49.9c0,4.1-3.5,7.5-7.6,7.5
			c-7.8,0-7.8-0.1-15.6-0.1c-4.1,0-7.5-3.3-7.5-7.4c0-25-0.1-25-0.1-49.9C1619.3,103.8,1622.8,100.6,1626.9,100.6z"/>
		<path class="st1" d="M1626.9,100.6c7.8,0,7.8,0,15.6,0c4.1,0,7.2,3.2,7.2,7.3c0,25,0.4,25,0.4,49.9c0,4.1-3.5,7.5-7.6,7.5
			c-7.8,0-7.8-0.1-15.6-0.1c-4.1,0-7.5-3.3-7.5-7.4c0-25-0.1-25-0.1-49.9C1619.3,103.8,1622.8,100.6,1626.9,100.6z"/>
	</g>
	<g>
		<path d="M657.6,334.6c18.1,0,18.1-1,36.2-1c4.1,0,6.7,4,6.7,8.1c0,33.1,0.3,33.1,0.3,66.2s0.4,33.1,0.4,66.2
			c0,4.1-3.4,7.2-7.4,7.2c-18.1,0-18.1,0.3-36.2,0.3c-4.1,0-7.8-3.4-7.8-7.5c0-33.1,0-33.1,0-66.2s0.3-33.1,0.3-66.2
			C650.1,337.6,653.5,334.6,657.6,334.6z"/>
		<path class="st1" d="M657.6,334.6c18.1,0,18.1-1,36.2-1c4.1,0,6.7,4,6.7,8.1c0,33.1,0.3,33.1,0.3,66.2s0.4,33.1,0.4,66.2
			c0,4.1-3.4,7.2-7.4,7.2c-18.1,0-18.1,0.3-36.2,0.3c-4.1,0-7.8-3.4-7.8-7.5c0-33.1,0-33.1,0-66.2s0.3-33.1,0.3-66.2
			C650.1,337.6,653.5,334.6,657.6,334.6z"/>
	</g>
	<g>
		<path class="st2" d="M515.3,140c32.1,0,32.1-0.3,64.2-0.3c32.1,0,32.1-0.7,64.2-0.7c32.1,0,32.1-0.2,64.2-0.2
			c32.1,0,32.1,0.6,64.2,0.6s32.1-0.3,64.2-0.3c4.1,0,7.7,2.8,7.7,6.8c0,39,0,39,0,77.9s-0.5,39-0.5,77.9c0,4.1-3.1,8.2-7.1,8.2
			c-32.1,0-32.1-2-64.2-2c-32.1,0-32.1,2.1-64.2,2.1c-32.1,0-32.1-0.5-64.2-0.5c-32.1,0-32.1,0.3-64.2,0.3
			c-32.1,0-32.1-1.2-64.2-1.2c-4.1,0-6.8-2.8-6.8-6.9c0-39-0.3-39-0.3-77.9s-1.7-39-1.7-77.9C506.5,141.8,511.2,140,515.3,140z"/>
		<path class="st1" d="M515.3,140c32.1,0,32.1-0.3,64.2-0.3c32.1,0,32.1-0.7,64.2-0.7c32.1,0,32.1-0.2,64.2-0.2
			c32.1,0,32.1,0.6,64.2,0.6s32.1-0.3,64.2-0.3c4.1,0,7.7,2.8,7.7,6.8c0,39,0,39,0,77.9s-0.5,39-0.5,77.9c0,4.1-3.1,8.2-7.1,8.2
			c-32.1,0-32.1-2-64.2-2c-32.1,0-32.1,2.1-64.2,2.1c-32.1,0-32.1-0.5-64.2-0.5c-32.1,0-32.1,0.3-64.2,0.3
			c-32.1,0-32.1-1.2-64.2-1.2c-4.1,0-6.8-2.8-6.8-6.9c0-39-0.3-39-0.3-77.9s-1.7-39-1.7-77.9C506.5,141.8,511.2,140,515.3,140z"/>
	</g>
	<g>
		<path d="M284,381.5c25.2,14.5,24.6,15.4,49.8,30c25.2,14.5,25.4,14.2,50.5,28.7c3.5,2,4.6,6.4,2.6,9.9c-9,15.7-8.9,15.7-18,31.4
			c-2,3.5-6.6,4.8-10.1,2.8c-25.2-14.5-24.8-15.1-50-29.6c-25.2-14.5-25.2-14.5-50.4-29c-3.5-2-4.9-6-2.9-9.5
			c9-15.7,8.9-15.7,17.9-31.4C275.7,381.2,280.5,379.5,284,381.5z"/>
		<path class="st1" d="M284,381.5c25.2,14.5,24.6,15.4,49.8,30c25.2,14.5,25.4,14.2,50.5,28.7c3.5,2,4.6,6.4,2.6,9.9
			c-9,15.7-8.9,15.7-18,31.4c-2,3.5-6.6,4.8-10.1,2.8c-25.2-14.5-24.8-15.1-50-29.6c-25.2-14.5-25.2-14.5-50.4-29
			c-3.5-2-4.9-6-2.9-9.5c9-15.7,8.9-15.7,17.9-31.4C275.7,381.2,280.5,379.5,284,381.5z"/>
	</g>
	<g>
		<path class="st2" d="M16.4,440.7c26.1-15,26.4-14.4,52.5-29.4c26.1-15,25.8-15.4,51.9-30.4c3.5-2,7.9-0.7,10,2.8
			c9,15.7,8.9,15.7,18,31.4c2,3.5,1.4,8.4-2.1,10.4c-26.1,15-26.3,14.6-52.3,29.7c-26.1,15-25.8,15.4-51.9,30.4
			c-3.5,2-8.8,0.7-10.8-2.9c-9-15.7-9-15.7-18-31.3C11.4,447.9,12.9,442.7,16.4,440.7z"/>
		<path class="st1" d="M16.4,440.7c26.1-15,26.4-14.4,52.5-29.4c26.1-15,25.8-15.4,51.9-30.4c3.5-2,7.9-0.7,10,2.8
			c9,15.7,8.9,15.7,18,31.4c2,3.5,1.4,8.4-2.1,10.4c-26.1,15-26.3,14.6-52.3,29.7c-26.1,15-25.8,15.4-51.9,30.4
			c-3.5,2-8.8,0.7-10.8-2.9c-9-15.7-9-15.7-18-31.3C11.4,447.9,12.9,442.7,16.4,440.7z"/>
	</g>
	<g>
		<path class="st0" d="M806.9,359.5c21.9,37.9,21.5,38.1,43.4,76c2,3.5,1.3,8.3-2.2,10.4c-15.7,9-15.8,8.7-31.5,17.8
			c-3.5,2-8.4,0.8-10.4-2.7c-21.9-37.9-21.4-38.2-43.3-76.1c-2-3.5-0.8-7.4,2.7-9.4c15.7-9,15.6-9.1,31.3-18.1
			C800.5,355.3,804.9,356,806.9,359.5z"/>
		<path class="st1" d="M806.9,359.5c21.9,37.9,21.5,38.1,43.4,76c2,3.5,1.3,8.3-2.2,10.4c-15.7,9-15.8,8.7-31.5,17.8
			c-3.5,2-8.4,0.8-10.4-2.7c-21.9-37.9-21.4-38.2-43.3-76.1c-2-3.5-0.8-7.4,2.7-9.4c15.7-9,15.6-9.1,31.3-18.1
			C800.5,355.3,804.9,356,806.9,359.5z"/>
	</g>
	<g>
		<path class="st0" d="M497.4,435.5c21.7-37.6,21.2-37.9,42.9-75.4c2-3.5,6.7-4.8,10.2-2.7c15.7,9,15.5,9.3,31.2,18.3
			c3.5,2,5,6.5,2.9,10c-21.7,37.6-21.8,37.5-43.5,75.1c-2,3.5-6.5,4.6-10,2.6c-15.7-9-15.8-8.7-31.5-17.8
			C496.1,443.5,495.4,439,497.4,435.5z"/>
		<path class="st1" d="M497.4,435.5c21.7-37.6,21.2-37.9,42.9-75.4c2-3.5,6.7-4.8,10.2-2.7c15.7,9,15.5,9.3,31.2,18.3
			c3.5,2,5,6.5,2.9,10c-21.7,37.6-21.8,37.5-43.5,75.1c-2,3.5-6.5,4.6-10,2.6c-15.7-9-15.8-8.7-31.5-17.8
			C496.1,443.5,495.4,439,497.4,435.5z"/>
	</g>
	<g>
		<path d="M1138.5,474c0-30.4,0.7-30.4,0.7-60.9c0-30.4-0.6-30.4-0.6-60.9c0-30.4-0.4-30.4-0.4-60.9c0-30.4,1.1-30.4,1.1-60.9
			s-1.7-30.4-1.7-60.9c0-4.1,3.8-7,7.9-7c18.1,0,18.1-1.1,36.2-1.1c4.1,0,7.6,4.1,7.6,8.1c0,30.4-0.3,30.4-0.3,60.9
			c0,30.4,1.5,30.4,1.5,60.9c0,30.4-0.7,30.4-0.7,60.9c0,30.4-1.3,30.4-1.3,60.9c0,30.4-0.3,30.4-0.3,60.9c0,4.1-2.4,8.7-6.5,8.7
			c-18.1,0-18.1-1.2-36.2-1.2C1141.5,481.6,1138.5,478.1,1138.5,474z"/>
		<path class="st1" d="M1138.5,474c0-30.4,0.7-30.4,0.7-60.9c0-30.4-0.6-30.4-0.6-60.9c0-30.4-0.4-30.4-0.4-60.9
			c0-30.4,1.1-30.4,1.1-60.9s-1.7-30.4-1.7-60.9c0-4.1,3.8-7,7.9-7c18.1,0,18.1-1.1,36.2-1.1c4.1,0,7.6,4.1,7.6,8.1
			c0,30.4-0.3,30.4-0.3,60.9c0,30.4,1.5,30.4,1.5,60.9c0,30.4-0.7,30.4-0.7,60.9c0,30.4-1.3,30.4-1.3,60.9c0,30.4-0.3,30.4-0.3,60.9
			c0,4.1-2.4,8.7-6.5,8.7c-18.1,0-18.1-1.2-36.2-1.2C1141.5,481.6,1138.5,478.1,1138.5,474z"/>
	</g>
	<g>
		<path d="M1364,202.5c34.7,20,34.7,19.9,69.4,39.9c3.5,2,4.8,6.2,2.8,9.7c-9,15.7-8.6,15.9-17.6,31.6c-2,3.5-7.1,4.8-10.6,2.8
			c-34.7-20-34.6-20.1-69.3-40.1c-3.5-2-4.9-6.9-2.9-10.4c9-15.7,9.6-15.3,18.6-31C1356.5,201.4,1360.5,200.4,1364,202.5z"/>
		<path class="st1" d="M1364,202.5c34.7,20,34.7,19.9,69.4,39.9c3.5,2,4.8,6.2,2.8,9.7c-9,15.7-8.6,15.9-17.6,31.6
			c-2,3.5-7.1,4.8-10.6,2.8c-34.7-20-34.6-20.1-69.3-40.1c-3.5-2-4.9-6.9-2.9-10.4c9-15.7,9.6-15.3,18.6-31
			C1356.5,201.4,1360.5,200.4,1364,202.5z"/>
	</g>
	<g>
		<path class="st0" d="M1395.1,86.7c34.7,20,34.9,19.6,69.6,39.6c3.5,2,4.3,6.4,2.3,9.9c-9,15.7-9.1,15.6-18.2,31.3
			c-2,3.5-5.9,4.7-9.5,2.7c-34.7-20-34.7-20-69.3-40c-3.5-2-5.1-6.4-3-9.9c9-15.7,9.5-15.4,18.6-31
			C1387.5,85.7,1391.5,84.7,1395.1,86.7z"/>
		<path class="st1" d="M1395.1,86.7c34.7,20,34.9,19.6,69.6,39.6c3.5,2,4.3,6.4,2.3,9.9c-9,15.7-9.1,15.6-18.2,31.3
			c-2,3.5-5.9,4.7-9.5,2.7c-34.7-20-34.7-20-69.3-40c-3.5-2-5.1-6.4-3-9.9c9-15.7,9.5-15.4,18.6-31
			C1387.5,85.7,1391.5,84.7,1395.1,86.7z"/>
	</g>
	<g>
		<path class="st0" d="M978.9,377.7c20.1-34.7,20.2-34.6,40.3-69.4c20.1-34.7,19.7-34.9,39.8-69.6c2-3.5,6.5-4.2,10.1-2.1
			c15.7,9,15.9,8.7,31.5,17.7c3.5,2,4.8,6.5,2.8,10c-20.1,34.7-20.1,34.7-40.1,69.4c-20.1,34.7-20.4,34.5-40.4,69.3
			c-2,3.5-5.8,4.2-9.4,2.2c-15.7-9-16.4-7.7-32.1-16.8C977.8,386.4,976.9,381.2,978.9,377.7z"/>
		<path class="st1" d="M978.9,377.7c20.1-34.7,20.2-34.6,40.3-69.4c20.1-34.7,19.7-34.9,39.8-69.6c2-3.5,6.5-4.2,10.1-2.1
			c15.7,9,15.9,8.7,31.5,17.7c3.5,2,4.8,6.5,2.8,10c-20.1,34.7-20.1,34.7-40.1,69.4c-20.1,34.7-20.4,34.5-40.4,69.3
			c-2,3.5-5.8,4.2-9.4,2.2c-15.7-9-16.4-7.7-32.1-16.8C977.8,386.4,976.9,381.2,978.9,377.7z"/>
	</g>
	<g>
		<path class="st3" d="M1833.1,433.8c34.6-20,34.3-20.4,68.9-40.4c34.6-20,35.1-19.2,69.7-39.2c3.5-2,7.6-1.4,9.6,2.2
			c9,15.7,9.6,15.4,18.6,31c2,3.5,0.7,8.7-2.8,10.8c-34.6,20-34.5,20.1-69.1,40c-34.6,20-34.9,19.4-69.5,39.4
			c-3.5,2-8.1,0.9-10.2-2.6c-9-15.7-8.7-15.9-17.7-31.5C1828.5,440,1829.6,435.9,1833.1,433.8z"/>
		<path class="st1" d="M1833.1,433.8c34.6-20,34.3-20.4,68.9-40.4c34.6-20,35.1-19.2,69.7-39.2c3.5-2,7.6-1.4,9.6,2.2
			c9,15.7,9.6,15.4,18.6,31c2,3.5,0.7,8.7-2.8,10.8c-34.6,20-34.5,20.1-69.1,40c-34.6,20-34.9,19.4-69.5,39.4
			c-3.5,2-8.1,0.9-10.2-2.6c-9-15.7-8.7-15.9-17.7-31.5C1828.5,440,1829.6,435.9,1833.1,433.8z"/>
	</g>
	<g>
		<path class="st2" d="M170.8,42.2c2.8,0,4.3,4.3,6.3,2.3c1.9-1.9,0.7-3.5,0.7-6.3c0-13.2,0-13.2,0-26.5c0-4.1,1.9-5.5,5.9-5.5
			c17.8,0,17.8-0.9,35.7-0.9c4.1,0,7.6,2.3,7.6,6.3c0,13.2,1.4,13.2,1.4,26.5c0,2.8-3.6,3.6-1.6,5.5c1.9,1.9,2.8,0.7,5.5,0.7
			c37.9,0,37.9-0.3,75.7-0.3s37.9-2.3,75.7-2.3c4.1,0,9.1,5.2,9.1,9.2c0,17.6-2.4,17.6-2.4,35.2c0,4.1-2.7,5.8-6.8,5.8
			c-31,0-31,3.1-62,3.1c-31,0-31-1.1-62-1.1c-31,0-31-1.2-62-1.2c-31,0-31,0-62,0c-31,0-31,0.1-62,0.1c-31,0-31-0.4-62-0.4
			c-4.1,0-6-2.2-6-6.2c0-17.6-0.1-17.6-0.1-35.2c0-4.1,2-6,6.1-6c39.8,0,39.8-1.1,79.6-1.6C131,43,131,42.2,170.8,42.2z"/>
		<path class="st1" d="M170.8,42.2c2.8,0,4.3,4.3,6.3,2.3c1.9-1.9,0.7-3.5,0.7-6.3c0-13.2,0-13.2,0-26.5c0-4.1,1.9-5.5,5.9-5.5
			c17.8,0,17.8-0.9,35.7-0.9c4.1,0,7.6,2.3,7.6,6.3c0,13.2,1.4,13.2,1.4,26.5c0,2.8-3.6,3.6-1.6,5.5c1.9,1.9,2.8,0.7,5.5,0.7
			c37.9,0,37.9-0.3,75.7-0.3s37.9-2.3,75.7-2.3c4.1,0,9.1,5.2,9.1,9.2c0,17.6-2.4,17.6-2.4,35.2c0,4.1-2.7,5.8-6.8,5.8
			c-31,0-31,3.1-62,3.1c-31,0-31-1.1-62-1.1c-31,0-31-1.2-62-1.2c-31,0-31,0-62,0c-31,0-31,0.1-62,0.1c-31,0-31-0.4-62-0.4
			c-4.1,0-6-2.2-6-6.2c0-17.6-0.1-17.6-0.1-35.2c0-4.1,2-6,6.1-6c39.8,0,39.8-1.1,79.6-1.6C131,43,131,42.2,170.8,42.2z"/>
	</g>
	<g>
		<path d="M645,50.6c2.8,0,4.7,3.1,6.7,1.1c1.9-1.9-2.2-3.9-2.2-6.7c0-13,2.9-13,2.9-26c0-4.1,1.5-5.5,5.5-5.5
			c17.5,0,17.5-0.1,35-0.1c4.1,0,6,1.6,6,5.7c0,13,1,13,1,26c0,2.8-1.5,3.4,0.5,5.3c1.9,1.9,2.6-1.2,5.3-1.2
			c38.2,0,38.2,1.6,76.4,1.6s38.2-1.3,76.4-1.3c4.1,0,6.4,4.3,6.4,8.4c0,17.9,0.4,17.9,0.4,35.8c0,4.1-2.7,6.7-6.7,6.7
			c-30.5,0-30.5-1.2-61-1.2c-30.5,0-30.5,3.5-61,3.5c-30.5,0-30.5-2.6-61-2.6c-30.5,0-30.5,2.7-61,2.7c-30.5,0-30.5-3.4-61-3.4
			c-30.5,0-30.5,1.8-61,1.8c-4.1,0-6.1-3.6-6.1-7.6c0-17.9-2.1-17.9-2.1-35.8c0-4.1,4.2-8.6,8.3-8.6c38.1,0,38.1-0.3,76.2-0.3
			C606.9,49,606.9,50.6,645,50.6z"/>
		<path class="st1" d="M645,50.6c2.8,0,4.7,3.1,6.7,1.1c1.9-1.9-2.2-3.9-2.2-6.7c0-13,2.9-13,2.9-26c0-4.1,1.5-5.5,5.5-5.5
			c17.5,0,17.5-0.1,35-0.1c4.1,0,6,1.6,6,5.7c0,13,1,13,1,26c0,2.8-1.5,3.4,0.5,5.3c1.9,1.9,2.6-1.2,5.3-1.2
			c38.2,0,38.2,1.6,76.4,1.6s38.2-1.3,76.4-1.3c4.1,0,6.4,4.3,6.4,8.4c0,17.9,0.4,17.9,0.4,35.8c0,4.1-2.7,6.7-6.7,6.7
			c-30.5,0-30.5-1.2-61-1.2c-30.5,0-30.5,3.5-61,3.5c-30.5,0-30.5-2.6-61-2.6c-30.5,0-30.5,2.7-61,2.7c-30.5,0-30.5-3.4-61-3.4
			c-30.5,0-30.5,1.8-61,1.8c-4.1,0-6.1-3.6-6.1-7.6c0-17.9-2.1-17.9-2.1-35.8c0-4.1,4.2-8.6,8.3-8.6c38.1,0,38.1-0.3,76.2-0.3
			C606.9,49,606.9,50.6,645,50.6z"/>
	</g>
	<g>
		<path class="st2" d="M1133.2,81.7c2.8,0,3.7,1.1,5.7-0.9c1.9-1.9-0.9-2.9-0.9-5.7c0-7.5,1.9-7.5,1.9-15c0-4.1,2.1-6.6,6.2-6.6
			c17.9,0,17.9-0.8,35.9-0.8c4.1,0,6.8,3.4,6.8,7.4c0,7.5-0.1,7.5-0.1,15c0,2.8-1.6,3.8,0.4,5.8c1.9,1.9,3,0.9,5.8,0.9
			c17.9,0,17.9-0.1,35.8-0.1c4.1,0,8.1,2.3,8.1,6.3c0,17.8-0.9,17.8-0.9,35.7c0,4.1-3.1,6.5-7.2,6.5c-30,0-30,1.8-60,1.8
			c-30,0-30-0.5-60-0.5c-30,0-30-0.2-60-0.2c-30,0-30,0.7-60,0.7c-4.1,0-6.8-4.1-6.8-8.2c0-17.8-0.2-17.8-0.2-35.7c0-4.1,3-8,7.1-8
			c35.6,0,35.6,1.1,71.3,1.4C1097.6,81.8,1097.6,81.7,1133.2,81.7z"/>
		<path class="st1" d="M1133.2,81.7c2.8,0,3.7,1.1,5.7-0.9c1.9-1.9-0.9-2.9-0.9-5.7c0-7.5,1.9-7.5,1.9-15c0-4.1,2.1-6.6,6.2-6.6
			c17.9,0,17.9-0.8,35.9-0.8c4.1,0,6.8,3.4,6.8,7.4c0,7.5-0.1,7.5-0.1,15c0,2.8-1.6,3.8,0.4,5.8c1.9,1.9,3,0.9,5.8,0.9
			c17.9,0,17.9-0.1,35.8-0.1c4.1,0,8.1,2.3,8.1,6.3c0,17.8-0.9,17.8-0.9,35.7c0,4.1-3.1,6.5-7.2,6.5c-30,0-30,1.8-60,1.8
			c-30,0-30-0.5-60-0.5c-30,0-30-0.2-60-0.2c-30,0-30,0.7-60,0.7c-4.1,0-6.8-4.1-6.8-8.2c0-17.8-0.2-17.8-0.2-35.7c0-4.1,3-8,7.1-8
			c35.6,0,35.6,1.1,71.3,1.4C1097.6,81.8,1097.6,81.7,1133.2,81.7z"/>
	</g>
	<g>
		<path d="M1806.5,79.6c2.8,0,3.6,2.3,5.5,0.4c1.9-1.9-1.1-2.8-1.1-5.5c0-7.5,0.4-7.5,0.4-15c0-4.1,4-6.7,8.1-6.7
			c18.2,0,18.2-1.6,36.3-1.6c4.1,0,6.5,4.2,6.5,8.3c0,34.7,0.7,34.7,0.7,69.3c0,34.7,0.4,34.7,0.4,69.3s-1.2,34.7-1.2,69.3
			c0,4.1-2.4,6.6-6.4,6.6c-18.2,0-18.2,1.7-36.3,1.7c-4.1,0-6.7-4.3-6.7-8.3c0-32.7-1.6-32.7-1.6-65.5s0.9-32.7,0.9-65.5
			c0-2.8,1.9-3.4-0.1-5.4c-1.9-1.9-2.6,0-5.4,0c-21,0-21-0.3-42.1-0.3c-4.1,0-6.5-3.2-6.5-7.3c0-18.2-0.6-18.2-0.6-36.3
			c0-4.1,3-6.2,7.1-6.2C1785.5,80.8,1785.5,79.6,1806.5,79.6z"/>
		<path class="st1" d="M1806.5,79.6c2.8,0,3.6,2.3,5.5,0.4c1.9-1.9-1.1-2.8-1.1-5.5c0-7.5,0.4-7.5,0.4-15c0-4.1,4-6.7,8.1-6.7
			c18.2,0,18.2-1.6,36.3-1.6c4.1,0,6.5,4.2,6.5,8.3c0,34.7,0.7,34.7,0.7,69.3c0,34.7,0.4,34.7,0.4,69.3s-1.2,34.7-1.2,69.3
			c0,4.1-2.4,6.6-6.4,6.6c-18.2,0-18.2,1.7-36.3,1.7c-4.1,0-6.7-4.3-6.7-8.3c0-32.7-1.6-32.7-1.6-65.5s0.9-32.7,0.9-65.5
			c0-2.8,1.9-3.4-0.1-5.4c-1.9-1.9-2.6,0-5.4,0c-21,0-21-0.3-42.1-0.3c-4.1,0-6.5-3.2-6.5-7.3c0-18.2-0.6-18.2-0.6-36.3
			c0-4.1,3-6.2,7.1-6.2C1785.5,80.8,1785.5,79.6,1806.5,79.6z"/>
	</g>
	<g>
		<path class="st2" d="M1950.9,80.8c2.8,0,2.8,0.5,4.8-1.4c1.9-1.9-0.1-2-0.1-4.8c0-7.4,0.7-7.4,0.7-14.8c0-4.1,3.5-7.7,7.5-7.7
			c18,0,18,0,36.1,0c4.1,0,7,3.7,7,7.7c0,7.4-1,7.4-1,14.8c0,2.8-0.1,3,1.8,5c1.9,1.9,2.2,0.5,5,0.5c20.9,0,20.9-0.8,41.9-0.8
			c4.1,0,8.1,4.1,8.1,8.2c0,17.8-0.8,17.8-0.8,35.6c0,4.1-3.3,8.2-7.3,8.2c-20.9,0-20.9-2.1-41.9-2.1c-2.8,0-3.9-1-5.9,0.9
			c-1.9,1.9,1.7,3.1,1.7,5.9c0,30-1.1,30-1.1,59.9c0,30-1.5,30-1.5,59.9s0.7,30,0.7,59.9c0,4.1-2.6,8.2-6.7,8.2
			c-18,0-18-0.6-36.1-0.6c-4,0-8-3.5-8-7.5c0-30,0.8-30,0.8-59.9c0-30-1.2-30-1.2-59.9s0-30,0-59.9c0-2.8,2.3-2.8,0.3-4.8
			c-1.9-1.9-2-1.3-4.8-1.3c-24.3,0-24.3-0.1-48.5-0.1c-4.1,0-8.4-2.7-8.4-6.7c0-17.8,1.9-17.8,1.9-35.6c0-4.1,2.5-7.9,6.6-7.9
			C1926.6,80.2,1926.6,80.8,1950.9,80.8z"/>
		<path class="st1" d="M1950.9,80.8c2.8,0,2.8,0.5,4.8-1.4c1.9-1.9-0.1-2-0.1-4.8c0-7.4,0.7-7.4,0.7-14.8c0-4.1,3.5-7.7,7.5-7.7
			c18,0,18,0,36.1,0c4.1,0,7,3.7,7,7.7c0,7.4-1,7.4-1,14.8c0,2.8-0.1,3,1.8,5c1.9,1.9,2.2,0.5,5,0.5c20.9,0,20.9-0.8,41.9-0.8
			c4.1,0,8.1,4.1,8.1,8.2c0,17.8-0.8,17.8-0.8,35.6c0,4.1-3.3,8.2-7.3,8.2c-20.9,0-20.9-2.1-41.9-2.1c-2.8,0-3.9-1-5.9,0.9
			c-1.9,1.9,1.7,3.1,1.7,5.9c0,30-1.1,30-1.1,59.9c0,30-1.5,30-1.5,59.9s0.7,30,0.7,59.9c0,4.1-2.6,8.2-6.7,8.2
			c-18,0-18-0.6-36.1-0.6c-4,0-8-3.5-8-7.5c0-30,0.8-30,0.8-59.9c0-30-1.2-30-1.2-59.9s0-30,0-59.9c0-2.8,2.3-2.8,0.3-4.8
			c-1.9-1.9-2-1.3-4.8-1.3c-24.3,0-24.3-0.1-48.5-0.1c-4.1,0-8.4-2.7-8.4-6.7c0-17.8,1.9-17.8,1.9-35.6c0-4.1,2.5-7.9,6.6-7.9
			C1926.6,80.2,1926.6,80.8,1950.9,80.8z"/>
	</g>
	<g>
		<path class="st2" d="M2227.8,67.7c2.8,0,3.1,2.4,5.1,0.5c1.9-1.9-0.6-2.3-0.6-5.1c0-9.9,0.5-9.9,0.5-19.8c0-4.1,3.8-7.7,7.9-7.7
			c17.8,0,17.8,1.4,35.7,1.4c4,0,8.4,2.3,8.4,6.3c0,9.9-1.9,9.9-1.9,19.8c0,2.8-1.3,3.8,0.6,5.7c1.9,1.9,3-1.2,5.7-1.2
			c44.3,0,44.3,0.5,88.7,0.5c4.1,0,6.5,3.8,6.5,7.8c0,17.8,0.3,17.8,0.3,35.7c0,4.1-2.7,8-6.8,8c-29.9,0-29.9-0.5-59.8-0.5
			c-29.9,0-29.9-1-59.8-1c-29.9,0-29.9-0.1-59.8-0.1c-2.8,0-3.2-0.6-5.1,1.4c-1.9,1.9-0.5,2.4-0.5,5.1c0,25.5,0.9,25.5,0.9,51
			c0,4.1-4,7.3-8.1,7.3c-17.6,0-17.6,0.7-35.3,0.7c-4.1,0-7.6-4-7.6-8c0-24.9,1.4-24.9,1.4-49.8s0-24.9,0-49.8
			c0-4.1,2.2-7.4,6.3-7.4C2189.1,67.7,2189.1,67.7,2227.8,67.7z"/>
		<path class="st1" d="M2227.8,67.7c2.8,0,3.1,2.4,5.1,0.5c1.9-1.9-0.6-2.3-0.6-5.1c0-9.9,0.5-9.9,0.5-19.8c0-4.1,3.8-7.7,7.9-7.7
			c17.8,0,17.8,1.4,35.7,1.4c4,0,8.4,2.3,8.4,6.3c0,9.9-1.9,9.9-1.9,19.8c0,2.8-1.3,3.8,0.6,5.7c1.9,1.9,3-1.2,5.7-1.2
			c44.3,0,44.3,0.5,88.7,0.5c4.1,0,6.5,3.8,6.5,7.8c0,17.8,0.3,17.8,0.3,35.7c0,4.1-2.7,8-6.8,8c-29.9,0-29.9-0.5-59.8-0.5
			c-29.9,0-29.9-1-59.8-1c-29.9,0-29.9-0.1-59.8-0.1c-2.8,0-3.2-0.6-5.1,1.4c-1.9,1.9-0.5,2.4-0.5,5.1c0,25.5,0.9,25.5,0.9,51
			c0,4.1-4,7.3-8.1,7.3c-17.6,0-17.6,0.7-35.3,0.7c-4.1,0-7.6-4-7.6-8c0-24.9,1.4-24.9,1.4-49.8s0-24.9,0-49.8
			c0-4.1,2.2-7.4,6.3-7.4C2189.1,67.7,2189.1,67.7,2227.8,67.7z"/>
	</g>
	<g>
		<path d="M2590,101.8c2.8,0,3.8,1.5,5.8-0.5c1.9-1.9,0.2-3,0.2-5.8c0-24.7,0.4-24.7,0.4-49.3c0-4.1,2.3-6.3,6.4-6.3
			c18,0,18-2.3,36.1-2.3c4.1,0,7.4,4.5,7.4,8.5c0,24.7-0.4,24.7-0.4,49.3c0,2.8-2.1,4-0.1,5.9c1.9,1.9,3.2-1.3,5.9-1.3
			c41.6,0,41.6,2,83.2,2c4.1,0,6.5,2.2,6.5,6.3c0,18.2-0.2,18.2-0.2,36.4c0,4.1-2.3,6.3-6.3,6.3c-31.1,0-31.1,2.1-62.2,2.1
			c-31.1,0-31.1,0.1-62.2,0.1c-31.1,0-31.1-2.4-62.2-2.4c-31.1,0-31.1,0-62.2,0c-4.1,0-7.2-2-7.2-6.1c0-18.2-0.1-18.2-0.1-36.4
			c0-4.1,3.2-7.3,7.2-7.3c25.9,0,25.9-1.4,51.8-1.2C2564.1,100.2,2564.1,101.8,2590,101.8z"/>
		<path class="st1" d="M2590,101.8c2.8,0,3.8,1.5,5.8-0.5c1.9-1.9,0.2-3,0.2-5.8c0-24.7,0.4-24.7,0.4-49.3c0-4.1,2.3-6.3,6.4-6.3
			c18,0,18-2.3,36.1-2.3c4.1,0,7.4,4.5,7.4,8.5c0,24.7-0.4,24.7-0.4,49.3c0,2.8-2.1,4-0.1,5.9c1.9,1.9,3.2-1.3,5.9-1.3
			c41.6,0,41.6,2,83.2,2c4.1,0,6.5,2.2,6.5,6.3c0,18.2-0.2,18.2-0.2,36.4c0,4.1-2.3,6.3-6.3,6.3c-31.1,0-31.1,2.1-62.2,2.1
			c-31.1,0-31.1,0.1-62.2,0.1c-31.1,0-31.1-2.4-62.2-2.4c-31.1,0-31.1,0-62.2,0c-4.1,0-7.2-2-7.2-6.1c0-18.2-0.1-18.2-0.1-36.4
			c0-4.1,3.2-7.3,7.2-7.3c25.9,0,25.9-1.4,51.8-1.2C2564.1,100.2,2564.1,101.8,2590,101.8z"/>
	</g>
	<g>
		<path d="M2331.4,357.7c1.4-0.8,2.1,0.2,2.8-1.2c0.8-1.4,1.5-1.5,1.5-3.1c0-33.7-0.5-33.7-0.5-67.5c0-33.7-1.7-33.7-1.7-67.5
			s1.3-33.7,1.3-67.5c0-2,1.2-3.6,3.3-3.6c21.7,0,21.7-0.8,43.4-0.8c2,0,4.9,2.3,4.9,4.4c0,29.1-0.9,29.1-0.9,58.2
			c0,29.1,0.8,29.1,0.8,58.2c0,29.1,0,29.1,0,58.2s-0.9,29.1-0.9,58.2c0,1.3-1,2.3-2.2,2.9c-40.5,23.3-40.8,22.7-81.3,46
			c-38.8,22.4-37.9,23.9-76.6,46.3c-1.7,1-4.6-0.2-5.6-1.9c-10.9-18.8-18.3-16.2-22-37.6c-1.3-7.3,7.8-1,15.2-1
			c7.5,0-7.3,1.6-14.7,1.8c-1-1.8,0-4.2,1.7-5.2c33.1-19.1,33.1-19,66.1-38.3C2298.9,377.7,2298.4,376.8,2331.4,357.7z"/>
		<path class="st1" d="M2331.4,357.7c1.4-0.8,2.1,0.2,2.8-1.2c0.8-1.4,1.5-1.5,1.5-3.1c0-33.7-0.5-33.7-0.5-67.5
			c0-33.7-1.7-33.7-1.7-67.5s1.3-33.7,1.3-67.5c0-2,1.2-3.6,3.3-3.6c21.7,0,21.7-0.8,43.4-0.8c2,0,4.9,2.3,4.9,4.4
			c0,29.1-0.9,29.1-0.9,58.2c0,29.1,0.8,29.1,0.8,58.2c0,29.1,0,29.1,0,58.2s-0.9,29.1-0.9,58.2c0,1.3-1,2.3-2.2,2.9
			c-40.5,23.3-40.8,22.7-81.3,46c-38.8,22.4-37.9,23.9-76.6,46.3c-1.7,1-4.6-0.2-5.6-1.9c-10.9-18.8-18.3-16.2-22-37.6
			c-1.3-7.3,7.8-1,15.2-1c7.5,0-7.3,1.6-14.7,1.8c-1-1.8,0-4.2,1.7-5.2c33.1-19.1,33.1-19,66.1-38.3
			C2298.9,377.7,2298.4,376.8,2331.4,357.7z"/>
	</g>
	<g>
		<path class="st0" d="M2595,357.2c1.4-0.8,0.7-1.8,1.4-3.2c0.8-1.4,1.7-1.3,1.7-2.8c0-41.3-1.7-41.3-1.7-82.5s-0.5-41.3-0.5-82.5
			c0-2,2.7-2.8,4.8-2.8c21.7,0,21.7-0.3,43.4-0.3c2,0,2.6,1,2.6,3c0,32.6,1.2,32.6,1.2,65.2c0,32.6-1.5,32.6-1.5,65.2
			s1.8,32.6,1.8,65.2c0,1.3-0.7,3.3-1.9,4c-26.4,15.2-27.2,13.9-53.6,29.1c-26.4,15.2-25.7,16.4-52.1,31.7
			c-26.4,15.2-27.4,13.5-53.8,28.7c-1.7,1-4.5,2.2-5.5,0.5c-10.9-18.8-9.4-19.7-20.3-38.5c-1-1.8-0.1-2.7,1.6-3.7
			c33.1-19.1,32.4-20.1,65.7-38.8C2561.8,375.9,2562,376.3,2595,357.2z"/>
		<path class="st1" d="M2595,357.2c1.4-0.8,0.7-1.8,1.4-3.2c0.8-1.4,1.7-1.3,1.7-2.8c0-41.3-1.7-41.3-1.7-82.5s-0.5-41.3-0.5-82.5
			c0-2,2.7-2.8,4.8-2.8c21.7,0,21.7-0.3,43.4-0.3c2,0,2.6,1,2.6,3c0,32.6,1.2,32.6,1.2,65.2c0,32.6-1.5,32.6-1.5,65.2
			s1.8,32.6,1.8,65.2c0,1.3-0.7,3.3-1.9,4c-26.4,15.2-27.2,13.9-53.6,29.1c-26.4,15.2-25.7,16.4-52.1,31.7
			c-26.4,15.2-27.4,13.5-53.8,28.7c-1.7,1-4.5,2.2-5.5,0.5c-10.9-18.8-9.4-19.7-20.3-38.5c-1-1.8-0.1-2.7,1.6-3.7
			c33.1-19.1,32.4-20.1,65.7-38.8C2561.8,375.9,2562,376.3,2595,357.2z"/>
	</g>
</g>
<g id="元案">
</g>
</svg>
