<svg width="431" height="59" viewBox="0 0 431 59" fill="none" xmlns="http://www.w3.org/2000/svg">
<path d="M22.04 42.696C22.04 49.464 22.04 50.976 18.872 50.976H15.488V58.752H18.872C29.24 58.752 29.816 54.576 29.816 43.848V16.704H35.216V8.928H29.816V5.04H22.04V8.928H3.824V16.704H18.296C14.84 29.232 9.728 37.224 0.944001 45.504L6.488 50.976C13.904 44.352 18.728 37.368 22.04 29.808V42.696ZM63.7477 8.928L59.3557 15.408L70.1557 22.68L74.4757 16.2L63.7477 8.928ZM86.5717 8.928V18.144H91.0357V8.928H86.5717ZM97.6597 18.144V8.928H93.1237V18.144H97.6597ZM60.1477 22.68L55.8277 29.088L66.5557 36.36L70.9477 29.952L60.1477 22.68ZM63.1717 58.752C80.4517 52.416 90.3877 41.904 94.8517 26.928L87.8677 23.544C83.1877 36.864 77.2117 44.784 59.5717 51.84L63.1717 58.752ZM125.471 33.48V16.704H135.335V29.952C135.335 42.408 130.151 48.384 120.071 51.696L123.383 58.752C133.751 55.656 143.183 47.304 143.183 29.952V16.704H149.591V8.928H143.183V5.04H135.335V8.928H125.471V5.04H117.695V8.928H111.215V16.704H117.695V33.48H125.471ZM194.107 16.704V29.952C194.107 42.408 188.851 48.312 178.843 51.624L182.083 58.752C192.523 55.584 201.883 47.304 201.883 29.952V8.928H190.363V5.04H182.587V8.928H171.283V23.904H179.059V16.704H194.107ZM233.727 58.752C243.087 53.712 248.487 47.304 248.487 29.952V20.592H259.935V12.816H248.487V5.04H240.711V12.816H227.175V20.592H240.711V29.952C240.711 42.408 238.623 47.448 230.487 51.696L233.727 58.752ZM307.258 0.575997V9.792H311.722V0.575997H307.258ZM313.81 0.575997V9.792H318.274V0.575997H313.81ZM295.09 42.624C295.09 49.392 295.09 50.832 291.922 50.832V58.608C302.29 58.608 302.866 54.504 302.866 43.704V20.52H315.322V12.672H302.866V4.896H295.09V12.672H282.634V20.52H295.09V42.624ZM282.634 31.248C282.634 38.592 281.266 43.056 276.586 49.464L283.354 53.208C288.754 46.296 290.41 41.184 290.41 31.248H282.634ZM311.362 53.28L318.922 51.696L314.818 31.248L307.186 32.76L311.362 53.28ZM353.142 58.752H360.918V20.52C364.734 17.136 368.262 13.104 371.07 9.576L364.806 5.04C358.686 13.608 348.606 21.168 337.518 24.552L339.75 31.968C345.15 30.384 349.182 28.656 353.142 26.28V58.752ZM396.722 8.928V16.704H413.498C412.49 34.416 407.522 45.504 394.346 51.696L397.658 58.752C404.786 55.872 410.402 51.408 414.362 44.496L423.506 58.752L430.058 54.576L418.106 35.928C420.338 28.8 421.49 20.016 421.49 8.928H396.722Z" fill="black"/>
</svg>
