<?xml version="1.0" encoding="utf-8"?>
<!-- Generator: Adobe Illustrator 25.2.3, SVG Export Plug-In . SVG Version: 6.00 Build 0)  -->
<svg version="1.1" xmlns="http://www.w3.org/2000/svg" xmlns:xlink="http://www.w3.org/1999/xlink" x="0px" y="0px"
	 viewBox="0 0 768 768" style="enable-background:new 0 0 768 768;" xml:space="preserve">
<style type="text/css">
	.st0{fill:#FFFFFF;}
	.st1{clip-path:url(#SVGID_2_);}
	.st2{fill:#947C59;}
	.st3{enable-background:new    ;}
</style>
<g id="レイヤー_2">
	<g id="レイヤー_3_1_">
		<g>
			<circle class="st0" cx="381.9" cy="383.4" r="383.9"/>
		</g>
	</g>
</g>
<g id="レイヤー_1">
	<g>
		<defs>
			<circle id="SVGID_1_" cx="381.9" cy="383.4" r="383.9"/>
		</defs>
		<clipPath id="SVGID_2_">
			<use xlink:href="#SVGID_1_"  style="overflow:visible;"/>
		</clipPath>
		<g id="レイヤー_1_1_" class="st1">
			<g id="shadow">
				<g transform="translate(0.000000,768.000000) scale(0.100000,-0.100000)">
					<path class="st2" d="M7565.1,0c73.4,0,47,0,104.9,0c64.3,0,2.9,183.6-9,228c-275.8,1373.7-907.7,1599.7-2086.1,2136
						c-208.6,71.2-192.1,228.6-425,329c-237.3,67.1-73.3,403.4-14,577c80.7,48.6,24.5,491.1,116,520
						c460.1,312.2,541.8,1236.1,90,1592c-936.2,455.4-381,1351.4-1817,1142c-712.2-192.5-991.6-618.9-991.9-1279
						c-218.2-442.5-438.5-1122.5-69-1564c207.5-222.3,548.4-190.7,593.9-531c22.5-116.4,152.9-4.1,166-136
						c3.5-112.6,67.4-311.5-90-369c-605.4-488.3-1416.4-732.9-2058-1190.1C608.7,1077.4,634,788.3,417,200
						C321.2-77.1,362.4,0,418.6,0"/>
				</g>
			</g>
			<g id="white">
				<g transform="translate(0.000000,768.000000) scale(0.100000,-0.100000)">
					<path class="st0" d="M7225.1,0c73.4,0,47,0,104.9,0c64.3,0,2.9,183.6-9,228c-275.8,1373.7-907.7,1599.7-2086.1,2136
						c-208.6,71.2-192.1,228.6-425,329c-237.3,67.1-73.3,403.4-14,577c80.7,48.6,24.5,491.1,116,520
						c460.1,312.2,541.8,1236.1,90,1592c-936.2,455.4-381,1351.4-1817,1142c-712.2-192.5-991.6-618.9-991.9-1279
						c-218.2-442.5-438.5-1122.5-69-1564c207.5-222.3,548.4-190.7,593.9-531c22.5-116.4,152.9-4.1,166-136
						c3.5-112.6,67.4-311.5-90-369C2188.6,2156.7,1377.5,1912.1,736,1455C268.7,1077.4,294,788.3,77,200C-18.8-77.1,22.4,0,78.6,0"
						/>
				</g>
			</g>
			<g id="outline">
				<g transform="translate(0.000000,768.000000) scale(0.100000,-0.100000)">
					<path d="M3185,6524c-712.2-192.5-991.6-618.9-991.9-1279c-218.2-442.5-438.5-1122.5-69-1564c207.5-222.3,548.4-190.7,593.9-531
						c22.5-116.4,152.9-4.1,166-136c3.5-112.6,67.4-311.5-90-369c-605.4-488.3-1416.5-732.9-2058-1190
						C268.7,1077.4,294,788.3,77,200c-95.8-277.1-11-237.5,47,14c169.8,456.3,214.2,908.4,632,1205
						c577.3,371.9,1303.9,742,1901,1031c39.1-482.5,515.1-882.3,1028-897c561.1-24.6,1140.2,358.6,1338.1,903
						C6155.9,1813.1,7036.6,1704.3,7271,235c58.1-50.7,15.2-202.3,59.1-235c62,17,2.9,183.6-9,228
						C7045.3,1601.7,6413.4,1827.7,5235,2364c-208.6,71.2-192.1,228.6-425,329c-237.3,67.1-73.3,403.4-14,577
						c80.7,48.6,24.5,491.1,116,520c460.1,312.2,541.8,1236.1,90,1592C4065.8,5837.4,4621,6733.4,3185,6524z M3715,6500
						c446.8,10.6,653.5-503.2,816-852c-187.7,143-574.1,223.5-856,228c-412.8,14.2-883.5-151.7-1155-453
						c240,120.6,511.7,359.2,840,393.9c342.6,75.4,1013.6-58.4,1259-253C4011.1,5677.3,3237.8,5707,2730,5299
						c-394.9-197-605.3-1097.3-498.1-1416c79.3-88.6,84.2-219.9,184.1-310c188-177.8-257.5,96.9-277,154
						c-439.8,700.1-50.8,1614.8,796,1767.9c299,124.2-293.4-39.3-325-69c-157.5-64.1-259.7-172.3-387-233
						c56.4,233.9,15.6,653.2,223,856C2775.5,6386.4,3271.6,6585.8,3715,6500z M4254,5589c87-133.6,183-319.5,296-443
						c113.7-126.2,45.6-106.8,0-82c44.9,25.3-566.5,52.9-530,31.1c0-26,73-38,258-42c405.6,0.1-75.5-37.6-138-183
						c-22.7-47.2-206.5-33-258-61c-28.1-10.2-71.9-31.2-92,4c-271.7,213-919.7-259.8-715-72.1c33.4,103.8,595.5,234.9,625,329
						c-26,34.3-373.6-163-470-174.9c0-0.1-30-15.1-30-15.1c133.3,209.5,258.8,406,479,578C3894.5,5664.1,4071.5,5582.6,4254,5589z
						 M4690,5503c696.6-151.5,717.3-1309.8,265-1603c71.5,286.3,92.9,795.9,19,1046c-21,71.2-156.6,247.5-275,394
						C4635.3,5461.9,4433.4,5603.7,4690,5503z M4503,5043c-7-2-19-2-25,0C4459.8,5049.7,4519.5,5049.8,4503,5043z M4790,4976
						c107.8-33.7,188.5-22.7,131-140c-38.6-99.3-19.2-326.1-105-394c-189.3-282.3-768.7-95.2-710,225
						c43.5,82.7-250.5,71.8-196.9-145c-60.6-624.3-786.7-486.7-887,5c-15.4,49.7-307.9-172.1-342.1-112.1c0,26.1,6,31.1,112,100.1
						c256.5,89.5,350.1,242.8,683,300c281.9,43.2,307.9-109.4,565-20C4338.2,4874.8,4307.4,5098.9,4790,4976z M2910,4660
						c18.3-42.4-86.5-97-64-48C2862.6,4639.1,2922.4,4758.5,2910,4660z M4063,4592c44.9-240,352.5-617.2,207-792
						c161.7,27.1,96,169.9-16,398.9c-39.6,93.6-100.6,202.3,13,126c176.7-96.1,436.9-73.7,568,63c20-312.8,26.1-1135.6-249-1415
						c-192.4-255.4-569-366.2-864.9-239.1c-415.5,203,14.8-91.2,147-100.9c224.4,10.2,659.7,83.4,801.9,387
						c9.7-98.4-106.9-604.4-4-531.1c2.3,49,14.6,18.8,31-0.9c72.6-241-388.3-556.9-596-643c-497.8-257.5-1224.2,140.7-1169,728
						c22.4,73-14.6,480.4-21,627c66.8-68.4,384.2-353.9,489-315c-84.9,101.8-124.1,53.8-270,178.1c-182.3,138.7-313.8,292.1-374,460
						c-2,41-32,50-42,12c-141.4-268.8-608.1,571.6-435,449c250.6-79.6,251.7-18.4,372-264.1c53-16.8-44.5,150.3,0,90
						c45.5-27.1,101.7-203.5,154-170c-12.3,167.2-167.2,590.5-108,710c422.3,251.1,250.8,40.9,534-213c187.3-184,505.6-37.2,653,130
						c64.8,31.5,60.7,301.3,72,374C3999.4,4669.6,4052.8,4706.5,4063,4592z M4930,4047c0-47-44-217-56-217
						C4868.2,3826.5,4875.4,4326.1,4930,4047z M4803,2651c559.4-276.2-481-984.3-803-1036c-562.4-139.4-1233.1,225.5-1292.1,814
						c-19.2,135.8,93.5,163,177,233c21.3-106-2.3-388.8,85-477c298.8-602.3,1180.7-557.1,1574-88c121.2,86.5,349.3,515.9,182,423
						C4650.1,2613.6,4645.3,2769.9,4803,2651z"/>
					<path d="M3746,5075c-53.5-73.9,15.6-69.1,44-4C3802.7,5103.1,3772.1,5119.8,3746,5075z"/>
					<path d="M4465,4939c-515.1-51.6-295.1-683.9,127-588C4964.8,4431.4,4937.8,5100.4,4465,4939z"/>
					<path d="M3425,4776c-448.9-23.1-334-647.4,42-606C3978.7,4213.9,3963.8,4913.2,3425,4776z"/>
					<path d="M2344,3926c3.4-135.7,180.2-424.4,334-268C2351.6,3627.2,2482.2,3880.2,2344,3926z"/>
					<path d="M2487,3893c-4-3-7-40-7-80C2478.5,3583.9,2568.7,3945.7,2487,3893z"/>
					<path d="M3975,3805c-79.4-90.4,57.5-32.3,65,13C4040,3839,4000,3831,3975,3805z"/>
					<path d="M4215,3565c-94.2-21.8-304.8-63.5-383-112C3937.2,3424.7,4775.6,3631.3,4215,3565z"/>
					<path d="M4097,3331c-78-17.4-74.9-51.7,41-35c49,7,67,13,67,24C4205,3338,4156,3342,4097,3331z"/>
				</g>
			</g>
		</g>
		<g class="st1">
			
				<rect x="371.8" y="534.7" transform="matrix(0.9968 -8.049362e-02 8.049362e-02 0.9968 -47.1163 50.6752)" class="st2" width="466.3" height="150"/>
			<g class="st3">
				<path class="st0" d="M425.2,580.3l1.6,19.9l-16.1,1.3l-1.6-19.9L425.2,580.3z M417.4,685.1l-5.9-73.4l16.1-1.3l5.9,73.4
					L417.4,685.1z"/>
				<path class="st0" d="M479.6,680.1l-16.1,1.3l-9.7-119.6l16.1-1.3L474,611c4.6-3.2,10.1-5.2,16.4-5.7
					c19.1-1.5,33.9,11.7,35.8,35.6c1.8,22.4-10.6,37.7-29.8,39.3c-6.3,0.5-12.1-0.5-17.1-3L479.6,680.1z M476.8,644.9
					c1,12,7.5,20,18.4,19.1c10.8-0.9,15.9-9.9,14.9-21.8c-1.1-13.6-7.6-21.7-18.4-20.8C480.8,622.3,475.7,631.3,476.8,644.9z"/>
				<path class="st0" d="M553.1,600.2l16.1-1.3l3.1,38.3c1.1,14.2,4.5,20.3,15.4,19.4c10.8-0.9,13.1-7.4,12-21.6l-3.1-38.3l16.3-1.3
					l3.1,38.3c2,25.1-7.8,37.5-26.9,39c-19.3,1.6-30.8-9.1-32.9-34.2L553.1,600.2z"/>
			</g>
		</g>
	</g>
	<g id="レイヤー_2のコピー">
		<g id="レイヤー_3_2_">
			<g>
				<path class="st2" d="M381.9,24.5c48.5,0,95.5,9.5,139.7,28.2c42.7,18.1,81.1,44,114.1,76.9s58.9,71.4,76.9,114.1
					c18.7,44.2,28.2,91.2,28.2,139.7s-9.5,95.5-28.2,139.7c-18.1,42.7-44,81.1-76.9,114.1s-71.4,58.9-114.1,76.9
					c-44.2,18.7-91.2,28.2-139.7,28.2s-95.5-9.5-139.7-28.2c-42.7-18.1-81.1-44-114.1-76.9s-58.9-71.4-76.9-114.1
					C32.5,478.9,23,431.9,23,383.4s9.5-95.5,28.2-139.7c18.1-42.7,44-81.1,76.9-114.1s71.4-58.9,114.1-76.9
					C286.4,34,333.4,24.5,381.9,24.5 M381.9-0.5C169.9-0.5-2,171.4-2,383.4s171.9,383.9,383.9,383.9s383.9-171.9,383.9-383.9
					S593.9-0.5,381.9-0.5L381.9-0.5z"/>
			</g>
		</g>
	</g>
</g>
</svg>
