<?xml version="1.0" encoding="utf-8"?>
<!-- Generator: Adobe Illustrator 25.2.3, SVG Export Plug-In . SVG Version: 6.00 Build 0)  -->
<svg version="1.1" id="レイヤー_1" xmlns="http://www.w3.org/2000/svg" xmlns:xlink="http://www.w3.org/1999/xlink" x="0px"
	 y="0px" viewBox="0 0 768 768" style="enable-background:new 0 0 768 768;" xml:space="preserve">
<style type="text/css">
	.st0{fill:#FFFFFF;}
	.st1{clip-path:url(#SVGID_2_);}
	.st2{fill:#5972A3;}
	.st3{font-family:'bananaslipplus-90ms-RKSJ-H';}
	.st4{font-size:300px;}
	.st5{enable-background:new    ;}
</style>
<g id="レイヤー_3_6_">
	<g>
		<circle class="st0" cx="383.9" cy="384.2" r="383.9"/>
	</g>
</g>
<g>
	<defs>
		<circle id="SVGID_1_" cx="383.9" cy="384.2" r="383.9"/>
	</defs>
	<clipPath id="SVGID_2_">
		<use xlink:href="#SVGID_1_"  style="overflow:visible;"/>
	</clipPath>
	<g id="レイヤー_1_2_" class="st1">
		<g id="shadow_1_">
			<g transform="translate(0.000000,768.000000) scale(0.100000,-0.100000)">
				<path class="st2" d="M7892,1.5c37.3,65.5-61.9,281-49,411c-15.7,295.4-227.4,464.3-370,707c-316.8,436.6-220.1,761.5-819,1035
					c-457.9,277-919.6,326.1-1389,522c-93.8,102.5-140.4,353.8-264,465c275.9,357,599.8,661,678,1112
					c58.2,248.6,318.1,449.8,224,731c-44.9,227-42.6,592.8-180,785c-30.1,256.2-95.2,519.8-301,669c-214.6,209.3-641.7,105.8-833,32
					c-111.5,166.1-385.2,217.4-615,154c-567.7-192.5-1112.6-964.9-1253.1-1576.9c-16-153,51.6-270.4,118.1-378.1
					c14.8-183.6-38.6-296.2,65-540c54.3-119.7,210.5-399.7,402-381c94.9-570.3,55.8-585.2-246-1059c-708.6-429-1893-336.9-2280-1278
					C709.9,955.4,478,471.7,398.1-0.5"/>
				<path d="M4910,1190.5"/>
			</g>
		</g>
		<g id="white_1_">
			<g transform="translate(0.000000,768.000000) scale(0.100000,-0.100000)">
				<path class="st0" d="M7542,1.5c37.3,65.5-61.9,281-49,411c-15.7,295.4-227.4,464.3-370,707c-316.8,436.6-220.1,761.5-819,1035
					c-457.9,277-919.6,326.1-1389,522c-93.8,102.5-140.4,353.8-264,465c275.9,357,599.8,661,678,1112
					c58.2,248.6,318.1,449.8,224,731c-44.9,227-42.6,592.8-180,785c-30.1,256.2-95.2,519.8-301,669c-214.6,209.3-641.7,105.8-833,32
					c-111.5,166.1-385.2,217.4-615,154c-567.7-192.5-1112.6-964.9-1253.1-1576.9c-16-153,51.6-270.4,118.1-378.1
					c14.8-183.6-38.6-296.2,65-540c54.3-119.7,210.5-399.7,402-381c94.9-570.3,55.8-585.2-246-1059c-708.6-429-1893-336.9-2280-1278
					C359.9,955.4,128,471.7,48.1-0.5"/>
				<path d="M4560,1190.5"/>
			</g>
		</g>
		<g id="outline_1_">
			<g transform="translate(0.000000,768.000000) scale(0.100000,-0.100000)">
				<path d="M3624,6624.5c-567.7-192.5-1112.6-964.9-1253.1-1576.9c-16-153,51.6-270.4,118.1-378.1c14.8-183.6-38.6-296.2,65-540
					c54.3-119.7,210.5-399.7,402-381c94.9-570.3,55.8-585.2-246-1059c-708.6-429-1893-336.9-2280-1278
					C359.9,955.4,132,494.7,52.1,22.5c51.3-87.6,96.3,257.7,117.9,314c47.9,139.4,73,349.8,132,463.1
					C607,314.9,776.3,492.2,970,69.5c177.6-311.8-276.4,1076.4-282,1138c-60.9,235.4-136.5,152.3-84,22c32.7,28.6,15.5,25.2,59-70
					c30.8-135.9,173.5-614.2,240-806c22.6-120.6,20.6-85-74-13c-187,110.6-331.4,267.8-503,490c-5,4,7,49,27,101
					c125.9,263.4,45.5,573.3,287,761c465.8,574,1262.7,327.1,1866,607c134.2,23.5,86.6,81.6,133-170
					c87.2-347.5,238.1-755.5,266.9-1018c206.1-179.4,317.7,471.5,609.1,634c79.5,85.4,143.4,25.3,71-18.9
					c-154.5-152-70.4-2742.6-43-1222c5.4,221,10.5,661.1,11,922c75.5,27.9,366.3,48.9,495,122c7.2-498.9-134.5-1136,0-1549
					c5.9,225.4-33.6,931.1,19.1,1165c30.7,1002.2,214.7-18,479.9-165c172.9,302.8,270.7,934,399,1255
					c373.6-86.8,853.5-195.1,1247-245c206.3,22.6,394.2-203,531-259.1c-281.2,436-1296.6,348.2-1793,551.1
					c30.8,89.1-126.8,426.2,50.9,306.9c468-185.7,894.9-235.2,1318-498c369.6-152.1,456.8-376.9,627-741
					c48.3-129.3,359.9-498,314.1-550c-278.7-261.5-521,1266-397.1,431c407.7-838.3,151.6-352.6-303-936
					c-114.6,34.8,116.3,632.4,177,807c-119,132.6-366.9-1325-235-1082c188.6,214.9,586.8,541.1,885,630
					c69.6-117.4,121.3-664.4,173-668c37.3,65.5-61.9,281-49,411c-15.7,295.4-227.4,464.3-370,707c-316.8,436.6-220.1,761.5-819,1035
					c-457.9,277-919.6,326.1-1389,522c-93.8,102.5-140.4,353.8-264,465c275.9,357,599.8,661,678,1112
					c58.2,248.6,318.1,449.8,224,731c-44.9,227-42.6,592.8-180,785c-30.1,256.2-95.2,519.8-301,669c-214.6,209.3-641.7,105.8-833,32
					C4127.4,6636.6,3853.8,6687.8,3624,6624.5z M3939,5991.5c247.5-111.5,549.9,54.7,781-129c141.1-141.1,55.1-525.4,147-699
					c-67.4,16.8-247.1,35.9-308.1,17c-80.1-81.1,355.5,6.5,368-119c280.3-383.8-198.1,95-445.9-114c-451.5-145.1-264.2,54.9-532,137
					c-180.3,61.5-346.9,31.7-485-64c-29.9-25.8,77.5,123.1,62,165c30.9,129.5,305.9,74.3,418,59c393.5-16.7-370.6,112.9-409,36.9
					C3189.7,5758.9,3321.3,6105,3939,5991.5z M3288,5414.5c121.2-132.6,181-219.8,77-390l-3,40c-19.8,176.4-198.1,247.2-183,446
					C3162.5,5614.1,3232.7,5474.8,3288,5414.5z M4981,5446.5c29-58,32-71,38-202c-7.6-103.8,42-179.9-38-122
					C4869.4,5173.5,4886.5,5661.5,4981,5446.5z M3068,5382.5c-51.4,10.4,222.8-270.3,141.1-303
					C3069.1,5052.3,2967.9,5581.8,3068,5382.5z M3874,5055.5c270-62.5,145.3-233.8,460-196c135-42.8,282.5,134,440,75
					c317.3-39.2,319.5-434.7,41-531c-555-138.4-196.9,572.2-678,390c-68-345.3-626.5-420-674.1-18c-13.8,71-1.5,123.8-84.9,112
					C3149,4898.9,3811.6,5127.2,3874,5055.5z M5019,5043.5c-0.5-20.5-20.7-4.3-20,7C5001.8,5065.5,5020.7,5060.2,5019,5043.5z
					 M3254,4960.5c-3-6-11-11-17-11C3218,4955.1,3275.5,4998.5,3254,4960.5z M3149,4923.5c-218.6-102-193.3,17.7-101,3
					C3093.7,4913.8,3297.3,4977.9,3149,4923.5z M3250,4880.5c6.4-1.9-316.1-157.1-282-84C2959.4,4824.8,3292.6,4956.4,3250,4880.5z
					 M3417,4834.5c-47-421.7,585.3-506.6,716-154c-5.4,125.8,258.4,158.4,241-28c24.9-154.3,84.2-272.7,107-432
					c-16.7-39.2-141.8-115.3-105-151c137.9,53,157.3,194.8,113,329c122-61.3,457-74.6,555,141.1c128.6-265.7,32.9,77.7,75,129.9
					c90.5-706.6-459.1-2039.7-1375-1684c-174.2,18-411.3,382.1-545,423.1c243.5-414.3,901.9-724.5,1312-359c12.7,0.5,79.7,48,100,63
					c-9.1-102.5-23-309.2-26-403c2.9-226.7-484.8-717.6-785-836c-308.1,184.2-782.9,528-815.1,924.9
					c36.8,307.4,99.3,866.3-36.9,1141.1c6.1-587-771.7,738.2-267,761c65.3-16.5,186.2-232.6,231-304c33.7-42.6,39.9,315.2,45,312.9
					c38.3,52.1,254.4,96.5,258,89.1C3255.1,4788.1,3350,4877.5,3417,4834.5z M5244,4095.5c-42.9-196.7-427.3-782.4-265-394
					c194.4,147.2,339.1,662.7,150,273c-68.4-188.7-161.8-221.5-82-58c92.7,112.4,49.5,87,91,221
					C5209.1,4211.3,5359.1,4354.2,5244,4095.5z M2967,2992.5c-211.9-618.6,744.7-953.3,639.1-1136
					c-292.9-78.1-467.3-713.7-663-735.1c-36.5,608-515.1,1005.8-122.1,1668.1C2867.8,2872.1,3036.1,3215.4,2967,2992.5z
					 M4708,2986.5c400.9-562.9-0.5-1313.8-154-1923c-215.8,134.7-245.2,584.3-571.1,673.9c-310,159.8,403,387.4,455,596.1
					C4704.4,2523.4,4577.8,3250,4708,2986.5z M2673,2560.5c-56.1-193.8-52.1-201.3-249-245c-352.5-140.2-818.7-165.2-1210-212
					c468.2,206.3,1000.1,284.2,1450,513.9C2735.3,2673.7,2700.9,2636.6,2673,2560.5z M3744,1843.5c26.8-13.7-98.1-58.3-97-40
					C3587.2,1836,3735.4,1856.6,3744,1843.5z M3881,1768.5c52.7-90.7,317.7-129.8,116-198c-75.7-31.2-423.4-135.6-443-64.1
					C3516.5,1655.1,3755,1886.5,3881,1768.5z M7328,755.5c71.8-80.6-59.5-54.5-134-114c-196-78.8-441.1-291.6-594-429
					c-144.8-183.6-116.2,1.6-34,69C6688.2,430.6,7136.6,833.6,7328,755.5z"/>
				<path d="M3598,5014.5c-291.7-258.9,102.5-675.1,387-413C4277.7,4881.4,3853,5122.6,3598,5014.5z"/>
				<path d="M4579,4874.5c-333.3-181.6,40.4-610.2,310-389C5115.4,4715.4,4845.8,4963.3,4579,4874.5z"/>
				<path d="M2601,4608.5c-67.3,3.5-63.3-329.1-19-329c40.6,46.8-44.2,483.7,134,210c172.1-170.8,13.7-280.6,177-321
					C2836.8,4297.5,2778.7,4638.2,2601,4608.5z"/>
				<path d="M2654,4249.5c-11.1-79.1,185.9-208.4,245-177c-20.4,39.3-71.7,71.8-122,77C2736.3,4139.2,2680.1,4292.7,2654,4249.5z"/>
				<path d="M4045,4170.5c-52.2-74.6,86.1-15.3,102,3C4152,4198.5,4068,4195.5,4045,4170.5z"/>
				<path d="M2642,4133.5c-42.4,13.7,201.1-257.1,227-204C2862.4,3930.6,2647,4195.8,2642,4133.5z"/>
				<path d="M3669,3833.5c-28.8-88.7,547.8-54.7,585-113c22.2-14.5,344.5-64.3,325-17C4362.4,3744.3,3826.3,3844.2,3669,3833.5z"/>
				<path d="M3984,3639.5c-28.8-41.7,178.7-61.3,171-39C4171.6,3636.4,4005.4,3654.3,3984,3639.5z"/>
				<path d="M4468,1308.5c-24.5-59.9,7.8-191.6,92-118C4617.9,1242,4529.4,1385.9,4468,1308.5z M4534,1259.5c7-31,1-50-16-50
					C4476.7,1218.3,4498.8,1347.1,4534,1259.5z"/>
				<path d="M3730,1733.5c-49.7-33.8-45.7-146.8,31-134C3901.5,1590.8,3848,1832.8,3730,1733.5z M3803,1696.5
					c32.1-33-62.1-86.3-64-36C3743.2,1699.1,3780.7,1741.3,3803,1696.5z"/>
				<path d="M293,636.5C430.9,383.4,748.4,186.2,954.9-0.6c41.8,56.4-276.5,265-320.9,330.1C567.8,358.8,292.9,676,293,636.5z"/>
				<path d="M3720,514.5c-95.7-66.9,17.2-199.5,98-119C3901.8,456.3,3799.7,592.8,3720,514.5z M3797,487.5
					c66.2-81.5-126.4-105.1-57-11C3765,502.5,3779,505.5,3797,487.5z"/>
				<path d="M3007.4,1378.2c-35.5-51.9-48.7-185.4,35.6-133.7C3101.4,1280.8,3056.6,1444,3007.4,1378.2z M3048,1340.2
					c5.2-34.4-18.3-72-31.1-68.2C2988.3,1289.8,3025.3,1442.3,3048,1340.2z"/>
			</g>
		</g>
	</g>
	<g id="レイヤー_3_5_" class="st1">
		<text transform="matrix(0.9962 -8.715574e-02 8.715574e-02 0.9962 112.2631 529.7363)" class="st0 st3 st4">I</text>
		<g id="レイヤー_4のコピー_1_">
			<g>
				
					<rect x="74.4" y="62" transform="matrix(0.9987 -5.094416e-02 5.094416e-02 0.9987 -20.6279 8.3992)" class="st2" width="160.1" height="693.6"/>
			</g>
		</g>
		<g class="st5">
			<path class="st0" d="M138.2,454.4l-7.7-151.8l38.3-2c26.8-1.4,46.3,15.7,47.7,44.2s-16.2,47.6-43,49l-17.8,0.9l3,58.6
				L138.2,454.4z M152,322.1l2.7,52.2l17.8-0.9c16.1-0.8,24.3-12.1,23.5-27.5c-0.8-15.2-10.1-25.6-26.2-24.7L152,322.1z"/>
		</g>
		<g class="st5">
			<path class="st0" d="M98.7,458.3l-7.8-151.8l20.5-1l7.7,151.8L98.7,458.3z"/>
		</g>
	</g>
</g>
<g id="レイヤー_2">
	<g id="レイヤー_3_3_">
		<g>
			<path class="st2" d="M383.9,25.2c48.5,0,95.5,9.5,139.7,28.2c42.7,18.1,81.1,44,114.1,76.9c33,33,58.9,71.4,76.9,114.1
				c18.7,44.2,28.2,91.2,28.2,139.7s-9.5,95.5-28.2,139.7c-18.1,42.7-44,81.1-76.9,114.1c-33,33-71.4,58.9-114.1,76.9
				c-44.2,18.7-91.2,28.2-139.7,28.2s-95.5-9.5-139.7-28.2c-42.7-18.1-81.1-44-114.1-76.9s-58.9-71.4-76.9-114.1
				C34.5,479.5,25,432.5,25,384.1s9.5-95.5,28.2-139.7c18.1-42.7,44-81.1,76.9-114.1s71.4-58.9,114.1-76.9
				C288.4,34.6,335.4,25.2,383.9,25.2 M383.9,0.2C171.9,0.2,0,172,0,384.1S171.9,768,383.9,768s383.9-171.9,383.9-383.9
				S595.9,0.2,383.9,0.2L383.9,0.2z"/>
		</g>
	</g>
</g>
</svg>
