<?xml version="1.0" encoding="utf-8"?>
<!-- Generator: Adobe Illustrator 25.2.3, SVG Export Plug-In . SVG Version: 6.00 Build 0)  -->
<svg version="1.1" id="レイヤー_1" xmlns="http://www.w3.org/2000/svg" xmlns:xlink="http://www.w3.org/1999/xlink" x="0px"
	 y="0px" viewBox="0 0 768 768" style="enable-background:new 0 0 768 768;" xml:space="preserve">
<style type="text/css">
	.st0{clip-path:url(#SVGID_2_);fill:#758D71;}
	.st1{clip-path:url(#SVGID_4_);fill:#FFFFFF;}
	.st2{clip-path:url(#SVGID_6_);}
	.st3{clip-path:url(#SVGID_8_);}
	.st4{clip-path:url(#SVGID_10_);}
	.st5{clip-path:url(#SVGID_12_);}
	.st6{clip-path:url(#SVGID_14_);}
	.st7{clip-path:url(#SVGID_16_);}
	.st8{clip-path:url(#SVGID_18_);}
	.st9{clip-path:url(#SVGID_20_);}
	.st10{clip-path:url(#SVGID_22_);}
	.st11{clip-path:url(#SVGID_24_);}
	.st12{clip-path:url(#SVGID_26_);}
	.st13{clip-path:url(#SVGID_28_);}
	.st14{clip-path:url(#SVGID_30_);}
	.st15{clip-path:url(#SVGID_32_);}
	.st16{clip-path:url(#SVGID_34_);}
	.st17{fill:#758D71;}
	.st18{enable-background:new    ;}
	.st19{fill:#FFFFFF;}
	.st20{fill:none;stroke:#758D71;stroke-width:33;stroke-miterlimit:10;}
</style>
<g id="レイヤー_1_1_">
	<g id="shadow_x5F_1">
		<g>
			<g>
				<g>
					<g>
						<g>
							<g>
								<defs>
									<polyline id="SVGID_1_" points="34.3,768 34.3,0 802.3,0 802.3,768 									"/>
								</defs>
								<clipPath id="SVGID_2_">
									<use xlink:href="#SVGID_1_"  style="overflow:visible;"/>
								</clipPath>
								<path class="st0" d="M754.1,768c13,69.4,2.8-78.1-11.8-88.1c-10.9-57.7-19.3-125.1-58.1-173.3c-31-26.2-71.8-41.4-105-64.8
									c6.3-16.6-11.6-23.5-15.1-36.9c-0.5-24.8-25-22.7-37.5-32.9c-2.5-20.2-23.7-15.9-15.1-26.2c10.7-17.8,25.8-36.6,31.9-58.6
									c9.5-13.3,23.4-25.9,21.4-44c-2.7-76.7-57.7-188.5-144.2-190.3C401.3,68.4,387.2,66,372,66.1s-31.6,2.8-55.6,28.6
									c-25.6,24.9-51.3,63.8-61.9,103.3s-6.1,79.6,28.5,107.1c7.9,2.4,11.9,11,14.9,17.9s5.2,12.3,9.6,8
									c23.2,17,6.9,17.6-13.7,24.3s-45.7,19.4-40,60.9c0.8,4,0.4,6.7-1,9s-3.8,4-7.1,5.9c-10.4,4.8-14.6,12-18,19
									s-6,13.8-13.4,17.6c-43.1,16-70.9,39.8-90.6,70c-19.6,30.3-31,67-40.9,109c0.1,19.5-4.1,41-8.4,62s-8.7,41.5-8.9,59
									c13.8,0.3,222.3,0.3,222.3,0.3s90.7,0,112.5,0L754.1,768L754.1,768z"/>
							</g>
						</g>
					</g>
				</g>
			</g>
		</g>
	</g>
	<g id="white">
		<g>
			<g>
				<g>
					<g>
						<g>
							<g>
								<defs>
									<polyline id="SVGID_3_" points="-7,768 -7,0 761,0 761,768 									"/>
								</defs>
								<clipPath id="SVGID_4_">
									<use xlink:href="#SVGID_3_"  style="overflow:visible;"/>
								</clipPath>
								<path class="st1" d="M712.9,768c13,69.4,2.8-78.1-11.8-88.1c-10.9-57.7-19.3-125.1-58.1-173.3c-31-26.2-71.8-41.4-105-64.8
									c6.3-16.6-11.6-23.5-15.1-36.9c-0.5-24.8-25-22.7-37.5-32.9c-2.5-20.2-23.7-15.9-15.1-26.2c10.7-17.8,25.8-36.6,31.9-58.6
									c9.5-13.3,23.4-25.9,21.4-44c-2.7-76.7-57.7-188.5-144.2-190.3C360.1,68.5,346,66,330.8,66.2s-31.6,2.8-55.6,28.6
									c-25.6,24.9-51.3,63.8-61.9,103.3s-6.1,79.6,28.5,107.1c7.9,2.4,11.9,11,14.9,17.9c3,7,5.2,12.3,9.6,8
									c23.2,17,6.9,17.6-13.7,24.3s-45.7,19.4-40,60.9c0.8,4,0.4,6.7-1,9s-3.8,4-7.1,5.9c-10.4,4.8-14.6,12-18,19
									s-6,13.8-13.4,17.6c-43.1,16-70.9,39.8-90.6,70c-19.6,30.3-31,67-40.9,109c0.1,19.5-4.1,41-8.4,62s-8.7,41.5-8.9,59
									C38,768,246.6,768,246.6,768s90.7,0,112.5,0H712.9z"/>
							</g>
						</g>
					</g>
				</g>
			</g>
		</g>
	</g>
	<g id="outline">
		<g>
			<g>
				<g>
					<g>
						<g>
							<g>
								<defs>
									<rect id="SVGID_5_" x="-7" y="0" width="768" height="768"/>
								</defs>
								<clipPath id="SVGID_6_">
									<use xlink:href="#SVGID_5_"  style="overflow:visible;"/>
								</clipPath>
								<path class="st2" d="M379.4,52.9c-38.7,31.1-56.3-9.7-104.2,41.8c-51.2,49.9-102.6,155.5-33.4,210.4
									c15.9,4.7,15.7,34.4,24.5,25.9c46.3,34.1-65,2.2-53.8,85.2c1.6,8-1.5,11.1-8.1,14.9c-20.9,9.5-16.7,29-31.4,36.6
									c-86.1,31.9-111.6,95.1-131.5,179c0.2,38.9-16.8,86-17.3,121c8-15.7,7.9-36.2,14.7-57.6C49,630.3,59.7,528.2,139.7,490.6
									c16-6,35.7-25.6,50.9-23.5c19.6,13.9,43.8,19.3,62.2,35.9c13.6,7.7,36,13,48.1,19.6c6.1,19.1,28.8,1.9,29.5,7.9
									c2,7.4-1.8,15.7-0.6,22.8c4.7,6.4,18.4-1.7,20.6-8c-1.2-8.8,4.3-15.7,3-25.1c6.6,0.7,13.1-2.8,18.4,2.5
									c7.6,4.1-1.7,19.3,9.7,19c12.2,13.6,51.4-0.7,20.8-10c-16.5-11.8-23.5-21.5,1.3-4.1c13.1,1.4,37.1-10.5,48.1-18
									c-0.5,6.3-13.5,13-17.1,17.3c8,10.8,41.9-44.5,47.4-48.6c72.1-43.1,38.2-37.9,112.7,2c99.2,44.3,90.7,174.9,119.8,263.9
									c13,69.4,1.2-54.4-13.4-64.3c-10.9-57.7-19.3-125.1-58.1-173.3c-31-26.2-71.8-41.4-105-64.8c6.3-16.6-11.6-23.5-15.1-36.9
									c-0.5-24.8-25-22.7-37.5-32.9c-2.5-20.2-23.7-15.9-15.1-26.2c10.7-17.8,25.8-36.6,31.9-58.6c9.5-13.3,23.4-25.9,21.4-44
									C520.9,166.6,465.9,54.7,379.4,52.9 M394.9,117.9c42.3,12.5,64.6,56.3,87.4,90.3c-1.4,0.7-4.1-1.5-6.1-2.7
									c-3.2-6.8-46.1-4.9-52.4-3.9c-10,3.6-0.8,7.4,5,5c-3,2.7-4.7,4.7-10.5,6.8c-8.5,3-23.7,3.6-29.3-8.6
									c15.8-2.9-12-11.2-16.7-12.6c-33.9-14.8-54,26.6-88.5,19.4c0.6-13.6,19.1-52.1,27.9-50.7c-1,14.9-14.8,35.8-21.4,44.4
									c10.5-3.2,21.8-16.2,27.2-25.8c10.9-18.4,9.3-69,40.9-57.5C367.7,124.5,382.7,112.9,394.9,117.9 M362,193.7
									c15.8,0.8,23.5,18.7,33,24.4c17.7,10.6,65.2-32.9,86-0.5c-17.7-13.3-47.5-14.1-59.7,8.5c-12.2,44.9,42.9,57,63,21.7
									c-1.4,12.4-20.9,22.4-32.7,25.5c-53.5-1.6-17.8-75.2-58.8-46.9c-3.7,11.5-10.1,28.3-21.4,33.3
									c-69.5,22.3-22.5-58.3-87.7-40.1c-1.3-8.6,26.9-3.7,34.8-6.3C330,202.5,344.4,189.2,362,193.7 M477.5,264.6
									c17.9-26.3,2.1,37.9,3.1,49.1c-4.7,35.9-47.8,63.3-61.7,89.8c8.6-5.5,17-15.8,24.9-22.5c-2.5,17.1,6.1,38.4,0.1,53.3
									c-19.2,19.6-47.4,63.8-74.5,54.7c-13.2,7.4-29.1,9.4-43.9,2.3c-30.6-18.2-55.3-17.9-45.6-62.8c22.1-1.1,6.3-49.5,6.7-67.8
									c2.5-23.2,71.6,76.5,117.2,49.6c2.8-1.3,6.3-2.6,4.4-5.1c0-2.1,5.3-5.6,7.6-6.8c1-4.3-17-1.1-18-0.4
									c-3.3-0.8-7.6-0.7-11.6,1.4c-4.2,2.2-3.5-0.7-10.3,1.5c-27-10.1,12.6,16.4-17.9,1.1c-33.1-22.5-91.9-59.6-88.2-101.5
									c22.3-28.3-8.8-85.2,40.7-78.6c12.7,0.6,7.2,28.5,18.1,35.7c24,21,61.1,4.2,67.1-26c22.4-31,16.9,40.4,23.8,50
									c4.9,8.8-11.1,11.6-3.9,15.2c15.8-3.7,5.6-24.6,3.7-35.4C433.9,280.1,460.6,282.5,477.5,264.6 M245.6,261.2
									c0.2,16.9,14.9,30.1,13.9,43C246.8,300.4,233.6,264.3,245.6,261.2 M253.3,268.6c5.9,3,4.2,9.2,3.8,15.5
									C254.8,282.3,249.2,266.9,253.3,268.6 M262.3,289.8c-0.1,1.6-0.9,0.9-1.5,0C260,288.4,262.3,288.6,262.3,289.8 M280.9,354.9
									c7.6,13.1-22,12-28.5,20.8c-16.3,16.5-12.9,52.1-1,69.1c2,6.8,15.1,12.9,8.9,4c-52-54.6,44.9-128.5,22.8-37.2
									c-17.5,12.9-4.9,0.5-15.9-10.4c-13.3-14.4-6.1,2.8,1.4,7.9c-12.1,48.2,3.1,53,26.3,74.9c-8.4,1.8-9,23.2,0.4,18.3
									c3.5-3.9,11.7,3.6,16.7,5.1c-17.1,20.1-52-7.4-69.7-18.5c-17-12.4-44.2-14.6-54-33.3c2.6-11,22.9-20.3,28.9-29.1
									C213.2,387.1,236.5,349.3,280.9,354.9 M470.5,357.3c7.4,1.5,8.7,6.5,11.7,14.5c8.4,16.7,40,8.7,38.1,35.8
									c10.6,20.3,29,27.9-3.7,44.7c-26.3,20.5-68.3,42.2-92.7,57.8c-6.5-19.6-27.6-12,2.5-22.6c2.4-4-0.8-17.2-6-17.7
									c9.2-15.9,32.5-31.1,35.4-51.3c4.1-50.8-3.3-45.6-4.5,1.8c-2.7,3.2-5.3-33-2.9-40.2C452.3,373.4,461.1,354.1,470.5,357.3
									 M399.1,406.9c-6,3.1-2.9-2.2-0.1-1.4C400.2,406,400.1,406.2,399.1,406.9 M388.9,408.5c-3,1.7-1.2-5,0.2-1.8
									C389.3,407.3,389.2,408.1,388.9,408.5 M381.2,408.9c-2.4,1.5-8.7,0.7-7.6-2.2c-0.4-2,7.8-2.4,8.4,0 M286.3,416.7
									c0,1.5-0.5,5.1-2.1,4.6c-15,1.1-6.8,25.9-9.9,35.5C258.9,446.6,273.3,414.4,286.3,416.7 M416.3,472.3
									c0.4,1.3-13.1,11.3-10.4,5.8C407,477.1,416.5,468.2,416.3,472.3 M421.5,475.5c4.3,3,1.4,15.8-0.2,5.3
									C421.6,478.5,415.9,470.5,421.5,475.5 M418.3,482.5c-7.3,7.5-26.2,21-37.4,14.2C390.8,494.9,414.4,473,418.3,482.5
									 M473.1,487c-13.1,12.7-38.2,33.9-57.2,34.3C432,514.1,463.1,485.6,473.1,487 M312,487.5c14.6,6.8-7.4,2.2-8.1-1.9
									C306.1,484.2,309.3,487.1,312,487.5 M322.8,496.1c41.3,4.7-8.9,12.3-24.2,0.7C293.4,483.9,316.1,497,322.8,496.1
									 M371.3,493.8c5.5,3.9,3.5,17.9-2.3,21C369.1,514.1,365,487.6,371.3,493.8 M364.3,500.7c-3.7,5.8-11.5,18.8-17.3,20.4
									C336.4,520.4,363.4,486.2,364.3,500.7 M411.3,500.6c14.6,6.3,4.3,23.3-8.7,20c-3.5-3-30.5-14.1-21.8-19.3
									c9.6,4.8,31,22.4,32.9,6.1c-4.3-5.9-14.8-1.4-20.7-4C392.7,500.8,406.6,497,411.3,500.6 M347.3,504.3
									c-5.9,9-25.5,5.5-32.9,17c-4.7,7.1-10.2,2.1-7-4.4C315.6,507.1,336.6,504.7,347.3,504.3 M409.3,508.7
									c-0.2,4.3-10.8-0.9-3-0.9C407.3,507.9,408.9,507.9,409.3,508.7 M364.3,511.2c0,2.4-2,5.7-4.5,4.9
									C357.2,515.7,365.9,504.9,364.3,511.2 M382.1,515.9c7.9,11-4.2,8.6-8.8,1.3C376.6,512.2,378.5,508.5,382.1,515.9
									 M341.3,512.8c4.3,1.8-13.5,4.4-13,3.6C328.4,515.2,339.2,510.3,341.3,512.8 M338.3,520.3c-3.8,1.9-31.3,15-20.8,3.8
									C318.8,520.9,341.8,517,338.3,520.3 M349,526.3c6.8,7.1-9.3,5.6-13,6.8C334.8,526.4,343.7,522.5,349,526.3 M393.1,528.3
									c5.1,4.5-9.9,7.4-11.8,8.5C376.6,532.2,390.2,521.4,393.1,528.3 M347.6,540c1.4,6.8-6.2,10.7-11.8,11.5
									C330.3,548.7,345.1,525.9,347.6,540 M408.1,537.6c6.2,6.3-16.2,8.7-18.7,1.9C392.8,535.2,403.7,534.7,408.1,537.6"/>
							</g>
						</g>
					</g>
				</g>
			</g>
			<g>
				<g>
					<g>
						<g>
							<g>
								<defs>
									<rect id="SVGID_7_" x="-7" y="0" width="768" height="768"/>
								</defs>
								<clipPath id="SVGID_8_">
									<use xlink:href="#SVGID_7_"  style="overflow:visible;"/>
								</clipPath>
								<path class="st3" d="M343.2,198.1c-3.6,1.2-5.5,2.7-8.2,6.3c-6.8,9.2-8.4,14.5-8.6,27.2c-0.2,14.7,12,28.6,20.6,29
									c10.6,0.4,21.4-0.7,30.1-8.3c5.9-5.2,8.4-15.7,9.9-23.6c1.5-8.1,1.9-7.4-1.6-13.8c-4.4-8-8.6-11.9-13.8-14.6
									C366.4,197.6,350,196,343.2,198.1"/>
							</g>
						</g>
					</g>
				</g>
			</g>
			<g>
				<g>
					<g>
						<g>
							<g>
								<defs>
									<rect id="SVGID_9_" x="-7" y="0" width="768" height="768"/>
								</defs>
								<clipPath id="SVGID_10_">
									<use xlink:href="#SVGID_9_"  style="overflow:visible;"/>
								</clipPath>
								<path class="st4" d="M380.6,288.8c-2.3,0.9-3.1,3.4-1.5,4.4c0.4,0.2,2.7,0.2,5-0.1c3.1-0.4,4.2-1,4.2-2.3
									C388.3,288,384.8,287.1,380.6,288.8"/>
							</g>
						</g>
					</g>
				</g>
			</g>
			<g>
				<g>
					<g>
						<g>
							<g>
								<defs>
									<rect id="SVGID_11_" x="-7" y="0" width="768" height="768"/>
								</defs>
								<clipPath id="SVGID_12_">
									<use xlink:href="#SVGID_11_"  style="overflow:visible;"/>
								</clipPath>
								<path class="st5" d="M446.6,300.3c-0.3,1-0.1,2.6,0.6,3.7c4.1,6.6,5.3,10.1,4.8,13.8c-0.3,2.7-0.1,4.3,0.9,5.1
									c2.4,1.9,3.5-0.3,3.5-6.6c0-4.8-0.5-6.7-3.4-11.3C449.2,298.8,447.6,297.7,446.6,300.3"/>
							</g>
						</g>
					</g>
				</g>
			</g>
			<g>
				<g>
					<g>
						<g>
							<g>
								<defs>
									<rect id="SVGID_13_" x="-7" y="0" width="768" height="768"/>
								</defs>
								<clipPath id="SVGID_14_">
									<use xlink:href="#SVGID_13_"  style="overflow:visible;"/>
								</clipPath>
								<path class="st6" d="M338.3,304c-2.2,2.4-4,5-4,6c0,3.1,4.9,3.1,5.1-0.1c0-1,0.2-1.1,0.6-0.4c0.7,2,2.4,1.5,5.6-1.5
									c1.7-1.5,2.7-2.2,2.4-1.7c-0.3,0.6-0.2,1.7,0.2,2.4c0.7,1.1,1.3,1.1,3.2,0c1.3-0.6,3.8-1.3,5.6-1.5c1.7-0.2,4.6-1,6.2-1.9
									c2.6-1.3,3.1-1.3,3.1-0.1c0,2,5.2,2.7,7.1,1c1.2-1.1,2.3-1.1,5-0.3c4.2,1.3,11.9,1.2,13.6-0.3c0.7-0.6,1.3-1.9,1.3-3
									c0-1.8-0.5-1.9-3.5-1.4c-2.1,0.4-4.2,0.2-5.5-0.6c-1.6-1.1-2.8-1-6.4,0.3c-2.8,1-4.8,1.3-5.4,0.7s-1.8-0.6-3.1,0.1
									c-1.6,0.9-2.1,0.9-2.1,0c0-0.8-2.3-1-7.5-0.7c-4.5,0.2-7.6-0.1-7.8-0.7c-0.3-0.7-1.5-0.6-3.5,0.2c-1.9,0.6-3.4,0.7-3.8,0.2
									C343.7,299,342.2,299.8,338.3,304"/>
							</g>
						</g>
					</g>
				</g>
			</g>
			<g>
				<g>
					<g>
						<g>
							<g>
								<defs>
									<rect id="SVGID_15_" x="-7" y="0" width="768" height="768"/>
								</defs>
								<clipPath id="SVGID_16_">
									<use xlink:href="#SVGID_15_"  style="overflow:visible;"/>
								</clipPath>
								<path class="st7" d="M324.5,306c-4.4,5.8-6.6,10.4-5.8,12.5c0.9,2.2,3.5,1.4,4.2-1.2c0.3-1.4,2.6-5.1,5-8.2
									c2.5-3.1,4.3-6.2,4.1-6.7C331.1,299.7,328.3,301.1,324.5,306"/>
							</g>
						</g>
					</g>
				</g>
			</g>
			<g>
				<g>
					<g>
						<g>
							<g>
								<defs>
									<rect id="SVGID_17_" x="-7" y="0" width="768" height="768"/>
								</defs>
								<clipPath id="SVGID_18_">
									<use xlink:href="#SVGID_17_"  style="overflow:visible;"/>
								</clipPath>
								<path class="st8" d="M407.2,302.4c-1.6,2-0.3,4.7,2,3.9c1.2-0.3,2.1,0,2.5,1c0.3,1,1.5,1.5,2.8,1.4c1.3-0.2,2.9,0.1,3.7,0.5
									c0.9,0.6,1.8,0.4,2.5-0.7c1.1-1.4,1.4-1.3,3.6,0.4c1.8,1.3,3.4,1.7,5.8,1.3c2.5-0.5,3.2-0.3,3.2,1c0,0.9,0.8,1.6,1.9,1.6
									s2.3,0.5,2.6,1c0.5,0.8,1.1,0.7,2.1-0.1c1.1-0.9,1.4-0.7,1.4,1s0.6,2.1,3.5,2.1c3.3,0,3.5-0.2,3.5-3.4c0-3.2-0.2-3.5-4-4.1
									c-2.2-0.4-4-1.1-4-1.6s-0.9-0.9-1.9-0.9c-1.1,0-2.6-0.7-3.5-1.5c-1.8-1.8-4.6-2-4.6-0.3c0,0.8-0.5,0.6-1-0.4
									c-0.7-1.2-2-1.6-4.5-1.3c-1.9,0.2-3.8-0.1-4.1-0.6c-0.3-0.5-1-0.7-1.5-0.4c-0.5,0.4-0.9,0.2-0.9-0.4
									C418.3,300.4,408.6,300.8,407.2,302.4"/>
							</g>
						</g>
					</g>
				</g>
			</g>
			<g>
				<g>
					<g>
						<g>
							<g>
								<defs>
									<rect id="SVGID_19_" x="-7" y="0" width="768" height="768"/>
								</defs>
								<clipPath id="SVGID_20_">
									<use xlink:href="#SVGID_19_"  style="overflow:visible;"/>
								</clipPath>
								<path class="st9" d="M345.4,317.8c-8.8,0.3-13.6,0.9-13.8,1.6c-0.4,1.1,10.1,8.4,11.9,8.4c0.4,0,2.7,1.9,5,4.1
									c4.3,4.2,16,12.4,20.8,14.5c4.1,1.8,14.2,5.1,19.7,6.5c7.5,1.8,17.3-0.5,29.9-7.3c9.4-5.1,12.7-7.8,22.2-18.3
									c4.8-5.3,5-8,0.5-6.8c-1.6,0.5-13,0.7-25.5,0.6c-18.9-0.2-24.1-0.5-31.3-2.3C375.9,316.7,372.8,316.6,345.4,317.8
									 M388.8,324c5.9,1.3,13.1,1.7,27.3,1.8c11,0,19.2,0.4,19.2,0.9c0,2.4-9.6,10.1-18.4,14.9c-15.6,8.4-21.5,9-37,3.8
									c-10.9-3.7-20.2-9.2-27.8-16.4c-2.6-2.5-6-5.1-7.5-5.7C339.8,321.3,379.1,322,388.8,324"/>
							</g>
						</g>
					</g>
				</g>
			</g>
			<g>
				<g>
					<g>
						<g>
							<g>
								<defs>
									<rect id="SVGID_21_" x="-7" y="0" width="768" height="768"/>
								</defs>
								<clipPath id="SVGID_22_">
									<use xlink:href="#SVGID_21_"  style="overflow:visible;"/>
								</clipPath>
								<path class="st10" d="M377.6,361.5c-2.1,0.8-1.5,3,1,3.6c4.9,1.2,14.8,1.9,18.1,1.3c2.7-0.5,3.6-1.2,3.6-2.6
									c0-1.8-0.7-2-9.4-2c-5.2,0-10-0.2-10.8-0.4C379.4,361.1,378.2,361.2,377.6,361.5"/>
							</g>
						</g>
					</g>
				</g>
			</g>
			<g>
				<g>
					<g>
						<g>
							<g>
								<defs>
									<rect id="SVGID_23_" x="-7" y="0" width="768" height="768"/>
								</defs>
								<clipPath id="SVGID_24_">
									<use xlink:href="#SVGID_23_"  style="overflow:visible;"/>
								</clipPath>
								<path class="st11" d="M404.8,366.6c-0.4,0.4-1.2,0.7-1.8,0.8c-2.3,0.2-5.7,1.6-5.7,2.4c0,0.9-6.1,0.3-11-1
									c-5-1.4-11-0.2-12,2.4c-1.4,3.8-0.2,4.7,6.4,4.7c3.3,0,7.7,0.1,9.6,0.1c6.7,0.1,10.2-0.5,10.7-1.8c0.2-0.7,1.1-1,1.9-0.7
									c2,0.7,6.4-2.4,6.4-4.6C409.3,367.1,406,365.4,404.8,366.6"/>
							</g>
						</g>
					</g>
				</g>
			</g>
			<g>
				<g>
					<g>
						<g>
							<g>
								<defs>
									<rect id="SVGID_25_" x="-7" y="0" width="768" height="768"/>
								</defs>
								<clipPath id="SVGID_26_">
									<use xlink:href="#SVGID_25_"  style="overflow:visible;"/>
								</clipPath>
								<path class="st12" d="M166.8,602c4.3,13.7,5.4,20.7,5.4,34.7c0,14.2,0,14.3-2,12.5c-1.1-1-3.3-4.6-5-8.1
									c-4-8.5-14.3-22-19.2-25.2c-4.2-2.7-8-6.2-10.9-9.9c-2-2.5-4.6-2.9-5.4-0.7c-0.7,1.6,8.3,10.8,13.7,14
									c4.3,2.6,14.1,15.3,17.8,23.2c1.6,3.3,4.7,8.1,6.9,10.5l4,4.4l0.5,25.4c0.5,29.1,1.6,38.1,5.7,48.6c1.6,4,3.4,9.7,3.8,12.6
									c2.9,16.9,4.7,23.8,6.5,23.8c1.1,0,1.7-0.8,1.7-2.3c-0.1-4.4-5.9-30.8-7.9-35.2c-2-4.6-3.1-9.6-5.1-23.5
									c-0.5-4.1-1-25-1.1-46.4c-0.1-34.6-0.3-39.9-2-47.8c-2.2-10-3.5-12.8-6.3-12.8C166.5,599.8,166.2,600.3,166.8,602"/>
							</g>
						</g>
					</g>
				</g>
			</g>
			<g>
				<g>
					<g>
						<g>
							<g>
								<defs>
									<rect id="SVGID_27_" x="-7" y="0" width="768" height="768"/>
								</defs>
								<clipPath id="SVGID_28_">
									<use xlink:href="#SVGID_27_"  style="overflow:visible;"/>
								</clipPath>
								<path class="st13" d="M384.3,609.8c-10.2,0.4-22.3,1.5-27,2.3c-16.2,3-29.2,4-41.6,3.3c-6.7-0.3-17.4-0.3-23.7,0l-11.6,0.7
									l-0.7,6.6c-1.2,10.9,2.9,49.4,5.5,52.3c0.7,0.7,41.6-1.5,56.1-3.1c5.2-0.6,13.1-1.7,17.5-2.5c12.8-2.4,37.3-4.5,46.5-4
									c4.7,0.2,14.8,0.8,22.5,1.3c7.7,0.4,15.6,0.8,17.5,0.7l3.5-0.1l0.8-6c1.1-8.2,0.4-49.2-0.8-50.4
									C447.4,609.5,406.6,608.8,384.3,609.8 M311.3,623.8c1.9,1,4.3,6.4,3.3,7.4s-4.8,0.7-6-0.5c-1.5-1.5-5.9-0.4-6.7,1.6
									c-0.4,1,0.8,2.5,3.7,4.4c7.5,5.2,8,5.9,7.3,9.9c-0.8,4.1-5.1,8.8-9.1,9.8c-1.6,0.4-4.2-0.2-7.2-1.6l-4.6-2.2l2.6-2.6
									c2.5-2.5,2.7-2.5,4.6-0.8c2.3,2.1,4.5,1.6,6.1-1.4c1-1.8,0.7-2.5-2.2-5.3c-1.8-1.8-4.4-3.9-5.7-4.8l-2.5-1.6l1.8-4.7
									C299.4,624.4,306,621,311.3,623.8 M420.3,630.3c1.3,1.2,2,3.1,2,5.6v3.8l-6.7,0.3c-6.2,0.3-6.8,0.5-7.1,2.6
									c-0.4,2.9,2.2,3.9,5.3,1.8c2.6-1.7,7.5-2.2,7.5-0.7c0,1.3-5,6-7.2,6.7c-2.9,0.9-8.3-0.4-10-2.4c-3.9-4.3-3.2-11.5,1.5-16.9
									c2.9-3.3,3.4-3.5,7.9-3.1C416.2,628.3,419.2,629.3,420.3,630.3 M432.3,628.8c0,0.7,0.6,0.7,1.9,0c2.4-1.2,6.1-1.3,6.1-0.1
									c0,2.3-1.4,4.1-3,4.1c-3,0-6.7,5.4-7.5,11c-0.7,4.8-0.8,5-3.7,5H423l0.6-6.5c0.4-3.6,1.2-8.3,1.8-10.5c1.1-3.4,1.6-4,4.1-4
									C431,627.8,432.3,628.3,432.3,628.8 M388.9,629.9c0.4,0.8,0.9,0.8,1.7,0c1.6-1.6,6.3-1.3,8.1,0.5c1.7,1.6,2,10.7,0.7,16.9
									c-0.5,2.6-1.1,3-4.5,3.3l-3.9,0.3l0.7-4c0.3-2.3,0.9-5.9,1.2-8.1c0.6-3.6,0.5-4-1.4-4c-2.8,0-3.9,2.3-4.8,9.8
									c-0.6,5.7-0.9,6.2-3,6.2c-2.3,0-2.4-0.3-2.4-7.3c0-3.9,0.3-8.9,0.6-11c0.6-3.2,1-3.7,3.5-3.7
									C386.9,628.8,388.5,629.3,388.9,629.9 M368.3,632c0,0.9,0.3,0.9,1.2,0c0.7-0.7,2.4-1.2,3.8-1.2c4.2,0,5,1.7,5,11.1
									c0,9.2-0.4,9.9-5.2,9.9c-1.9,0-2-0.5-1.7-7.2c0.3-6.1,0.1-7.3-1.3-7.6c-1.2-0.2-1.9,0.9-2.7,4.8c-0.6,2.8-1.1,6.2-1.1,7.5
									c0,2.1-0.5,2.5-3.1,2.5h-3.1l0.6-8.8c1-11.7,1.2-12.2,4.7-12.2C367,630.8,368.3,631.3,368.3,632 M346.5,640.2
									c-0.3,5.1-0.1,7.6,0.8,8.1c2.3,1.4,4.5-2.4,5-8.8c0.5-6.1,0.5-6.2,3.8-6.5c3.1-0.3,3.2-0.2,3.2,3.5
									c-0.2,10.6-6.4,18.7-13.9,18.1c-4.5-0.4-6.1-3.2-6.1-11s1.1-10.3,4.7-10.5l3-0.2L346.5,640.2z M337,640.5
									c-0.4,3.8-0.7,8.5-0.7,10.5c0,3.3-0.3,3.7-3.2,4.3c-2.1,0.5-3.3,0.4-3.6-0.4c-0.3-0.8-1.9-0.9-5.1-0.5
									c-4.4,0.6-4.9,0.4-7.4-2.6c-1.5-1.7-2.7-3.8-2.7-4.7c0-2.2,2.9-7.9,5-9.8c1.8-1.6,8.5-3.2,14.9-3.4l3.4-0.1L337,640.5z"/>
							</g>
						</g>
					</g>
				</g>
			</g>
			<g>
				<g>
					<g>
						<g>
							<g>
								<defs>
									<rect id="SVGID_29_" x="-7" y="0" width="768" height="768"/>
								</defs>
								<clipPath id="SVGID_30_">
									<use xlink:href="#SVGID_29_"  style="overflow:visible;"/>
								</clipPath>
								<path class="st14" d="M410.3,634.3c-1.2,1.5-1,1.6,2.1,1.3c3.7-0.3,4.6-2.1,1.3-2.6C412.6,632.8,411,633.4,410.3,634.3"/>
							</g>
						</g>
					</g>
				</g>
			</g>
			<g>
				<g>
					<g>
						<g>
							<g>
								<defs>
									<rect id="SVGID_31_" x="-7" y="0" width="768" height="768"/>
								</defs>
								<clipPath id="SVGID_32_">
									<use xlink:href="#SVGID_31_"  style="overflow:visible;"/>
								</clipPath>
								<path class="st15" d="M323.3,641.7c-2.3,4.4-0.2,9.9,3.3,8.5c2.1-0.8,4-5.8,3.2-8.3C329,639.2,324.7,639.1,323.3,641.7"/>
							</g>
						</g>
					</g>
				</g>
			</g>
			<g>
				<g>
					<g>
						<g>
							<g>
								<defs>
									<rect id="SVGID_33_" x="-7" y="0" width="768" height="768"/>
								</defs>
								<clipPath id="SVGID_34_">
									<use xlink:href="#SVGID_33_"  style="overflow:visible;"/>
								</clipPath>
								<path class="st16" d="M565.2,631.2c-2.2,5.1-6.4,28.7-7.9,44.8c-0.6,5.8-1.5,13-2.2,16c-0.7,3.3-1,15-0.9,30.8
									c0.1,26.4,0.5,31.8,2.6,36c0.7,1.5,0.9,3.8,0.5,5.8c-0.7,2.9-0.5,3.2,1.5,3.2c3.8,0,4.7-5.3,1.8-11.1
									c-1.1-2.1-1.9-6.7-2.1-12.1c-0.5-9.7-1.1-8.2,8.8-20.1c3.2-3.8,8.8-12.4,12-18.6c0.7-1.3,2.5-7.3,4.1-13.2
									c3.2-12.3,7.7-22.7,13.8-31.8c4.4-6.7,5.2-9.4,2.4-8.9c-2.4,0.4-10.6,12.7-14.2,21.4c-1.7,3.9-4.4,12.2-6.1,18.4
									c-3.2,11.8-8.6,22.3-15.4,30.1c-1.7,1.9-3.6,4.4-4.2,5.5c-1.7,3-2.8-17.1-1.4-27.1c0.6-4.4,1.7-13.2,2.5-19.5
									c2.1-17.2,6.2-40.9,8.1-46.3C571.7,626.4,568.6,623.6,565.2,631.2"/>
							</g>
						</g>
					</g>
				</g>
			</g>
		</g>
	</g>
</g>
<rect x="-44.5" y="608.1" class="st17" width="421.5" height="101.8"/>
<rect x="-44.5" y="480.2" class="st17" width="373.3" height="101.8"/>
<g class="st18">
	<path class="st19" d="M141.5,531.1v39.2h-17.4v-39.2c0-15.4-3-22.1-14.6-22.1c-11.7,0-14.7,6.7-14.7,22.1v39.2H77.5v-78.6h17.3v5.4
		c4-3.7,9.1-5.4,14.7-5.4C130,491.8,141.5,504.1,141.5,531.1z"/>
	<path class="st19" d="M173.5,491.8h17.3v41c0,15.2,3,21.9,14.7,21.9c11.5,0,14.6-6.7,14.6-21.9v-41h17.4v41
		c0,26.9-11.5,39.2-32,39.2c-20.6,0-32-12.3-32-39.2V491.8z"/>
	<path class="st19" d="M269.5,523.6v-17.3h41.6v17.3H269.5z"/>
</g>
<g class="st18">
	<path class="st19" d="M262.3,660v39.2h-17.4V660c0-15.4-3-22.1-14.6-22.1c-11.7,0-14.7,6.7-14.7,22.1v39.2h-17.3v-78.6h17.3v5.4
		c4-3.7,9.1-5.4,14.7-5.4C250.8,620.6,262.3,632.9,262.3,660z"/>
	<path class="st19" d="M294.3,620.6h17.3v41c0,15.2,3,21.9,14.7,21.9c11.5,0,14.6-6.7,14.6-21.9v-41h17.4v41
		c0,26.9-11.5,39.2-32,39.2c-20.6,0-32-12.3-32-39.2V620.6z"/>
</g>
<g id="レイヤー_3">
	<circle class="st20" cx="382.9" cy="384" r="383.9"/>
	<path class="st19" d="M-197.5-194.4V937.5h1153V-194.4H-197.5z M384.8,769.8C172.8,769.8,0.9,598,0.9,385.9S172.8,2.1,384.8,2.1
		S768.7,174,768.7,386S596.8,769.8,384.8,769.8z"/>
</g>
</svg>
