<?xml version="1.0" encoding="utf-8"?>
<!-- Generator: Adobe Illustrator 25.2.3, SVG Export Plug-In . SVG Version: 6.00 Build 0)  -->
<svg version="1.1" id="レイヤー_1" xmlns="http://www.w3.org/2000/svg" xmlns:xlink="http://www.w3.org/1999/xlink" x="0px"
	 y="0px" viewBox="0 0 768 768" style="enable-background:new 0 0 768 768;" xml:space="preserve">
<style type="text/css">
	.st0{fill:#5972A3;}
	.st1{fill:#FFFFFF;}
	.st2{font-family:'bananaslipplus-90ms-RKSJ-H';}
	.st3{font-size:300px;}
	.st4{enable-background:new    ;}
	.st5{fill:none;stroke:#5972A3;stroke-width:33;stroke-miterlimit:10;}
</style>
<g id="レイヤー_1_1_">
	<g id="shadow">
		<g transform="translate(0.000000,768.000000) scale(0.100000,-0.100000)">
			<path class="st0" d="M7873,2c37.3,65.5-61.9,281-49,411c-15.7,295.4-227.4,464.3-370,707c-316.8,436.6-220.1,761.5-819,1035
				c-457.9,277-919.6,326.1-1389,522c-93.8,102.5-140.4,353.8-264,465c275.9,357,599.8,661,678,1112c58.2,248.6,318.1,449.8,224,731
				c-44.9,227-42.6,592.8-180,785c-30.1,256.2-95.2,519.8-301,669c-214.6,209.3-641.7,105.8-833,32
				c-111.5,166.1-385.2,217.4-615,154c-567.7-192.5-1112.6-964.9-1253.1-1576.9c-16-153,51.6-270.4,118.1-378.1
				c14.8-183.6-38.6-296.2,65-540c54.3-119.7,210.5-399.7,402-381c94.9-570.3,55.8-585.2-246-1059c-708.6-429-1893-336.9-2280-1278
				C690.9,955.9,459,472.2,379.1,0"/>
			<path d="M4891,1191"/>
		</g>
	</g>
	<g id="white">
		<g transform="translate(0.000000,768.000000) scale(0.100000,-0.100000)">
			<path class="st1" d="M7523,2c37.3,65.5-61.9,281-49,411c-15.7,295.4-227.4,464.3-370,707c-316.8,436.6-220.1,761.5-819,1035
				c-457.9,277-919.6,326.1-1389,522c-93.8,102.5-140.4,353.8-264,465c275.9,357,599.8,661,678,1112c58.2,248.6,318.1,449.8,224,731
				c-44.9,227-42.6,592.8-180,785c-30.1,256.2-95.2,519.8-301,669c-214.6,209.3-641.7,105.8-833,32
				c-111.5,166.1-385.2,217.4-615,154c-567.7-192.5-1112.6-964.9-1253.1-1576.9c-16-153,51.6-270.4,118.1-378.1
				c14.8-183.6-38.6-296.2,65-540c54.3-119.7,210.5-399.7,402-381c94.9-570.3,55.8-585.2-246-1059c-708.6-429-1893-336.9-2280-1278
				C340.9,955.9,109,472.2,29.1,0"/>
			<path d="M4541,1191"/>
		</g>
	</g>
	<g id="outline">
		<g transform="translate(0.000000,768.000000) scale(0.100000,-0.100000)">
			<path d="M3605,6625c-567.7-192.5-1112.6-964.9-1253.1-1576.9c-16-153,51.6-270.4,118.1-378.1c14.8-183.6-38.6-296.2,65-540
				c54.3-119.7,210.5-399.7,402-381c94.9-570.3,55.8-585.2-246-1059c-708.6-429-1893-336.9-2280-1278C340.9,955.9,113,495.2,33.1,23
				C84.4-64.6,129.4,280.7,151,337c47.9,139.4,73,349.8,132,463.1C588,315.4,757.3,492.7,951,70c177.6-311.8-276.4,1076.4-282,1138
				c-60.9,235.4-136.5,152.3-84,22c32.7,28.6,15.5,25.2,59-70c30.8-135.9,173.5-614.2,240-806c22.6-120.6,20.6-85-74-13
				C623,451.6,478.6,608.8,307,831c-5,4,7,49,27,101c125.9,263.4,45.5,573.3,287,761c465.8,574,1262.7,327.1,1866,607
				c134.2,23.5,86.6,81.6,133-170c87.2-347.5,238.1-755.5,266.9-1018c206.1-179.4,317.7,471.5,609.1,634
				c79.5,85.4,143.4,25.3,71-18.9c-154.5-152-70.4-2742.6-43-1222c5.4,221,10.5,661.1,11,922c75.5,27.9,366.3,48.9,495,122
				c7.2-498.9-134.5-1136,0-1549c5.9,225.4-33.6,931.1,19.1,1165c30.7,1002.2,214.7-18,479.9-165c172.9,302.8,270.7,934,399,1255
				c373.6-86.8,853.5-195.1,1247-245c206.3,22.6,394.2-203,531-259.1c-281.2,436-1296.6,348.2-1793,551.1
				c30.8,89.1-126.8,426.2,50.9,306.9c468-185.7,894.9-235.2,1318-498c369.6-152.1,456.8-376.9,627-741
				c48.3-129.3,359.9-498,314.1-550c-278.7-261.5-521,1266-397.1,431c407.7-838.3,151.6-352.6-303-936
				c-114.6,34.8,116.3,632.4,177,807c-119,132.6-366.9-1325-235-1082c188.6,214.9,586.8,541.1,885,630
				c69.6-117.4,121.3-664.4,173-668c37.3,65.5-61.9,281-49,411c-15.7,295.4-227.4,464.3-370,707c-316.8,436.6-220.1,761.5-819,1035
				c-457.9,277-919.6,326.1-1389,522c-93.8,102.5-140.4,353.8-264,465c275.9,357,599.8,661,678,1112c58.2,248.6,318.1,449.8,224,731
				c-44.9,227-42.6,592.8-180,785c-30.1,256.2-95.2,519.8-301,669c-214.6,209.3-641.7,105.8-833,32
				C4108.4,6637.1,3834.8,6688.3,3605,6625z M3920,5992c247.5-111.5,549.9,54.7,781-129c141.1-141.1,55.1-525.4,147-699
				c-67.4,16.8-247.1,35.9-308.1,17c-80.1-81.1,355.5,6.5,368-119c280.3-383.8-198.1,95-445.9-114c-451.5-145.1-264.2,54.9-532,137
				c-180.3,61.5-346.9,31.7-485-64c-29.9-25.8,77.5,123.1,62,165c30.9,129.5,305.9,74.3,418,59c393.5-16.7-370.6,112.9-409,36.9
				C3170.7,5759.4,3302.3,6105.5,3920,5992z M3269,5415c121.2-132.6,181-219.8,77-390l-3,40c-19.8,176.4-198.1,247.2-183,446
				C3143.5,5614.6,3213.7,5475.3,3269,5415z M4962,5447c29-58,32-71,38-202c-7.6-103.8,42-179.9-38-122
				C4850.4,5174,4867.5,5662,4962,5447z M3049,5383c-51.4,10.4,222.8-270.3,141.1-303C3050.1,5052.8,2948.9,5582.3,3049,5383z
				 M3855,5056c270-62.5,145.3-233.8,460-196c135-42.8,282.5,134,440,75c317.3-39.2,319.5-434.7,41-531
				c-555-138.4-196.9,572.2-678,390c-68-345.3-626.5-420-674.1-18c-13.8,71-1.5,123.8-84.9,112C3130,4899.4,3792.6,5127.7,3855,5056
				z M5000,5044c-0.5-20.5-20.7-4.3-20,7C4982.8,5066,5001.7,5060.7,5000,5044z M3235,4961c-3-6-11-11-17-11
				C3199,4955.6,3256.5,4999,3235,4961z M3130,4924c-218.6-102-193.3,17.7-101,3C3074.7,4914.3,3278.3,4978.4,3130,4924z M3231,4881
				c6.4-1.9-316.1-157.1-282-84C2940.4,4825.3,3273.6,4956.9,3231,4881z M3398,4835c-47-421.7,585.3-506.6,716-154
				c-5.4,125.8,258.4,158.4,241-28c24.9-154.3,84.2-272.7,107-432c-16.7-39.2-141.8-115.3-105-151c137.9,53,157.3,194.8,113,329
				c122-61.3,457-74.6,555,141.1c128.6-265.7,32.9,77.7,75,129.9c90.5-706.6-459.1-2039.7-1375-1684
				c-174.2,18-411.3,382.1-545,423.1c243.5-414.3,901.9-724.5,1312-359c12.7,0.5,79.7,48,100,63c-9.1-102.5-23-309.2-26-403
				c2.9-226.7-484.8-717.6-785-836c-308.1,184.2-782.9,528-815.1,924.9c36.8,307.4,99.3,866.3-36.9,1141.1
				c6.1-587-771.7,738.2-267,761c65.3-16.5,186.2-232.6,231-304c33.7-42.6,39.9,315.2,45,312.9c38.3,52.1,254.4,96.5,258,89.1
				C3236.1,4788.6,3331,4878,3398,4835z M5225,4096c-42.9-196.7-427.3-782.4-265-394c194.4,147.2,339.1,662.7,150,273
				c-68.4-188.7-161.8-221.5-82-58c92.7,112.4,49.5,87,91,221C5190.1,4211.8,5340.1,4354.7,5225,4096z M2948,2993
				c-211.9-618.6,744.7-953.3,639.1-1136c-292.9-78.1-467.3-713.7-663-735.1c-36.5,608-515.1,1005.8-122.1,1668.1
				C2848.8,2872.6,3017.1,3215.9,2948,2993z M4689,2987c400.9-562.9-0.5-1313.8-154-1923c-215.8,134.7-245.2,584.3-571.1,673.9
				c-310,159.8,403,387.4,455,596.1C4685.4,2523.9,4558.8,3250.5,4689,2987z M2654,2561c-56.1-193.8-52.1-201.3-249-245
				c-352.5-140.2-818.7-165.2-1210-212c468.2,206.3,1000.1,284.2,1450,513.9C2716.3,2674.2,2681.9,2637.1,2654,2561z M3725,1844
				c26.8-13.7-98.1-58.3-97-40C3568.2,1836.5,3716.4,1857.1,3725,1844z M3862,1769c52.7-90.7,317.7-129.8,116-198
				c-75.7-31.2-423.4-135.6-443-64.1C3497.5,1655.6,3736,1887,3862,1769z M7309,756c71.8-80.6-59.5-54.5-134-114
				c-196-78.8-441.1-291.6-594-429c-144.8-183.6-116.2,1.6-34,69C6669.2,431.1,7117.6,834.1,7309,756z"/>
			<path d="M3579,5015c-291.7-258.9,102.5-675.1,387-413C4258.7,4881.9,3834,5123.1,3579,5015z"/>
			<path d="M4560,4875c-333.3-181.6,40.4-610.2,310-389C5096.4,4715.9,4826.8,4963.8,4560,4875z"/>
			<path d="M2582,4609c-67.3,3.5-63.3-329.1-19-329c40.6,46.8-44.2,483.7,134,210c172.1-170.8,13.7-280.6,177-321
				C2817.8,4298,2759.7,4638.7,2582,4609z"/>
			<path d="M2635,4250c-11.1-79.1,185.9-208.4,245-177c-20.4,39.3-71.7,71.8-122,77C2717.3,4139.7,2661.1,4293.2,2635,4250z"/>
			<path d="M4026,4171c-52.2-74.6,86.1-15.3,102,3C4133,4199,4049,4196,4026,4171z"/>
			<path d="M2623,4134c-42.4,13.7,201.1-257.1,227-204C2843.4,3931.1,2628,4196.3,2623,4134z"/>
			<path d="M3650,3834c-28.8-88.7,547.8-54.7,585-113c22.2-14.5,344.5-64.3,325-17C4343.4,3744.8,3807.3,3844.7,3650,3834z"/>
			<path d="M3965,3640c-28.8-41.7,178.7-61.3,171-39C4152.6,3636.9,3986.4,3654.8,3965,3640z"/>
			<path d="M4449,1309c-24.5-59.9,7.8-191.6,92-118C4598.9,1242.5,4510.4,1386.4,4449,1309z M4515,1260c7-31,1-50-16-50
				C4457.7,1218.8,4479.8,1347.6,4515,1260z"/>
			<path d="M3711,1734c-49.7-33.8-45.7-146.8,31-134C3882.5,1591.3,3829,1833.3,3711,1734z M3784,1697c32.1-33-62.1-86.3-64-36
				C3724.2,1699.6,3761.7,1741.8,3784,1697z"/>
			<path d="M274,637C411.9,383.9,729.4,186.7,935.9-0.1C977.7,56.3,659.4,264.9,615,330C548.8,359.3,273.9,676.5,274,637z"/>
			<path d="M3701,515c-95.7-66.9,17.2-199.5,98-119C3882.8,456.8,3780.7,593.3,3701,515z M3778,488c66.2-81.5-126.4-105.1-57-11
				C3746,503,3760,506,3778,488z"/>
			<path d="M2988.4,1378.7c-35.5-51.9-48.7-185.4,35.6-133.7C3082.4,1281.3,3037.6,1444.5,2988.4,1378.7z M3029,1340.7
				c5.2-34.4-18.3-72-31.1-68.2C2969.3,1290.3,3006.3,1442.8,3029,1340.7z"/>
		</g>
	</g>
</g>
<g id="レイヤー_3_1_">
	<text transform="matrix(0.9962 -8.715574e-02 8.715574e-02 0.9962 96.3632 529.6863)" class="st1 st2 st3">I</text>
	<g id="レイヤー_4のコピー">
		<g>
			
				<rect x="58.5" y="62" transform="matrix(0.9987 -5.094409e-02 5.094409e-02 0.9987 -20.6461 7.589)" class="st0" width="160.1" height="693.6"/>
		</g>
	</g>
	<g class="st4">
		<path class="st1" d="M122.3,454.3l-7.7-151.8l38.3-2c26.8-1.4,46.3,15.7,47.7,44.2s-16.2,47.6-43,49l-17.8,0.9l3,58.6L122.3,454.3
			z M136.1,322l2.7,52.2l17.8-0.9c16.1-0.8,24.3-12.1,23.5-27.5c-0.8-15.2-10.1-25.6-26.2-24.7L136.1,322z"/>
	</g>
	<g class="st4">
		<path class="st1" d="M82.8,458.2L75,306.4l20.5-1l7.7,151.8L82.8,458.2z"/>
	</g>
</g>
<g id="レイヤー_2_1_">
	<g id="レイヤー_3">
		<circle class="st5" cx="382" cy="384.1" r="383.9"/>
		<path class="st1" d="M-198.4-194.3V937.6h1153V-194.3H-198.4z M383.9,769.9C171.9,769.9,0,598.1,0,386S171.9,2.2,383.9,2.2
			s383.9,171.9,383.9,383.9S595.9,769.9,383.9,769.9z"/>
	</g>
</g>
</svg>
