<?xml version="1.0" encoding="utf-8"?>
<!-- Generator: Adobe Illustrator 25.2.3, SVG Export Plug-In . SVG Version: 6.00 Build 0)  -->
<svg version="1.1" xmlns="http://www.w3.org/2000/svg" xmlns:xlink="http://www.w3.org/1999/xlink" x="0px" y="0px"
	 viewBox="0 0 768 768" style="enable-background:new 0 0 768 768;" xml:space="preserve">
<style type="text/css">
	.st0{fill:#FFFFFF;}
	.st1{clip-path:url(#SVGID_2_);}
	.st2{clip-path:url(#SVGID_4_);fill:#758D71;}
	.st3{clip-path:url(#SVGID_6_);fill:#FFFFFF;}
	.st4{clip-path:url(#SVGID_8_);}
	.st5{clip-path:url(#SVGID_10_);}
	.st6{clip-path:url(#SVGID_12_);}
	.st7{clip-path:url(#SVGID_14_);}
	.st8{clip-path:url(#SVGID_16_);}
	.st9{clip-path:url(#SVGID_18_);}
	.st10{clip-path:url(#SVGID_20_);}
	.st11{clip-path:url(#SVGID_22_);}
	.st12{clip-path:url(#SVGID_24_);}
	.st13{clip-path:url(#SVGID_26_);}
	.st14{clip-path:url(#SVGID_28_);}
	.st15{clip-path:url(#SVGID_30_);}
	.st16{clip-path:url(#SVGID_32_);}
	.st17{clip-path:url(#SVGID_34_);}
	.st18{clip-path:url(#SVGID_36_);}
	.st19{fill:#758D71;}
	.st20{enable-background:new    ;}
</style>
<g id="レイヤー_2">
	<path class="st0" d="M383.9,767.8C171.9,767.8,0,596,0,384S171.9,0.2,383.9,0.2s383.9,171.9,383.9,383.9S595.9,767.8,383.9,767.8z"
		/>
</g>
<g id="レイヤー_1">
	<g>
		<defs>
			<circle id="SVGID_1_" cx="384.9" cy="384" r="383.9"/>
		</defs>
		<clipPath id="SVGID_2_">
			<use xlink:href="#SVGID_1_"  style="overflow:visible;"/>
		</clipPath>
		<g id="レイヤー_1_1_" class="st1">
			<g id="shadow_x5F_1">
				<g>
					<g>
						<g>
							<g>
								<g>
									<g>
										<g>
											<defs>
												<polyline id="SVGID_3_" points="36.3,768 36.3,0 804.3,0 804.3,768 												"/>
											</defs>
											<clipPath id="SVGID_4_">
												<use xlink:href="#SVGID_3_"  style="overflow:visible;"/>
											</clipPath>
											<path class="st2" d="M756.1,768c13,69.4,2.8-78.1-11.8-88.1c-10.9-57.7-19.3-125.1-58.1-173.3
												c-31-26.2-71.8-41.4-105-64.8c6.3-16.6-11.6-23.5-15.1-36.9c-0.5-24.8-25-22.7-37.5-32.9c-2.5-20.2-23.7-15.9-15.1-26.2
												c10.7-17.8,25.8-36.6,31.9-58.6c9.5-13.3,23.4-25.9,21.4-44c-2.7-76.7-57.7-188.5-144.2-190.3
												C403.3,68.4,389.2,66,374,66.1s-31.6,2.8-55.6,28.6c-25.6,24.9-51.3,63.8-61.9,103.3s-6.1,79.6,28.5,107.1
												c7.9,2.4,11.9,11,14.9,17.9s5.2,12.3,9.6,8c23.2,17,6.9,17.6-13.7,24.3s-45.7,19.4-40,60.9c0.8,4,0.4,6.7-1,9
												s-3.8,4-7.1,5.9c-10.4,4.8-14.6,12-18,19s-6,13.8-13.4,17.6c-43.1,16-70.9,39.8-90.6,70c-19.6,30.3-31,67-40.9,109
												c0.1,19.5-4.1,41-8.4,62s-8.7,41.5-8.9,59c13.8,0.3,222.3,0.3,222.3,0.3s90.7,0,112.5,0L756.1,768L756.1,768z"/>
										</g>
									</g>
								</g>
							</g>
						</g>
					</g>
				</g>
			</g>
			<g id="white">
				<g>
					<g>
						<g>
							<g>
								<g>
									<g>
										<g>
											<defs>
												<polyline id="SVGID_5_" points="-5,768 -5,0 763,0 763,768 												"/>
											</defs>
											<clipPath id="SVGID_6_">
												<use xlink:href="#SVGID_5_"  style="overflow:visible;"/>
											</clipPath>
											<path class="st3" d="M714.9,768c13,69.4,2.8-78.1-11.8-88.1c-10.9-57.7-19.3-125.1-58.1-173.3
												c-31-26.2-71.8-41.4-105-64.8c6.3-16.6-11.6-23.5-15.1-36.9c-0.5-24.8-25-22.7-37.5-32.9c-2.5-20.2-23.7-15.9-15.1-26.2
												c10.7-17.8,25.8-36.6,31.9-58.6c9.5-13.3,23.4-25.9,21.4-44c-2.7-76.7-57.7-188.5-144.2-190.3
												C362.1,68.5,348,66,332.8,66.2s-31.6,2.8-55.6,28.6c-25.6,24.9-51.3,63.8-61.9,103.3s-6.1,79.6,28.5,107.1
												c7.9,2.4,11.9,11,14.9,17.9c3,7,5.2,12.3,9.6,8c23.2,17,6.9,17.6-13.7,24.3s-45.7,19.4-40,60.9c0.8,4,0.4,6.7-1,9
												s-3.8,4-7.1,5.9c-10.4,4.8-14.6,12-18,19s-6,13.8-13.4,17.6c-43.1,16-70.9,39.8-90.6,70c-19.6,30.3-31,67-40.9,109
												c0.1,19.5-4.1,41-8.4,62s-8.7,41.5-8.9,59C40,768,248.6,768,248.6,768s90.7,0,112.5,0H714.9z"/>
										</g>
									</g>
								</g>
							</g>
						</g>
					</g>
				</g>
			</g>
			<g id="outline">
				<g>
					<g>
						<g>
							<g>
								<g>
									<g>
										<g>
											<defs>
												<rect id="SVGID_7_" x="-5" y="0" width="768" height="768"/>
											</defs>
											<clipPath id="SVGID_8_">
												<use xlink:href="#SVGID_7_"  style="overflow:visible;"/>
											</clipPath>
											<path class="st4" d="M381.4,52.9c-38.7,31.1-56.3-9.7-104.2,41.8c-51.2,49.9-102.6,155.5-33.4,210.4
												c15.9,4.7,15.7,34.4,24.5,25.9c46.3,34.1-65,2.2-53.8,85.2c1.6,8-1.5,11.1-8.1,14.9c-20.9,9.5-16.7,29-31.4,36.6
												c-86.1,31.9-111.6,95.1-131.5,179c0.2,38.9-16.8,86-17.3,121c8-15.7,7.9-36.2,14.7-57.6C51,630.3,61.7,528.2,141.7,490.6
												c16-6,35.7-25.6,50.9-23.5c19.6,13.9,43.8,19.3,62.2,35.9c13.6,7.7,36,13,48.1,19.6c6.1,19.1,28.8,1.9,29.5,7.9
												c2,7.4-1.8,15.7-0.6,22.8c4.7,6.4,18.4-1.7,20.6-8c-1.2-8.8,4.3-15.7,3-25.1c6.6,0.7,13.1-2.8,18.4,2.5
												c7.6,4.1-1.7,19.3,9.7,19c12.2,13.6,51.4-0.7,20.8-10c-16.5-11.8-23.5-21.5,1.3-4.1c13.1,1.4,37.1-10.5,48.1-18
												c-0.5,6.3-13.5,13-17.1,17.3c8,10.8,41.9-44.5,47.4-48.6c72.1-43.1,38.2-37.9,112.7,2c99.2,44.3,90.7,174.9,119.8,263.9
												c13,69.4,1.2-54.4-13.4-64.3c-10.9-57.7-19.3-125.1-58.1-173.3c-31-26.2-71.8-41.4-105-64.8
												c6.3-16.6-11.6-23.5-15.1-36.9c-0.5-24.8-25-22.7-37.5-32.9c-2.5-20.2-23.7-15.9-15.1-26.2
												c10.7-17.8,25.8-36.6,31.9-58.6c9.5-13.3,23.4-25.9,21.4-44C522.9,166.6,467.9,54.7,381.4,52.9 M396.9,117.9
												c42.3,12.5,64.6,56.3,87.4,90.3c-1.4,0.7-4.1-1.5-6.1-2.7c-3.2-6.8-46.1-4.9-52.4-3.9c-10,3.6-0.8,7.4,5,5
												c-3,2.7-4.7,4.7-10.5,6.8c-8.5,3-23.7,3.6-29.3-8.6c15.8-2.9-12-11.2-16.7-12.6c-33.9-14.8-54,26.6-88.5,19.4
												c0.6-13.6,19.1-52.1,27.9-50.7c-1,14.9-14.8,35.8-21.4,44.4c10.5-3.2,21.8-16.2,27.2-25.8c10.9-18.4,9.3-69,40.9-57.5
												C369.7,124.5,384.7,112.9,396.9,117.9 M364,193.7c15.8,0.8,23.5,18.7,33,24.4c17.7,10.6,65.2-32.9,86-0.5
												c-17.7-13.3-47.5-14.1-59.7,8.5c-12.2,44.9,42.9,57,63,21.7c-1.4,12.4-20.9,22.4-32.7,25.5
												c-53.5-1.6-17.8-75.2-58.8-46.9c-3.7,11.5-10.1,28.3-21.4,33.3c-69.5,22.3-22.5-58.3-87.7-40.1
												c-1.3-8.6,26.9-3.7,34.8-6.3C332,202.5,346.4,189.2,364,193.7 M479.5,264.6c17.9-26.3,2.1,37.9,3.1,49.1
												c-4.7,35.9-47.8,63.3-61.7,89.8c8.6-5.5,17-15.8,24.9-22.5c-2.5,17.1,6.1,38.4,0.1,53.3c-19.2,19.6-47.4,63.8-74.5,54.7
												c-13.2,7.4-29.1,9.4-43.9,2.3c-30.6-18.2-55.3-17.9-45.6-62.8c22.1-1.1,6.3-49.5,6.7-67.8c2.5-23.2,71.6,76.5,117.2,49.6
												c2.8-1.3,6.3-2.6,4.4-5.1c0-2.1,5.3-5.6,7.6-6.8c1-4.3-17-1.1-18-0.4c-3.3-0.8-7.6-0.7-11.6,1.4
												c-4.2,2.2-3.5-0.7-10.3,1.5c-27-10.1,12.6,16.4-17.9,1.1c-33.1-22.5-91.9-59.6-88.2-101.5c22.3-28.3-8.8-85.2,40.7-78.6
												c12.7,0.6,7.2,28.5,18.1,35.7c24,21,61.1,4.2,67.1-26c22.4-31,16.9,40.4,23.8,50c4.9,8.8-11.1,11.6-3.9,15.2
												c15.8-3.7,5.6-24.6,3.7-35.4C435.9,280.1,462.6,282.5,479.5,264.6 M247.6,261.2c0.2,16.9,14.9,30.1,13.9,43
												C248.8,300.4,235.6,264.3,247.6,261.2 M255.3,268.6c5.9,3,4.2,9.2,3.8,15.5C256.8,282.3,251.2,266.9,255.3,268.6
												 M264.3,289.8c-0.1,1.6-0.9,0.9-1.5,0C262,288.4,264.3,288.6,264.3,289.8 M282.9,354.9c7.6,13.1-22,12-28.5,20.8
												c-16.3,16.5-12.9,52.1-1,69.1c2,6.8,15.1,12.9,8.9,4c-52-54.6,44.9-128.5,22.8-37.2c-17.5,12.9-4.9,0.5-15.9-10.4
												c-13.3-14.4-6.1,2.8,1.4,7.9c-12.1,48.2,3.1,53,26.3,74.9c-8.4,1.8-9,23.2,0.4,18.3c3.5-3.9,11.7,3.6,16.7,5.1
												c-17.1,20.1-52-7.4-69.7-18.5c-17-12.4-44.2-14.6-54-33.3c2.6-11,22.9-20.3,28.9-29.1
												C215.2,387.1,238.5,349.3,282.9,354.9 M472.5,357.3c7.4,1.5,8.7,6.5,11.7,14.5c8.4,16.7,40,8.7,38.1,35.8
												c10.6,20.3,29,27.9-3.7,44.7c-26.3,20.5-68.3,42.2-92.7,57.8c-6.5-19.6-27.6-12,2.5-22.6c2.4-4-0.8-17.2-6-17.7
												c9.2-15.9,32.5-31.1,35.4-51.3c4.1-50.8-3.3-45.6-4.5,1.8c-2.7,3.2-5.3-33-2.9-40.2C454.3,373.4,463.1,354.1,472.5,357.3
												 M401.1,406.9c-6,3.1-2.9-2.2-0.1-1.4C402.2,406,402.1,406.2,401.1,406.9 M390.9,408.5c-3,1.7-1.2-5,0.2-1.8
												C391.3,407.3,391.2,408.1,390.9,408.5 M383.2,408.9c-2.4,1.5-8.7,0.7-7.6-2.2c-0.4-2,7.8-2.4,8.4,0 M288.3,416.7
												c0,1.5-0.5,5.1-2.1,4.6c-15,1.1-6.8,25.9-9.9,35.5C260.9,446.6,275.3,414.4,288.3,416.7 M418.3,472.3
												c0.4,1.3-13.1,11.3-10.4,5.8C409,477.1,418.5,468.2,418.3,472.3 M423.5,475.5c4.3,3,1.4,15.8-0.2,5.3
												C423.6,478.5,417.9,470.5,423.5,475.5 M420.3,482.5c-7.3,7.5-26.2,21-37.4,14.2C392.8,494.9,416.4,473,420.3,482.5
												 M475.1,487c-13.1,12.7-38.2,33.9-57.2,34.3C434,514.1,465.1,485.6,475.1,487 M314,487.5c14.6,6.8-7.4,2.2-8.1-1.9
												C308.1,484.2,311.3,487.1,314,487.5 M324.8,496.1c41.3,4.7-8.9,12.3-24.2,0.7C295.4,483.9,318.1,497,324.8,496.1
												 M373.3,493.8c5.5,3.9,3.5,17.9-2.3,21C371.1,514.1,367,487.6,373.3,493.8 M366.3,500.7c-3.7,5.8-11.5,18.8-17.3,20.4
												C338.4,520.4,365.4,486.2,366.3,500.7 M413.3,500.6c14.6,6.3,4.3,23.3-8.7,20c-3.5-3-30.5-14.1-21.8-19.3
												c9.6,4.8,31,22.4,32.9,6.1c-4.3-5.9-14.8-1.4-20.7-4C394.7,500.8,408.6,497,413.3,500.6 M349.3,504.3
												c-5.9,9-25.5,5.5-32.9,17c-4.7,7.1-10.2,2.1-7-4.4C317.6,507.1,338.6,504.7,349.3,504.3 M411.3,508.7
												c-0.2,4.3-10.8-0.9-3-0.9C409.3,507.9,410.9,507.9,411.3,508.7 M366.3,511.2c0,2.4-2,5.7-4.5,4.9
												C359.2,515.7,367.9,504.9,366.3,511.2 M384.1,515.9c7.9,11-4.2,8.6-8.8,1.3C378.6,512.2,380.5,508.5,384.1,515.9
												 M343.3,512.8c4.3,1.8-13.5,4.4-13,3.6C330.4,515.2,341.2,510.3,343.3,512.8 M340.3,520.3c-3.8,1.9-31.3,15-20.8,3.8
												C320.8,520.9,343.8,517,340.3,520.3 M351,526.3c6.8,7.1-9.3,5.6-13,6.8C336.8,526.4,345.7,522.5,351,526.3 M395.1,528.3
												c5.1,4.5-9.9,7.4-11.8,8.5C378.6,532.2,392.2,521.4,395.1,528.3 M349.6,540c1.4,6.8-6.2,10.7-11.8,11.5
												C332.3,548.7,347.1,525.9,349.6,540 M410.1,537.6c6.2,6.3-16.2,8.7-18.7,1.9C394.8,535.2,405.7,534.7,410.1,537.6"/>
										</g>
									</g>
								</g>
							</g>
						</g>
					</g>
					<g>
						<g>
							<g>
								<g>
									<g>
										<g>
											<defs>
												<rect id="SVGID_9_" x="-5" y="0" width="768" height="768"/>
											</defs>
											<clipPath id="SVGID_10_">
												<use xlink:href="#SVGID_9_"  style="overflow:visible;"/>
											</clipPath>
											<path class="st5" d="M345.2,198.1c-3.6,1.2-5.5,2.7-8.2,6.3c-6.8,9.2-8.4,14.5-8.6,27.2c-0.2,14.7,12,28.6,20.6,29
												c10.6,0.4,21.4-0.7,30.1-8.3c5.9-5.2,8.4-15.7,9.9-23.6c1.5-8.1,1.9-7.4-1.6-13.8c-4.4-8-8.6-11.9-13.8-14.6
												C368.4,197.6,352,196,345.2,198.1"/>
										</g>
									</g>
								</g>
							</g>
						</g>
					</g>
					<g>
						<g>
							<g>
								<g>
									<g>
										<g>
											<defs>
												<rect id="SVGID_11_" x="-5" y="0" width="768" height="768"/>
											</defs>
											<clipPath id="SVGID_12_">
												<use xlink:href="#SVGID_11_"  style="overflow:visible;"/>
											</clipPath>
											<path class="st6" d="M382.6,288.8c-2.3,0.9-3.1,3.4-1.5,4.4c0.4,0.2,2.7,0.2,5-0.1c3.1-0.4,4.2-1,4.2-2.3
												C390.3,288,386.8,287.1,382.6,288.8"/>
										</g>
									</g>
								</g>
							</g>
						</g>
					</g>
					<g>
						<g>
							<g>
								<g>
									<g>
										<g>
											<defs>
												<rect id="SVGID_13_" x="-5" y="0" width="768" height="768"/>
											</defs>
											<clipPath id="SVGID_14_">
												<use xlink:href="#SVGID_13_"  style="overflow:visible;"/>
											</clipPath>
											<path class="st7" d="M448.6,300.3c-0.3,1-0.1,2.6,0.6,3.7c4.1,6.6,5.3,10.1,4.8,13.8c-0.3,2.7-0.1,4.3,0.9,5.1
												c2.4,1.9,3.5-0.3,3.5-6.6c0-4.8-0.5-6.7-3.4-11.3C451.2,298.8,449.6,297.7,448.6,300.3"/>
										</g>
									</g>
								</g>
							</g>
						</g>
					</g>
					<g>
						<g>
							<g>
								<g>
									<g>
										<g>
											<defs>
												<rect id="SVGID_15_" x="-5" y="0" width="768" height="768"/>
											</defs>
											<clipPath id="SVGID_16_">
												<use xlink:href="#SVGID_15_"  style="overflow:visible;"/>
											</clipPath>
											<path class="st8" d="M340.3,304c-2.2,2.4-4,5-4,6c0,3.1,4.9,3.1,5.1-0.1c0-1,0.2-1.1,0.6-0.4c0.7,2,2.4,1.5,5.6-1.5
												c1.7-1.5,2.7-2.2,2.4-1.7c-0.3,0.6-0.2,1.7,0.2,2.4c0.7,1.1,1.3,1.1,3.2,0c1.3-0.6,3.8-1.3,5.6-1.5
												c1.7-0.2,4.6-1,6.2-1.9c2.6-1.3,3.1-1.3,3.1-0.1c0,2,5.2,2.7,7.1,1c1.2-1.1,2.3-1.1,5-0.3c4.2,1.3,11.9,1.2,13.6-0.3
												c0.7-0.6,1.3-1.9,1.3-3c0-1.8-0.5-1.9-3.5-1.4c-2.1,0.4-4.2,0.2-5.5-0.6c-1.6-1.1-2.8-1-6.4,0.3c-2.8,1-4.8,1.3-5.4,0.7
												s-1.8-0.6-3.1,0.1c-1.6,0.9-2.1,0.9-2.1,0c0-0.8-2.3-1-7.5-0.7c-4.5,0.2-7.6-0.1-7.8-0.7c-0.3-0.7-1.5-0.6-3.5,0.2
												c-1.9,0.6-3.4,0.7-3.8,0.2C345.7,299,344.2,299.8,340.3,304"/>
										</g>
									</g>
								</g>
							</g>
						</g>
					</g>
					<g>
						<g>
							<g>
								<g>
									<g>
										<g>
											<defs>
												<rect id="SVGID_17_" x="-5" y="0" width="768" height="768"/>
											</defs>
											<clipPath id="SVGID_18_">
												<use xlink:href="#SVGID_17_"  style="overflow:visible;"/>
											</clipPath>
											<path class="st9" d="M326.5,306c-4.4,5.8-6.6,10.4-5.8,12.5c0.9,2.2,3.5,1.4,4.2-1.2c0.3-1.4,2.6-5.1,5-8.2
												c2.5-3.1,4.3-6.2,4.1-6.7C333.1,299.7,330.3,301.1,326.5,306"/>
										</g>
									</g>
								</g>
							</g>
						</g>
					</g>
					<g>
						<g>
							<g>
								<g>
									<g>
										<g>
											<defs>
												<rect id="SVGID_19_" x="-5" y="0" width="768" height="768"/>
											</defs>
											<clipPath id="SVGID_20_">
												<use xlink:href="#SVGID_19_"  style="overflow:visible;"/>
											</clipPath>
											<path class="st10" d="M409.2,302.4c-1.6,2-0.3,4.7,2,3.9c1.2-0.3,2.1,0,2.5,1c0.3,1,1.5,1.5,2.8,1.4
												c1.3-0.2,2.9,0.1,3.7,0.5c0.9,0.6,1.8,0.4,2.5-0.7c1.1-1.4,1.4-1.3,3.6,0.4c1.8,1.3,3.4,1.7,5.8,1.3
												c2.5-0.5,3.2-0.3,3.2,1c0,0.9,0.8,1.6,1.9,1.6s2.3,0.5,2.6,1c0.5,0.8,1.1,0.7,2.1-0.1c1.1-0.9,1.4-0.7,1.4,1
												s0.6,2.1,3.5,2.1c3.3,0,3.5-0.2,3.5-3.4c0-3.2-0.2-3.5-4-4.1c-2.2-0.4-4-1.1-4-1.6s-0.9-0.9-1.9-0.9
												c-1.1,0-2.6-0.7-3.5-1.5c-1.8-1.8-4.6-2-4.6-0.3c0,0.8-0.5,0.6-1-0.4c-0.7-1.2-2-1.6-4.5-1.3c-1.9,0.2-3.8-0.1-4.1-0.6
												c-0.3-0.5-1-0.7-1.5-0.4c-0.5,0.4-0.9,0.2-0.9-0.4C420.3,300.4,410.6,300.8,409.2,302.4"/>
										</g>
									</g>
								</g>
							</g>
						</g>
					</g>
					<g>
						<g>
							<g>
								<g>
									<g>
										<g>
											<defs>
												<rect id="SVGID_21_" x="-5" y="0" width="768" height="768"/>
											</defs>
											<clipPath id="SVGID_22_">
												<use xlink:href="#SVGID_21_"  style="overflow:visible;"/>
											</clipPath>
											<path class="st11" d="M347.4,317.8c-8.8,0.3-13.6,0.9-13.8,1.6c-0.4,1.1,10.1,8.4,11.9,8.4c0.4,0,2.7,1.9,5,4.1
												c4.3,4.2,16,12.4,20.8,14.5c4.1,1.8,14.2,5.1,19.7,6.5c7.5,1.8,17.3-0.5,29.9-7.3c9.4-5.1,12.7-7.8,22.2-18.3
												c4.8-5.3,5-8,0.5-6.8c-1.6,0.5-13,0.7-25.5,0.6c-18.9-0.2-24.1-0.5-31.3-2.3C377.9,316.7,374.8,316.6,347.4,317.8
												 M390.8,324c5.9,1.3,13.1,1.7,27.3,1.8c11,0,19.2,0.4,19.2,0.9c0,2.4-9.6,10.1-18.4,14.9c-15.6,8.4-21.5,9-37,3.8
												c-10.9-3.7-20.2-9.2-27.8-16.4c-2.6-2.5-6-5.1-7.5-5.7C341.8,321.3,381.1,322,390.8,324"/>
										</g>
									</g>
								</g>
							</g>
						</g>
					</g>
					<g>
						<g>
							<g>
								<g>
									<g>
										<g>
											<defs>
												<rect id="SVGID_23_" x="-5" y="0" width="768" height="768"/>
											</defs>
											<clipPath id="SVGID_24_">
												<use xlink:href="#SVGID_23_"  style="overflow:visible;"/>
											</clipPath>
											<path class="st12" d="M379.6,361.5c-2.1,0.8-1.5,3,1,3.6c4.9,1.2,14.8,1.9,18.1,1.3c2.7-0.5,3.6-1.2,3.6-2.6
												c0-1.8-0.7-2-9.4-2c-5.2,0-10-0.2-10.8-0.4C381.4,361.1,380.2,361.2,379.6,361.5"/>
										</g>
									</g>
								</g>
							</g>
						</g>
					</g>
					<g>
						<g>
							<g>
								<g>
									<g>
										<g>
											<defs>
												<rect id="SVGID_25_" x="-5" y="0" width="768" height="768"/>
											</defs>
											<clipPath id="SVGID_26_">
												<use xlink:href="#SVGID_25_"  style="overflow:visible;"/>
											</clipPath>
											<path class="st13" d="M406.8,366.6c-0.4,0.4-1.2,0.7-1.8,0.8c-2.3,0.2-5.7,1.6-5.7,2.4c0,0.9-6.1,0.3-11-1
												c-5-1.4-11-0.2-12,2.4c-1.4,3.8-0.2,4.7,6.4,4.7c3.3,0,7.7,0.1,9.6,0.1c6.7,0.1,10.2-0.5,10.7-1.8c0.2-0.7,1.1-1,1.9-0.7
												c2,0.7,6.4-2.4,6.4-4.6C411.3,367.1,408,365.4,406.8,366.6"/>
										</g>
									</g>
								</g>
							</g>
						</g>
					</g>
					<g>
						<g>
							<g>
								<g>
									<g>
										<g>
											<defs>
												<rect id="SVGID_27_" x="-5" y="0" width="768" height="768"/>
											</defs>
											<clipPath id="SVGID_28_">
												<use xlink:href="#SVGID_27_"  style="overflow:visible;"/>
											</clipPath>
											<path class="st14" d="M168.8,602c4.3,13.7,5.4,20.7,5.4,34.7c0,14.2,0,14.3-2,12.5c-1.1-1-3.3-4.6-5-8.1
												c-4-8.5-14.3-22-19.2-25.2c-4.2-2.7-8-6.2-10.9-9.9c-2-2.5-4.6-2.9-5.4-0.7c-0.7,1.6,8.3,10.8,13.7,14
												c4.3,2.6,14.1,15.3,17.8,23.2c1.6,3.3,4.7,8.1,6.9,10.5l4,4.4l0.5,25.4c0.5,29.1,1.6,38.1,5.7,48.6
												c1.6,4,3.4,9.7,3.8,12.6c2.9,16.9,4.7,23.8,6.5,23.8c1.1,0,1.7-0.8,1.7-2.3c-0.1-4.4-5.9-30.8-7.9-35.2
												c-2-4.6-3.1-9.6-5.1-23.5c-0.5-4.1-1-25-1.1-46.4c-0.1-34.6-0.3-39.9-2-47.8c-2.2-10-3.5-12.8-6.3-12.8
												C168.5,599.8,168.2,600.3,168.8,602"/>
										</g>
									</g>
								</g>
							</g>
						</g>
					</g>
					<g>
						<g>
							<g>
								<g>
									<g>
										<g>
											<defs>
												<rect id="SVGID_29_" x="-5" y="0" width="768" height="768"/>
											</defs>
											<clipPath id="SVGID_30_">
												<use xlink:href="#SVGID_29_"  style="overflow:visible;"/>
											</clipPath>
											<path class="st15" d="M386.3,609.8c-10.2,0.4-22.3,1.5-27,2.3c-16.2,3-29.2,4-41.6,3.3c-6.7-0.3-17.4-0.3-23.7,0
												l-11.6,0.7l-0.7,6.6c-1.2,10.9,2.9,49.4,5.5,52.3c0.7,0.7,41.6-1.5,56.1-3.1c5.2-0.6,13.1-1.7,17.5-2.5
												c12.8-2.4,37.3-4.5,46.5-4c4.7,0.2,14.8,0.8,22.5,1.3c7.7,0.4,15.6,0.8,17.5,0.7l3.5-0.1l0.8-6
												c1.1-8.2,0.4-49.2-0.8-50.4C449.4,609.5,408.6,608.8,386.3,609.8 M313.3,623.8c1.9,1,4.3,6.4,3.3,7.4s-4.8,0.7-6-0.5
												c-1.5-1.5-5.9-0.4-6.7,1.6c-0.4,1,0.8,2.5,3.7,4.4c7.5,5.2,8,5.9,7.3,9.9c-0.8,4.1-5.1,8.8-9.1,9.8
												c-1.6,0.4-4.2-0.2-7.2-1.6l-4.6-2.2l2.6-2.6c2.5-2.5,2.7-2.5,4.6-0.8c2.3,2.1,4.5,1.6,6.1-1.4c1-1.8,0.7-2.5-2.2-5.3
												c-1.8-1.8-4.4-3.9-5.7-4.8l-2.5-1.6l1.8-4.7C301.4,624.4,308,621,313.3,623.8 M422.3,630.3c1.3,1.2,2,3.1,2,5.6v3.8
												l-6.7,0.3c-6.2,0.3-6.8,0.5-7.1,2.6c-0.4,2.9,2.2,3.9,5.3,1.8c2.6-1.7,7.5-2.2,7.5-0.7c0,1.3-5,6-7.2,6.7
												c-2.9,0.9-8.3-0.4-10-2.4c-3.9-4.3-3.2-11.5,1.5-16.9c2.9-3.3,3.4-3.5,7.9-3.1C418.2,628.3,421.2,629.3,422.3,630.3
												 M434.3,628.8c0,0.7,0.6,0.7,1.9,0c2.4-1.2,6.1-1.3,6.1-0.1c0,2.3-1.4,4.1-3,4.1c-3,0-6.7,5.4-7.5,11
												c-0.7,4.8-0.8,5-3.7,5H425l0.6-6.5c0.4-3.6,1.2-8.3,1.8-10.5c1.1-3.4,1.6-4,4.1-4C433,627.8,434.3,628.3,434.3,628.8
												 M390.9,629.9c0.4,0.8,0.9,0.8,1.7,0c1.6-1.6,6.3-1.3,8.1,0.5c1.7,1.6,2,10.7,0.7,16.9c-0.5,2.6-1.1,3-4.5,3.3l-3.9,0.3
												l0.7-4c0.3-2.3,0.9-5.9,1.2-8.1c0.6-3.6,0.5-4-1.4-4c-2.8,0-3.9,2.3-4.8,9.8c-0.6,5.7-0.9,6.2-3,6.2
												c-2.3,0-2.4-0.3-2.4-7.3c0-3.9,0.3-8.9,0.6-11c0.6-3.2,1-3.7,3.5-3.7C388.9,628.8,390.5,629.3,390.9,629.9 M370.3,632
												c0,0.9,0.3,0.9,1.2,0c0.7-0.7,2.4-1.2,3.8-1.2c4.2,0,5,1.7,5,11.1c0,9.2-0.4,9.9-5.2,9.9c-1.9,0-2-0.5-1.7-7.2
												c0.3-6.1,0.1-7.3-1.3-7.6c-1.2-0.2-1.9,0.9-2.7,4.8c-0.6,2.8-1.1,6.2-1.1,7.5c0,2.1-0.5,2.5-3.1,2.5h-3.1l0.6-8.8
												c1-11.7,1.2-12.2,4.7-12.2C369,630.8,370.3,631.3,370.3,632 M348.5,640.2c-0.3,5.1-0.1,7.6,0.8,8.1
												c2.3,1.4,4.5-2.4,5-8.8c0.5-6.1,0.5-6.2,3.8-6.5c3.1-0.3,3.2-0.2,3.2,3.5c-0.2,10.6-6.4,18.7-13.9,18.1
												c-4.5-0.4-6.1-3.2-6.1-11s1.1-10.3,4.7-10.5l3-0.2L348.5,640.2z M339,640.5c-0.4,3.8-0.7,8.5-0.7,10.5
												c0,3.3-0.3,3.7-3.2,4.3c-2.1,0.5-3.3,0.4-3.6-0.4c-0.3-0.8-1.9-0.9-5.1-0.5c-4.4,0.6-4.9,0.4-7.4-2.6
												c-1.5-1.7-2.7-3.8-2.7-4.7c0-2.2,2.9-7.9,5-9.8c1.8-1.6,8.5-3.2,14.9-3.4l3.4-0.1L339,640.5z"/>
										</g>
									</g>
								</g>
							</g>
						</g>
					</g>
					<g>
						<g>
							<g>
								<g>
									<g>
										<g>
											<defs>
												<rect id="SVGID_31_" x="-5" y="0" width="768" height="768"/>
											</defs>
											<clipPath id="SVGID_32_">
												<use xlink:href="#SVGID_31_"  style="overflow:visible;"/>
											</clipPath>
											<path class="st16" d="M412.3,634.3c-1.2,1.5-1,1.6,2.1,1.3c3.7-0.3,4.6-2.1,1.3-2.6C414.6,632.8,413,633.4,412.3,634.3"
												/>
										</g>
									</g>
								</g>
							</g>
						</g>
					</g>
					<g>
						<g>
							<g>
								<g>
									<g>
										<g>
											<defs>
												<rect id="SVGID_33_" x="-5" y="0" width="768" height="768"/>
											</defs>
											<clipPath id="SVGID_34_">
												<use xlink:href="#SVGID_33_"  style="overflow:visible;"/>
											</clipPath>
											<path class="st17" d="M325.3,641.7c-2.3,4.4-0.2,9.9,3.3,8.5c2.1-0.8,4-5.8,3.2-8.3C331,639.2,326.7,639.1,325.3,641.7"
												/>
										</g>
									</g>
								</g>
							</g>
						</g>
					</g>
					<g>
						<g>
							<g>
								<g>
									<g>
										<g>
											<defs>
												<rect id="SVGID_35_" x="-5" y="0" width="768" height="768"/>
											</defs>
											<clipPath id="SVGID_36_">
												<use xlink:href="#SVGID_35_"  style="overflow:visible;"/>
											</clipPath>
											<path class="st18" d="M567.2,631.2c-2.2,5.1-6.4,28.7-7.9,44.8c-0.6,5.8-1.5,13-2.2,16c-0.7,3.3-1,15-0.9,30.8
												c0.1,26.4,0.5,31.8,2.6,36c0.7,1.5,0.9,3.8,0.5,5.8c-0.7,2.9-0.5,3.2,1.5,3.2c3.8,0,4.7-5.3,1.8-11.1
												c-1.1-2.1-1.9-6.7-2.1-12.1c-0.5-9.7-1.1-8.2,8.8-20.1c3.2-3.8,8.8-12.4,12-18.6c0.7-1.3,2.5-7.3,4.1-13.2
												c3.2-12.3,7.7-22.7,13.8-31.8c4.4-6.7,5.2-9.4,2.4-8.9c-2.4,0.4-10.6,12.7-14.2,21.4c-1.7,3.9-4.4,12.2-6.1,18.4
												c-3.2,11.8-8.6,22.3-15.4,30.1c-1.7,1.9-3.6,4.4-4.2,5.5c-1.7,3-2.8-17.1-1.4-27.1c0.6-4.4,1.7-13.2,2.5-19.5
												c2.1-17.2,6.2-40.9,8.1-46.3C573.7,626.4,570.6,623.6,567.2,631.2"/>
										</g>
									</g>
								</g>
							</g>
						</g>
					</g>
				</g>
			</g>
		</g>
		<g class="st1">
			<rect x="-42.5" y="591.1" class="st19" width="462.8" height="111.8"/>
			<rect x="-42.5" y="450.7" class="st19" width="409.9" height="111.8"/>
			<g class="st20">
				<path class="st0" d="M161.7,506.6v43h-19.1v-43c0-16.9-3.3-24.3-16-24.3c-12.8,0-16.1,7.4-16.1,24.3v43h-19v-86.3h19v5.9
					c4.4-4.1,10-5.9,16.1-5.9C149.1,463.4,161.7,476.9,161.7,506.6z"/>
				<path class="st0" d="M196.9,463.4h19v45c0,16.7,3.3,24,16.1,24c12.6,0,16-7.4,16-24v-45h19.1v45c0,29.5-12.6,43-35.1,43
					c-22.6,0-35.1-13.5-35.1-43V463.4z"/>
				<path class="st0" d="M302.3,498.3v-19h45.7v19H302.3z"/>
			</g>
			<g class="st20">
				<path class="st0" d="M290.1,647v43H271v-43c0-16.9-3.3-24.3-16-24.3c-12.8,0-16.1,7.4-16.1,24.3v43h-19v-86.3h19v5.9
					c4.4-4.1,10-5.9,16.1-5.9C277.5,603.8,290.1,617.3,290.1,647z"/>
				<path class="st0" d="M325.2,603.8h19v45c0,16.7,3.3,24,16.1,24c12.6,0,16-7.4,16-24v-45h19.1v45c0,29.5-12.6,43-35.1,43
					c-22.6,0-35.1-13.5-35.1-43V603.8z"/>
			</g>
		</g>
	</g>
</g>
<g id="レイヤー_3_1_">
	<g>
		<path class="st19" d="M384.9,25c48.5,0,95.5,9.5,139.7,28.2c42.7,18.1,81.1,44,114.1,76.9s58.9,71.4,76.9,114.1
			c18.7,44.2,28.2,91.2,28.2,139.7c0,48.5-9.5,95.4-28.2,139.7c-18.1,42.7-44,81.1-76.9,114.1c-33,33-71.4,58.8-114.1,76.9
			c-44.2,18.7-91.2,28.2-139.7,28.2c-48.5,0-95.5-9.5-139.7-28.2c-42.7-18.1-81.1-43.9-114.1-76.9c-33-33-58.9-71.3-76.9-114.1
			C35.5,479.3,26,432.3,26,383.8c0-48.5,9.5-95.5,28.2-139.7c18.1-42.7,44-81.1,76.9-114c33-32.9,71.4-58.8,114.1-76.9
			C289.4,34.5,336.4,25,384.9,25 M384.9,0C172.9,0,1,171.7,1,383.8s171.9,383.9,383.9,383.9s383.9-171.8,383.9-383.8
			S596.9,0,384.9,0L384.9,0z"/>
	</g>
</g>
</svg>
